<svg id="Layer_1" data-name="Layer 1" xmlns="http://www.w3.org/2000/svg" viewBox="0 0 24 24"><defs><style>.cls-1{fill:none;}</style></defs><title>application_incomplete</title><path class="cls-1" d="M16.13,5.26,16,5H8l-3.94,6.9.21.11c2.46-1,7.69,1.37,9,1s3.44-2.32,4.86-2.47a2.24,2.24,0,0,1,1.09.16l-2.8-4.91A3.91,3.91,0,0,0,16.13,5.26Z"/><path class="cls-1" d="M16.13,5.26,16,5H8l-3.88,6.8C6.59,10.85,12,13.37,13.3,13s3.44-2.32,4.86-2.47a2.24,2.24,0,0,1,1.09.16l-2.8-4.91A3.91,3.91,0,0,0,16.13,5.26Z"/><path d="M21.71,11l-4-7A2,2,0,0,0,16,3H8A2,2,0,0,0,6.29,4l-4,7a2,2,0,0,0,0,2l4,7A2,2,0,0,0,8,21h8a2,2,0,0,0,1.74-1l4-7A2,2,0,0,0,21.71,11Zm-3.55-.48c-1.42.15-3.51,2.1-4.86,2.47s-6.71-2.15-9.19-1.21L8,5h8l.15.27a3.91,3.91,0,0,1,.32.52l2.8,4.91A2.24,2.24,0,0,0,18.16,10.53Z"/></svg>