<svg id="Layer_1" data-name="Layer 1" xmlns="http://www.w3.org/2000/svg" viewBox="0 0 24 24"><title>application_instance</title><path d="M20,2H4A2,2,0,0,0,2,4V20a2,2,0,0,0,2,2H20a2,2,0,0,0,2-2V4A2,2,0,0,0,20,2ZM6.12,10a2,2,0,1,1-2,2A2,2,0,0,1,6.12,10Zm.15,10.07a2,2,0,1,1,2-2A2,2,0,0,1,6.27,20.05Zm5.8,0a2,2,0,1,1,2-2A2,2,0,0,1,12.07,20.05ZM9.91,12a2,2,0,1,1,2,2A2,2,0,0,1,9.91,12Zm2.16-4a2,2,0,1,1,2-2A2,2,0,0,1,12.07,8ZM18,10a2,2,0,1,1-2,2A2,2,0,0,1,18,10Zm.15,10.07a2,2,0,1,1,2-2A2,2,0,0,1,18.1,20.05Z"/></svg>