<svg id="Layer_1" data-name="Layer 1" xmlns="http://www.w3.org/2000/svg" viewBox="0 0 24 24"><defs><style>.cls-1{fill:none;}</style></defs><title>application_state</title><path class="cls-1" d="M6,21H19V3H6Zm6-.5a.5.5,0,1,1,.5-.5A.5.5,0,0,1,12,20.5Zm0-17a.5.5,0,1,1-.5.5A.5.5,0,0,1,12,3.5ZM9.5,6h5V18h-5Z"/><rect class="cls-1" x="10.5" y="7.02" width="3" height="6"/><path d="M14.5,6h-5V18h5Zm-1,7h-3V7h3Z"/><circle cx="12" cy="4" r="0.5"/><circle cx="12" cy="20" r="0.5"/><path d="M19,1H5.94a2,2,0,0,0-2,2V21a2,2,0,0,0,2,2H19a2,2,0,0,0,2-2V3A2,2,0,0,0,19,1Zm0,20H6V3H19Z"/></svg>