<svg id="Layer_1" data-name="Layer 1" xmlns="http://www.w3.org/2000/svg" viewBox="0 0 24 24"><defs><style>.cls-1{fill:none;}</style></defs><title>application_incomplete</title><path d="M21.71,11l-4-7A2,2,0,0,0,16,3H8A2,2,0,0,0,6.29,4l-4,7a2,2,0,0,0,0,2l4,7A2,2,0,0,0,8,21h8a2,2,0,0,0,1.74-1l4-7A2,2,0,0,0,21.71,11ZM16,16.9A4,4,0,0,1,12,13v-.05h0a1.9,1.9,0,0,0,0-.25,4,4,0,0,0-6.7-3L8,5h8l.15.27a3.91,3.91,0,0,1,.32.52l2.73,4.79A3.84,3.84,0,0,1,20,13,4,4,0,0,1,16,16.9Z"/><path class="cls-1" d="M19.92,12.14l-2.58,4.52A4.18,4.18,0,0,1,16,16.9,4,4,0,0,1,12,13v-.05h0a1.9,1.9,0,0,0,0-.25,4,4,0,0,0-6.68-3L8,5h8l.14.26a1.25,1.25,0,0,1,.12.17l3.48,6.1A4.31,4.31,0,0,1,19.92,12.14Z"/><path d="M21.71,11l-4-7A2,2,0,0,0,16,3H8A2,2,0,0,0,6.29,4l-4,7a2,2,0,0,0,0,2l4,7A2,2,0,0,0,8,21h8a2,2,0,0,0,1.74-1l4-7A2,2,0,0,0,21.71,11ZM12,12.65a4,4,0,0,0-6.68-3L8,5h8l.14.26a1.25,1.25,0,0,1,.12.17l3.48,6.1a4.31,4.31,0,0,1,.19.61l-2.58,4.52A4.18,4.18,0,0,1,16,16.9,4,4,0,0,1,12,13v-.05"/></svg>