<svg id="Layer_1" data-name="Layer 1" xmlns="http://www.w3.org/2000/svg" viewBox="0 0 24 24"><title>Artboard 1</title><rect x="1.97" y="9.99" width="2" height="2"/><rect x="3.97" y="7.99" width="2" height="2"/><rect x="5.97" y="9.99" width="2" height="2"/><rect x="7.97" y="7.99" width="2" height="2"/><path d="M2,12v8a2,2,0,0,0,2,2H20a2,2,0,0,0,2-2V12Zm4,4H4V14H6Zm3,4H7V18H9Zm10-4H17V14h2Z"/><rect x="9.97" y="5.99" width="2" height="2"/><rect x="5.97" y="5.99" width="2" height="2"/><rect x="9.97" y="9.99" width="2" height="2"/><rect x="13.97" y="9.99" width="2" height="2"/><rect x="11.97" y="7.99" width="2" height="2"/><rect x="15.97" y="7.99" width="2" height="2"/><rect x="19.97" y="7.99" width="2" height="2"/><rect x="17.97" y="5.99" width="2" height="2"/><rect x="19.97" y="9.99" width="2" height="2"/><path d="M21,1H3A2,2,0,0,0,1,3V21a2,2,0,0,0,2,2H21a2,2,0,0,0,2-2V3A2,2,0,0,0,21,1Zm.53,20.5H2.5V2.5h19Z"/></svg>