<svg id="Layer_1" data-name="Layer 1" xmlns="http://www.w3.org/2000/svg" viewBox="0 0 24 24"><defs><style>.cls-1{fill:#fff;}</style></defs><title>application_instance</title><path d="M20,2H4A2,2,0,0,0,2,4V20a2,2,0,0,0,2,2H20a2,2,0,0,0,2-2V4A2,2,0,0,0,20,2Zm-8,1.91a2,2,0,1,1-2,2A2,2,0,0,1,12.07,3.93ZM6.12,10a2,2,0,1,1-2,2A2,2,0,0,1,6.12,10Zm.15,10.07a2,2,0,1,1,2-2A2,2,0,0,1,6.27,20.05Zm5.8,0a2,2,0,1,1,2-2A2,2,0,0,1,12.07,20.05ZM18,10a2,2,0,1,1-2,2A2,2,0,0,1,18,10Zm.15,10.07a2,2,0,1,1,2-2A2,2,0,0,1,18.1,20.05Z"/><circle class="cls-1" cx="12.07" cy="12" r="2.01"/></svg>