<svg id="Layer_1" data-name="Layer 1" xmlns="http://www.w3.org/2000/svg" viewBox="0 0 24 24"><defs><style>.cls-1{fill:none;}</style></defs><title>application_incomplete</title><rect class="cls-1" x="9.97" y="7.99" width="2" height="2"/><rect class="cls-1" x="5.97" y="7.99" width="2" height="2"/><rect class="cls-1" x="6.97" y="17.99" width="2" height="2"/><rect class="cls-1" x="16.97" y="13.99" width="2" height="2"/><rect class="cls-1" x="3.97" y="13.99" width="2" height="2"/><path class="cls-1" d="M2.5,10H4V8H6v2H8v2H6V10H4v2H20V8H18V6h2V8H21.5V2.5H2.5ZM14,10h2v2H14Zm-4,0h2v2H10Z"/><rect class="cls-1" x="3.97" y="13.99" width="2" height="2"/><rect class="cls-1" x="16.97" y="13.99" width="2" height="2"/><rect class="cls-1" x="6.97" y="17.99" width="2" height="2"/><polygon class="cls-1" points="2.5 9.99 3.97 9.99 3.97 11.99 2.5 11.99 2.5 12 21.5 12 21.5 11.99 19.97 11.99 19.97 9.99 19.97 7.99 21.5 7.99 21.5 2.5 2.5 2.5 2.5 9.99"/><rect class="cls-1" x="16.97" y="13.99" width="2" height="2"/><rect class="cls-1" x="9.97" y="7.99" width="2" height="2"/><rect class="cls-1" x="6.97" y="17.99" width="2" height="2"/><rect class="cls-1" x="5.97" y="7.99" width="2" height="2"/><rect class="cls-1" x="3.97" y="13.99" width="2" height="2"/><polygon class="cls-1" points="2.5 9.99 3.97 9.99 3.97 7.99 5.97 7.99 5.97 5.99 7.97 5.99 7.97 7.99 9.97 7.99 9.97 5.99 11.97 5.99 11.97 7.99 13.97 7.99 13.97 9.99 15.97 9.99 15.97 7.99 17.97 7.99 17.97 5.99 19.97 5.99 19.97 7.99 21.5 7.99 21.5 2.5 2.5 2.5 2.5 9.99"/><polygon class="cls-1" points="17.97 9.99 15.97 9.99 15.97 11.99 13.97 11.99 13.97 9.99 11.97 9.99 11.97 11.99 9.97 11.99 9.97 9.99 7.97 9.99 7.97 11.99 5.97 11.99 5.97 9.99 3.97 9.99 3.97 11.99 2.5 11.99 2.5 12 21.5 12 21.5 11.99 19.97 11.99 19.97 9.99 19.97 7.99 17.97 7.99 17.97 9.99"/><rect x="7.97" y="7.99" width="2" height="2"/><rect x="9.97" y="5.99" width="2" height="2"/><rect x="5.97" y="5.99" width="2" height="2"/><rect x="11.97" y="7.99" width="2" height="2"/><rect x="15.97" y="7.99" width="2" height="2"/><rect x="3.97" y="7.99" width="2" height="2"/><rect x="5.97" y="9.99" width="2" height="2"/><rect x="9.97" y="9.99" width="2" height="2"/><rect x="13.97" y="9.99" width="2" height="2"/><rect x="17.97" y="5.99" width="2" height="2"/><path d="M21,1H3A2,2,0,0,0,1,3V21a2,2,0,0,0,2,2H21a2,2,0,0,0,2-2V3A2,2,0,0,0,21,1ZM6,16H4V14H6Zm3,4H7V18H9Zm10-4H17V14h2ZM21.5,8H20v4H4V10H2.5V2.5h19Z"/></svg>