<svg id="Layer_1" data-name="Layer 1" xmlns="http://www.w3.org/2000/svg" viewBox="0 0 24 24"><title>background _tasks</title><rect x="2.99" y="3" width="12.01" height="1"/><rect x="2.99" y="5.01" width="12.01" height="1"/><rect x="2.99" y="7" width="1.5" height="1"/><rect x="2.99" y="9" width="1.5" height="1"/><path d="M24,19.5V9.5A1.5,1.5,0,0,0,22.5,8H7.5A1.5,1.5,0,0,0,6,9.5v10A1.5,1.5,0,0,0,7.5,21h6v1.5H12V24h6V22.5H16.5V21h6A1.5,1.5,0,0,0,24,19.5Zm-16.5,0V9.5h15v10Z"/><path d="M5,11.5H1.5V1.5h15V7H18V1.5A1.5,1.5,0,0,0,16.5,0H1.5A1.5,1.5,0,0,0,0,1.5v10A1.5,1.5,0,0,0,1.5,13H5Z"/></svg>