<svg id="Layer_1" data-name="Layer 1" xmlns="http://www.w3.org/2000/svg" viewBox="0 0 24 24"><title>bootstrapping</title><rect x="3" y="22" width="18" height="2"/><path d="M12,12c-12,0-9,9-9,9H21S24,12,12,12Z"/><path d="M5,12.05a13.39,13.39,0,0,1,7-1.55,13.39,13.39,0,0,1,7,1.55,6.76,6.76,0,0,1,1.14.85L21,0H3l.88,12.9A6.76,6.76,0,0,1,5,12.05ZM6.5,2a1,1,0,0,1,.38.08L12,4.42l5.12-2.34A.85.85,0,0,1,17.47,2h0a1,1,0,0,1,.41,1.93L14.6,5.5l2.78,1.58a1,1,0,1,1-.76,1.84L12,6.58,7.38,8.92a1,1,0,1,1-.76-1.84L9.4,5.5,6.12,3.92A1,1,0,0,1,6.5,2Z"/></svg>