<svg id="Layer_1" data-name="Layer 1" xmlns="http://www.w3.org/2000/svg" viewBox="0 0 24 24"><defs><style>.cls-1{fill:none;}.cls-2{fill:#231f20;}</style></defs><title>cloud_foundry_space</title><path class="cls-1" d="M12,4a8,8,0,1,0,8,8A8,8,0,0,0,12,4ZM6,13a1,1,0,1,1,1-1A1,1,0,0,1,6,13Zm3,3a1,1,0,1,1,1-1A1,1,0,0,1,9,16Zm0-3a1,1,0,1,1,1-1A1,1,0,0,1,9,13Zm0-3a1,1,0,1,1,1-1A1,1,0,0,1,9,10Zm3,9a1,1,0,1,1,1-1A1,1,0,0,1,12,19Zm0-3a1,1,0,1,1,1-1A1,1,0,0,1,12,16Zm0-3a1,1,0,1,1,1-1A1,1,0,0,1,12,13Zm0-3a1,1,0,1,1,1-1A1,1,0,0,1,12,10Zm0-3a1,1,0,1,1,1-1A1,1,0,0,1,12,7Zm3,9a1,1,0,1,1,1-1A1,1,0,0,1,15,16Zm0-3a1,1,0,1,1,1-1A1,1,0,0,1,15,13Zm0-3a1,1,0,0,1,0-2,1,1,0,1,1,0,2Zm3,3a1,1,0,1,1,1-1A1,1,0,0,1,18,13Z"/><path class="cls-2" d="M12,2A10,10,0,1,0,22,12,10,10,0,0,0,12,2Zm0,18a8,8,0,1,1,8-8A8,8,0,0,1,12,20Z"/><circle class="cls-2" cx="8.99" cy="8.99" r="1"/><circle class="cls-2" cx="12" cy="8.99" r="1"/><circle class="cls-2" cx="12" cy="5.99" r="1"/><circle class="cls-2" cx="15.01" cy="8.99" r="1"/><circle class="cls-2" cx="8.99" cy="12" r="1"/><circle class="cls-2" cx="5.99" cy="12" r="1"/><circle class="cls-2" cx="12" cy="12" r="1"/><circle class="cls-2" cx="15.01" cy="12" r="1"/><circle class="cls-2" cx="18.01" cy="12" r="1"/><circle class="cls-2" cx="8.99" cy="15.01" r="1"/><circle class="cls-2" cx="12" cy="15.01" r="1"/><circle class="cls-2" cx="12" cy="18.01" r="1"/><circle class="cls-2" cx="15.01" cy="15.01" r="1"/></svg>