<svg id="Layer_1" data-name="Layer 1" xmlns="http://www.w3.org/2000/svg" viewBox="0 0 24 24"><defs><style>.cls-1{fill:#231f20;}</style></defs><title>cloud_foundry_space</title><path class="cls-1" d="M12,2A10,10,0,1,0,22,12,10,10,0,0,0,12,2Zm0,18a8,8,0,1,1,8-8A8,8,0,0,1,12,20Z"/><circle class="cls-1" cx="8.99" cy="8.99" r="1"/><circle class="cls-1" cx="12" cy="8.99" r="1"/><circle class="cls-1" cx="12" cy="5.99" r="1"/><circle class="cls-1" cx="15.01" cy="8.99" r="1"/><circle class="cls-1" cx="8.99" cy="12" r="1"/><circle class="cls-1" cx="5.99" cy="12" r="1"/><circle class="cls-1" cx="12" cy="12" r="1"/><circle class="cls-1" cx="15.01" cy="12" r="1"/><circle class="cls-1" cx="18.01" cy="12" r="1"/><circle class="cls-1" cx="8.99" cy="15.01" r="1"/><circle class="cls-1" cx="12" cy="15.01" r="1"/><circle class="cls-1" cx="12" cy="18.01" r="1"/><circle class="cls-1" cx="15.01" cy="15.01" r="1"/></svg>