<svg id="Layer_1" data-name="Layer 1" xmlns="http://www.w3.org/2000/svg" viewBox="0 0 24 24"><title>configuration_file</title><path d="M10.51,14.14a1.35,1.35,0,1,0,1.35,1.35A1.34,1.34,0,0,0,10.51,14.14Z"/><path d="M14,2H6A2,2,0,0,0,4,4V20a2,2,0,0,0,2,2H18a2,2,0,0,0,2-2V8Zm.86,15L14,18.52a.23.23,0,0,1-.28.1l-1.12-.45a3.2,3.2,0,0,1-.76.44l-.17,1.19a.22.22,0,0,1-.22.19H9.61a.23.23,0,0,1-.23-.19l-.17-1.19a2.74,2.74,0,0,1-.76-.44l-1.12.45a.23.23,0,0,1-.28-.1L6.15,17a.23.23,0,0,1,.06-.29l1-.75a3.24,3.24,0,0,1,0-.88l-1-.75A.22.22,0,0,1,6.15,14l.9-1.56a.23.23,0,0,1,.28-.1l1.12.45a3.59,3.59,0,0,1,.76-.44l.17-1.19A.24.24,0,0,1,9.61,11h1.8a.21.21,0,0,1,.21.19l.17,1.19a3.08,3.08,0,0,1,.77.44l1.12-.45a.21.21,0,0,1,.27.1l.9,1.56a.22.22,0,0,1,0,.28l-1,.75a3.15,3.15,0,0,1,0,.44c0,.15,0,.3,0,.44l1,.75A.23.23,0,0,1,14.86,17ZM13,9V3.51L18.5,9Z"/></svg>