<svg id="Layer_1" data-name="Layer 1" xmlns="http://www.w3.org/2000/svg" viewBox="0 0 24 24"><title>csv_file</title><path d="M16,20.05H4V4h7V9h5v1H18V8L16,6,14,4,12,2H4A2,2,0,0,0,2,4V20a2,2,0,0,0,2,2H18V20Z"/><polygon points="21.26 18.01 23.01 12.01 21.51 12.01 20.51 15.44 19.51 12.01 18.01 12.01 19.76 18.01 21.26 18.01"/><path d="M10,12H7a1,1,0,0,0-1,1v4a1,1,0,0,0,1,1h3a1,1,0,0,0,1-1V16H9.51v.5h-2v-3h2V14H11V13A1,1,0,0,0,10,12Z"/><path d="M17,13.52V12H13a1,1,0,0,0-1,1v1.76a1,1,0,0,0,1,1h2.51v.74H12V18h4a1,1,0,0,0,1-1V15.26a1,1,0,0,0-1-1H13.5v-.74Z"/></svg>