<svg id="Layer_1" data-name="Layer 1" xmlns="http://www.w3.org/2000/svg" viewBox="0 0 24 24"><title>miscellaneous</title><path d="M18,13H6L5,20.89A1,1,0,0,0,6,22H18a1,1,0,0,0,1-1.13Z"/><rect x="3.01" y="10.01" width="18" height="2"/><path d="M14.72,5.82a6.16,6.16,0,0,0,.29-2C15,2.28,14.56,1,14,1s-1,1.27-1,2.84a6.71,6.71,0,0,0,.12,1.31A5.2,5.2,0,0,0,12,5a5.12,5.12,0,0,0-1.12.14A7.49,7.49,0,0,0,11,3.85C11,2.28,10.56,1,10,1S9,2.28,9,3.85a6.48,6.48,0,0,0,.28,2A5.11,5.11,0,0,0,7,9H9a1,1,0,0,1,2,0h2a1,1,0,0,1,2,0h2A5.09,5.09,0,0,0,14.72,5.82Z"/></svg>