<?xml version="1.0" encoding="utf-8"?>
<!-- Generator: Adobe Illustrator 22.0.1, SVG Export Plug-In . SVG Version: 6.00 Build 0)  -->
<svg version="1.1" id="Layer_2" xmlns="http://www.w3.org/2000/svg" xmlns:xlink="http://www.w3.org/1999/xlink" x="0px" y="0px"
	 viewBox="0 0 24 24" style="enable-background:new 0 0 24 24;" xml:space="preserve">
<circle cx="4" cy="4" r="3"/>
<g>
	<path d="M4,15c-1.7,0-3-1.3-3-3s1.3-3,3-3s3,1.3,3,3S5.7,15,4,15z M4,10c-1.1,0-2,0.9-2,2c0,1.1,0.9,2,2,2s2-0.9,2-2
		C6,10.9,5.1,10,4,10z"/>
</g>
<g>
	<path d="M12,23c-1.7,0-3-1.3-3-3s1.3-3,3-3s3,1.3,3,3S13.7,23,12,23z M12,18c-1.1,0-2,0.9-2,2c0,1.1,0.9,2,2,2s2-0.9,2-2
		C14,18.9,13.1,18,12,18z"/>
</g>
<g>
	<path d="M20,7c-1.7,0-3-1.3-3-3s1.3-3,3-3s3,1.3,3,3S21.7,7,20,7z M20,2c-1.1,0-2,0.9-2,2c0,1.1,0.9,2,2,2s2-0.9,2-2
		C22,2.9,21.1,2,20,2z"/>
</g>
<circle cx="4" cy="20" r="3"/>
<circle cx="12" cy="4" r="3"/>
<circle cx="12" cy="12" r="3"/>
<circle cx="20" cy="12" r="3"/>
<circle cx="20" cy="20" r="3"/>
</svg>
