<svg id="Layer_2" data-name="Layer 2" xmlns="http://www.w3.org/2000/svg" xmlns:xlink="http://www.w3.org/1999/xlink" viewBox="0 0 24 24"><defs><style>.cls-1,.cls-3,.cls-4,.cls-7,.cls-9{fill:none;}.cls-2{clip-path:url(#clip-path);}.cls-3{stroke:#e9d0f7;stroke-miterlimit:10;}.cls-3,.cls-7,.cls-9{stroke-width:0.02px;}.cls-4,.cls-7,.cls-9{stroke:#000;}.cls-4{stroke-width:0.01px;}.cls-5{opacity:0.52;}.cls-6{clip-path:url(#clip-path-27);}.cls-8{clip-path:url(#clip-path-28);}.cls-9{stroke-linecap:round;stroke-linejoin:round;}.cls-10{opacity:0.39;}.cls-11{clip-path:url(#clip-path-29);}</style><clipPath id="clip-path"><rect class="cls-1" width="24.02" height="24.02"/></clipPath><clipPath id="clip-path-27"><rect class="cls-1" x="2" y="2" width="20.02" height="20.02"/></clipPath><clipPath id="clip-path-28"><rect class="cls-1" x="7" y="7" width="10.02" height="10.02"/></clipPath><clipPath id="clip-path-29"><rect class="cls-1" width="24.01" height="24.01"/></clipPath></defs><title>network_file_system</title><g id="material-icon-grid-20-24-lines"><g class="cls-2"><g class="cls-2"><g class="cls-2"><rect class="cls-3" x="0.01" y="0.01" width="1" height="1"/></g><rect class="cls-3" x="1.01" y="0.01" width="1" height="1"/><rect class="cls-3" x="2.01" y="0.01" width="1" height="1"/><rect class="cls-3" x="3.01" y="0.01" width="1" height="1"/><rect class="cls-3" x="4.01" y="0.01" width="1" height="1"/><rect class="cls-3" x="5.01" y="0.01" width="1" height="1"/><rect class="cls-3" x="6.01" y="0.01" width="1" height="1"/><rect class="cls-3" x="7.01" y="0.01" width="1" height="1"/><rect class="cls-3" x="8.01" y="0.01" width="1" height="1"/><rect class="cls-3" x="9.01" y="0.01" width="1" height="1"/><rect class="cls-3" x="10.01" y="0.01" width="1" height="1"/><rect class="cls-3" x="11.01" y="0.01" width="1" height="1"/><rect class="cls-3" x="12.01" y="0.01" width="1" height="1"/><rect class="cls-3" x="13.01" y="0.01" width="1" height="1"/><rect class="cls-3" x="14.01" y="0.01" width="1" height="1"/><rect class="cls-3" x="15.01" y="0.01" width="1" height="1"/><rect class="cls-3" x="16.01" y="0.01" width="1" height="1"/><rect class="cls-3" x="17.01" y="0.01" width="1" height="1"/><rect class="cls-3" x="18.01" y="0.01" width="1" height="1"/><rect class="cls-3" x="19.01" y="0.01" width="1" height="1"/><rect class="cls-3" x="20.01" y="0.01" width="1" height="1"/><rect class="cls-3" x="21.01" y="0.01" width="1" height="1"/><rect class="cls-3" x="22.01" y="0.01" width="1" height="1"/><rect class="cls-3" x="23.01" y="0.01" width="1" height="1"/><g class="cls-2"><rect class="cls-3" x="0.01" y="1.01" width="1" height="1"/></g><rect class="cls-3" x="1.01" y="1.01" width="1" height="1"/><rect class="cls-3" x="2.01" y="1.01" width="1" height="1"/><rect class="cls-3" x="3.01" y="1.01" width="1" height="1"/><rect class="cls-3" x="4.01" y="1.01" width="1" height="1"/><rect class="cls-3" x="5.01" y="1.01" width="1" height="1"/><rect class="cls-3" x="6.01" y="1.01" width="1" height="1"/><rect class="cls-3" x="7.01" y="1.01" width="1" height="1"/><rect class="cls-3" x="8.01" y="1.01" width="1" height="1"/><rect class="cls-3" x="9.01" y="1.01" width="1" height="1"/><rect class="cls-3" x="10.01" y="1.01" width="1" height="1"/><rect class="cls-3" x="11.01" y="1.01" width="1" height="1"/><rect class="cls-3" x="12.01" y="1.01" width="1" height="1"/><rect class="cls-3" x="13.01" y="1.01" width="1" height="1"/><rect class="cls-3" x="14.01" y="1.01" width="1" height="1"/><rect class="cls-3" x="15.01" y="1.01" width="1" height="1"/><rect class="cls-3" x="16.01" y="1.01" width="1" height="1"/><rect class="cls-3" x="17.01" y="1.01" width="1" height="1"/><rect class="cls-3" x="18.01" y="1.01" width="1" height="1"/><rect class="cls-3" x="19.01" y="1.01" width="1" height="1"/><rect class="cls-3" x="20.01" y="1.01" width="1" height="1"/><rect class="cls-3" x="21.01" y="1.01" width="1" height="1"/><rect class="cls-3" x="22.01" y="1.01" width="1" height="1"/><rect class="cls-3" x="23.01" y="1.01" width="1" height="1"/><g class="cls-2"><rect class="cls-3" x="0.01" y="2.01" width="1" height="1"/></g><rect class="cls-3" x="1.01" y="2.01" width="1" height="1"/><rect class="cls-3" x="2.01" y="2.01" width="1" height="1"/><rect class="cls-3" x="3.01" y="2.01" width="1" height="1"/><rect class="cls-3" x="4.01" y="2.01" width="1" height="1"/><rect class="cls-3" x="5.01" y="2.01" width="1" height="1"/><rect class="cls-3" x="6.01" y="2.01" width="1" height="1"/><rect class="cls-3" x="7.01" y="2.01" width="1" height="1"/><rect class="cls-3" x="8.01" y="2.01" width="1" height="1"/><rect class="cls-3" x="9.01" y="2.01" width="1" height="1"/><rect class="cls-3" x="10.01" y="2.01" width="1" height="1"/><rect class="cls-3" x="11.01" y="2.01" width="1" height="1"/><rect class="cls-3" x="12.01" y="2.01" width="1" height="1"/><rect class="cls-3" x="13.01" y="2.01" width="1" height="1"/><rect class="cls-3" x="14.01" y="2.01" width="1" height="1"/><rect class="cls-3" x="15.01" y="2.01" width="1" height="1"/><rect class="cls-3" x="16.01" y="2.01" width="1" height="1"/><rect class="cls-3" x="17.01" y="2.01" width="1" height="1"/><rect class="cls-3" x="18.01" y="2.01" width="1" height="1"/><rect class="cls-3" x="19.01" y="2.01" width="1" height="1"/><rect class="cls-3" x="20.01" y="2.01" width="1" height="1"/><rect class="cls-3" x="21.01" y="2.01" width="1" height="1"/><rect class="cls-3" x="22.01" y="2.01" width="1" height="1"/><rect class="cls-3" x="23.01" y="2.01" width="1" height="1"/><g class="cls-2"><rect class="cls-3" x="0.01" y="3.01" width="1" height="1"/></g><rect class="cls-3" x="1.01" y="3.01" width="1" height="1"/><rect class="cls-3" x="2.01" y="3.01" width="1" height="1"/><rect class="cls-3" x="3.01" y="3.01" width="1" height="1"/><rect class="cls-3" x="4.01" y="3.01" width="1" height="1"/><rect class="cls-3" x="5.01" y="3.01" width="1" height="1"/><rect class="cls-3" x="6.01" y="3.01" width="1" height="1"/><rect class="cls-3" x="7.01" y="3.01" width="1" height="1"/><rect class="cls-3" x="8.01" y="3.01" width="1" height="1"/><rect class="cls-3" x="9.01" y="3.01" width="1" height="1"/><rect class="cls-3" x="10.01" y="3.01" width="1" height="1"/><rect class="cls-3" x="11.01" y="3.01" width="1" height="1"/><rect class="cls-3" x="12.01" y="3.01" width="1" height="1"/><rect class="cls-3" x="13.01" y="3.01" width="1" height="1"/><rect class="cls-3" x="14.01" y="3.01" width="1" height="1"/><rect class="cls-3" x="15.01" y="3.01" width="1" height="1"/><rect class="cls-3" x="16.01" y="3.01" width="1" height="1"/><rect class="cls-3" x="17.01" y="3.01" width="1" height="1"/><rect class="cls-3" x="18.01" y="3.01" width="1" height="1"/><rect class="cls-3" x="19.01" y="3.01" width="1" height="1"/><rect class="cls-3" x="20.01" y="3.01" width="1" height="1"/><rect class="cls-3" x="21.01" y="3.01" width="1" height="1"/><rect class="cls-3" x="22.01" y="3.01" width="1" height="1"/><rect class="cls-3" x="23.01" y="3.01" width="1" height="1"/><g class="cls-2"><rect class="cls-3" x="0.01" y="4.01" width="1" height="1"/></g><rect class="cls-3" x="1.01" y="4.01" width="1" height="1"/><rect class="cls-3" x="2.01" y="4.01" width="1" height="1"/><rect class="cls-3" x="3.01" y="4.01" width="1" height="1"/><rect class="cls-3" x="4.01" y="4.01" width="1" height="1"/><rect class="cls-3" x="5.01" y="4.01" width="1" height="1"/><rect class="cls-3" x="6.01" y="4.01" width="1" height="1"/><rect class="cls-3" x="7.01" y="4.01" width="1" height="1"/><rect class="cls-3" x="8.01" y="4.01" width="1" height="1"/><rect class="cls-3" x="9.01" y="4.01" width="1" height="1"/><rect class="cls-3" x="10.01" y="4.01" width="1" height="1"/><rect class="cls-3" x="11.01" y="4.01" width="1" height="1"/><rect class="cls-3" x="12.01" y="4.01" width="1" height="1"/><rect class="cls-3" x="13.01" y="4.01" width="1" height="1"/><rect class="cls-3" x="14.01" y="4.01" width="1" height="1"/><rect class="cls-3" x="15.01" y="4.01" width="1" height="1"/><rect class="cls-3" x="16.01" y="4.01" width="1" height="1"/><rect class="cls-3" x="17.01" y="4.01" width="1" height="1"/><rect class="cls-3" x="18.01" y="4.01" width="1" height="1"/><rect class="cls-3" x="19.01" y="4.01" width="1" height="1"/><rect class="cls-3" x="20.01" y="4.01" width="1" height="1"/><rect class="cls-3" x="21.01" y="4.01" width="1" height="1"/><rect class="cls-3" x="22.01" y="4.01" width="1" height="1"/><rect class="cls-3" x="23.01" y="4.01" width="1" height="1"/><g class="cls-2"><rect class="cls-3" x="0.01" y="5.01" width="1" height="1"/></g><rect class="cls-3" x="1.01" y="5.01" width="1" height="1"/><rect class="cls-3" x="2.01" y="5.01" width="1" height="1"/><rect class="cls-3" x="3.01" y="5.01" width="1" height="1"/><rect class="cls-3" x="4.01" y="5.01" width="1" height="1"/><rect class="cls-3" x="5.01" y="5.01" width="1" height="1"/><rect class="cls-3" x="6.01" y="5.01" width="1" height="1"/><rect class="cls-3" x="7.01" y="5.01" width="1" height="1"/><rect class="cls-3" x="8.01" y="5.01" width="1" height="1"/><rect class="cls-3" x="9.01" y="5.01" width="1" height="1"/><rect class="cls-3" x="10.01" y="5.01" width="1" height="1"/><rect class="cls-3" x="11.01" y="5.01" width="1" height="1"/><rect class="cls-3" x="12.01" y="5.01" width="1" height="1"/><rect class="cls-3" x="13.01" y="5.01" width="1" height="1"/><rect class="cls-3" x="14.01" y="5.01" width="1" height="1"/><rect class="cls-3" x="15.01" y="5.01" width="1" height="1"/><rect class="cls-3" x="16.01" y="5.01" width="1" height="1"/><rect class="cls-3" x="17.01" y="5.01" width="1" height="1"/><rect class="cls-3" x="18.01" y="5.01" width="1" height="1"/><rect class="cls-3" x="19.01" y="5.01" width="1" height="1"/><rect class="cls-3" x="20.01" y="5.01" width="1" height="1"/><rect class="cls-3" x="21.01" y="5.01" width="1" height="1"/><rect class="cls-3" x="22.01" y="5.01" width="1" height="1"/><rect class="cls-3" x="23.01" y="5.01" width="1" height="1"/><g class="cls-2"><rect class="cls-3" x="0.01" y="6.01" width="1" height="1"/></g><rect class="cls-3" x="1.01" y="6.01" width="1" height="1"/><rect class="cls-3" x="2.01" y="6.01" width="1" height="1"/><rect class="cls-3" x="3.01" y="6.01" width="1" height="1"/><rect class="cls-3" x="4.01" y="6.01" width="1" height="1"/><rect class="cls-3" x="5.01" y="6.01" width="1" height="1"/><rect class="cls-3" x="6.01" y="6.01" width="1" height="1"/><rect class="cls-3" x="7.01" y="6.01" width="1" height="1"/><rect class="cls-3" x="8.01" y="6.01" width="1" height="1"/><rect class="cls-3" x="9.01" y="6.01" width="1" height="1"/><rect class="cls-3" x="10.01" y="6.01" width="1" height="1"/><rect class="cls-3" x="11.01" y="6.01" width="1" height="1"/><rect class="cls-3" x="12.01" y="6.01" width="1" height="1"/><rect class="cls-3" x="13.01" y="6.01" width="1" height="1"/><rect class="cls-3" x="14.01" y="6.01" width="1" height="1"/><rect class="cls-3" x="15.01" y="6.01" width="1" height="1"/><rect class="cls-3" x="16.01" y="6.01" width="1" height="1"/><rect class="cls-3" x="17.01" y="6.01" width="1" height="1"/><rect class="cls-3" x="18.01" y="6.01" width="1" height="1"/><rect class="cls-3" x="19.01" y="6.01" width="1" height="1"/><rect class="cls-3" x="20.01" y="6.01" width="1" height="1"/><rect class="cls-3" x="21.01" y="6.01" width="1" height="1"/><rect class="cls-3" x="22.01" y="6.01" width="1" height="1"/><rect class="cls-3" x="23.01" y="6.01" width="1" height="1"/><g class="cls-2"><rect class="cls-3" x="0.01" y="7.01" width="1" height="1"/></g><rect class="cls-3" x="1.01" y="7.01" width="1" height="1"/><rect class="cls-3" x="2.01" y="7.01" width="1" height="1"/><rect class="cls-3" x="3.01" y="7.01" width="1" height="1"/><rect class="cls-3" x="4.01" y="7.01" width="1" height="1"/><rect class="cls-3" x="5.01" y="7.01" width="1" height="1"/><rect class="cls-3" x="6.01" y="7.01" width="1" height="1"/><rect class="cls-3" x="7.01" y="7.01" width="1" height="1"/><rect class="cls-3" x="8.01" y="7.01" width="1" height="1"/><rect class="cls-3" x="9.01" y="7.01" width="1" height="1"/><rect class="cls-3" x="10.01" y="7.01" width="1" height="1"/><rect class="cls-3" x="11.01" y="7.01" width="1" height="1"/><rect class="cls-3" x="12.01" y="7.01" width="1" height="1"/><rect class="cls-3" x="13.01" y="7.01" width="1" height="1"/><rect class="cls-3" x="14.01" y="7.01" width="1" height="1"/><rect class="cls-3" x="15.01" y="7.01" width="1" height="1"/><rect class="cls-3" x="16.01" y="7.01" width="1" height="1"/><rect class="cls-3" x="17.01" y="7.01" width="1" height="1"/><rect class="cls-3" x="18.01" y="7.01" width="1" height="1"/><rect class="cls-3" x="19.01" y="7.01" width="1" height="1"/><rect class="cls-3" x="20.01" y="7.01" width="1" height="1"/><rect class="cls-3" x="21.01" y="7.01" width="1" height="1"/><rect class="cls-3" x="22.01" y="7.01" width="1" height="1"/><rect class="cls-3" x="23.01" y="7.01" width="1" height="1"/><g class="cls-2"><rect class="cls-3" x="0.01" y="8.01" width="1" height="1"/></g><rect class="cls-3" x="1.01" y="8.01" width="1" height="1"/><rect class="cls-3" x="2.01" y="8.01" width="1" height="1"/><rect class="cls-3" x="3.01" y="8.01" width="1" height="1"/><rect class="cls-3" x="4.01" y="8.01" width="1" height="1"/><rect class="cls-3" x="5.01" y="8.01" width="1" height="1"/><rect class="cls-3" x="6.01" y="8.01" width="1" height="1"/><rect class="cls-3" x="7.01" y="8.01" width="1" height="1"/><rect class="cls-3" x="8.01" y="8.01" width="1" height="1"/><rect class="cls-3" x="9.01" y="8.01" width="1" height="1"/><rect class="cls-3" x="10.01" y="8.01" width="1" height="1"/><rect class="cls-3" x="11.01" y="8.01" width="1" height="1"/><rect class="cls-3" x="12.01" y="8.01" width="1" height="1"/><rect class="cls-3" x="13.01" y="8.01" width="1" height="1"/><rect class="cls-3" x="14.01" y="8.01" width="1" height="1"/><rect class="cls-3" x="15.01" y="8.01" width="1" height="1"/><rect class="cls-3" x="16.01" y="8.01" width="1" height="1"/><rect class="cls-3" x="17.01" y="8.01" width="1" height="1"/><rect class="cls-3" x="18.01" y="8.01" width="1" height="1"/><rect class="cls-3" x="19.01" y="8.01" width="1" height="1"/><rect class="cls-3" x="20.01" y="8.01" width="1" height="1"/><rect class="cls-3" x="21.01" y="8.01" width="1" height="1"/><rect class="cls-3" x="22.01" y="8.01" width="1" height="1"/><rect class="cls-3" x="23.01" y="8.01" width="1" height="1"/><g class="cls-2"><rect class="cls-3" x="0.01" y="9.01" width="1" height="1"/></g><rect class="cls-3" x="1.01" y="9.01" width="1" height="1"/><rect class="cls-3" x="2.01" y="9.01" width="1" height="1"/><rect class="cls-3" x="3.01" y="9.01" width="1" height="1"/><rect class="cls-3" x="4.01" y="9.01" width="1" height="1"/><rect class="cls-3" x="5.01" y="9.01" width="1" height="1"/><rect class="cls-3" x="6.01" y="9.01" width="1" height="1"/><rect class="cls-3" x="7.01" y="9.01" width="1" height="1"/><rect class="cls-3" x="8.01" y="9.01" width="1" height="1"/><rect class="cls-3" x="9.01" y="9.01" width="1" height="1"/><rect class="cls-3" x="10.01" y="9.01" width="1" height="1"/><rect class="cls-3" x="11.01" y="9.01" width="1" height="1"/><rect class="cls-3" x="12.01" y="9.01" width="1" height="1"/><rect class="cls-3" x="13.01" y="9.01" width="1" height="1"/><rect class="cls-3" x="14.01" y="9.01" width="1" height="1"/><rect class="cls-3" x="15.01" y="9.01" width="1" height="1"/><rect class="cls-3" x="16.01" y="9.01" width="1" height="1"/><rect class="cls-3" x="17.01" y="9.01" width="1" height="1"/><rect class="cls-3" x="18.01" y="9.01" width="1" height="1"/><rect class="cls-3" x="19.01" y="9.01" width="1" height="1"/><rect class="cls-3" x="20.01" y="9.01" width="1" height="1"/><rect class="cls-3" x="21.01" y="9.01" width="1" height="1"/><rect class="cls-3" x="22.01" y="9.01" width="1" height="1"/><rect class="cls-3" x="23.01" y="9.01" width="1" height="1"/><g class="cls-2"><rect class="cls-3" x="0.01" y="10.01" width="1" height="1"/></g><rect class="cls-3" x="1.01" y="10.01" width="1" height="1"/><rect class="cls-3" x="2.01" y="10.01" width="1" height="1"/><rect class="cls-3" x="3.01" y="10.01" width="1" height="1"/><rect class="cls-3" x="4.01" y="10.01" width="1" height="1"/><rect class="cls-3" x="5.01" y="10.01" width="1" height="1"/><rect class="cls-3" x="6.01" y="10.01" width="1" height="1"/><rect class="cls-3" x="7.01" y="10.01" width="1" height="1"/><rect class="cls-3" x="8.01" y="10.01" width="1" height="1"/><rect class="cls-3" x="9.01" y="10.01" width="1" height="1"/><rect class="cls-3" x="10.01" y="10.01" width="1" height="1"/><rect class="cls-3" x="11.01" y="10.01" width="1" height="1"/><rect class="cls-3" x="12.01" y="10.01" width="1" height="1"/><rect class="cls-3" x="13.01" y="10.01" width="1" height="1"/><rect class="cls-3" x="14.01" y="10.01" width="1" height="1"/><rect class="cls-3" x="15.01" y="10.01" width="1" height="1"/><rect class="cls-3" x="16.01" y="10.01" width="1" height="1"/><rect class="cls-3" x="17.01" y="10.01" width="1" height="1"/><rect class="cls-3" x="18.01" y="10.01" width="1" height="1"/><rect class="cls-3" x="19.01" y="10.01" width="1" height="1"/><rect class="cls-3" x="20.01" y="10.01" width="1" height="1"/><rect class="cls-3" x="21.01" y="10.01" width="1" height="1"/><rect class="cls-3" x="22.01" y="10.01" width="1" height="1"/><rect class="cls-3" x="23.01" y="10.01" width="1" height="1"/><g class="cls-2"><rect class="cls-3" x="0.01" y="11.01" width="1" height="1"/></g><rect class="cls-3" x="1.01" y="11.01" width="1" height="1"/><rect class="cls-3" x="2.01" y="11.01" width="1" height="1"/><rect class="cls-3" x="3.01" y="11.01" width="1" height="1"/><rect class="cls-3" x="4.01" y="11.01" width="1" height="1"/><rect class="cls-3" x="5.01" y="11.01" width="1" height="1"/><rect class="cls-3" x="6.01" y="11.01" width="1" height="1"/><rect class="cls-3" x="7.01" y="11.01" width="1" height="1"/><rect class="cls-3" x="8.01" y="11.01" width="1" height="1"/><rect class="cls-3" x="9.01" y="11.01" width="1" height="1"/><rect class="cls-3" x="10.01" y="11.01" width="1" height="1"/><rect class="cls-3" x="11.01" y="11.01" width="1" height="1"/><rect class="cls-3" x="12.01" y="11.01" width="1" height="1"/><rect class="cls-3" x="13.01" y="11.01" width="1" height="1"/><rect class="cls-3" x="14.01" y="11.01" width="1" height="1"/><rect class="cls-3" x="15.01" y="11.01" width="1" height="1"/><rect class="cls-3" x="16.01" y="11.01" width="1" height="1"/><rect class="cls-3" x="17.01" y="11.01" width="1" height="1"/><rect class="cls-3" x="18.01" y="11.01" width="1" height="1"/><rect class="cls-3" x="19.01" y="11.01" width="1" height="1"/><rect class="cls-3" x="20.01" y="11.01" width="1" height="1"/><rect class="cls-3" x="21.01" y="11.01" width="1" height="1"/><rect class="cls-3" x="22.01" y="11.01" width="1" height="1"/><rect class="cls-3" x="23.01" y="11.01" width="1" height="1"/><g class="cls-2"><rect class="cls-3" x="0.01" y="12.01" width="1" height="1"/></g><rect class="cls-3" x="1.01" y="12.01" width="1" height="1"/><rect class="cls-3" x="2.01" y="12.01" width="1" height="1"/><rect class="cls-3" x="3.01" y="12.01" width="1" height="1"/><rect class="cls-3" x="4.01" y="12.01" width="1" height="1"/><rect class="cls-3" x="5.01" y="12.01" width="1" height="1"/><rect class="cls-3" x="6.01" y="12.01" width="1" height="1"/><rect class="cls-3" x="7.01" y="12.01" width="1" height="1"/><rect class="cls-3" x="8.01" y="12.01" width="1" height="1"/><rect class="cls-3" x="9.01" y="12.01" width="1" height="1"/><rect class="cls-3" x="10.01" y="12.01" width="1" height="1"/><rect class="cls-3" x="11.01" y="12.01" width="1" height="1"/><rect class="cls-3" x="12.01" y="12.01" width="1" height="1"/><rect class="cls-3" x="13.01" y="12.01" width="1" height="1"/><rect class="cls-3" x="14.01" y="12.01" width="1" height="1"/><rect class="cls-3" x="15.01" y="12.01" width="1" height="1"/><rect class="cls-3" x="16.01" y="12.01" width="1" height="1"/><rect class="cls-3" x="17.01" y="12.01" width="1" height="1"/><rect class="cls-3" x="18.01" y="12.01" width="1" height="1"/><rect class="cls-3" x="19.01" y="12.01" width="1" height="1"/><rect class="cls-3" x="20.01" y="12.01" width="1" height="1"/><rect class="cls-3" x="21.01" y="12.01" width="1" height="1"/><rect class="cls-3" x="22.01" y="12.01" width="1" height="1"/><rect class="cls-3" x="23.01" y="12.01" width="1" height="1"/><g class="cls-2"><rect class="cls-3" x="0.01" y="13.01" width="1" height="1"/></g><rect class="cls-3" x="1.01" y="13.01" width="1" height="1"/><rect class="cls-3" x="2.01" y="13.01" width="1" height="1"/><rect class="cls-3" x="3.01" y="13.01" width="1" height="1"/><rect class="cls-3" x="4.01" y="13.01" width="1" height="1"/><rect class="cls-3" x="5.01" y="13.01" width="1" height="1"/><rect class="cls-3" x="6.01" y="13.01" width="1" height="1"/><rect class="cls-3" x="7.01" y="13.01" width="1" height="1"/><rect class="cls-3" x="8.01" y="13.01" width="1" height="1"/><rect class="cls-3" x="9.01" y="13.01" width="1" height="1"/><rect class="cls-3" x="10.01" y="13.01" width="1" height="1"/><rect class="cls-3" x="11.01" y="13.01" width="1" height="1"/><rect class="cls-3" x="12.01" y="13.01" width="1" height="1"/><rect class="cls-3" x="13.01" y="13.01" width="1" height="1"/><rect class="cls-3" x="14.01" y="13.01" width="1" height="1"/><rect class="cls-3" x="15.01" y="13.01" width="1" height="1"/><rect class="cls-3" x="16.01" y="13.01" width="1" height="1"/><rect class="cls-3" x="17.01" y="13.01" width="1" height="1"/><rect class="cls-3" x="18.01" y="13.01" width="1" height="1"/><rect class="cls-3" x="19.01" y="13.01" width="1" height="1"/><rect class="cls-3" x="20.01" y="13.01" width="1" height="1"/><rect class="cls-3" x="21.01" y="13.01" width="1" height="1"/><rect class="cls-3" x="22.01" y="13.01" width="1" height="1"/><rect class="cls-3" x="23.01" y="13.01" width="1" height="1"/><g class="cls-2"><rect class="cls-3" x="0.01" y="14.01" width="1" height="1"/></g><rect class="cls-3" x="1.01" y="14.01" width="1" height="1"/><rect class="cls-3" x="2.01" y="14.01" width="1" height="1"/><rect class="cls-3" x="3.01" y="14.01" width="1" height="1"/><rect class="cls-3" x="4.01" y="14.01" width="1" height="1"/><rect class="cls-3" x="5.01" y="14.01" width="1" height="1"/><rect class="cls-3" x="6.01" y="14.01" width="1" height="1"/><rect class="cls-3" x="7.01" y="14.01" width="1" height="1"/><rect class="cls-3" x="8.01" y="14.01" width="1" height="1"/><rect class="cls-3" x="9.01" y="14.01" width="1" height="1"/><rect class="cls-3" x="10.01" y="14.01" width="1" height="1"/><rect class="cls-3" x="11.01" y="14.01" width="1" height="1"/><rect class="cls-3" x="12.01" y="14.01" width="1" height="1"/><rect class="cls-3" x="13.01" y="14.01" width="1" height="1"/><rect class="cls-3" x="14.01" y="14.01" width="1" height="1"/><rect class="cls-3" x="15.01" y="14.01" width="1" height="1"/><rect class="cls-3" x="16.01" y="14.01" width="1" height="1"/><rect class="cls-3" x="17.01" y="14.01" width="1" height="1"/><rect class="cls-3" x="18.01" y="14.01" width="1" height="1"/><rect class="cls-3" x="19.01" y="14.01" width="1" height="1"/><rect class="cls-3" x="20.01" y="14.01" width="1" height="1"/><rect class="cls-3" x="21.01" y="14.01" width="1" height="1"/><rect class="cls-3" x="22.01" y="14.01" width="1" height="1"/><rect class="cls-3" x="23.01" y="14.01" width="1" height="1"/><g class="cls-2"><rect class="cls-3" x="0.01" y="15.01" width="1" height="1"/></g><rect class="cls-3" x="1.01" y="15.01" width="1" height="1"/><rect class="cls-3" x="2.01" y="15.01" width="1" height="1"/><rect class="cls-3" x="3.01" y="15.01" width="1" height="1"/><rect class="cls-3" x="4.01" y="15.01" width="1" height="1"/><rect class="cls-3" x="5.01" y="15.01" width="1" height="1"/><rect class="cls-3" x="6.01" y="15.01" width="1" height="1"/><rect class="cls-3" x="7.01" y="15.01" width="1" height="1"/><rect class="cls-3" x="8.01" y="15.01" width="1" height="1"/><rect class="cls-3" x="9.01" y="15.01" width="1" height="1"/><rect class="cls-3" x="10.01" y="15.01" width="1" height="1"/><rect class="cls-3" x="11.01" y="15.01" width="1" height="1"/><rect class="cls-3" x="12.01" y="15.01" width="1" height="1"/><rect class="cls-3" x="13.01" y="15.01" width="1" height="1"/><rect class="cls-3" x="14.01" y="15.01" width="1" height="1"/><rect class="cls-3" x="15.01" y="15.01" width="1" height="1"/><rect class="cls-3" x="16.01" y="15.01" width="1" height="1"/><rect class="cls-3" x="17.01" y="15.01" width="1" height="1"/><rect class="cls-3" x="18.01" y="15.01" width="1" height="1"/><rect class="cls-3" x="19.01" y="15.01" width="1" height="1"/><rect class="cls-3" x="20.01" y="15.01" width="1" height="1"/><rect class="cls-3" x="21.01" y="15.01" width="1" height="1"/><rect class="cls-3" x="22.01" y="15.01" width="1" height="1"/><rect class="cls-3" x="23.01" y="15.01" width="1" height="1"/><g class="cls-2"><rect class="cls-3" x="0.01" y="16.01" width="1" height="1"/></g><rect class="cls-3" x="1.01" y="16.01" width="1" height="1"/><rect class="cls-3" x="2.01" y="16.01" width="1" height="1"/><rect class="cls-3" x="3.01" y="16.01" width="1" height="1"/><rect class="cls-3" x="4.01" y="16.01" width="1" height="1"/><rect class="cls-3" x="5.01" y="16.01" width="1" height="1"/><rect class="cls-3" x="6.01" y="16.01" width="1" height="1"/><rect class="cls-3" x="7.01" y="16.01" width="1" height="1"/><rect class="cls-3" x="8.01" y="16.01" width="1" height="1"/><rect class="cls-3" x="9.01" y="16.01" width="1" height="1"/><rect class="cls-3" x="10.01" y="16.01" width="1" height="1"/><rect class="cls-3" x="11.01" y="16.01" width="1" height="1"/><rect class="cls-3" x="12.01" y="16.01" width="1" height="1"/><rect class="cls-3" x="13.01" y="16.01" width="1" height="1"/><rect class="cls-3" x="14.01" y="16.01" width="1" height="1"/><rect class="cls-3" x="15.01" y="16.01" width="1" height="1"/><rect class="cls-3" x="16.01" y="16.01" width="1" height="1"/><rect class="cls-3" x="17.01" y="16.01" width="1" height="1"/><rect class="cls-3" x="18.01" y="16.01" width="1" height="1"/><rect class="cls-3" x="19.01" y="16.01" width="1" height="1"/><rect class="cls-3" x="20.01" y="16.01" width="1" height="1"/><rect class="cls-3" x="21.01" y="16.01" width="1" height="1"/><rect class="cls-3" x="22.01" y="16.01" width="1" height="1"/><rect class="cls-3" x="23.01" y="16.01" width="1" height="1"/><g class="cls-2"><rect class="cls-3" x="0.01" y="17.01" width="1" height="1"/></g><rect class="cls-3" x="1.01" y="17.01" width="1" height="1"/><rect class="cls-3" x="2.01" y="17.01" width="1" height="1"/><rect class="cls-3" x="3.01" y="17.01" width="1" height="1"/><rect class="cls-3" x="4.01" y="17.01" width="1" height="1"/><rect class="cls-3" x="5.01" y="17.01" width="1" height="1"/><rect class="cls-3" x="6.01" y="17.01" width="1" height="1"/><rect class="cls-3" x="7.01" y="17.01" width="1" height="1"/><rect class="cls-3" x="8.01" y="17.01" width="1" height="1"/><rect class="cls-3" x="9.01" y="17.01" width="1" height="1"/><rect class="cls-3" x="10.01" y="17.01" width="1" height="1"/><rect class="cls-3" x="11.01" y="17.01" width="1" height="1"/><rect class="cls-3" x="12.01" y="17.01" width="1" height="1"/><rect class="cls-3" x="13.01" y="17.01" width="1" height="1"/><rect class="cls-3" x="14.01" y="17.01" width="1" height="1"/><rect class="cls-3" x="15.01" y="17.01" width="1" height="1"/><rect class="cls-3" x="16.01" y="17.01" width="1" height="1"/><rect class="cls-3" x="17.01" y="17.01" width="1" height="1"/><rect class="cls-3" x="18.01" y="17.01" width="1" height="1"/><rect class="cls-3" x="19.01" y="17.01" width="1" height="1"/><rect class="cls-3" x="20.01" y="17.01" width="1" height="1"/><rect class="cls-3" x="21.01" y="17.01" width="1" height="1"/><rect class="cls-3" x="22.01" y="17.01" width="1" height="1"/><rect class="cls-3" x="23.01" y="17.01" width="1" height="1"/><g class="cls-2"><rect class="cls-3" x="0.01" y="18.01" width="1" height="1"/></g><rect class="cls-3" x="1.01" y="18.01" width="1" height="1"/><rect class="cls-3" x="2.01" y="18.01" width="1" height="1"/><rect class="cls-3" x="3.01" y="18.01" width="1" height="1"/><rect class="cls-3" x="4.01" y="18.01" width="1" height="1"/><rect class="cls-3" x="5.01" y="18.01" width="1" height="1"/><rect class="cls-3" x="6.01" y="18.01" width="1" height="1"/><rect class="cls-3" x="7.01" y="18.01" width="1" height="1"/><rect class="cls-3" x="8.01" y="18.01" width="1" height="1"/><rect class="cls-3" x="9.01" y="18.01" width="1" height="1"/><rect class="cls-3" x="10.01" y="18.01" width="1" height="1"/><rect class="cls-3" x="11.01" y="18.01" width="1" height="1"/><rect class="cls-3" x="12.01" y="18.01" width="1" height="1"/><rect class="cls-3" x="13.01" y="18.01" width="1" height="1"/><rect class="cls-3" x="14.01" y="18.01" width="1" height="1"/><rect class="cls-3" x="15.01" y="18.01" width="1" height="1"/><rect class="cls-3" x="16.01" y="18.01" width="1" height="1"/><rect class="cls-3" x="17.01" y="18.01" width="1" height="1"/><rect class="cls-3" x="18.01" y="18.01" width="1" height="1"/><rect class="cls-3" x="19.01" y="18.01" width="1" height="1"/><rect class="cls-3" x="20.01" y="18.01" width="1" height="1"/><rect class="cls-3" x="21.01" y="18.01" width="1" height="1"/><rect class="cls-3" x="22.01" y="18.01" width="1" height="1"/><rect class="cls-3" x="23.01" y="18.01" width="1" height="1"/><g class="cls-2"><rect class="cls-3" x="0.01" y="19.01" width="1" height="1"/></g><rect class="cls-3" x="1.01" y="19.01" width="1" height="1"/><rect class="cls-3" x="2.01" y="19.01" width="1" height="1"/><rect class="cls-3" x="3.01" y="19.01" width="1" height="1"/><rect class="cls-3" x="4.01" y="19.01" width="1" height="1"/><rect class="cls-3" x="5.01" y="19.01" width="1" height="1"/><rect class="cls-3" x="6.01" y="19.01" width="1" height="1"/><rect class="cls-3" x="7.01" y="19.01" width="1" height="1"/><rect class="cls-3" x="8.01" y="19.01" width="1" height="1"/><rect class="cls-3" x="9.01" y="19.01" width="1" height="1"/><rect class="cls-3" x="10.01" y="19.01" width="1" height="1"/><rect class="cls-3" x="11.01" y="19.01" width="1" height="1"/><rect class="cls-3" x="12.01" y="19.01" width="1" height="1"/><rect class="cls-3" x="13.01" y="19.01" width="1" height="1"/><rect class="cls-3" x="14.01" y="19.01" width="1" height="1"/><rect class="cls-3" x="15.01" y="19.01" width="1" height="1"/><rect class="cls-3" x="16.01" y="19.01" width="1" height="1"/><rect class="cls-3" x="17.01" y="19.01" width="1" height="1"/><rect class="cls-3" x="18.01" y="19.01" width="1" height="1"/><rect class="cls-3" x="19.01" y="19.01" width="1" height="1"/><rect class="cls-3" x="20.01" y="19.01" width="1" height="1"/><rect class="cls-3" x="21.01" y="19.01" width="1" height="1"/><rect class="cls-3" x="22.01" y="19.01" width="1" height="1"/><rect class="cls-3" x="23.01" y="19.01" width="1" height="1"/><g class="cls-2"><rect class="cls-3" x="0.01" y="20.01" width="1" height="1"/></g><rect class="cls-3" x="1.01" y="20.01" width="1" height="1"/><rect class="cls-3" x="2.01" y="20.01" width="1" height="1"/><rect class="cls-3" x="3.01" y="20.01" width="1" height="1"/><rect class="cls-3" x="4.01" y="20.01" width="1" height="1"/><rect class="cls-3" x="5.01" y="20.01" width="1" height="1"/><rect class="cls-3" x="6.01" y="20.01" width="1" height="1"/><rect class="cls-3" x="7.01" y="20.01" width="1" height="1"/><rect class="cls-3" x="8.01" y="20.01" width="1" height="1"/><rect class="cls-3" x="9.01" y="20.01" width="1" height="1"/><rect class="cls-3" x="10.01" y="20.01" width="1" height="1"/><rect class="cls-3" x="11.01" y="20.01" width="1" height="1"/><rect class="cls-3" x="12.01" y="20.01" width="1" height="1"/><rect class="cls-3" x="13.01" y="20.01" width="1" height="1"/><rect class="cls-3" x="14.01" y="20.01" width="1" height="1"/><rect class="cls-3" x="15.01" y="20.01" width="1" height="1"/><rect class="cls-3" x="16.01" y="20.01" width="1" height="1"/><rect class="cls-3" x="17.01" y="20.01" width="1" height="1"/><rect class="cls-3" x="18.01" y="20.01" width="1" height="1"/><rect class="cls-3" x="19.01" y="20.01" width="1" height="1"/><rect class="cls-3" x="20.01" y="20.01" width="1" height="1"/><rect class="cls-3" x="21.01" y="20.01" width="1" height="1"/><rect class="cls-3" x="22.01" y="20.01" width="1" height="1"/><rect class="cls-3" x="23.01" y="20.01" width="1" height="1"/><g class="cls-2"><rect class="cls-3" x="0.01" y="21.01" width="1" height="1"/></g><rect class="cls-3" x="1.01" y="21.01" width="1" height="1"/><rect class="cls-3" x="2.01" y="21.01" width="1" height="1"/><rect class="cls-3" x="3.01" y="21.01" width="1" height="1"/><rect class="cls-3" x="4.01" y="21.01" width="1" height="1"/><rect class="cls-3" x="5.01" y="21.01" width="1" height="1"/><rect class="cls-3" x="6.01" y="21.01" width="1" height="1"/><rect class="cls-3" x="7.01" y="21.01" width="1" height="1"/><rect class="cls-3" x="8.01" y="21.01" width="1" height="1"/><rect class="cls-3" x="9.01" y="21.01" width="1" height="1"/><rect class="cls-3" x="10.01" y="21.01" width="1" height="1"/><rect class="cls-3" x="11.01" y="21.01" width="1" height="1"/><rect class="cls-3" x="12.01" y="21.01" width="1" height="1"/><rect class="cls-3" x="13.01" y="21.01" width="1" height="1"/><rect class="cls-3" x="14.01" y="21.01" width="1" height="1"/><rect class="cls-3" x="15.01" y="21.01" width="1" height="1"/><rect class="cls-3" x="16.01" y="21.01" width="1" height="1"/><rect class="cls-3" x="17.01" y="21.01" width="1" height="1"/><rect class="cls-3" x="18.01" y="21.01" width="1" height="1"/><rect class="cls-3" x="19.01" y="21.01" width="1" height="1"/><rect class="cls-3" x="20.01" y="21.01" width="1" height="1"/><rect class="cls-3" x="21.01" y="21.01" width="1" height="1"/><rect class="cls-3" x="22.01" y="21.01" width="1" height="1"/><rect class="cls-3" x="23.01" y="21.01" width="1" height="1"/><g class="cls-2"><rect class="cls-3" x="0.01" y="22.01" width="1" height="1"/></g><rect class="cls-3" x="1.01" y="22.01" width="1" height="1"/><rect class="cls-3" x="2.01" y="22.01" width="1" height="1"/><rect class="cls-3" x="3.01" y="22.01" width="1" height="1"/><rect class="cls-3" x="4.01" y="22.01" width="1" height="1"/><rect class="cls-3" x="5.01" y="22.01" width="1" height="1"/><rect class="cls-3" x="6.01" y="22.01" width="1" height="1"/><rect class="cls-3" x="7.01" y="22.01" width="1" height="1"/><rect class="cls-3" x="8.01" y="22.01" width="1" height="1"/><rect class="cls-3" x="9.01" y="22.01" width="1" height="1"/><rect class="cls-3" x="10.01" y="22.01" width="1" height="1"/><rect class="cls-3" x="11.01" y="22.01" width="1" height="1"/><rect class="cls-3" x="12.01" y="22.01" width="1" height="1"/><rect class="cls-3" x="13.01" y="22.01" width="1" height="1"/><rect class="cls-3" x="14.01" y="22.01" width="1" height="1"/><rect class="cls-3" x="15.01" y="22.01" width="1" height="1"/><rect class="cls-3" x="16.01" y="22.01" width="1" height="1"/><rect class="cls-3" x="17.01" y="22.01" width="1" height="1"/><rect class="cls-3" x="18.01" y="22.01" width="1" height="1"/><rect class="cls-3" x="19.01" y="22.01" width="1" height="1"/><rect class="cls-3" x="20.01" y="22.01" width="1" height="1"/><rect class="cls-3" x="21.01" y="22.01" width="1" height="1"/><rect class="cls-3" x="22.01" y="22.01" width="1" height="1"/><rect class="cls-3" x="23.01" y="22.01" width="1" height="1"/><g class="cls-2"><rect class="cls-3" x="0.01" y="23.01" width="1" height="1"/><rect class="cls-3" x="1.01" y="23.01" width="1" height="1"/><rect class="cls-3" x="2.01" y="23.01" width="1" height="1"/><rect class="cls-3" x="3.01" y="23.01" width="1" height="1"/><rect class="cls-3" x="4.01" y="23.01" width="1" height="1"/><rect class="cls-3" x="5.01" y="23.01" width="1" height="1"/><rect class="cls-3" x="6.01" y="23.01" width="1" height="1"/><rect class="cls-3" x="7.01" y="23.01" width="1" height="1"/><rect class="cls-3" x="8.01" y="23.01" width="1" height="1"/><rect class="cls-3" x="9.01" y="23.01" width="1" height="1"/><rect class="cls-3" x="10.01" y="23.01" width="1" height="1"/><rect class="cls-3" x="11.01" y="23.01" width="1" height="1"/><rect class="cls-3" x="12.01" y="23.01" width="1" height="1"/><rect class="cls-3" x="13.01" y="23.01" width="1" height="1"/><rect class="cls-3" x="14.01" y="23.01" width="1" height="1"/><rect class="cls-3" x="15.01" y="23.01" width="1" height="1"/><rect class="cls-3" x="16.01" y="23.01" width="1" height="1"/><rect class="cls-3" x="17.01" y="23.01" width="1" height="1"/><rect class="cls-3" x="18.01" y="23.01" width="1" height="1"/><rect class="cls-3" x="19.01" y="23.01" width="1" height="1"/><rect class="cls-3" x="20.01" y="23.01" width="1" height="1"/><rect class="cls-3" x="21.01" y="23.01" width="1" height="1"/><rect class="cls-3" x="22.01" y="23.01" width="1" height="1"/><rect class="cls-3" x="23.01" y="23.01" width="1" height="1"/><rect class="cls-4" x="0.01" y="0.01" width="24" height="24"/><line class="cls-4" x1="0.01" y1="12.01" x2="24.01" y2="12.01"/><line class="cls-4" x1="0.01" y1="8.01" x2="24.01" y2="8.01"/><line class="cls-4" x1="0.01" y1="16.01" x2="24.01" y2="16.01"/><line class="cls-4" x1="12.01" y1="0.01" x2="12.01" y2="24.01"/><line class="cls-4" x1="16.01" y1="0.01" x2="16.01" y2="24.01"/><line class="cls-4" x1="8.01" y1="0.01" x2="8.01" y2="24.01"/><g class="cls-5"><g class="cls-6"><circle class="cls-7" cx="12.01" cy="12.01" r="10"/></g></g><g class="cls-5"><g class="cls-8"><circle class="cls-9" cx="12.01" cy="12.01" r="5"/></g></g><g class="cls-10"><g class="cls-11"><line class="cls-7" x1="0.01" y1="0.01" x2="24.01" y2="24.01"/></g></g><g class="cls-10"><g class="cls-11"><line class="cls-7" x1="24.01" y1="0.01" x2="0.01" y2="24.01"/></g></g><rect class="cls-9" x="4.01" y="2.01" width="16" height="20" rx="2" ry="2"/><rect class="cls-9" x="2.01" y="4.01" width="20" height="16" rx="2" ry="2"/><rect class="cls-9" x="3.01" y="3.01" width="18" height="18" rx="2" ry="2"/></g></g></g></g><polygon points="16 17 13 17 13 13 11 13 11 17 8 17 8 18 2 18 2 20 8 20 8 21 16 21 16 20 22 20 22 18 16 18 16 17"/><path d="M15,13h3a1,1,0,0,0,1-1V5a1,1,0,0,0-1-1H12L11,3H6A1,1,0,0,0,5,4v8a1,1,0,0,0,1,1h9Z"/></svg>