<svg id="Layer_2" data-name="Layer 2" xmlns="http://www.w3.org/2000/svg" viewBox="0 0 24 24"><title>primitive</title><circle cx="12" cy="12" r="2.2"/><path d="M21.63,6.44c-.7-1.23-2.41-1.73-4.79-1.43-.3,0-.62.1-.93.16C15,2.62,13.61,1,12,1S9,2.62,8.09,5.18C5.35,4.64,3.18,5,2.37,6.44S2.29,9.91,4.12,12c-1.83,2.09-2.57,4.16-1.75,5.56.58,1,1.85,1.5,3.52,1.5a12,12,0,0,0,2.2-.24C9,21.38,10.39,23,12,23s3-1.62,3.91-4.17c.31.06.63.12.93.16a10,10,0,0,0,1.3.08c1.7,0,2.92-.52,3.49-1.51.82-1.4.07-3.47-1.75-5.56C21.7,9.91,22.45,7.84,21.63,6.44ZM17,6.14a9.68,9.68,0,0,1,1.15-.08c1.27,0,2.15.33,2.51,1,.51.87-.06,2.44-1.55,4.16a20.8,20.8,0,0,0-2.3-1.95,20.5,20.5,0,0,0-.55-2.94C16.5,6.24,16.75,6.17,17,6.14Zm-3.08,9.17c-.64.38-1.28.71-1.9,1-.64-.3-1.29-.63-1.92-1a21.08,21.08,0,0,1-1.82-1.16A21.1,21.1,0,0,1,8.17,12a21.1,21.1,0,0,1,.1-2.15,21.08,21.08,0,0,1,1.82-1.16A20.41,20.41,0,0,1,12,7.7c.62.29,1.26.61,1.91,1a21.08,21.08,0,0,1,1.82,1.16,21.1,21.1,0,0,1,.1,2.15,21.1,21.1,0,0,1-.1,2.15A21.08,21.08,0,0,1,13.91,15.31Zm1.63.34c-.11.65-.24,1.26-.39,1.82a17.19,17.19,0,0,1-1.76-.58c.36-.19.73-.38,1.09-.59S15.2,15.87,15.54,15.65Zm-4.92,1.24a17.29,17.29,0,0,1-1.77.58c-.15-.56-.28-1.17-.39-1.82.34.22.69.44,1.06.65S10.25,16.7,10.62,16.89ZM7.07,13.25A17.42,17.42,0,0,1,5.68,12a17.42,17.42,0,0,1,1.39-1.25c0,.41,0,.83,0,1.25S7.05,12.84,7.07,13.25Zm1.39-4.9c.11-.65.24-1.26.39-1.82a16.53,16.53,0,0,1,1.77.58c-.37.19-.74.38-1.1.59S8.8,8.13,8.46,8.35Zm4.93-1.24a17.19,17.19,0,0,1,1.76-.58c.15.56.28,1.17.39,1.82-.34-.22-.69-.44-1.06-.65S13.75,7.3,13.39,7.11Zm3.54,3.64A17.42,17.42,0,0,1,18.32,12a17.42,17.42,0,0,1-1.39,1.25c0-.41,0-.83,0-1.25S17,11.16,16.93,10.75ZM12,2.13c1,0,2.06,1.23,2.81,3.31a20.31,20.31,0,0,0-2.81,1,21.81,21.81,0,0,0-2.81-1C9.94,3.37,11,2.13,12,2.13ZM3.35,7c.35-.61,1.25-.94,2.52-.94a10.3,10.3,0,0,1,1.88.2,20.64,20.64,0,0,0-.55,3,20.8,20.8,0,0,0-2.3,1.95C3.41,9.45,2.84,7.88,3.35,7Zm0,10c-.51-.87.06-2.44,1.55-4.16a20.8,20.8,0,0,0,2.3,1.95,20.38,20.38,0,0,0,.55,3C5.51,18.16,3.85,17.87,3.35,17ZM12,21.87c-1,0-2.06-1.24-2.81-3.32a19.07,19.07,0,0,0,2.81-1,20.79,20.79,0,0,0,2.81,1C14.06,20.64,13,21.87,12,21.87ZM20.65,17c-.46.8-1.79,1.11-3.66.87-.24,0-.49-.1-.74-.14a20.5,20.5,0,0,0,.55-2.94,20.8,20.8,0,0,0,2.3-1.95C20.59,14.55,21.16,16.12,20.65,17Z"/></svg>