<svg id="Layer_2" data-name="Layer 2" xmlns="http://www.w3.org/2000/svg" viewBox="0 0 24 24"><title>primitive</title><circle cx="12" cy="12" r="2"/><path d="M20.77,6.94c-.65-1.12-2.19-1.58-4.37-1.3l-.84.14C14.74,3.46,13.46,2,12,2S9.26,3.47,8.44,5.79C5.94,5.3,4,5.65,3.23,6.94S3.16,10.09,4.83,12c-1.67,1.91-2.34,3.78-1.6,5.06.53.92,1.68,1.37,3.21,1.37a9.9,9.9,0,0,0,2-.23C9.26,20.53,10.53,22,12,22s2.74-1.47,3.56-3.79l.84.14a10.17,10.17,0,0,0,1.18.08c1.56,0,2.67-.47,3.19-1.38.74-1.28.06-3.15-1.6-5.06C20.83,10.09,21.51,8.22,20.77,6.94Zm-4.23-.27a8.15,8.15,0,0,1,1.05-.08,2.54,2.54,0,0,1,2.29.86c.46.8-.06,2.23-1.42,3.8a18.89,18.89,0,0,0-2.09-1.78,18.38,18.38,0,0,0-.5-2.67A5.28,5.28,0,0,1,16.54,6.67ZM13.74,15c-.59.34-1.17.64-1.73.9-.59-.27-1.17-.57-1.75-.9S9.12,14.32,8.6,14c0-.62-.09-1.28-.09-2s0-1.34.09-2c.52-.36,1.07-.72,1.66-1.06s1.16-.63,1.74-.9c.57.27,1.15.56,1.74.9s1.14.7,1.66,1.06c0,.62.09,1.28.09,2s0,1.34-.09,2C14.88,14.32,14.33,14.68,13.74,15Zm1.48.3A14.66,14.66,0,0,1,14.87,17a16.77,16.77,0,0,1-1.61-.53c.34-.17.67-.35,1-.54S14.91,15.52,15.22,15.32Zm-4.48,1.13A15.09,15.09,0,0,1,9.13,17a14.66,14.66,0,0,1-.35-1.66c.31.2.63.4,1,.59S10.41,16.28,10.74,16.45ZM7.52,13.14A16.36,16.36,0,0,1,6.24,12a16.36,16.36,0,0,1,1.28-1.14c0,.38,0,.75,0,1.14S7.5,12.76,7.52,13.14ZM8.78,8.68A14.66,14.66,0,0,1,9.13,7c.52.14,1,.31,1.61.52l-1,.55C9.41,8.28,9.09,8.48,8.78,8.68Zm4.49-1.13A15.75,15.75,0,0,1,14.87,7a14.66,14.66,0,0,1,.35,1.66c-.31-.2-.63-.4-1-.59Zm3.21,3.31A16.36,16.36,0,0,1,17.76,12a16.36,16.36,0,0,1-1.28,1.14c0-.38,0-.75,0-1.14S16.5,11.24,16.48,10.86ZM12,3c.91,0,1.87,1.13,2.56,3A19.34,19.34,0,0,0,12,7,18.94,18.94,0,0,0,9.44,6C10.13,4.14,11.09,3,12,3ZM4.12,7.45c.32-.55,1.14-.85,2.3-.85a9.21,9.21,0,0,1,1.71.19,18.52,18.52,0,0,0-.5,2.68,18,18,0,0,0-2.09,1.78C4.18,9.68,3.66,8.25,4.12,7.45Zm0,9.1c-.46-.8.06-2.23,1.42-3.8a18,18,0,0,0,2.09,1.78,18.67,18.67,0,0,0,.5,2.69C6.09,17.61,4.59,17.35,4.12,16.55ZM12,21c-.91,0-1.87-1.13-2.56-3A18.94,18.94,0,0,0,12,17.05a19.34,19.34,0,0,0,2.56.92C13.87,19.86,12.91,21,12,21Zm7.88-4.44c-.42.72-1.64,1-3.34.78a5.28,5.28,0,0,1-.67-.13,18.38,18.38,0,0,0,.5-2.67,18.89,18.89,0,0,0,2.09-1.78C19.82,14.32,20.34,15.75,19.88,16.55Z"/></svg>