<svg id="Layer_1" data-name="Layer 1" xmlns="http://www.w3.org/2000/svg" viewBox="0 0 24 24"><title>products</title><path d="M6,2H2A1,1,0,0,0,1,3V21a1,1,0,0,0,1,1H6a1,1,0,0,0,1-1V3A1,1,0,0,0,6,2ZM4,21a2,2,0,1,1,2-2A2,2,0,0,1,4,21Zm2-9H2V3H6Z"/><circle cx="4.01" cy="19.01" r="1"/><path d="M14,2H10A1,1,0,0,0,9,3V21a1,1,0,0,0,1,1h4a1,1,0,0,0,1-1V3A1,1,0,0,0,14,2ZM12,21a2,2,0,1,1,2-2A2,2,0,0,1,12,21Zm2-9H10V3h4Z"/><circle cx="12.01" cy="19.01" r="1"/><path d="M22,2H18a1,1,0,0,0-1,1V21a1,1,0,0,0,1,1h4a1,1,0,0,0,1-1V3A1,1,0,0,0,22,2ZM20,21a2,2,0,1,1,2-2A2,2,0,0,1,20,21Zm2-9H18V3h4Z"/><circle cx="20.01" cy="19.01" r="1"/></svg>