<svg id="Layer_1" data-name="Layer 1" xmlns="http://www.w3.org/2000/svg" viewBox="0 0 24 24"><title>products_classes</title><path d="M7,2H3A1,1,0,0,0,2,3V21a1,1,0,0,0,1,1H7a1,1,0,0,0,1-1V3A1,1,0,0,0,7,2ZM5,21a2,2,0,1,1,2-2A2,2,0,0,1,5,21Zm2-9H3V3H7Z"/><circle cx="5.01" cy="19.01" r="1"/><rect x="10" y="2" width="5" height="6"/><rect x="10" y="9" width="5" height="2.01"/><rect x="17" y="2" width="5" height="6"/><rect x="17" y="9" width="5" height="2.01"/><rect x="10" y="13" width="5" height="6"/><rect x="10" y="20" width="5" height="2.01"/><rect x="17" y="13" width="5" height="6"/><rect x="17" y="20" width="5" height="2.01"/></svg>