<svg id="Layer_1" data-name="Layer 1" xmlns="http://www.w3.org/2000/svg" viewBox="0 0 24 24"><title>products_classes</title><path d="M6,16a2,2,0,1,0,2,2A2,2,0,0,0,6,16Zm0,3a1,1,0,1,1,1-1A1,1,0,0,1,6,19Z"/><rect x="4.01" y="4.01" width="4" height="9"/><path d="M22,1H2A1,1,0,0,0,1,2V22a1,1,0,0,0,1,1H22a1,1,0,0,0,1-1V2A1,1,0,0,0,22,1ZM9,14v6a1,1,0,0,1-1,1H4a1,1,0,0,1-1-1V4A1,1,0,0,1,4,3H8A1,1,0,0,1,9,4Zm6,7H11V19h4Zm0-3H11V13h4Zm0-7H11V9h4Zm0-3H11V3h4Zm6,13H17V19h4Zm0-3H17V13h4Zm0-7H17V9h4Zm0-3H17V3h4Z"/></svg>