<svg id="Layer_1" data-name="Layer 1" xmlns="http://www.w3.org/2000/svg" viewBox="0 0 24 24"><title>proxy</title><path d="M21,6.24V2H16.76l1.41,1.42L16.66,4.92,13.33,8.25l-.23-.08H13a2.16,2.16,0,0,0-.44-.1l-.27,0L12,8a3.5,3.5,0,0,0-.65.07h0a3.58,3.58,0,0,0-.54.14l-.13,0a4,4,0,0,0-.51.23l-.09,0A4,4,0,0,0,8.14,11H5.73a2,2,0,1,0,0,2H8.14a3.93,3.93,0,0,0,5.2,2.75l3.32,3.32,1.51,1.51L16.76,22H21V17.75l-1.41,1.41L15,14.58a5.35,5.35,0,0,0,.43-.54,4.15,4.15,0,0,0,.43-1H18v2l3-3L18,9v2H15.86a4,4,0,0,0-.43-1A4,4,0,0,0,15,9.42l4.59-4.59Z"/></svg>