<svg id="route" xmlns="http://www.w3.org/2000/svg" viewBox="0 0 24 24"><title>route</title><path d="M21,5a1,1,0,1,0-1-1A1,1,0,0,0,21,5Z"/><path d="M5.41,11.48A2.58,2.58,0,0,0,5,11.36a2.51,2.51,0,0,0-3,2.48c0,1.39,1.14,3,2.5,5.14L5,18.19H5a21.15,21.15,0,0,0,1.65-2.82,5.57,5.57,0,0,0,.33-1A2.33,2.33,0,0,0,7,14a.78.78,0,0,0,0-.16A2.53,2.53,0,0,0,5.41,11.48ZM5,14.3a.88.88,0,0,1-.48.15,1,1,0,1,1,0-2A1,1,0,0,1,5,12.6a1,1,0,0,1,0,1.7Z"/><rect x="17.01" y="3" width="2.02" height="2.02"/><rect x="14.01" y="3" width="2.02" height="2.02"/><path d="M22,16.76A5.28,5.28,0,0,1,16.68,22H4.47a1,1,0,0,1-1-1,1,1,0,0,1,1-1H16.68A3.28,3.28,0,0,0,20,16.76s0,0,0,0h0a3.11,3.11,0,0,0-.28-1.29,3.29,3.29,0,0,0-3-1.94h-4.8a6.21,6.21,0,0,1-1.42-.18A5.26,5.26,0,0,1,9,12.68a5.42,5.42,0,0,1-2-2.31A5.26,5.26,0,0,1,11.88,3H13V5H11.92a3.28,3.28,0,0,0-3.3,3.26v0a3.09,3.09,0,0,0,.29,1.29,3.31,3.31,0,0,0,3,1.95h4.76a6,6,0,0,1,1.46.18,5.26,5.26,0,0,1,1.43.64,5.42,5.42,0,0,1,2,2.31A5.24,5.24,0,0,1,22,16.76Z"/></svg>