<svg id="route" xmlns="http://www.w3.org/2000/svg" viewBox="0 0 24 24"><title>route</title><path d="M4.74,7.14a1.59,1.59,0,0,0-.33-.09A2.34,2.34,0,0,0,4,7a2,2,0,0,0-2,1.9c0,1,.92,2.5,2,4.1l1.73-3A3.22,3.22,0,0,0,6,9.31,2.4,2.4,0,0,0,6,9S6,9,6,8.91A1.91,1.91,0,0,0,4.74,7.14Z"/><path d="M21,11.3V7h0a5,5,0,0,0-10-.12V8h0v8.89A.5.5,0,0,1,11,17a.69.69,0,0,1,0,.13A3,3,0,0,1,5,17V15H3v2a4.94,4.94,0,0,0,.21,1.34,5,5,0,0,0,9.6,0A4.85,4.85,0,0,0,13,17.14V9h0V6.88A3,3,0,0,1,19,7v4.28A2,2,0,0,0,20,15a2,2,0,0,0,2-2A2,2,0,0,0,21,11.3Z"/></svg>