<?xml version="1.0" encoding="utf-8"?>
<!-- Generator: Adobe Illustrator 22.1.0, SVG Export Plug-In . SVG Version: 6.00 Build 0)  -->
<svg version="1.1" id="route" xmlns="http://www.w3.org/2000/svg" xmlns:xlink="http://www.w3.org/1999/xlink" x="0px" y="0px"
	 viewBox="0 0 24 24" style="enable-background:new 0 0 24 24;" xml:space="preserve">
<style type="text/css">
	.st0{fill:none;}
</style>
<title>route</title>
<g>
	<path class="st0" d="M5,15c0.3-0.2,0.5-0.5,0.5-0.8c0-0.4-0.2-0.7-0.5-0.9c-0.1-0.1-0.3-0.1-0.5-0.2c-0.6,0-1,0.4-1,1
		c0,0.6,0.4,1,1,1C4.7,15.1,4.9,15.1,5,15z"/>
	<path class="st0" d="M6.5,13.1c-0.1-0.1-0.1-0.2-0.2-0.2c0,0,0,0,0,0C6.4,12.9,6.5,13,6.5,13.1C6.5,13.1,6.5,13.1,6.5,13.1z"/>
	<path class="st0" d="M6.6,13.2c0,0,0-0.1-0.1-0.1C6.6,13.2,6.6,13.2,6.6,13.2z"/>
	<circle cx="21" cy="4" r="1"/>
	<rect x="14" y="3" width="2" height="2"/>
	<rect x="17" y="3" width="2" height="2"/>
	<path d="M6.9,13.8c0,0.1,0.1,0.2,0.1,0.2C6.9,13.9,6.9,13.9,6.9,13.8z"/>
	<path d="M5,18.9L5,18.9C5.6,18,6.2,17,6.7,16c0.1-0.3,0.3-0.7,0.3-1c0-0.1,0-0.2,0-0.4c0-0.1,0-0.1,0-0.2c0-0.5-0.1-0.9-0.4-1.3
		c0,0,0-0.1-0.1-0.1c-0.1-0.1-0.1-0.2-0.2-0.3c-0.1-0.1-0.2-0.2-0.3-0.3c-0.2-0.2-0.4-0.3-0.7-0.4c-0.1,0-0.2-0.1-0.4-0.1
		c-1.4-0.3-2.7,0.6-3,2c0,0.2,0,0.3,0,0.5c0,1.4,1.1,3,2.5,5.1L5,18.9z M3.5,14.1c0-0.6,0.4-1,1-1c0.2,0,0.3,0.1,0.5,0.2
		c0.3,0.2,0.5,0.5,0.5,0.9c0,0.4-0.2,0.7-0.5,0.8c-0.1,0.1-0.3,0.1-0.5,0.1C4,15.1,3.5,14.7,3.5,14.1z"/>
	<path d="M6.9,14c0,0.2,0,0.3,0.1,0.5C7,14.3,7,14.2,6.9,14z"/>
	<path d="M6.6,13.2C6.6,13.2,6.6,13.3,6.6,13.2c0,0,0-0.1-0.1-0.1c0,0,0,0,0,0C6.6,13.2,6.6,13.2,6.6,13.2z"/>
	<path d="M7,14.5C7,14.5,7,14.5,7,14.5C7,14.5,7,14.5,7,14.5C7,14.5,7,14.5,7,14.5z"/>
	<path d="M6.8,13.5c0,0.1,0.1,0.2,0.1,0.2C6.8,13.7,6.8,13.6,6.8,13.5z"/>
	<path d="M6.3,12.8C6.3,12.8,6.3,12.8,6.3,12.8C6.3,12.9,6.4,12.9,6.3,12.8C6.3,12.8,6.3,12.8,6.3,12.8z"/>
	<path d="M6.4,12.9c0.1,0.1,0.1,0.1,0.2,0.2C6.5,13,6.4,12.9,6.4,12.9z"/>
	<path d="M6.7,13.3c0,0.1,0.1,0.2,0.1,0.2C6.7,13.4,6.7,13.4,6.7,13.3z"/>
	<path d="M19.6,12.3c-0.4-0.3-0.9-0.5-1.4-0.6c-0.5-0.1-1-0.2-1.5-0.2h-4.8c-1.3,0-2.5-0.8-3-2C8.7,9.1,8.6,8.7,8.6,8.3c0,0,0,0,0,0
		c0-1.8,1.5-3.3,3.3-3.3H13V3h-1.1c-0.7,0-1.5,0.1-2.2,0.4C7,4.6,5.8,7.7,7,10.4c0.4,0.9,1.1,1.7,2,2.3c0.5,0.3,1,0.5,1.5,0.7
		c0.5,0.1,0.9,0.2,1.4,0.2h4.8c1.3,0,2.5,0.8,3,1.9c0.2,0.4,0.3,0.8,0.3,1.3c0,0,0,0,0,0c0,1.8-1.5,3.3-3.3,3.2H4.5
		c-0.6,0-1,0.4-1,1s0.4,1,1,1h12.2c0,0,0,0,0,0c2.9,0,5.3-2.3,5.3-5.2c0-0.7-0.1-1.5-0.4-2.1C21.1,13.7,20.4,12.9,19.6,12.3z"/>
</g>
</svg>
