<svg id="Layer_1" data-name="Layer 1" xmlns="http://www.w3.org/2000/svg" viewBox="0 0 24 24"><title>sandbox</title><circle cx="7.5" cy="13" r="1"/><circle cx="9" cy="16" r="1"/><circle cx="6" cy="16" r="1"/><path d="M21.42,2.77l-.87.87.47.47-5.09,5.1L15,8.27c-.38-.37-.89-.17-1.16.31l-1.75,2.88h0a1,1,0,0,1,.82-.46,1,1,0,0,1,1,.77h0a1.64,1.64,0,0,1,.87-.25,1.68,1.68,0,0,1,1.69,1.67h0l1.25-.74c.47-.29.68-.78.31-1.16l-1-1,5.1-5.1.47.48.87-.87Z"/><path d="M20.57,8.05,18.79,9.83,20,18l-6,0a2,2,0,1,1-4,0L4,18,6,4H17.94l.22,1.51L20,3.7A2.08,2.08,0,0,0,18,2H6A2,2,0,0,0,4,4L2,18v2a2,2,0,0,0,2,2h16a2,2,0,0,0,2-2l0-2Z"/></svg>