<svg id="Layer_1" data-name="Layer 1" xmlns="http://www.w3.org/2000/svg" viewBox="0 0 24 24"><title>sandbox</title><path d="M18.76,9.6,20,18H14a2,2,0,0,1-4,0H4L6,4h12l.28,1.89L20,4.11V4h0a2,2,0,0,0-2-2H6A2,2,0,0,0,4,4H4L1.94,18v2a2,2,0,0,0,2,2h16a2,2,0,0,0,2-2V18h0L20.54,7.82Z"/><circle cx="8" cy="14.5" r="0.5"/><circle cx="6.5" cy="15.5" r="0.5"/><circle cx="9.5" cy="15.5" r="0.5"/><path d="M21.42,2.77l-.87.87.47.47-5.09,5.1L15,8.27a.7.7,0,0,0-1.16.31l-1.75,2.88h0a1,1,0,0,1,.82-.46,1,1,0,0,1,1,.77h0a1.64,1.64,0,0,1,.87-.25,1.68,1.68,0,0,1,1.69,1.67h0l1.25-.74A.7.7,0,0,0,18,11.3l-1-1,5.1-5.1.47.48.87-.87Z"/></svg>