<svg id="Layer_2" data-name="Layer 2" xmlns="http://www.w3.org/2000/svg" viewBox="0 0 24 24"><title>sap</title><path d="M17.12,10.18h-.47v1.73h.47c.63,0,1.13-.21,1.13-.88S17.75,10.18,17.12,10.18Z"/><path d="M12,10.87,11.36,13a1.88,1.88,0,0,0,.69.13,2,2,0,0,0,.67-.12l-.67-2.15Z"/><path d="M12,2A10,10,0,1,0,22,12,10,10,0,0,0,12,2Zm5.34,11.38h-.69v2H13.48l-.32-1a3.54,3.54,0,0,1-1.11.17,3.75,3.75,0,0,1-1.15-.18l-.32,1H8.63l.22-.57a.27.27,0,0,0-.08.07,2.91,2.91,0,0,1-1.84.61H6.81a4.91,4.91,0,0,1-2.42-.64l.66-1.31a3,3,0,0,0,1.78.5.94.94,0,0,0,.69-.21.61.61,0,0,0,.14-.34c0-.34-.48-.5-1.08-.68a5,5,0,0,1-1.45-.67,1.67,1.67,0,0,1-.74-1.49A1.85,1.85,0,0,1,4.9,9.45,2.93,2.93,0,0,1,7,8.67h0a5.77,5.77,0,0,1,2.42.57l-.74,1.29a3.69,3.69,0,0,0-1.57-.42c-.64,0-1,.2-1,.44s.6.58,1.18.76c.87.28,2,.65,2.15,1.72l1.6-4.25H13l1.87,5.09V8.78H17c2.05,0,3,.73,3,2.32C20,12.53,19,13.38,17.34,13.38Z"/></svg>