<svg id="Layer_1" data-name="Layer 1" xmlns="http://www.w3.org/2000/svg" viewBox="0 0 24 24"><title>sap</title><path d="M11.83,10.7,11.12,13a2.05,2.05,0,0,0,.72.13,2.25,2.25,0,0,0,.71-.12l-.7-2.27Z"/><path d="M17.21,10h-.5v1.83h.5c.66,0,1.19-.22,1.19-.92S17.87,10,17.21,10Z"/><path d="M12,1A11,11,0,1,0,23,12,11,11,0,0,0,12,1Zm5.44,12.34h-.73v2.18H13.35l-.33-1a4,4,0,0,1-1.18.18,3.88,3.88,0,0,1-1.21-.19l-.34,1H8.23l.23-.61L8.38,15a3.18,3.18,0,0,1-2,.66H6.31A5.21,5.21,0,0,1,3.75,15l.7-1.39a3.18,3.18,0,0,0,1.87.53,1,1,0,0,0,.73-.23.53.53,0,0,0,.15-.35c0-.36-.51-.53-1.14-.72a5.5,5.5,0,0,1-1.54-.71,1.76,1.76,0,0,1-.77-1.58,1.85,1.85,0,0,1,.54-1.32,3.13,3.13,0,0,1,2.26-.83h0A6.13,6.13,0,0,1,9.12,9l-.79,1.37a3.7,3.7,0,0,0-1.65-.45c-.68,0-1,.21-1,.47s.64.61,1.25.8c.93.3,2.1.69,2.28,1.82l1.69-4.5h2l2,5.38V8.48h2.26c2.17,0,3.18.77,3.18,2.46C20.25,12.44,19.21,13.34,17.44,13.34Z"/></svg>