<svg id="Layer_1" data-name="Layer 1" xmlns="http://www.w3.org/2000/svg" viewBox="0 0 24 24"><title>service_plan</title><path d="M7,2H3A1,1,0,0,0,2,3V21a1,1,0,0,0,1,1H7a1,1,0,0,0,1-1V3A1,1,0,0,0,7,2ZM5,21a2,2,0,1,1,2-2A2,2,0,0,1,5,21Zm2-9H3V3H7Z"/><circle cx="5.01" cy="19.01" r="1"/><rect x="14" y="2" width="8" height="2.02"/><rect x="10" y="2" width="2.01" height="2.02"/><rect x="14" y="6" width="8" height="2.02"/><rect x="10" y="6" width="2.01" height="2.02"/><rect x="14" y="10" width="8" height="2.02"/><rect x="10" y="10" width="2.01" height="2.02"/></svg>