<svg id="Layer_2" data-name="Layer 2" xmlns="http://www.w3.org/2000/svg" viewBox="0 0 24 24"><title>smt</title><g id="smt"><polygon points="6 23.01 8.5 21.51 11 23.01 11 19 6 19 6 23.01"/><rect x="6" y="5" width="2" height="2"/><rect x="6" y="10" width="2" height="2"/><rect x="6" y="15.01" width="2" height="2"/><path d="M20.36,1A1.42,1.42,0,0,0,20,1H12V23l2.5-1.5L17,23V21h3a2,2,0,0,0,2-2V3A2,2,0,0,0,20.36,1ZM17,17H15V15h2Zm0-5H15V10h2Zm0-5H15V5h2Z"/><path d="M4,1A2,2,0,0,0,2,3V19a2,2,0,0,0,2,2V3h7V1Z"/></g></svg>