<svg id="Layer_1" data-name="Layer 1" xmlns="http://www.w3.org/2000/svg" viewBox="0 0 24 24"><title>timeout</title><path d="M10.43,13l5.8,5.79a8.12,8.12,0,0,0,1.43-1.12L16,16l-5-3V11L6.34,6.34A8.12,8.12,0,0,0,5.22,7.77Z"/><path d="M19.07,19.07a10.39,10.39,0,0,1-1.4,1.16l1.41,1.41,1.28-1.28Z"/><path d="M3.64,3.64,2.36,4.92,3.77,6.33a9.69,9.69,0,0,1,1.16-1.4Z"/><polygon points="16 16 16.25 16.15 17 14.92 12.5 12.25 12.5 7 11 7 11 11 11 13 16 16"/><path d="M19.07,19.07l-1.41-1.41h0a8.12,8.12,0,0,1-1.43,1.12,8,8,0,0,1-11-11A8.12,8.12,0,0,1,6.34,6.34h0L4.93,4.93h0a9.69,9.69,0,0,0-1.16,1.4,10,10,0,0,0,13.9,13.9,10.39,10.39,0,0,0,1.4-1.16Z"/><path d="M12,4a8,8,0,0,1,6.78,12.23l1.45,1.44A10,10,0,0,0,12,2,9.87,9.87,0,0,0,6.33,3.77L7.77,5.22A8,8,0,0,1,12,4Z"/></svg>