<svg id="Layer_2" data-name="Layer 2" xmlns="http://www.w3.org/2000/svg" viewBox="0 0 24 24"><title>Artboard 1</title><path d="M22.08,11.08h-1a9.18,9.18,0,0,0-8.2-8.2v-1a.92.92,0,0,0-1.84,0v1a9.18,9.18,0,0,0-8.2,8.2h-1a.92.92,0,0,0,0,1.84h1a9.18,9.18,0,0,0,8.2,8.2v1a.92.92,0,0,0,1.84,0v-1a9.18,9.18,0,0,0,8.2-8.2h1a.92.92,0,1,0,0-1.84Zm-2.81,0H17.19a5.3,5.3,0,0,0-4.27-4.27V4.73A7.34,7.34,0,0,1,19.27,11.08Zm-8.19-.66a1.9,1.9,0,0,0-.66.66H8.22a3.92,3.92,0,0,1,2.86-2.86Zm-.66,2.5a1.9,1.9,0,0,0,.66.66v2.2a3.92,3.92,0,0,1-2.86-2.86Zm2.5.66a1.9,1.9,0,0,0,.66-.66h2.2a3.92,3.92,0,0,1-2.86,2.86Zm.66-2.5a1.9,1.9,0,0,0-.66-.66V8.22a3.92,3.92,0,0,1,2.86,2.86Zm-2.5-6.35V6.81a5.3,5.3,0,0,0-4.27,4.27H4.73A7.34,7.34,0,0,1,11.08,4.73ZM4.73,12.92H6.81a5.3,5.3,0,0,0,4.27,4.27v2.08A7.34,7.34,0,0,1,4.73,12.92Zm8.19,6.35V17.19a5.3,5.3,0,0,0,4.27-4.27h2.08A7.34,7.34,0,0,1,12.92,19.27Z"/></svg>