<svg id="Layer_2" data-name="Layer 2" xmlns="http://www.w3.org/2000/svg" viewBox="0 0 24 24"><title>troubleshooting</title><path d="M23,11H22A10,10,0,0,0,13,2.05V0H11V2.05a10,10,0,0,0-8.95,9H0v2H2.05a10,10,0,0,0,9,9V24h2V22A10,10,0,0,0,22,13H24V11Zm-9.28,0a1.91,1.91,0,0,0-.72-.72V7.88A4.26,4.26,0,0,1,16.12,11Zm2.4,2A4.26,4.26,0,0,1,13,16.12v-2.4a1.91,1.91,0,0,0,.72-.72ZM11,4.07V6.34A5.77,5.77,0,0,0,6.34,11H4.07A8,8,0,0,1,11,4.07ZM10.28,11H7.88A4.26,4.26,0,0,1,11,7.88v2.4A1.91,1.91,0,0,0,10.28,11ZM11,13.72v2.4A4.26,4.26,0,0,1,7.88,13h2.4A1.91,1.91,0,0,0,11,13.72ZM4.07,13H6.34A5.77,5.77,0,0,0,11,17.66v2.27A8,8,0,0,1,4.07,13ZM13,19.93V17.66A5.77,5.77,0,0,0,17.66,13h2.27A8,8,0,0,1,13,19.93ZM17.66,11A5.77,5.77,0,0,0,13,6.34V4.07A8,8,0,0,1,19.93,11Z"/></svg>