<svg id="Layer_2" data-name="Layer 2" xmlns="http://www.w3.org/2000/svg" viewBox="0 0 24 24"><title>troubleshooting</title><path d="M23,11H22A10,10,0,0,0,13,2.05V1a1,1,0,0,0-2,0v1a10,10,0,0,0-8.95,9H1a1,1,0,0,0,0,2h1a10,10,0,0,0,9,9V23a1,1,0,0,0,2,0V22A10,10,0,0,0,22,13H23a1,1,0,0,0,0-2Zm-3.07,0H17.66A5.77,5.77,0,0,0,13,6.34V4.07A8,8,0,0,1,19.93,11ZM11,10.28a1.91,1.91,0,0,0-.72.72H7.88A4.26,4.26,0,0,1,11,7.88ZM10.28,13a1.91,1.91,0,0,0,.72.72v2.4A4.26,4.26,0,0,1,7.88,13Zm2.72.72a1.91,1.91,0,0,0,.72-.72h2.4A4.26,4.26,0,0,1,13,16.12ZM13.72,11a1.91,1.91,0,0,0-.72-.72V7.88A4.26,4.26,0,0,1,16.12,11ZM11,4.07V6.34A5.77,5.77,0,0,0,6.34,11H4.07A8,8,0,0,1,11,4.07ZM4.07,13H6.34A5.77,5.77,0,0,0,11,17.66v2.27A8,8,0,0,1,4.07,13ZM13,19.93V17.66A5.77,5.77,0,0,0,17.66,13h2.27A8,8,0,0,1,13,19.93Z"/></svg>