<svg id="Layer_1" data-name="Layer 1" xmlns="http://www.w3.org/2000/svg" viewBox="0 0 24 24"><title>virtual_host_manager</title><path d="M20.31,18l-3-10.47A2,2,0,0,0,18.07,6a2,2,0,0,0-3.78-.9L6,3.61A2,2,0,1,0,3,5.7V18.28A2,2,0,0,0,2,20a3,3,0,0,0,0,.31A2,2,0,0,0,3.69,22L4,22a2,2,0,0,0,1.72-1H18.26A2,2,0,0,0,20,22c.11,0,.21,0,.32,0A2,2,0,0,0,22,20.18,1.1,1.1,0,0,0,22,20,2,2,0,0,0,20.31,18ZM5.77,19.09a2.09,2.09,0,0,0-.17-.28L9.45,13.9a3.84,3.84,0,0,0,.69.07,3.24,3.24,0,0,0,.94-.15l1.25,1.48A2.39,2.39,0,0,0,12,16.51s0,.07,0,.11A2.5,2.5,0,0,0,14.5,19a2.46,2.46,0,0,0,1.66-.65l1.91,1.1a.14.14,0,0,0,0,.06H5.94A2.26,2.26,0,0,0,5.77,19.09ZM15,7.67A2,2,0,0,0,16.07,8a2.4,2.4,0,0,0,.28,0l2.93,10.17-.28.14-2.08-1.2a3,3,0,0,0,.07-.43s0-.09,0-.13A2.5,2.5,0,0,0,14.5,14a2.47,2.47,0,0,0-1.5.51l-.94-1.13a3.5,3.5,0,0,0,1.58-2.92,3.45,3.45,0,0,0-.3-1.4Zm-9.1-3,8.18,1.45a2.09,2.09,0,0,0,.23.83L12.78,8.2a3.44,3.44,0,0,0-4.47-.7L5.9,4.64ZM4,6A2,2,0,0,0,5.3,5.51L7.53,8.15a3.47,3.47,0,0,0,.92,5.37L4.81,18.17A2.28,2.28,0,0,0,4,18Z"/></svg>