<svg id="Layer_1" data-name="Layer 1" xmlns="http://www.w3.org/2000/svg" viewBox="0 0 24 24"><title>virtual_host_manager</title><path d="M20.59,19,17.3,7.56A2,2,0,0,0,18.07,6a2,2,0,0,0-3.78-.9L6,3.61A2,2,0,1,0,3,5.7V19.09A1.5,1.5,0,0,0,3.5,22a1.47,1.47,0,0,0,1.4-1H19.1a1.47,1.47,0,0,0,1.4,1,1.5,1.5,0,0,0,.09-3ZM5.9,4.64l8.18,1.45a2.09,2.09,0,0,0,.23.83L12.78,8.2a3.44,3.44,0,0,0-4.47-.7L5.9,4.64ZM10.14,14a3.24,3.24,0,0,0,.94-.15l1.33,1.58A2.46,2.46,0,0,0,12,16.77a3,3,0,0,0,.05.52L5.27,19.24,9.45,13.9A3.84,3.84,0,0,0,10.14,14Zm2.34,4.26a2.48,2.48,0,0,0,2,1,2.44,2.44,0,0,0,1.9-.9L18.72,20H6.36ZM16.35,8,19.61,19.3l0,0-2.68-1.87a2.62,2.62,0,0,0,.11-.69,2.5,2.5,0,0,0-2.5-2.5,2.45,2.45,0,0,0-1.36.41l-1.08-1.29a3.5,3.5,0,0,0,1.58-2.92,3.45,3.45,0,0,0-.3-1.4L15,7.67A2,2,0,0,0,16.07,8,2.4,2.4,0,0,0,16.35,8ZM5.3,5.51,7.53,8.15a3.47,3.47,0,0,0,.92,5.37L4.07,19.11H4V6A2,2,0,0,0,5.3,5.51Z"/></svg>