<svg id="Group_646" data-name="Group 646" xmlns="http://www.w3.org/2000/svg" xmlns:xlink="http://www.w3.org/1999/xlink" width="124" height="22.598" viewBox="0 0 124 22.598">
  <defs>
    <clipPath id="clip-path">
      <rect id="Rectangle_4625" data-name="Rectangle 4625" width="124" height="22.598" transform="translate(0 0)" fill="none"/>
    </clipPath>
  </defs>
  <path id="Path_843" data-name="Path 843" d="M24.624,11.3l3.034,3.034L30.692,11.3,27.658,8.265Zm-2.027,0,5.061-5.062L32.72,11.3,27.658,16.36ZM11.3,0,0,11.3,11.3,22.6l8.179-8.18,8.181,8.18,8.182-8.182L44.023,22.6l7.168-7.168-8.18-8.181,1.013-1.012,8.18,8.181L55.322,11.3,44.024,0,36.856,7.169l8.18,8.181-1.013,1.013L27.66,0,11.3,16.363,6.238,11.3,11.3,6.24l1.013,1.013L8.265,11.3,11.3,14.336l7.168-7.168Z" fill="#00ccd1"/>
  <rect id="Rectangle_4623" data-name="Rectangle 4623" width="2.085" height="8.91" transform="translate(62.558 6.839)"/>
  <g id="Group_645" data-name="Group 645">
    <g id="Group_644" data-name="Group 644" clip-path="url(#clip-path)">
      <path id="Path_844" data-name="Path 844" d="M70.962,15.922a5.1,5.1,0,0,1-3.486-1.348A4.622,4.622,0,0,1,66.4,13.1a4.349,4.349,0,0,1,0-3.6,4.68,4.68,0,0,1,1.078-1.476,5.069,5.069,0,0,1,3.472-1.348,5.279,5.279,0,0,1,1.561.229,4.786,4.786,0,0,1,1.263.58L72.89,9.264a2.581,2.581,0,0,0-.808-.395,3.381,3.381,0,0,0-.991-.145,3.1,3.1,0,0,0-1.115.194,2.782,2.782,0,0,0-.894.545,2.547,2.547,0,0,0-.6.818,2.509,2.509,0,0,0,0,2.037,2.543,2.543,0,0,0,.6.817,2.784,2.784,0,0,0,.894.546,3.1,3.1,0,0,0,1.115.194,3.414,3.414,0,0,0,.991-.145,2.6,2.6,0,0,0,.808-.395l.885,1.777a4.713,4.713,0,0,1-1.237.575,5.162,5.162,0,0,1-1.576.235"/>
      <path id="Path_845" data-name="Path 845" d="M78.818,15.922a4.312,4.312,0,0,1-1.749-.357,4.449,4.449,0,0,1-1.432-.991,4.72,4.72,0,0,1,0-6.55,4.464,4.464,0,0,1,1.432-.991,4.477,4.477,0,0,1,3.5,0A4.475,4.475,0,0,1,82,8.024a4.722,4.722,0,0,1,0,6.55,4.46,4.46,0,0,1-1.432.991,4.313,4.313,0,0,1-1.75.357m0-2.009a2.185,2.185,0,0,0,.915-.187,2.017,2.017,0,0,0,.713-.534,2.507,2.507,0,0,0,.465-.829,3.533,3.533,0,0,0,0-2.128,2.527,2.527,0,0,0-.465-.829,2.029,2.029,0,0,0-.713-.534,2.2,2.2,0,0,0-.915-.187,2.17,2.17,0,0,0-.907.187,2.027,2.027,0,0,0-.71.534,2.509,2.509,0,0,0-.465.829,3.513,3.513,0,0,0,0,2.128,2.489,2.489,0,0,0,.465.829,2.015,2.015,0,0,0,.71.534,2.155,2.155,0,0,0,.907.187"/>
      <path id="Path_846" data-name="Path 846" d="M84.883,15.749V6.839h2.085l3.5,5.449V6.839h2.085v8.91H90.467l-3.5-5.449v5.449Z"/>
      <path id="Path_847" data-name="Path 847" d="M96.947,15.922a5.439,5.439,0,0,1-1.117-.11,5.365,5.365,0,0,1-.953-.292,5.862,5.862,0,0,1-.757-.378,3.716,3.716,0,0,1-.527-.375l1.042-1.75c.145.1.305.214.482.329a4.8,4.8,0,0,0,.572.319,3.887,3.887,0,0,0,.643.237,2.5,2.5,0,0,0,.675.092,1.523,1.523,0,0,0,.559-.092.761.761,0,0,0,.361-.275.774.774,0,0,0,.127-.454.842.842,0,0,0-.116-.448,1.19,1.19,0,0,0-.353-.351,4.549,4.549,0,0,0-.6-.335c-.242-.115-.53-.248-.861-.4a4.344,4.344,0,0,1-.686-.392,2.881,2.881,0,0,1-.553-.505,2.2,2.2,0,0,1-.368-.624,2.042,2.042,0,0,1-.131-.742A2.425,2.425,0,0,1,94.6,8.372a2.808,2.808,0,0,1,.611-.864,2.9,2.9,0,0,1,.947-.607,3.231,3.231,0,0,1,1.228-.224,4.349,4.349,0,0,1,.97.113,5.758,5.758,0,0,1,.953.3,3.711,3.711,0,0,1,.778.426l-.842,1.658a3.612,3.612,0,0,0-.557-.316,3.353,3.353,0,0,0-.624-.213,2.74,2.74,0,0,0-.623-.076,1.419,1.419,0,0,0-.546.1.783.783,0,0,0-.348.265.668.668,0,0,0-.121.4.582.582,0,0,0,.07.292.635.635,0,0,0,.213.216,2.713,2.713,0,0,0,.362.187c.146.062.313.136.5.223q.67.282,1.186.557a4.3,4.3,0,0,1,.867.594,2.163,2.163,0,0,1,.534.74,2.457,2.457,0,0,1,.184.988,2.54,2.54,0,0,1-1.6,2.465,4.448,4.448,0,0,1-1.793.332"/>
      <path id="Path_848" data-name="Path 848" d="M116.8,6.692h0v9.214h-9.214A9.214,9.214,0,0,1,116.8,6.692"/>
      <rect id="Rectangle_4624" data-name="Rectangle 4624" width="1.964" height="9.214" transform="translate(119.68 6.692)"/>
    </g>
  </g>
</svg>
