<svg width="250" height="250" viewBox="0 0 250 250" fill="none" xmlns="http://www.w3.org/2000/svg">
<rect width="250" height="250" fill="white"/>
<path d="M0 0H5V5H0V0Z" fill="#C4C4C4"/>
<path d="M5 5H10V10H5V5Z" fill="#C4C4C4"/>
<path d="M0 10H5V15H0V10Z" fill="#C4C4C4"/>
<path d="M10 10H15V15H10V10Z" fill="#C4C4C4"/>
<path d="M10 0H15V5H10V0Z" fill="#C4C4C4"/>
<path d="M25 5H30V10H25V5Z" fill="#C4C4C4"/>
<path d="M15 5H20V10H15V5Z" fill="#C4C4C4"/>
<path d="M20 10H25V15H20V10Z" fill="#C4C4C4"/>
<path d="M20 0H25V5H20V0Z" fill="#C4C4C4"/>
<path d="M30 0H35V5H30V0Z" fill="#C4C4C4"/>
<path d="M35 5H40V10H35V5Z" fill="#C4C4C4"/>
<path d="M30 10H35V15H30V10Z" fill="#C4C4C4"/>
<path d="M40 10H45V15H40V10Z" fill="#C4C4C4"/>
<path d="M40 0H45V5H40V0Z" fill="#C4C4C4"/>
<path d="M55 5H60V10H55V5Z" fill="#C4C4C4"/>
<path d="M45 5H50V10H45V5Z" fill="#C4C4C4"/>
<path d="M50 10H55V15H50V10Z" fill="#C4C4C4"/>
<path d="M50 0H55V5H50V0Z" fill="#C4C4C4"/>
<path d="M60 0H65V5H60V0Z" fill="#C4C4C4"/>
<path d="M65 5H70V10H65V5Z" fill="#C4C4C4"/>
<path d="M60 10H65V15H60V10Z" fill="#C4C4C4"/>
<path d="M70 10H75V15H70V10Z" fill="#C4C4C4"/>
<path d="M70 0H75V5H70V0Z" fill="#C4C4C4"/>
<path d="M85 5H90V10H85V5Z" fill="#C4C4C4"/>
<path d="M75 5H80V10H75V5Z" fill="#C4C4C4"/>
<path d="M80 10H85V15H80V10Z" fill="#C4C4C4"/>
<path d="M80 0H85V5H80V0Z" fill="#C4C4C4"/>
<path d="M90 0H95V5H90V0Z" fill="#C4C4C4"/>
<path d="M95 5H100V10H95V5Z" fill="#C4C4C4"/>
<path d="M90 10H95V15H90V10Z" fill="#C4C4C4"/>
<path d="M100 10H105V15H100V10Z" fill="#C4C4C4"/>
<path d="M100 0H105V5H100V0Z" fill="#C4C4C4"/>
<path d="M115 5H120V10H115V5Z" fill="#C4C4C4"/>
<path d="M105 5H110V10H105V5Z" fill="#C4C4C4"/>
<path d="M110 10H115V15H110V10Z" fill="#C4C4C4"/>
<path d="M110 0H115V5H110V0Z" fill="#C4C4C4"/>
<path d="M120 0H125V5H120V0Z" fill="#C4C4C4"/>
<path d="M125 5H130V10H125V5Z" fill="#C4C4C4"/>
<path d="M120 10H125V15H120V10Z" fill="#C4C4C4"/>
<path d="M130 10H135V15H130V10Z" fill="#C4C4C4"/>
<path d="M130 0H135V5H130V0Z" fill="#C4C4C4"/>
<path d="M145 5H150V10H145V5Z" fill="#C4C4C4"/>
<path d="M135 5H140V10H135V5Z" fill="#C4C4C4"/>
<path d="M140 10H145V15H140V10Z" fill="#C4C4C4"/>
<path d="M140 0H145V5H140V0Z" fill="#C4C4C4"/>
<path d="M150 0H155V5H150V0Z" fill="#C4C4C4"/>
<path d="M155 5H160V10H155V5Z" fill="#C4C4C4"/>
<path d="M150 10H155V15H150V10Z" fill="#C4C4C4"/>
<path d="M160 10H165V15H160V10Z" fill="#C4C4C4"/>
<path d="M160 0H165V5H160V0Z" fill="#C4C4C4"/>
<path d="M175 5H180V10H175V5Z" fill="#C4C4C4"/>
<path d="M165 5H170V10H165V5Z" fill="#C4C4C4"/>
<path d="M170 10H175V15H170V10Z" fill="#C4C4C4"/>
<path d="M170 0H175V5H170V0Z" fill="#C4C4C4"/>
<path d="M180 0H185V5H180V0Z" fill="#C4C4C4"/>
<path d="M185 5H190V10H185V5Z" fill="#C4C4C4"/>
<path d="M180 10H185V15H180V10Z" fill="#C4C4C4"/>
<path d="M190 10H195V15H190V10Z" fill="#C4C4C4"/>
<path d="M190 0H195V5H190V0Z" fill="#C4C4C4"/>
<path d="M205 5H210V10H205V5Z" fill="#C4C4C4"/>
<path d="M195 5H200V10H195V5Z" fill="#C4C4C4"/>
<path d="M200 10H205V15H200V10Z" fill="#C4C4C4"/>
<path d="M200 0H205V5H200V0Z" fill="#C4C4C4"/>
<path d="M210 0H215V5H210V0Z" fill="#C4C4C4"/>
<path d="M215 5H220V10H215V5Z" fill="#C4C4C4"/>
<path d="M210 10H215V15H210V10Z" fill="#C4C4C4"/>
<path d="M220 10H225V15H220V10Z" fill="#C4C4C4"/>
<path d="M220 0H225V5H220V0Z" fill="#C4C4C4"/>
<path d="M235 5H240V10H235V5Z" fill="#C4C4C4"/>
<path d="M225 5H230V10H225V5Z" fill="#C4C4C4"/>
<path d="M230 10H235V15H230V10Z" fill="#C4C4C4"/>
<path d="M230 0H235V5H230V0Z" fill="#C4C4C4"/>
<path d="M245 5H250V10H245V5Z" fill="#C4C4C4"/>
<path d="M240 10H245V15H240V10Z" fill="#C4C4C4"/>
<path d="M240 0H245V5H240V0Z" fill="#C4C4C4"/>
<path d="M245 15H250V20H245V15Z" fill="#C4C4C4"/>
<path d="M0 20H5V25H0V20Z" fill="#C4C4C4"/>
<path d="M245 25H250V30H245V25Z" fill="#C4C4C4"/>
<path d="M5 25H10V30H5V25Z" fill="#C4C4C4"/>
<path d="M5 15H10V20H5V15Z" fill="#C4C4C4"/>
<path d="M20 20H25V25H20V20Z" fill="#C4C4C4"/>
<path d="M10 20H15V25H10V20Z" fill="#C4C4C4"/>
<path d="M15 25H20V30H15V25Z" fill="#C4C4C4"/>
<path d="M15 15H20V20H15V15Z" fill="#C4C4C4"/>
<path d="M25 15H30V20H25V15Z" fill="#C4C4C4"/>
<path d="M30 20H35V25H30V20Z" fill="#C4C4C4"/>
<path d="M25 25H30V30H25V25Z" fill="#C4C4C4"/>
<path d="M35 25H40V30H35V25Z" fill="#C4C4C4"/>
<path d="M35 15H40V20H35V15Z" fill="#C4C4C4"/>
<path d="M50 20H55V25H50V20Z" fill="#C4C4C4"/>
<path d="M40 20H45V25H40V20Z" fill="#C4C4C4"/>
<path d="M45 25H50V30H45V25Z" fill="#C4C4C4"/>
<path d="M45 15H50V20H45V15Z" fill="#C4C4C4"/>
<path d="M55 15H60V20H55V15Z" fill="#C4C4C4"/>
<path d="M60 20H65V25H60V20Z" fill="#C4C4C4"/>
<path d="M55 25H60V30H55V25Z" fill="#C4C4C4"/>
<path d="M65 25H70V30H65V25Z" fill="#C4C4C4"/>
<path d="M65 15H70V20H65V15Z" fill="#C4C4C4"/>
<path d="M80 20H85V25H80V20Z" fill="#C4C4C4"/>
<path d="M70 20H75V25H70V20Z" fill="#C4C4C4"/>
<path d="M75 25H80V30H75V25Z" fill="#C4C4C4"/>
<path d="M75 15H80V20H75V15Z" fill="#C4C4C4"/>
<path d="M85 15H90V20H85V15Z" fill="#C4C4C4"/>
<path d="M90 20H95V25H90V20Z" fill="#C4C4C4"/>
<path d="M85 25H90V30H85V25Z" fill="#C4C4C4"/>
<path d="M95 25H100V30H95V25Z" fill="#C4C4C4"/>
<path d="M95 15H100V20H95V15Z" fill="#C4C4C4"/>
<path d="M110 20H115V25H110V20Z" fill="#C4C4C4"/>
<path d="M100 20H105V25H100V20Z" fill="#C4C4C4"/>
<path d="M105 25H110V30H105V25Z" fill="#C4C4C4"/>
<path d="M105 15H110V20H105V15Z" fill="#C4C4C4"/>
<path d="M115 15H120V20H115V15Z" fill="#C4C4C4"/>
<path d="M120 20H125V25H120V20Z" fill="#C4C4C4"/>
<path d="M115 25H120V30H115V25Z" fill="#C4C4C4"/>
<path d="M125 25H130V30H125V25Z" fill="#C4C4C4"/>
<path d="M125 15H130V20H125V15Z" fill="#C4C4C4"/>
<path d="M140 20H145V25H140V20Z" fill="#C4C4C4"/>
<path d="M130 20H135V25H130V20Z" fill="#C4C4C4"/>
<path d="M135 25H140V30H135V25Z" fill="#C4C4C4"/>
<path d="M135 15H140V20H135V15Z" fill="#C4C4C4"/>
<path d="M145 15H150V20H145V15Z" fill="#C4C4C4"/>
<path d="M150 20H155V25H150V20Z" fill="#C4C4C4"/>
<path d="M145 25H150V30H145V25Z" fill="#C4C4C4"/>
<path d="M155 25H160V30H155V25Z" fill="#C4C4C4"/>
<path d="M155 15H160V20H155V15Z" fill="#C4C4C4"/>
<path d="M170 20H175V25H170V20Z" fill="#C4C4C4"/>
<path d="M160 20H165V25H160V20Z" fill="#C4C4C4"/>
<path d="M165 25H170V30H165V25Z" fill="#C4C4C4"/>
<path d="M165 15H170V20H165V15Z" fill="#C4C4C4"/>
<path d="M175 15H180V20H175V15Z" fill="#C4C4C4"/>
<path d="M180 20H185V25H180V20Z" fill="#C4C4C4"/>
<path d="M175 25H180V30H175V25Z" fill="#C4C4C4"/>
<path d="M185 25H190V30H185V25Z" fill="#C4C4C4"/>
<path d="M185 15H190V20H185V15Z" fill="#C4C4C4"/>
<path d="M200 20H205V25H200V20Z" fill="#C4C4C4"/>
<path d="M190 20H195V25H190V20Z" fill="#C4C4C4"/>
<path d="M195 25H200V30H195V25Z" fill="#C4C4C4"/>
<path d="M195 15H200V20H195V15Z" fill="#C4C4C4"/>
<path d="M205 15H210V20H205V15Z" fill="#C4C4C4"/>
<path d="M210 20H215V25H210V20Z" fill="#C4C4C4"/>
<path d="M205 25H210V30H205V25Z" fill="#C4C4C4"/>
<path d="M215 25H220V30H215V25Z" fill="#C4C4C4"/>
<path d="M215 15H220V20H215V15Z" fill="#C4C4C4"/>
<path d="M230 20H235V25H230V20Z" fill="#C4C4C4"/>
<path d="M220 20H225V25H220V20Z" fill="#C4C4C4"/>
<path d="M225 25H230V30H225V25Z" fill="#C4C4C4"/>
<path d="M225 15H230V20H225V15Z" fill="#C4C4C4"/>
<path d="M240 20H245V25H240V20Z" fill="#C4C4C4"/>
<path d="M235 25H240V30H235V25Z" fill="#C4C4C4"/>
<path d="M235 15H240V20H235V15Z" fill="#C4C4C4"/>
<path d="M0 30H5V35H0V30Z" fill="#C4C4C4"/>
<path d="M5 35H10V40H5V35Z" fill="#C4C4C4"/>
<path d="M0 40H5V45H0V40Z" fill="#C4C4C4"/>
<path d="M10 40H15V45H10V40Z" fill="#C4C4C4"/>
<path d="M10 30H15V35H10V30Z" fill="#C4C4C4"/>
<path d="M25 35H30V40H25V35Z" fill="#C4C4C4"/>
<path d="M15 35H20V40H15V35Z" fill="#C4C4C4"/>
<path d="M20 40H25V45H20V40Z" fill="#C4C4C4"/>
<path d="M20 30H25V35H20V30Z" fill="#C4C4C4"/>
<path d="M30 30H35V35H30V30Z" fill="#C4C4C4"/>
<path d="M35 35H40V40H35V35Z" fill="#C4C4C4"/>
<path d="M30 40H35V45H30V40Z" fill="#C4C4C4"/>
<path d="M40 40H45V45H40V40Z" fill="#C4C4C4"/>
<path d="M40 30H45V35H40V30Z" fill="#C4C4C4"/>
<path d="M55 35H60V40H55V35Z" fill="#C4C4C4"/>
<path d="M45 35H50V40H45V35Z" fill="#C4C4C4"/>
<path d="M50 40H55V45H50V40Z" fill="#C4C4C4"/>
<path d="M50 30H55V35H50V30Z" fill="#C4C4C4"/>
<path d="M60 30H65V35H60V30Z" fill="#C4C4C4"/>
<path d="M65 35H70V40H65V35Z" fill="#C4C4C4"/>
<path d="M60 40H65V45H60V40Z" fill="#C4C4C4"/>
<path d="M70 40H75V45H70V40Z" fill="#C4C4C4"/>
<path d="M70 30H75V35H70V30Z" fill="#C4C4C4"/>
<path d="M85 35H90V40H85V35Z" fill="#C4C4C4"/>
<path d="M75 35H80V40H75V35Z" fill="#C4C4C4"/>
<path d="M80 40H85V45H80V40Z" fill="#C4C4C4"/>
<path d="M80 30H85V35H80V30Z" fill="#C4C4C4"/>
<path d="M90 30H95V35H90V30Z" fill="#C4C4C4"/>
<path d="M95 35H100V40H95V35Z" fill="#C4C4C4"/>
<path d="M90 40H95V45H90V40Z" fill="#C4C4C4"/>
<path d="M100 40H105V45H100V40Z" fill="#C4C4C4"/>
<path d="M100 30H105V35H100V30Z" fill="#C4C4C4"/>
<path d="M115 35H120V40H115V35Z" fill="#C4C4C4"/>
<path d="M105 35H110V40H105V35Z" fill="#C4C4C4"/>
<path d="M110 40H115V45H110V40Z" fill="#C4C4C4"/>
<path d="M110 30H115V35H110V30Z" fill="#C4C4C4"/>
<path d="M120 30H125V35H120V30Z" fill="#C4C4C4"/>
<path d="M125 35H130V40H125V35Z" fill="#C4C4C4"/>
<path d="M120 40H125V45H120V40Z" fill="#C4C4C4"/>
<path d="M130 40H135V45H130V40Z" fill="#C4C4C4"/>
<path d="M130 30H135V35H130V30Z" fill="#C4C4C4"/>
<path d="M145 35H150V40H145V35Z" fill="#C4C4C4"/>
<path d="M135 35H140V40H135V35Z" fill="#C4C4C4"/>
<path d="M140 40H145V45H140V40Z" fill="#C4C4C4"/>
<path d="M140 30H145V35H140V30Z" fill="#C4C4C4"/>
<path d="M150 30H155V35H150V30Z" fill="#C4C4C4"/>
<path d="M155 35H160V40H155V35Z" fill="#C4C4C4"/>
<path d="M150 40H155V45H150V40Z" fill="#C4C4C4"/>
<path d="M160 40H165V45H160V40Z" fill="#C4C4C4"/>
<path d="M160 30H165V35H160V30Z" fill="#C4C4C4"/>
<path d="M175 35H180V40H175V35Z" fill="#C4C4C4"/>
<path d="M165 35H170V40H165V35Z" fill="#C4C4C4"/>
<path d="M170 40H175V45H170V40Z" fill="#C4C4C4"/>
<path d="M170 30H175V35H170V30Z" fill="#C4C4C4"/>
<path d="M180 30H185V35H180V30Z" fill="#C4C4C4"/>
<path d="M185 35H190V40H185V35Z" fill="#C4C4C4"/>
<path d="M180 40H185V45H180V40Z" fill="#C4C4C4"/>
<path d="M190 40H195V45H190V40Z" fill="#C4C4C4"/>
<path d="M190 30H195V35H190V30Z" fill="#C4C4C4"/>
<path d="M205 35H210V40H205V35Z" fill="#C4C4C4"/>
<path d="M195 35H200V40H195V35Z" fill="#C4C4C4"/>
<path d="M200 40H205V45H200V40Z" fill="#C4C4C4"/>
<path d="M200 30H205V35H200V30Z" fill="#C4C4C4"/>
<path d="M210 30H215V35H210V30Z" fill="#C4C4C4"/>
<path d="M215 35H220V40H215V35Z" fill="#C4C4C4"/>
<path d="M210 40H215V45H210V40Z" fill="#C4C4C4"/>
<path d="M220 40H225V45H220V40Z" fill="#C4C4C4"/>
<path d="M220 30H225V35H220V30Z" fill="#C4C4C4"/>
<path d="M235 35H240V40H235V35Z" fill="#C4C4C4"/>
<path d="M225 35H230V40H225V35Z" fill="#C4C4C4"/>
<path d="M230 40H235V45H230V40Z" fill="#C4C4C4"/>
<path d="M230 30H235V35H230V30Z" fill="#C4C4C4"/>
<path d="M245 35H250V40H245V35Z" fill="#C4C4C4"/>
<path d="M240 40H245V45H240V40Z" fill="#C4C4C4"/>
<path d="M240 30H245V35H240V30Z" fill="#C4C4C4"/>
<path d="M245 45H250V50H245V45Z" fill="#C4C4C4"/>
<path d="M0 50H5V55H0V50Z" fill="#C4C4C4"/>
<path d="M245 55H250V60H245V55Z" fill="#C4C4C4"/>
<path d="M5 55H10V60H5V55Z" fill="#C4C4C4"/>
<path d="M5 45H10V50H5V45Z" fill="#C4C4C4"/>
<path d="M20 50H25V55H20V50Z" fill="#C4C4C4"/>
<path d="M10 50H15V55H10V50Z" fill="#C4C4C4"/>
<path d="M15 55H20V60H15V55Z" fill="#C4C4C4"/>
<path d="M15 45H20V50H15V45Z" fill="#C4C4C4"/>
<path d="M25 45H30V50H25V45Z" fill="#C4C4C4"/>
<path d="M30 50H35V55H30V50Z" fill="#C4C4C4"/>
<path d="M25 55H30V60H25V55Z" fill="#C4C4C4"/>
<path d="M35 55H40V60H35V55Z" fill="#C4C4C4"/>
<path d="M35 45H40V50H35V45Z" fill="#C4C4C4"/>
<path d="M50 50H55V55H50V50Z" fill="#C4C4C4"/>
<path d="M40 50H45V55H40V50Z" fill="#C4C4C4"/>
<path d="M45 55H50V60H45V55Z" fill="#C4C4C4"/>
<path d="M45 45H50V50H45V45Z" fill="#C4C4C4"/>
<path d="M55 45H60V50H55V45Z" fill="#C4C4C4"/>
<path d="M60 50H65V55H60V50Z" fill="#C4C4C4"/>
<path d="M55 55H60V60H55V55Z" fill="#C4C4C4"/>
<path d="M65 55H70V60H65V55Z" fill="#C4C4C4"/>
<path d="M65 45H70V50H65V45Z" fill="#C4C4C4"/>
<path d="M80 50H85V55H80V50Z" fill="#C4C4C4"/>
<path d="M70 50H75V55H70V50Z" fill="#C4C4C4"/>
<path d="M75 55H80V60H75V55Z" fill="#C4C4C4"/>
<path d="M75 45H80V50H75V45Z" fill="#C4C4C4"/>
<path d="M85 45H90V50H85V45Z" fill="#C4C4C4"/>
<path d="M90 50H95V55H90V50Z" fill="#C4C4C4"/>
<path d="M85 55H90V60H85V55Z" fill="#C4C4C4"/>
<path d="M95 55H100V60H95V55Z" fill="#C4C4C4"/>
<path d="M95 45H100V50H95V45Z" fill="#C4C4C4"/>
<path d="M110 50H115V55H110V50Z" fill="#C4C4C4"/>
<path d="M100 50H105V55H100V50Z" fill="#C4C4C4"/>
<path d="M105 55H110V60H105V55Z" fill="#C4C4C4"/>
<path d="M105 45H110V50H105V45Z" fill="#C4C4C4"/>
<path d="M115 45H120V50H115V45Z" fill="#C4C4C4"/>
<path d="M120 50H125V55H120V50Z" fill="#C4C4C4"/>
<path d="M115 55H120V60H115V55Z" fill="#C4C4C4"/>
<path d="M125 55H130V60H125V55Z" fill="#C4C4C4"/>
<path d="M125 45H130V50H125V45Z" fill="#C4C4C4"/>
<path d="M140 50H145V55H140V50Z" fill="#C4C4C4"/>
<path d="M130 50H135V55H130V50Z" fill="#C4C4C4"/>
<path d="M135 55H140V60H135V55Z" fill="#C4C4C4"/>
<path d="M135 45H140V50H135V45Z" fill="#C4C4C4"/>
<path d="M145 45H150V50H145V45Z" fill="#C4C4C4"/>
<path d="M150 50H155V55H150V50Z" fill="#C4C4C4"/>
<path d="M145 55H150V60H145V55Z" fill="#C4C4C4"/>
<path d="M155 55H160V60H155V55Z" fill="#C4C4C4"/>
<path d="M155 45H160V50H155V45Z" fill="#C4C4C4"/>
<path d="M170 50H175V55H170V50Z" fill="#C4C4C4"/>
<path d="M160 50H165V55H160V50Z" fill="#C4C4C4"/>
<path d="M165 55H170V60H165V55Z" fill="#C4C4C4"/>
<path d="M165 45H170V50H165V45Z" fill="#C4C4C4"/>
<path d="M175 45H180V50H175V45Z" fill="#C4C4C4"/>
<path d="M180 50H185V55H180V50Z" fill="#C4C4C4"/>
<path d="M175 55H180V60H175V55Z" fill="#C4C4C4"/>
<path d="M185 55H190V60H185V55Z" fill="#C4C4C4"/>
<path d="M185 45H190V50H185V45Z" fill="#C4C4C4"/>
<path d="M200 50H205V55H200V50Z" fill="#C4C4C4"/>
<path d="M190 50H195V55H190V50Z" fill="#C4C4C4"/>
<path d="M195 55H200V60H195V55Z" fill="#C4C4C4"/>
<path d="M195 45H200V50H195V45Z" fill="#C4C4C4"/>
<path d="M205 45H210V50H205V45Z" fill="#C4C4C4"/>
<path d="M210 50H215V55H210V50Z" fill="#C4C4C4"/>
<path d="M205 55H210V60H205V55Z" fill="#C4C4C4"/>
<path d="M215 55H220V60H215V55Z" fill="#C4C4C4"/>
<path d="M215 45H220V50H215V45Z" fill="#C4C4C4"/>
<path d="M230 50H235V55H230V50Z" fill="#C4C4C4"/>
<path d="M220 50H225V55H220V50Z" fill="#C4C4C4"/>
<path d="M225 55H230V60H225V55Z" fill="#C4C4C4"/>
<path d="M225 45H230V50H225V45Z" fill="#C4C4C4"/>
<path d="M240 50H245V55H240V50Z" fill="#C4C4C4"/>
<path d="M235 55H240V60H235V55Z" fill="#C4C4C4"/>
<path d="M235 45H240V50H235V45Z" fill="#C4C4C4"/>
<path d="M0 60H5V65H0V60Z" fill="#C4C4C4"/>
<path d="M5 65H10V70H5V65Z" fill="#C4C4C4"/>
<path d="M0 70H5V75H0V70Z" fill="#C4C4C4"/>
<path d="M10 70H15V75H10V70Z" fill="#C4C4C4"/>
<path d="M10 60H15V65H10V60Z" fill="#C4C4C4"/>
<path d="M25 65H30V70H25V65Z" fill="#C4C4C4"/>
<path d="M15 65H20V70H15V65Z" fill="#C4C4C4"/>
<path d="M20 70H25V75H20V70Z" fill="#C4C4C4"/>
<path d="M20 60H25V65H20V60Z" fill="#C4C4C4"/>
<path d="M30 60H35V65H30V60Z" fill="#C4C4C4"/>
<path d="M35 65H40V70H35V65Z" fill="#C4C4C4"/>
<path d="M30 70H35V75H30V70Z" fill="#C4C4C4"/>
<path d="M40 70H45V75H40V70Z" fill="#C4C4C4"/>
<path d="M40 60H45V65H40V60Z" fill="#C4C4C4"/>
<path d="M55 65H60V70H55V65Z" fill="#C4C4C4"/>
<path d="M45 65H50V70H45V65Z" fill="#C4C4C4"/>
<path d="M50 70H55V75H50V70Z" fill="#C4C4C4"/>
<path d="M50 60H55V65H50V60Z" fill="#C4C4C4"/>
<path d="M60 60H65V65H60V60Z" fill="#C4C4C4"/>
<path d="M65 65H70V70H65V65Z" fill="#C4C4C4"/>
<path d="M60 70H65V75H60V70Z" fill="#C4C4C4"/>
<path d="M70 70H75V75H70V70Z" fill="#C4C4C4"/>
<path d="M70 60H75V65H70V60Z" fill="#C4C4C4"/>
<path d="M85 65H90V70H85V65Z" fill="#C4C4C4"/>
<path d="M75 65H80V70H75V65Z" fill="#C4C4C4"/>
<path d="M80 70H85V75H80V70Z" fill="#C4C4C4"/>
<path d="M80 60H85V65H80V60Z" fill="#C4C4C4"/>
<path d="M90 60H95V65H90V60Z" fill="#C4C4C4"/>
<path d="M95 65H100V70H95V65Z" fill="#C4C4C4"/>
<path d="M90 70H95V75H90V70Z" fill="#C4C4C4"/>
<path d="M100 70H105V75H100V70Z" fill="#C4C4C4"/>
<path d="M100 60H105V65H100V60Z" fill="#C4C4C4"/>
<path d="M115 65H120V70H115V65Z" fill="#C4C4C4"/>
<path d="M105 65H110V70H105V65Z" fill="#C4C4C4"/>
<path d="M110 70H115V75H110V70Z" fill="#C4C4C4"/>
<path d="M110 60H115V65H110V60Z" fill="#C4C4C4"/>
<path d="M120 60H125V65H120V60Z" fill="#C4C4C4"/>
<path d="M125 65H130V70H125V65Z" fill="#C4C4C4"/>
<path d="M120 70H125V75H120V70Z" fill="#C4C4C4"/>
<path d="M130 70H135V75H130V70Z" fill="#C4C4C4"/>
<path d="M130 60H135V65H130V60Z" fill="#C4C4C4"/>
<path d="M145 65H150V70H145V65Z" fill="#C4C4C4"/>
<path d="M135 65H140V70H135V65Z" fill="#C4C4C4"/>
<path d="M140 70H145V75H140V70Z" fill="#C4C4C4"/>
<path d="M140 60H145V65H140V60Z" fill="#C4C4C4"/>
<path d="M150 60H155V65H150V60Z" fill="#C4C4C4"/>
<path d="M155 65H160V70H155V65Z" fill="#C4C4C4"/>
<path d="M150 70H155V75H150V70Z" fill="#C4C4C4"/>
<path d="M160 70H165V75H160V70Z" fill="#C4C4C4"/>
<path d="M160 60H165V65H160V60Z" fill="#C4C4C4"/>
<path d="M175 65H180V70H175V65Z" fill="#C4C4C4"/>
<path d="M165 65H170V70H165V65Z" fill="#C4C4C4"/>
<path d="M170 70H175V75H170V70Z" fill="#C4C4C4"/>
<path d="M170 60H175V65H170V60Z" fill="#C4C4C4"/>
<path d="M180 60H185V65H180V60Z" fill="#C4C4C4"/>
<path d="M185 65H190V70H185V65Z" fill="#C4C4C4"/>
<path d="M180 70H185V75H180V70Z" fill="#C4C4C4"/>
<path d="M190 70H195V75H190V70Z" fill="#C4C4C4"/>
<path d="M190 60H195V65H190V60Z" fill="#C4C4C4"/>
<path d="M205 65H210V70H205V65Z" fill="#C4C4C4"/>
<path d="M195 65H200V70H195V65Z" fill="#C4C4C4"/>
<path d="M200 70H205V75H200V70Z" fill="#C4C4C4"/>
<path d="M200 60H205V65H200V60Z" fill="#C4C4C4"/>
<path d="M210 60H215V65H210V60Z" fill="#C4C4C4"/>
<path d="M215 65H220V70H215V65Z" fill="#C4C4C4"/>
<path d="M210 70H215V75H210V70Z" fill="#C4C4C4"/>
<path d="M220 70H225V75H220V70Z" fill="#C4C4C4"/>
<path d="M220 60H225V65H220V60Z" fill="#C4C4C4"/>
<path d="M235 65H240V70H235V65Z" fill="#C4C4C4"/>
<path d="M225 65H230V70H225V65Z" fill="#C4C4C4"/>
<path d="M230 70H235V75H230V70Z" fill="#C4C4C4"/>
<path d="M230 60H235V65H230V60Z" fill="#C4C4C4"/>
<path d="M245 65H250V70H245V65Z" fill="#C4C4C4"/>
<path d="M240 70H245V75H240V70Z" fill="#C4C4C4"/>
<path d="M240 60H245V65H240V60Z" fill="#C4C4C4"/>
<path d="M245 75H250V80H245V75Z" fill="#C4C4C4"/>
<path d="M0 80H5V85H0V80Z" fill="#C4C4C4"/>
<path d="M245 85H250V90H245V85Z" fill="#C4C4C4"/>
<path d="M5 85H10V90H5V85Z" fill="#C4C4C4"/>
<path d="M5 75H10V80H5V75Z" fill="#C4C4C4"/>
<path d="M20 80H25V85H20V80Z" fill="#C4C4C4"/>
<path d="M10 80H15V85H10V80Z" fill="#C4C4C4"/>
<path d="M15 85H20V90H15V85Z" fill="#C4C4C4"/>
<path d="M15 75H20V80H15V75Z" fill="#C4C4C4"/>
<path d="M25 75H30V80H25V75Z" fill="#C4C4C4"/>
<path d="M30 80H35V85H30V80Z" fill="#C4C4C4"/>
<path d="M25 85H30V90H25V85Z" fill="#C4C4C4"/>
<path d="M35 85H40V90H35V85Z" fill="#C4C4C4"/>
<path d="M35 75H40V80H35V75Z" fill="#C4C4C4"/>
<path d="M50 80H55V85H50V80Z" fill="#C4C4C4"/>
<path d="M40 80H45V85H40V80Z" fill="#C4C4C4"/>
<path d="M45 85H50V90H45V85Z" fill="#C4C4C4"/>
<path d="M45 75H50V80H45V75Z" fill="#C4C4C4"/>
<path d="M55 75H60V80H55V75Z" fill="#C4C4C4"/>
<path d="M60 80H65V85H60V80Z" fill="#C4C4C4"/>
<path d="M55 85H60V90H55V85Z" fill="#C4C4C4"/>
<path d="M65 85H70V90H65V85Z" fill="#C4C4C4"/>
<path d="M65 75H70V80H65V75Z" fill="#C4C4C4"/>
<path d="M80 80H85V85H80V80Z" fill="#C4C4C4"/>
<path d="M70 80H75V85H70V80Z" fill="#C4C4C4"/>
<path d="M75 85H80V90H75V85Z" fill="#C4C4C4"/>
<path d="M75 75H80V80H75V75Z" fill="#C4C4C4"/>
<path d="M85 75H90V80H85V75Z" fill="#C4C4C4"/>
<path d="M90 80H95V85H90V80Z" fill="#C4C4C4"/>
<path d="M85 85H90V90H85V85Z" fill="#C4C4C4"/>
<path d="M95 85H100V90H95V85Z" fill="#C4C4C4"/>
<path d="M95 75H100V80H95V75Z" fill="#C4C4C4"/>
<path d="M110 80H115V85H110V80Z" fill="#C4C4C4"/>
<path d="M100 80H105V85H100V80Z" fill="#C4C4C4"/>
<path d="M105 85H110V90H105V85Z" fill="#C4C4C4"/>
<path d="M105 75H110V80H105V75Z" fill="#C4C4C4"/>
<path d="M115 75H120V80H115V75Z" fill="#C4C4C4"/>
<path d="M120 80H125V85H120V80Z" fill="#C4C4C4"/>
<path d="M115 85H120V90H115V85Z" fill="#C4C4C4"/>
<path d="M125 85H130V90H125V85Z" fill="#C4C4C4"/>
<path d="M125 75H130V80H125V75Z" fill="#C4C4C4"/>
<path d="M140 80H145V85H140V80Z" fill="#C4C4C4"/>
<path d="M130 80H135V85H130V80Z" fill="#C4C4C4"/>
<path d="M135 85H140V90H135V85Z" fill="#C4C4C4"/>
<path d="M135 75H140V80H135V75Z" fill="#C4C4C4"/>
<path d="M145 75H150V80H145V75Z" fill="#C4C4C4"/>
<path d="M150 80H155V85H150V80Z" fill="#C4C4C4"/>
<path d="M145 85H150V90H145V85Z" fill="#C4C4C4"/>
<path d="M155 85H160V90H155V85Z" fill="#C4C4C4"/>
<path d="M155 75H160V80H155V75Z" fill="#C4C4C4"/>
<path d="M170 80H175V85H170V80Z" fill="#C4C4C4"/>
<path d="M160 80H165V85H160V80Z" fill="#C4C4C4"/>
<path d="M165 85H170V90H165V85Z" fill="#C4C4C4"/>
<path d="M165 75H170V80H165V75Z" fill="#C4C4C4"/>
<path d="M175 75H180V80H175V75Z" fill="#C4C4C4"/>
<path d="M180 80H185V85H180V80Z" fill="#C4C4C4"/>
<path d="M175 85H180V90H175V85Z" fill="#C4C4C4"/>
<path d="M185 85H190V90H185V85Z" fill="#C4C4C4"/>
<path d="M185 75H190V80H185V75Z" fill="#C4C4C4"/>
<path d="M200 80H205V85H200V80Z" fill="#C4C4C4"/>
<path d="M190 80H195V85H190V80Z" fill="#C4C4C4"/>
<path d="M195 85H200V90H195V85Z" fill="#C4C4C4"/>
<path d="M195 75H200V80H195V75Z" fill="#C4C4C4"/>
<path d="M205 75H210V80H205V75Z" fill="#C4C4C4"/>
<path d="M210 80H215V85H210V80Z" fill="#C4C4C4"/>
<path d="M205 85H210V90H205V85Z" fill="#C4C4C4"/>
<path d="M215 85H220V90H215V85Z" fill="#C4C4C4"/>
<path d="M215 75H220V80H215V75Z" fill="#C4C4C4"/>
<path d="M230 80H235V85H230V80Z" fill="#C4C4C4"/>
<path d="M220 80H225V85H220V80Z" fill="#C4C4C4"/>
<path d="M225 85H230V90H225V85Z" fill="#C4C4C4"/>
<path d="M225 75H230V80H225V75Z" fill="#C4C4C4"/>
<path d="M240 80H245V85H240V80Z" fill="#C4C4C4"/>
<path d="M235 85H240V90H235V85Z" fill="#C4C4C4"/>
<path d="M235 75H240V80H235V75Z" fill="#C4C4C4"/>
<path d="M0 90H5V95H0V90Z" fill="#C4C4C4"/>
<path d="M5 95H10V100H5V95Z" fill="#C4C4C4"/>
<path d="M0 100H5V105H0V100Z" fill="#C4C4C4"/>
<path d="M10 100H15V105H10V100Z" fill="#C4C4C4"/>
<path d="M10 90H15V95H10V90Z" fill="#C4C4C4"/>
<path d="M25 95H30V100H25V95Z" fill="#C4C4C4"/>
<path d="M15 95H20V100H15V95Z" fill="#C4C4C4"/>
<path d="M20 100H25V105H20V100Z" fill="#C4C4C4"/>
<path d="M20 90H25V95H20V90Z" fill="#C4C4C4"/>
<path d="M30 90H35V95H30V90Z" fill="#C4C4C4"/>
<path d="M35 95H40V100H35V95Z" fill="#C4C4C4"/>
<path d="M30 100H35V105H30V100Z" fill="#C4C4C4"/>
<path d="M40 100H45V105H40V100Z" fill="#C4C4C4"/>
<path d="M40 90H45V95H40V90Z" fill="#C4C4C4"/>
<path d="M55 95H60V100H55V95Z" fill="#C4C4C4"/>
<path d="M45 95H50V100H45V95Z" fill="#C4C4C4"/>
<path d="M50 100H55V105H50V100Z" fill="#C4C4C4"/>
<path d="M50 90H55V95H50V90Z" fill="#C4C4C4"/>
<path d="M60 90H65V95H60V90Z" fill="#C4C4C4"/>
<path d="M65 95H70V100H65V95Z" fill="#C4C4C4"/>
<path d="M60 100H65V105H60V100Z" fill="#C4C4C4"/>
<path d="M70 100H75V105H70V100Z" fill="#C4C4C4"/>
<path d="M70 90H75V95H70V90Z" fill="#C4C4C4"/>
<path d="M85 95H90V100H85V95Z" fill="#C4C4C4"/>
<path d="M75 95H80V100H75V95Z" fill="#C4C4C4"/>
<path d="M80 100H85V105H80V100Z" fill="#C4C4C4"/>
<path d="M80 90H85V95H80V90Z" fill="#C4C4C4"/>
<path d="M90 90H95V95H90V90Z" fill="#C4C4C4"/>
<path d="M95 95H100V100H95V95Z" fill="#C4C4C4"/>
<path d="M90 100H95V105H90V100Z" fill="#C4C4C4"/>
<path d="M100 100H105V105H100V100Z" fill="#C4C4C4"/>
<path d="M100 90H105V95H100V90Z" fill="#C4C4C4"/>
<path d="M115 95H120V100H115V95Z" fill="#C4C4C4"/>
<path d="M105 95H110V100H105V95Z" fill="#C4C4C4"/>
<path d="M110 100H115V105H110V100Z" fill="#C4C4C4"/>
<path d="M110 90H115V95H110V90Z" fill="#C4C4C4"/>
<path d="M120 90H125V95H120V90Z" fill="#C4C4C4"/>
<path d="M125 95H130V100H125V95Z" fill="#C4C4C4"/>
<path d="M120 100H125V105H120V100Z" fill="#C4C4C4"/>
<path d="M130 100H135V105H130V100Z" fill="#C4C4C4"/>
<path d="M130 90H135V95H130V90Z" fill="#C4C4C4"/>
<path d="M145 95H150V100H145V95Z" fill="#C4C4C4"/>
<path d="M135 95H140V100H135V95Z" fill="#C4C4C4"/>
<path d="M140 100H145V105H140V100Z" fill="#C4C4C4"/>
<path d="M140 90H145V95H140V90Z" fill="#C4C4C4"/>
<path d="M150 90H155V95H150V90Z" fill="#C4C4C4"/>
<path d="M155 95H160V100H155V95Z" fill="#C4C4C4"/>
<path d="M150 100H155V105H150V100Z" fill="#C4C4C4"/>
<path d="M160 100H165V105H160V100Z" fill="#C4C4C4"/>
<path d="M160 90H165V95H160V90Z" fill="#C4C4C4"/>
<path d="M175 95H180V100H175V95Z" fill="#C4C4C4"/>
<path d="M165 95H170V100H165V95Z" fill="#C4C4C4"/>
<path d="M170 100H175V105H170V100Z" fill="#C4C4C4"/>
<path d="M170 90H175V95H170V90Z" fill="#C4C4C4"/>
<path d="M180 90H185V95H180V90Z" fill="#C4C4C4"/>
<path d="M185 95H190V100H185V95Z" fill="#C4C4C4"/>
<path d="M180 100H185V105H180V100Z" fill="#C4C4C4"/>
<path d="M190 100H195V105H190V100Z" fill="#C4C4C4"/>
<path d="M190 90H195V95H190V90Z" fill="#C4C4C4"/>
<path d="M205 95H210V100H205V95Z" fill="#C4C4C4"/>
<path d="M195 95H200V100H195V95Z" fill="#C4C4C4"/>
<path d="M200 100H205V105H200V100Z" fill="#C4C4C4"/>
<path d="M200 90H205V95H200V90Z" fill="#C4C4C4"/>
<path d="M210 90H215V95H210V90Z" fill="#C4C4C4"/>
<path d="M215 95H220V100H215V95Z" fill="#C4C4C4"/>
<path d="M210 100H215V105H210V100Z" fill="#C4C4C4"/>
<path d="M220 100H225V105H220V100Z" fill="#C4C4C4"/>
<path d="M220 90H225V95H220V90Z" fill="#C4C4C4"/>
<path d="M235 95H240V100H235V95Z" fill="#C4C4C4"/>
<path d="M225 95H230V100H225V95Z" fill="#C4C4C4"/>
<path d="M230 100H235V105H230V100Z" fill="#C4C4C4"/>
<path d="M230 90H235V95H230V90Z" fill="#C4C4C4"/>
<path d="M245 95H250V100H245V95Z" fill="#C4C4C4"/>
<path d="M240 100H245V105H240V100Z" fill="#C4C4C4"/>
<path d="M240 90H245V95H240V90Z" fill="#C4C4C4"/>
<path d="M245 105H250V110H245V105Z" fill="#C4C4C4"/>
<path d="M0 110H5V115H0V110Z" fill="#C4C4C4"/>
<path d="M245 115H250V120H245V115Z" fill="#C4C4C4"/>
<path d="M5 115H10V120H5V115Z" fill="#C4C4C4"/>
<path d="M5 105H10V110H5V105Z" fill="#C4C4C4"/>
<path d="M20 110H25V115H20V110Z" fill="#C4C4C4"/>
<path d="M10 110H15V115H10V110Z" fill="#C4C4C4"/>
<path d="M15 115H20V120H15V115Z" fill="#C4C4C4"/>
<path d="M15 105H20V110H15V105Z" fill="#C4C4C4"/>
<path d="M25 105H30V110H25V105Z" fill="#C4C4C4"/>
<path d="M30 110H35V115H30V110Z" fill="#C4C4C4"/>
<path d="M25 115H30V120H25V115Z" fill="#C4C4C4"/>
<path d="M35 115H40V120H35V115Z" fill="#C4C4C4"/>
<path d="M35 105H40V110H35V105Z" fill="#C4C4C4"/>
<path d="M50 110H55V115H50V110Z" fill="#C4C4C4"/>
<path d="M40 110H45V115H40V110Z" fill="#C4C4C4"/>
<path d="M45 115H50V120H45V115Z" fill="#C4C4C4"/>
<path d="M45 105H50V110H45V105Z" fill="#C4C4C4"/>
<path d="M55 105H60V110H55V105Z" fill="#C4C4C4"/>
<path d="M60 110H65V115H60V110Z" fill="#C4C4C4"/>
<path d="M55 115H60V120H55V115Z" fill="#C4C4C4"/>
<path d="M65 115H70V120H65V115Z" fill="#C4C4C4"/>
<path d="M65 105H70V110H65V105Z" fill="#C4C4C4"/>
<path d="M80 110H85V115H80V110Z" fill="#C4C4C4"/>
<path d="M70 110H75V115H70V110Z" fill="#C4C4C4"/>
<path d="M75 115H80V120H75V115Z" fill="#C4C4C4"/>
<path d="M75 105H80V110H75V105Z" fill="#C4C4C4"/>
<path d="M85 105H90V110H85V105Z" fill="#C4C4C4"/>
<path d="M90 110H95V115H90V110Z" fill="#C4C4C4"/>
<path d="M85 115H90V120H85V115Z" fill="#C4C4C4"/>
<path d="M95 115H100V120H95V115Z" fill="#C4C4C4"/>
<path d="M95 105H100V110H95V105Z" fill="#C4C4C4"/>
<path d="M110 110H115V115H110V110Z" fill="#C4C4C4"/>
<path d="M100 110H105V115H100V110Z" fill="#C4C4C4"/>
<path d="M105 115H110V120H105V115Z" fill="#C4C4C4"/>
<path d="M105 105H110V110H105V105Z" fill="#C4C4C4"/>
<path d="M115 105H120V110H115V105Z" fill="#C4C4C4"/>
<path d="M120 110H125V115H120V110Z" fill="#C4C4C4"/>
<path d="M115 115H120V120H115V115Z" fill="#C4C4C4"/>
<path d="M125 115H130V120H125V115Z" fill="#C4C4C4"/>
<path d="M125 105H130V110H125V105Z" fill="#C4C4C4"/>
<path d="M140 110H145V115H140V110Z" fill="#C4C4C4"/>
<path d="M130 110H135V115H130V110Z" fill="#C4C4C4"/>
<path d="M135 115H140V120H135V115Z" fill="#C4C4C4"/>
<path d="M135 105H140V110H135V105Z" fill="#C4C4C4"/>
<path d="M145 105H150V110H145V105Z" fill="#C4C4C4"/>
<path d="M150 110H155V115H150V110Z" fill="#C4C4C4"/>
<path d="M145 115H150V120H145V115Z" fill="#C4C4C4"/>
<path d="M155 115H160V120H155V115Z" fill="#C4C4C4"/>
<path d="M155 105H160V110H155V105Z" fill="#C4C4C4"/>
<path d="M170 110H175V115H170V110Z" fill="#C4C4C4"/>
<path d="M160 110H165V115H160V110Z" fill="#C4C4C4"/>
<path d="M165 115H170V120H165V115Z" fill="#C4C4C4"/>
<path d="M165 105H170V110H165V105Z" fill="#C4C4C4"/>
<path d="M175 105H180V110H175V105Z" fill="#C4C4C4"/>
<path d="M180 110H185V115H180V110Z" fill="#C4C4C4"/>
<path d="M175 115H180V120H175V115Z" fill="#C4C4C4"/>
<path d="M185 115H190V120H185V115Z" fill="#C4C4C4"/>
<path d="M185 105H190V110H185V105Z" fill="#C4C4C4"/>
<path d="M200 110H205V115H200V110Z" fill="#C4C4C4"/>
<path d="M190 110H195V115H190V110Z" fill="#C4C4C4"/>
<path d="M195 115H200V120H195V115Z" fill="#C4C4C4"/>
<path d="M195 105H200V110H195V105Z" fill="#C4C4C4"/>
<path d="M205 105H210V110H205V105Z" fill="#C4C4C4"/>
<path d="M210 110H215V115H210V110Z" fill="#C4C4C4"/>
<path d="M205 115H210V120H205V115Z" fill="#C4C4C4"/>
<path d="M215 115H220V120H215V115Z" fill="#C4C4C4"/>
<path d="M215 105H220V110H215V105Z" fill="#C4C4C4"/>
<path d="M230 110H235V115H230V110Z" fill="#C4C4C4"/>
<path d="M220 110H225V115H220V110Z" fill="#C4C4C4"/>
<path d="M225 115H230V120H225V115Z" fill="#C4C4C4"/>
<path d="M225 105H230V110H225V105Z" fill="#C4C4C4"/>
<path d="M240 110H245V115H240V110Z" fill="#C4C4C4"/>
<path d="M235 115H240V120H235V115Z" fill="#C4C4C4"/>
<path d="M235 105H240V110H235V105Z" fill="#C4C4C4"/>
<path d="M0 120H5V125H0V120Z" fill="#C4C4C4"/>
<path d="M5 125H10V130H5V125Z" fill="#C4C4C4"/>
<path d="M0 130H5V135H0V130Z" fill="#C4C4C4"/>
<path d="M10 130H15V135H10V130Z" fill="#C4C4C4"/>
<path d="M10 120H15V125H10V120Z" fill="#C4C4C4"/>
<path d="M25 125H30V130H25V125Z" fill="#C4C4C4"/>
<path d="M15 125H20V130H15V125Z" fill="#C4C4C4"/>
<path d="M20 130H25V135H20V130Z" fill="#C4C4C4"/>
<path d="M20 120H25V125H20V120Z" fill="#C4C4C4"/>
<path d="M30 120H35V125H30V120Z" fill="#C4C4C4"/>
<path d="M35 125H40V130H35V125Z" fill="#C4C4C4"/>
<path d="M30 130H35V135H30V130Z" fill="#C4C4C4"/>
<path d="M40 130H45V135H40V130Z" fill="#C4C4C4"/>
<path d="M40 120H45V125H40V120Z" fill="#C4C4C4"/>
<path d="M55 125H60V130H55V125Z" fill="#C4C4C4"/>
<path d="M45 125H50V130H45V125Z" fill="#C4C4C4"/>
<path d="M50 130H55V135H50V130Z" fill="#C4C4C4"/>
<path d="M50 120H55V125H50V120Z" fill="#C4C4C4"/>
<path d="M60 120H65V125H60V120Z" fill="#C4C4C4"/>
<path d="M65 125H70V130H65V125Z" fill="#C4C4C4"/>
<path d="M60 130H65V135H60V130Z" fill="#C4C4C4"/>
<path d="M70 130H75V135H70V130Z" fill="#C4C4C4"/>
<path d="M70 120H75V125H70V120Z" fill="#C4C4C4"/>
<path d="M85 125H90V130H85V125Z" fill="#C4C4C4"/>
<path d="M75 125H80V130H75V125Z" fill="#C4C4C4"/>
<path d="M80 130H85V135H80V130Z" fill="#C4C4C4"/>
<path d="M80 120H85V125H80V120Z" fill="#C4C4C4"/>
<path d="M90 120H95V125H90V120Z" fill="#C4C4C4"/>
<path d="M95 125H100V130H95V125Z" fill="#C4C4C4"/>
<path d="M90 130H95V135H90V130Z" fill="#C4C4C4"/>
<path d="M100 130H105V135H100V130Z" fill="#C4C4C4"/>
<path d="M100 120H105V125H100V120Z" fill="#C4C4C4"/>
<path d="M115 125H120V130H115V125Z" fill="#C4C4C4"/>
<path d="M105 125H110V130H105V125Z" fill="#C4C4C4"/>
<path d="M110 130H115V135H110V130Z" fill="#C4C4C4"/>
<path d="M110 120H115V125H110V120Z" fill="#C4C4C4"/>
<path d="M120 120H125V125H120V120Z" fill="#C4C4C4"/>
<path d="M125 125H130V130H125V125Z" fill="#C4C4C4"/>
<path d="M120 130H125V135H120V130Z" fill="#C4C4C4"/>
<path d="M130 130H135V135H130V130Z" fill="#C4C4C4"/>
<path d="M130 120H135V125H130V120Z" fill="#C4C4C4"/>
<path d="M145 125H150V130H145V125Z" fill="#C4C4C4"/>
<path d="M135 125H140V130H135V125Z" fill="#C4C4C4"/>
<path d="M140 130H145V135H140V130Z" fill="#C4C4C4"/>
<path d="M140 120H145V125H140V120Z" fill="#C4C4C4"/>
<path d="M150 120H155V125H150V120Z" fill="#C4C4C4"/>
<path d="M155 125H160V130H155V125Z" fill="#C4C4C4"/>
<path d="M150 130H155V135H150V130Z" fill="#C4C4C4"/>
<path d="M160 130H165V135H160V130Z" fill="#C4C4C4"/>
<path d="M160 120H165V125H160V120Z" fill="#C4C4C4"/>
<path d="M175 125H180V130H175V125Z" fill="#C4C4C4"/>
<path d="M165 125H170V130H165V125Z" fill="#C4C4C4"/>
<path d="M170 130H175V135H170V130Z" fill="#C4C4C4"/>
<path d="M170 120H175V125H170V120Z" fill="#C4C4C4"/>
<path d="M180 120H185V125H180V120Z" fill="#C4C4C4"/>
<path d="M185 125H190V130H185V125Z" fill="#C4C4C4"/>
<path d="M180 130H185V135H180V130Z" fill="#C4C4C4"/>
<path d="M190 130H195V135H190V130Z" fill="#C4C4C4"/>
<path d="M190 120H195V125H190V120Z" fill="#C4C4C4"/>
<path d="M205 125H210V130H205V125Z" fill="#C4C4C4"/>
<path d="M195 125H200V130H195V125Z" fill="#C4C4C4"/>
<path d="M200 130H205V135H200V130Z" fill="#C4C4C4"/>
<path d="M200 120H205V125H200V120Z" fill="#C4C4C4"/>
<path d="M210 120H215V125H210V120Z" fill="#C4C4C4"/>
<path d="M215 125H220V130H215V125Z" fill="#C4C4C4"/>
<path d="M210 130H215V135H210V130Z" fill="#C4C4C4"/>
<path d="M220 130H225V135H220V130Z" fill="#C4C4C4"/>
<path d="M220 120H225V125H220V120Z" fill="#C4C4C4"/>
<path d="M235 125H240V130H235V125Z" fill="#C4C4C4"/>
<path d="M225 125H230V130H225V125Z" fill="#C4C4C4"/>
<path d="M230 130H235V135H230V130Z" fill="#C4C4C4"/>
<path d="M230 120H235V125H230V120Z" fill="#C4C4C4"/>
<path d="M245 125H250V130H245V125Z" fill="#C4C4C4"/>
<path d="M240 130H245V135H240V130Z" fill="#C4C4C4"/>
<path d="M240 120H245V125H240V120Z" fill="#C4C4C4"/>
<path d="M245 135H250V140H245V135Z" fill="#C4C4C4"/>
<path d="M0 140H5V145H0V140Z" fill="#C4C4C4"/>
<path d="M245 145H250V150H245V145Z" fill="#C4C4C4"/>
<path d="M5 145H10V150H5V145Z" fill="#C4C4C4"/>
<path d="M5 135H10V140H5V135Z" fill="#C4C4C4"/>
<path d="M20 140H25V145H20V140Z" fill="#C4C4C4"/>
<path d="M10 140H15V145H10V140Z" fill="#C4C4C4"/>
<path d="M15 145H20V150H15V145Z" fill="#C4C4C4"/>
<path d="M15 135H20V140H15V135Z" fill="#C4C4C4"/>
<path d="M25 135H30V140H25V135Z" fill="#C4C4C4"/>
<path d="M30 140H35V145H30V140Z" fill="#C4C4C4"/>
<path d="M25 145H30V150H25V145Z" fill="#C4C4C4"/>
<path d="M35 145H40V150H35V145Z" fill="#C4C4C4"/>
<path d="M35 135H40V140H35V135Z" fill="#C4C4C4"/>
<path d="M50 140H55V145H50V140Z" fill="#C4C4C4"/>
<path d="M40 140H45V145H40V140Z" fill="#C4C4C4"/>
<path d="M45 145H50V150H45V145Z" fill="#C4C4C4"/>
<path d="M45 135H50V140H45V135Z" fill="#C4C4C4"/>
<path d="M55 135H60V140H55V135Z" fill="#C4C4C4"/>
<path d="M60 140H65V145H60V140Z" fill="#C4C4C4"/>
<path d="M55 145H60V150H55V145Z" fill="#C4C4C4"/>
<path d="M65 145H70V150H65V145Z" fill="#C4C4C4"/>
<path d="M65 135H70V140H65V135Z" fill="#C4C4C4"/>
<path d="M80 140H85V145H80V140Z" fill="#C4C4C4"/>
<path d="M70 140H75V145H70V140Z" fill="#C4C4C4"/>
<path d="M75 145H80V150H75V145Z" fill="#C4C4C4"/>
<path d="M75 135H80V140H75V135Z" fill="#C4C4C4"/>
<path d="M85 135H90V140H85V135Z" fill="#C4C4C4"/>
<path d="M90 140H95V145H90V140Z" fill="#C4C4C4"/>
<path d="M85 145H90V150H85V145Z" fill="#C4C4C4"/>
<path d="M95 145H100V150H95V145Z" fill="#C4C4C4"/>
<path d="M95 135H100V140H95V135Z" fill="#C4C4C4"/>
<path d="M110 140H115V145H110V140Z" fill="#C4C4C4"/>
<path d="M100 140H105V145H100V140Z" fill="#C4C4C4"/>
<path d="M105 145H110V150H105V145Z" fill="#C4C4C4"/>
<path d="M105 135H110V140H105V135Z" fill="#C4C4C4"/>
<path d="M115 135H120V140H115V135Z" fill="#C4C4C4"/>
<path d="M120 140H125V145H120V140Z" fill="#C4C4C4"/>
<path d="M115 145H120V150H115V145Z" fill="#C4C4C4"/>
<path d="M125 145H130V150H125V145Z" fill="#C4C4C4"/>
<path d="M125 135H130V140H125V135Z" fill="#C4C4C4"/>
<path d="M140 140H145V145H140V140Z" fill="#C4C4C4"/>
<path d="M130 140H135V145H130V140Z" fill="#C4C4C4"/>
<path d="M135 145H140V150H135V145Z" fill="#C4C4C4"/>
<path d="M135 135H140V140H135V135Z" fill="#C4C4C4"/>
<path d="M145 135H150V140H145V135Z" fill="#C4C4C4"/>
<path d="M150 140H155V145H150V140Z" fill="#C4C4C4"/>
<path d="M145 145H150V150H145V145Z" fill="#C4C4C4"/>
<path d="M155 145H160V150H155V145Z" fill="#C4C4C4"/>
<path d="M155 135H160V140H155V135Z" fill="#C4C4C4"/>
<path d="M170 140H175V145H170V140Z" fill="#C4C4C4"/>
<path d="M160 140H165V145H160V140Z" fill="#C4C4C4"/>
<path d="M165 145H170V150H165V145Z" fill="#C4C4C4"/>
<path d="M165 135H170V140H165V135Z" fill="#C4C4C4"/>
<path d="M175 135H180V140H175V135Z" fill="#C4C4C4"/>
<path d="M180 140H185V145H180V140Z" fill="#C4C4C4"/>
<path d="M175 145H180V150H175V145Z" fill="#C4C4C4"/>
<path d="M185 145H190V150H185V145Z" fill="#C4C4C4"/>
<path d="M185 135H190V140H185V135Z" fill="#C4C4C4"/>
<path d="M200 140H205V145H200V140Z" fill="#C4C4C4"/>
<path d="M190 140H195V145H190V140Z" fill="#C4C4C4"/>
<path d="M195 145H200V150H195V145Z" fill="#C4C4C4"/>
<path d="M195 135H200V140H195V135Z" fill="#C4C4C4"/>
<path d="M205 135H210V140H205V135Z" fill="#C4C4C4"/>
<path d="M210 140H215V145H210V140Z" fill="#C4C4C4"/>
<path d="M205 145H210V150H205V145Z" fill="#C4C4C4"/>
<path d="M215 145H220V150H215V145Z" fill="#C4C4C4"/>
<path d="M215 135H220V140H215V135Z" fill="#C4C4C4"/>
<path d="M230 140H235V145H230V140Z" fill="#C4C4C4"/>
<path d="M220 140H225V145H220V140Z" fill="#C4C4C4"/>
<path d="M225 145H230V150H225V145Z" fill="#C4C4C4"/>
<path d="M225 135H230V140H225V135Z" fill="#C4C4C4"/>
<path d="M240 140H245V145H240V140Z" fill="#C4C4C4"/>
<path d="M235 145H240V150H235V145Z" fill="#C4C4C4"/>
<path d="M235 135H240V140H235V135Z" fill="#C4C4C4"/>
<path d="M0 150H5V155H0V150Z" fill="#C4C4C4"/>
<path d="M5 155H10V160H5V155Z" fill="#C4C4C4"/>
<path d="M0 160H5V165H0V160Z" fill="#C4C4C4"/>
<path d="M10 160H15V165H10V160Z" fill="#C4C4C4"/>
<path d="M10 150H15V155H10V150Z" fill="#C4C4C4"/>
<path d="M25 155H30V160H25V155Z" fill="#C4C4C4"/>
<path d="M15 155H20V160H15V155Z" fill="#C4C4C4"/>
<path d="M20 160H25V165H20V160Z" fill="#C4C4C4"/>
<path d="M20 150H25V155H20V150Z" fill="#C4C4C4"/>
<path d="M30 150H35V155H30V150Z" fill="#C4C4C4"/>
<path d="M35 155H40V160H35V155Z" fill="#C4C4C4"/>
<path d="M30 160H35V165H30V160Z" fill="#C4C4C4"/>
<path d="M40 160H45V165H40V160Z" fill="#C4C4C4"/>
<path d="M40 150H45V155H40V150Z" fill="#C4C4C4"/>
<path d="M55 155H60V160H55V155Z" fill="#C4C4C4"/>
<path d="M45 155H50V160H45V155Z" fill="#C4C4C4"/>
<path d="M50 160H55V165H50V160Z" fill="#C4C4C4"/>
<path d="M50 150H55V155H50V150Z" fill="#C4C4C4"/>
<path d="M60 150H65V155H60V150Z" fill="#C4C4C4"/>
<path d="M65 155H70V160H65V155Z" fill="#C4C4C4"/>
<path d="M60 160H65V165H60V160Z" fill="#C4C4C4"/>
<path d="M70 160H75V165H70V160Z" fill="#C4C4C4"/>
<path d="M70 150H75V155H70V150Z" fill="#C4C4C4"/>
<path d="M85 155H90V160H85V155Z" fill="#C4C4C4"/>
<path d="M75 155H80V160H75V155Z" fill="#C4C4C4"/>
<path d="M80 160H85V165H80V160Z" fill="#C4C4C4"/>
<path d="M80 150H85V155H80V150Z" fill="#C4C4C4"/>
<path d="M90 150H95V155H90V150Z" fill="#C4C4C4"/>
<path d="M95 155H100V160H95V155Z" fill="#C4C4C4"/>
<path d="M90 160H95V165H90V160Z" fill="#C4C4C4"/>
<path d="M100 160H105V165H100V160Z" fill="#C4C4C4"/>
<path d="M100 150H105V155H100V150Z" fill="#C4C4C4"/>
<path d="M115 155H120V160H115V155Z" fill="#C4C4C4"/>
<path d="M105 155H110V160H105V155Z" fill="#C4C4C4"/>
<path d="M110 160H115V165H110V160Z" fill="#C4C4C4"/>
<path d="M110 150H115V155H110V150Z" fill="#C4C4C4"/>
<path d="M120 150H125V155H120V150Z" fill="#C4C4C4"/>
<path d="M125 155H130V160H125V155Z" fill="#C4C4C4"/>
<path d="M120 160H125V165H120V160Z" fill="#C4C4C4"/>
<path d="M130 160H135V165H130V160Z" fill="#C4C4C4"/>
<path d="M130 150H135V155H130V150Z" fill="#C4C4C4"/>
<path d="M145 155H150V160H145V155Z" fill="#C4C4C4"/>
<path d="M135 155H140V160H135V155Z" fill="#C4C4C4"/>
<path d="M140 160H145V165H140V160Z" fill="#C4C4C4"/>
<path d="M140 150H145V155H140V150Z" fill="#C4C4C4"/>
<path d="M150 150H155V155H150V150Z" fill="#C4C4C4"/>
<path d="M155 155H160V160H155V155Z" fill="#C4C4C4"/>
<path d="M150 160H155V165H150V160Z" fill="#C4C4C4"/>
<path d="M160 160H165V165H160V160Z" fill="#C4C4C4"/>
<path d="M160 150H165V155H160V150Z" fill="#C4C4C4"/>
<path d="M175 155H180V160H175V155Z" fill="#C4C4C4"/>
<path d="M165 155H170V160H165V155Z" fill="#C4C4C4"/>
<path d="M170 160H175V165H170V160Z" fill="#C4C4C4"/>
<path d="M170 150H175V155H170V150Z" fill="#C4C4C4"/>
<path d="M180 150H185V155H180V150Z" fill="#C4C4C4"/>
<path d="M185 155H190V160H185V155Z" fill="#C4C4C4"/>
<path d="M180 160H185V165H180V160Z" fill="#C4C4C4"/>
<path d="M190 160H195V165H190V160Z" fill="#C4C4C4"/>
<path d="M190 150H195V155H190V150Z" fill="#C4C4C4"/>
<path d="M205 155H210V160H205V155Z" fill="#C4C4C4"/>
<path d="M195 155H200V160H195V155Z" fill="#C4C4C4"/>
<path d="M200 160H205V165H200V160Z" fill="#C4C4C4"/>
<path d="M200 150H205V155H200V150Z" fill="#C4C4C4"/>
<path d="M210 150H215V155H210V150Z" fill="#C4C4C4"/>
<path d="M215 155H220V160H215V155Z" fill="#C4C4C4"/>
<path d="M210 160H215V165H210V160Z" fill="#C4C4C4"/>
<path d="M220 160H225V165H220V160Z" fill="#C4C4C4"/>
<path d="M220 150H225V155H220V150Z" fill="#C4C4C4"/>
<path d="M235 155H240V160H235V155Z" fill="#C4C4C4"/>
<path d="M225 155H230V160H225V155Z" fill="#C4C4C4"/>
<path d="M230 160H235V165H230V160Z" fill="#C4C4C4"/>
<path d="M230 150H235V155H230V150Z" fill="#C4C4C4"/>
<path d="M245 155H250V160H245V155Z" fill="#C4C4C4"/>
<path d="M240 160H245V165H240V160Z" fill="#C4C4C4"/>
<path d="M240 150H245V155H240V150Z" fill="#C4C4C4"/>
<path d="M245 165H250V170H245V165Z" fill="#C4C4C4"/>
<path d="M0 170H5V175H0V170Z" fill="#C4C4C4"/>
<path d="M245 175H250V180H245V175Z" fill="#C4C4C4"/>
<path d="M5 175H10V180H5V175Z" fill="#C4C4C4"/>
<path d="M5 165H10V170H5V165Z" fill="#C4C4C4"/>
<path d="M20 170H25V175H20V170Z" fill="#C4C4C4"/>
<path d="M10 170H15V175H10V170Z" fill="#C4C4C4"/>
<path d="M15 175H20V180H15V175Z" fill="#C4C4C4"/>
<path d="M15 165H20V170H15V165Z" fill="#C4C4C4"/>
<path d="M25 165H30V170H25V165Z" fill="#C4C4C4"/>
<path d="M30 170H35V175H30V170Z" fill="#C4C4C4"/>
<path d="M25 175H30V180H25V175Z" fill="#C4C4C4"/>
<path d="M35 175H40V180H35V175Z" fill="#C4C4C4"/>
<path d="M35 165H40V170H35V165Z" fill="#C4C4C4"/>
<path d="M50 170H55V175H50V170Z" fill="#C4C4C4"/>
<path d="M40 170H45V175H40V170Z" fill="#C4C4C4"/>
<path d="M45 175H50V180H45V175Z" fill="#C4C4C4"/>
<path d="M45 165H50V170H45V165Z" fill="#C4C4C4"/>
<path d="M55 165H60V170H55V165Z" fill="#C4C4C4"/>
<path d="M60 170H65V175H60V170Z" fill="#C4C4C4"/>
<path d="M55 175H60V180H55V175Z" fill="#C4C4C4"/>
<path d="M65 175H70V180H65V175Z" fill="#C4C4C4"/>
<path d="M65 165H70V170H65V165Z" fill="#C4C4C4"/>
<path d="M80 170H85V175H80V170Z" fill="#C4C4C4"/>
<path d="M70 170H75V175H70V170Z" fill="#C4C4C4"/>
<path d="M75 175H80V180H75V175Z" fill="#C4C4C4"/>
<path d="M75 165H80V170H75V165Z" fill="#C4C4C4"/>
<path d="M85 165H90V170H85V165Z" fill="#C4C4C4"/>
<path d="M90 170H95V175H90V170Z" fill="#C4C4C4"/>
<path d="M85 175H90V180H85V175Z" fill="#C4C4C4"/>
<path d="M95 175H100V180H95V175Z" fill="#C4C4C4"/>
<path d="M95 165H100V170H95V165Z" fill="#C4C4C4"/>
<path d="M110 170H115V175H110V170Z" fill="#C4C4C4"/>
<path d="M100 170H105V175H100V170Z" fill="#C4C4C4"/>
<path d="M105 175H110V180H105V175Z" fill="#C4C4C4"/>
<path d="M105 165H110V170H105V165Z" fill="#C4C4C4"/>
<path d="M115 165H120V170H115V165Z" fill="#C4C4C4"/>
<path d="M120 170H125V175H120V170Z" fill="#C4C4C4"/>
<path d="M115 175H120V180H115V175Z" fill="#C4C4C4"/>
<path d="M125 175H130V180H125V175Z" fill="#C4C4C4"/>
<path d="M125 165H130V170H125V165Z" fill="#C4C4C4"/>
<path d="M140 170H145V175H140V170Z" fill="#C4C4C4"/>
<path d="M130 170H135V175H130V170Z" fill="#C4C4C4"/>
<path d="M135 175H140V180H135V175Z" fill="#C4C4C4"/>
<path d="M135 165H140V170H135V165Z" fill="#C4C4C4"/>
<path d="M145 165H150V170H145V165Z" fill="#C4C4C4"/>
<path d="M150 170H155V175H150V170Z" fill="#C4C4C4"/>
<path d="M145 175H150V180H145V175Z" fill="#C4C4C4"/>
<path d="M155 175H160V180H155V175Z" fill="#C4C4C4"/>
<path d="M155 165H160V170H155V165Z" fill="#C4C4C4"/>
<path d="M170 170H175V175H170V170Z" fill="#C4C4C4"/>
<path d="M160 170H165V175H160V170Z" fill="#C4C4C4"/>
<path d="M165 175H170V180H165V175Z" fill="#C4C4C4"/>
<path d="M165 165H170V170H165V165Z" fill="#C4C4C4"/>
<path d="M175 165H180V170H175V165Z" fill="#C4C4C4"/>
<path d="M180 170H185V175H180V170Z" fill="#C4C4C4"/>
<path d="M175 175H180V180H175V175Z" fill="#C4C4C4"/>
<path d="M185 175H190V180H185V175Z" fill="#C4C4C4"/>
<path d="M185 165H190V170H185V165Z" fill="#C4C4C4"/>
<path d="M200 170H205V175H200V170Z" fill="#C4C4C4"/>
<path d="M190 170H195V175H190V170Z" fill="#C4C4C4"/>
<path d="M195 175H200V180H195V175Z" fill="#C4C4C4"/>
<path d="M195 165H200V170H195V165Z" fill="#C4C4C4"/>
<path d="M205 165H210V170H205V165Z" fill="#C4C4C4"/>
<path d="M210 170H215V175H210V170Z" fill="#C4C4C4"/>
<path d="M205 175H210V180H205V175Z" fill="#C4C4C4"/>
<path d="M215 175H220V180H215V175Z" fill="#C4C4C4"/>
<path d="M215 165H220V170H215V165Z" fill="#C4C4C4"/>
<path d="M230 170H235V175H230V170Z" fill="#C4C4C4"/>
<path d="M220 170H225V175H220V170Z" fill="#C4C4C4"/>
<path d="M225 175H230V180H225V175Z" fill="#C4C4C4"/>
<path d="M225 165H230V170H225V165Z" fill="#C4C4C4"/>
<path d="M240 170H245V175H240V170Z" fill="#C4C4C4"/>
<path d="M235 175H240V180H235V175Z" fill="#C4C4C4"/>
<path d="M235 165H240V170H235V165Z" fill="#C4C4C4"/>
<path d="M0 180H5V185H0V180Z" fill="#C4C4C4"/>
<path d="M5 185H10V190H5V185Z" fill="#C4C4C4"/>
<path d="M0 190H5V195H0V190Z" fill="#C4C4C4"/>
<path d="M10 190H15V195H10V190Z" fill="#C4C4C4"/>
<path d="M10 180H15V185H10V180Z" fill="#C4C4C4"/>
<path d="M25 185H30V190H25V185Z" fill="#C4C4C4"/>
<path d="M15 185H20V190H15V185Z" fill="#C4C4C4"/>
<path d="M20 190H25V195H20V190Z" fill="#C4C4C4"/>
<path d="M20 180H25V185H20V180Z" fill="#C4C4C4"/>
<path d="M30 180H35V185H30V180Z" fill="#C4C4C4"/>
<path d="M35 185H40V190H35V185Z" fill="#C4C4C4"/>
<path d="M30 190H35V195H30V190Z" fill="#C4C4C4"/>
<path d="M40 190H45V195H40V190Z" fill="#C4C4C4"/>
<path d="M40 180H45V185H40V180Z" fill="#C4C4C4"/>
<path d="M55 185H60V190H55V185Z" fill="#C4C4C4"/>
<path d="M45 185H50V190H45V185Z" fill="#C4C4C4"/>
<path d="M50 190H55V195H50V190Z" fill="#C4C4C4"/>
<path d="M50 180H55V185H50V180Z" fill="#C4C4C4"/>
<path d="M60 180H65V185H60V180Z" fill="#C4C4C4"/>
<path d="M65 185H70V190H65V185Z" fill="#C4C4C4"/>
<path d="M60 190H65V195H60V190Z" fill="#C4C4C4"/>
<path d="M70 190H75V195H70V190Z" fill="#C4C4C4"/>
<path d="M70 180H75V185H70V180Z" fill="#C4C4C4"/>
<path d="M85 185H90V190H85V185Z" fill="#C4C4C4"/>
<path d="M75 185H80V190H75V185Z" fill="#C4C4C4"/>
<path d="M80 190H85V195H80V190Z" fill="#C4C4C4"/>
<path d="M80 180H85V185H80V180Z" fill="#C4C4C4"/>
<path d="M90 180H95V185H90V180Z" fill="#C4C4C4"/>
<path d="M95 185H100V190H95V185Z" fill="#C4C4C4"/>
<path d="M90 190H95V195H90V190Z" fill="#C4C4C4"/>
<path d="M100 190H105V195H100V190Z" fill="#C4C4C4"/>
<path d="M100 180H105V185H100V180Z" fill="#C4C4C4"/>
<path d="M115 185H120V190H115V185Z" fill="#C4C4C4"/>
<path d="M105 185H110V190H105V185Z" fill="#C4C4C4"/>
<path d="M110 190H115V195H110V190Z" fill="#C4C4C4"/>
<path d="M110 180H115V185H110V180Z" fill="#C4C4C4"/>
<path d="M120 180H125V185H120V180Z" fill="#C4C4C4"/>
<path d="M125 185H130V190H125V185Z" fill="#C4C4C4"/>
<path d="M120 190H125V195H120V190Z" fill="#C4C4C4"/>
<path d="M130 190H135V195H130V190Z" fill="#C4C4C4"/>
<path d="M130 180H135V185H130V180Z" fill="#C4C4C4"/>
<path d="M145 185H150V190H145V185Z" fill="#C4C4C4"/>
<path d="M135 185H140V190H135V185Z" fill="#C4C4C4"/>
<path d="M140 190H145V195H140V190Z" fill="#C4C4C4"/>
<path d="M140 180H145V185H140V180Z" fill="#C4C4C4"/>
<path d="M150 180H155V185H150V180Z" fill="#C4C4C4"/>
<path d="M155 185H160V190H155V185Z" fill="#C4C4C4"/>
<path d="M150 190H155V195H150V190Z" fill="#C4C4C4"/>
<path d="M160 190H165V195H160V190Z" fill="#C4C4C4"/>
<path d="M160 180H165V185H160V180Z" fill="#C4C4C4"/>
<path d="M175 185H180V190H175V185Z" fill="#C4C4C4"/>
<path d="M165 185H170V190H165V185Z" fill="#C4C4C4"/>
<path d="M170 190H175V195H170V190Z" fill="#C4C4C4"/>
<path d="M170 180H175V185H170V180Z" fill="#C4C4C4"/>
<path d="M180 180H185V185H180V180Z" fill="#C4C4C4"/>
<path d="M185 185H190V190H185V185Z" fill="#C4C4C4"/>
<path d="M180 190H185V195H180V190Z" fill="#C4C4C4"/>
<path d="M190 190H195V195H190V190Z" fill="#C4C4C4"/>
<path d="M190 180H195V185H190V180Z" fill="#C4C4C4"/>
<path d="M205 185H210V190H205V185Z" fill="#C4C4C4"/>
<path d="M195 185H200V190H195V185Z" fill="#C4C4C4"/>
<path d="M200 190H205V195H200V190Z" fill="#C4C4C4"/>
<path d="M200 180H205V185H200V180Z" fill="#C4C4C4"/>
<path d="M210 180H215V185H210V180Z" fill="#C4C4C4"/>
<path d="M215 185H220V190H215V185Z" fill="#C4C4C4"/>
<path d="M210 190H215V195H210V190Z" fill="#C4C4C4"/>
<path d="M220 190H225V195H220V190Z" fill="#C4C4C4"/>
<path d="M220 180H225V185H220V180Z" fill="#C4C4C4"/>
<path d="M235 185H240V190H235V185Z" fill="#C4C4C4"/>
<path d="M225 185H230V190H225V185Z" fill="#C4C4C4"/>
<path d="M230 190H235V195H230V190Z" fill="#C4C4C4"/>
<path d="M230 180H235V185H230V180Z" fill="#C4C4C4"/>
<path d="M245 185H250V190H245V185Z" fill="#C4C4C4"/>
<path d="M240 190H245V195H240V190Z" fill="#C4C4C4"/>
<path d="M240 180H245V185H240V180Z" fill="#C4C4C4"/>
<path d="M245 195H250V200H245V195Z" fill="#C4C4C4"/>
<path d="M0 200H5V205H0V200Z" fill="#C4C4C4"/>
<path d="M245 205H250V210H245V205Z" fill="#C4C4C4"/>
<path d="M5 205H10V210H5V205Z" fill="#C4C4C4"/>
<path d="M5 195H10V200H5V195Z" fill="#C4C4C4"/>
<path d="M20 200H25V205H20V200Z" fill="#C4C4C4"/>
<path d="M10 200H15V205H10V200Z" fill="#C4C4C4"/>
<path d="M15 205H20V210H15V205Z" fill="#C4C4C4"/>
<path d="M15 195H20V200H15V195Z" fill="#C4C4C4"/>
<path d="M25 195H30V200H25V195Z" fill="#C4C4C4"/>
<path d="M30 200H35V205H30V200Z" fill="#C4C4C4"/>
<path d="M25 205H30V210H25V205Z" fill="#C4C4C4"/>
<path d="M35 205H40V210H35V205Z" fill="#C4C4C4"/>
<path d="M35 195H40V200H35V195Z" fill="#C4C4C4"/>
<path d="M50 200H55V205H50V200Z" fill="#C4C4C4"/>
<path d="M40 200H45V205H40V200Z" fill="#C4C4C4"/>
<path d="M45 205H50V210H45V205Z" fill="#C4C4C4"/>
<path d="M45 195H50V200H45V195Z" fill="#C4C4C4"/>
<path d="M55 195H60V200H55V195Z" fill="#C4C4C4"/>
<path d="M60 200H65V205H60V200Z" fill="#C4C4C4"/>
<path d="M55 205H60V210H55V205Z" fill="#C4C4C4"/>
<path d="M65 205H70V210H65V205Z" fill="#C4C4C4"/>
<path d="M65 195H70V200H65V195Z" fill="#C4C4C4"/>
<path d="M80 200H85V205H80V200Z" fill="#C4C4C4"/>
<path d="M70 200H75V205H70V200Z" fill="#C4C4C4"/>
<path d="M75 205H80V210H75V205Z" fill="#C4C4C4"/>
<path d="M75 195H80V200H75V195Z" fill="#C4C4C4"/>
<path d="M85 195H90V200H85V195Z" fill="#C4C4C4"/>
<path d="M90 200H95V205H90V200Z" fill="#C4C4C4"/>
<path d="M85 205H90V210H85V205Z" fill="#C4C4C4"/>
<path d="M95 205H100V210H95V205Z" fill="#C4C4C4"/>
<path d="M95 195H100V200H95V195Z" fill="#C4C4C4"/>
<path d="M110 200H115V205H110V200Z" fill="#C4C4C4"/>
<path d="M100 200H105V205H100V200Z" fill="#C4C4C4"/>
<path d="M105 205H110V210H105V205Z" fill="#C4C4C4"/>
<path d="M105 195H110V200H105V195Z" fill="#C4C4C4"/>
<path d="M115 195H120V200H115V195Z" fill="#C4C4C4"/>
<path d="M120 200H125V205H120V200Z" fill="#C4C4C4"/>
<path d="M115 205H120V210H115V205Z" fill="#C4C4C4"/>
<path d="M125 205H130V210H125V205Z" fill="#C4C4C4"/>
<path d="M125 195H130V200H125V195Z" fill="#C4C4C4"/>
<path d="M140 200H145V205H140V200Z" fill="#C4C4C4"/>
<path d="M130 200H135V205H130V200Z" fill="#C4C4C4"/>
<path d="M135 205H140V210H135V205Z" fill="#C4C4C4"/>
<path d="M135 195H140V200H135V195Z" fill="#C4C4C4"/>
<path d="M145 195H150V200H145V195Z" fill="#C4C4C4"/>
<path d="M150 200H155V205H150V200Z" fill="#C4C4C4"/>
<path d="M145 205H150V210H145V205Z" fill="#C4C4C4"/>
<path d="M155 205H160V210H155V205Z" fill="#C4C4C4"/>
<path d="M155 195H160V200H155V195Z" fill="#C4C4C4"/>
<path d="M170 200H175V205H170V200Z" fill="#C4C4C4"/>
<path d="M160 200H165V205H160V200Z" fill="#C4C4C4"/>
<path d="M165 205H170V210H165V205Z" fill="#C4C4C4"/>
<path d="M165 195H170V200H165V195Z" fill="#C4C4C4"/>
<path d="M175 195H180V200H175V195Z" fill="#C4C4C4"/>
<path d="M180 200H185V205H180V200Z" fill="#C4C4C4"/>
<path d="M175 205H180V210H175V205Z" fill="#C4C4C4"/>
<path d="M185 205H190V210H185V205Z" fill="#C4C4C4"/>
<path d="M185 195H190V200H185V195Z" fill="#C4C4C4"/>
<path d="M200 200H205V205H200V200Z" fill="#C4C4C4"/>
<path d="M190 200H195V205H190V200Z" fill="#C4C4C4"/>
<path d="M195 205H200V210H195V205Z" fill="#C4C4C4"/>
<path d="M195 195H200V200H195V195Z" fill="#C4C4C4"/>
<path d="M205 195H210V200H205V195Z" fill="#C4C4C4"/>
<path d="M210 200H215V205H210V200Z" fill="#C4C4C4"/>
<path d="M205 205H210V210H205V205Z" fill="#C4C4C4"/>
<path d="M215 205H220V210H215V205Z" fill="#C4C4C4"/>
<path d="M215 195H220V200H215V195Z" fill="#C4C4C4"/>
<path d="M230 200H235V205H230V200Z" fill="#C4C4C4"/>
<path d="M220 200H225V205H220V200Z" fill="#C4C4C4"/>
<path d="M225 205H230V210H225V205Z" fill="#C4C4C4"/>
<path d="M225 195H230V200H225V195Z" fill="#C4C4C4"/>
<path d="M240 200H245V205H240V200Z" fill="#C4C4C4"/>
<path d="M235 205H240V210H235V205Z" fill="#C4C4C4"/>
<path d="M235 195H240V200H235V195Z" fill="#C4C4C4"/>
<path d="M0 210H5V215H0V210Z" fill="#C4C4C4"/>
<path d="M5 215H10V220H5V215Z" fill="#C4C4C4"/>
<path d="M0 220H5V225H0V220Z" fill="#C4C4C4"/>
<path d="M10 220H15V225H10V220Z" fill="#C4C4C4"/>
<path d="M10 210H15V215H10V210Z" fill="#C4C4C4"/>
<path d="M25 215H30V220H25V215Z" fill="#C4C4C4"/>
<path d="M15 215H20V220H15V215Z" fill="#C4C4C4"/>
<path d="M20 220H25V225H20V220Z" fill="#C4C4C4"/>
<path d="M20 210H25V215H20V210Z" fill="#C4C4C4"/>
<path d="M30 210H35V215H30V210Z" fill="#C4C4C4"/>
<path d="M35 215H40V220H35V215Z" fill="#C4C4C4"/>
<path d="M30 220H35V225H30V220Z" fill="#C4C4C4"/>
<path d="M40 220H45V225H40V220Z" fill="#C4C4C4"/>
<path d="M40 210H45V215H40V210Z" fill="#C4C4C4"/>
<path d="M55 215H60V220H55V215Z" fill="#C4C4C4"/>
<path d="M45 215H50V220H45V215Z" fill="#C4C4C4"/>
<path d="M50 220H55V225H50V220Z" fill="#C4C4C4"/>
<path d="M50 210H55V215H50V210Z" fill="#C4C4C4"/>
<path d="M60 210H65V215H60V210Z" fill="#C4C4C4"/>
<path d="M65 215H70V220H65V215Z" fill="#C4C4C4"/>
<path d="M60 220H65V225H60V220Z" fill="#C4C4C4"/>
<path d="M70 220H75V225H70V220Z" fill="#C4C4C4"/>
<path d="M70 210H75V215H70V210Z" fill="#C4C4C4"/>
<path d="M85 215H90V220H85V215Z" fill="#C4C4C4"/>
<path d="M75 215H80V220H75V215Z" fill="#C4C4C4"/>
<path d="M80 220H85V225H80V220Z" fill="#C4C4C4"/>
<path d="M80 210H85V215H80V210Z" fill="#C4C4C4"/>
<path d="M90 210H95V215H90V210Z" fill="#C4C4C4"/>
<path d="M95 215H100V220H95V215Z" fill="#C4C4C4"/>
<path d="M90 220H95V225H90V220Z" fill="#C4C4C4"/>
<path d="M100 220H105V225H100V220Z" fill="#C4C4C4"/>
<path d="M100 210H105V215H100V210Z" fill="#C4C4C4"/>
<path d="M115 215H120V220H115V215Z" fill="#C4C4C4"/>
<path d="M105 215H110V220H105V215Z" fill="#C4C4C4"/>
<path d="M110 220H115V225H110V220Z" fill="#C4C4C4"/>
<path d="M110 210H115V215H110V210Z" fill="#C4C4C4"/>
<path d="M120 210H125V215H120V210Z" fill="#C4C4C4"/>
<path d="M125 215H130V220H125V215Z" fill="#C4C4C4"/>
<path d="M120 220H125V225H120V220Z" fill="#C4C4C4"/>
<path d="M130 220H135V225H130V220Z" fill="#C4C4C4"/>
<path d="M130 210H135V215H130V210Z" fill="#C4C4C4"/>
<path d="M145 215H150V220H145V215Z" fill="#C4C4C4"/>
<path d="M135 215H140V220H135V215Z" fill="#C4C4C4"/>
<path d="M140 220H145V225H140V220Z" fill="#C4C4C4"/>
<path d="M140 210H145V215H140V210Z" fill="#C4C4C4"/>
<path d="M150 210H155V215H150V210Z" fill="#C4C4C4"/>
<path d="M155 215H160V220H155V215Z" fill="#C4C4C4"/>
<path d="M150 220H155V225H150V220Z" fill="#C4C4C4"/>
<path d="M160 220H165V225H160V220Z" fill="#C4C4C4"/>
<path d="M160 210H165V215H160V210Z" fill="#C4C4C4"/>
<path d="M175 215H180V220H175V215Z" fill="#C4C4C4"/>
<path d="M165 215H170V220H165V215Z" fill="#C4C4C4"/>
<path d="M170 220H175V225H170V220Z" fill="#C4C4C4"/>
<path d="M170 210H175V215H170V210Z" fill="#C4C4C4"/>
<path d="M180 210H185V215H180V210Z" fill="#C4C4C4"/>
<path d="M185 215H190V220H185V215Z" fill="#C4C4C4"/>
<path d="M180 220H185V225H180V220Z" fill="#C4C4C4"/>
<path d="M190 220H195V225H190V220Z" fill="#C4C4C4"/>
<path d="M190 210H195V215H190V210Z" fill="#C4C4C4"/>
<path d="M205 215H210V220H205V215Z" fill="#C4C4C4"/>
<path d="M195 215H200V220H195V215Z" fill="#C4C4C4"/>
<path d="M200 220H205V225H200V220Z" fill="#C4C4C4"/>
<path d="M200 210H205V215H200V210Z" fill="#C4C4C4"/>
<path d="M210 210H215V215H210V210Z" fill="#C4C4C4"/>
<path d="M215 215H220V220H215V215Z" fill="#C4C4C4"/>
<path d="M210 220H215V225H210V220Z" fill="#C4C4C4"/>
<path d="M220 220H225V225H220V220Z" fill="#C4C4C4"/>
<path d="M220 210H225V215H220V210Z" fill="#C4C4C4"/>
<path d="M235 215H240V220H235V215Z" fill="#C4C4C4"/>
<path d="M225 215H230V220H225V215Z" fill="#C4C4C4"/>
<path d="M230 220H235V225H230V220Z" fill="#C4C4C4"/>
<path d="M230 210H235V215H230V210Z" fill="#C4C4C4"/>
<path d="M245 215H250V220H245V215Z" fill="#C4C4C4"/>
<path d="M240 220H245V225H240V220Z" fill="#C4C4C4"/>
<path d="M240 210H245V215H240V210Z" fill="#C4C4C4"/>
<path d="M245 225H250V230H245V225Z" fill="#C4C4C4"/>
<path d="M0 230H5V235H0V230Z" fill="#C4C4C4"/>
<path d="M245 235H250V240H245V235Z" fill="#C4C4C4"/>
<path d="M5 235H10V240H5V235Z" fill="#C4C4C4"/>
<path d="M5 225H10V230H5V225Z" fill="#C4C4C4"/>
<path d="M20 230H25V235H20V230Z" fill="#C4C4C4"/>
<path d="M10 230H15V235H10V230Z" fill="#C4C4C4"/>
<path d="M15 235H20V240H15V235Z" fill="#C4C4C4"/>
<path d="M15 225H20V230H15V225Z" fill="#C4C4C4"/>
<path d="M25 225H30V230H25V225Z" fill="#C4C4C4"/>
<path d="M30 230H35V235H30V230Z" fill="#C4C4C4"/>
<path d="M25 235H30V240H25V235Z" fill="#C4C4C4"/>
<path d="M35 235H40V240H35V235Z" fill="#C4C4C4"/>
<path d="M35 225H40V230H35V225Z" fill="#C4C4C4"/>
<path d="M50 230H55V235H50V230Z" fill="#C4C4C4"/>
<path d="M40 230H45V235H40V230Z" fill="#C4C4C4"/>
<path d="M45 235H50V240H45V235Z" fill="#C4C4C4"/>
<path d="M45 225H50V230H45V225Z" fill="#C4C4C4"/>
<path d="M55 225H60V230H55V225Z" fill="#C4C4C4"/>
<path d="M60 230H65V235H60V230Z" fill="#C4C4C4"/>
<path d="M55 235H60V240H55V235Z" fill="#C4C4C4"/>
<path d="M65 235H70V240H65V235Z" fill="#C4C4C4"/>
<path d="M65 225H70V230H65V225Z" fill="#C4C4C4"/>
<path d="M80 230H85V235H80V230Z" fill="#C4C4C4"/>
<path d="M70 230H75V235H70V230Z" fill="#C4C4C4"/>
<path d="M75 235H80V240H75V235Z" fill="#C4C4C4"/>
<path d="M75 225H80V230H75V225Z" fill="#C4C4C4"/>
<path d="M85 225H90V230H85V225Z" fill="#C4C4C4"/>
<path d="M90 230H95V235H90V230Z" fill="#C4C4C4"/>
<path d="M85 235H90V240H85V235Z" fill="#C4C4C4"/>
<path d="M95 235H100V240H95V235Z" fill="#C4C4C4"/>
<path d="M95 225H100V230H95V225Z" fill="#C4C4C4"/>
<path d="M110 230H115V235H110V230Z" fill="#C4C4C4"/>
<path d="M100 230H105V235H100V230Z" fill="#C4C4C4"/>
<path d="M105 235H110V240H105V235Z" fill="#C4C4C4"/>
<path d="M105 225H110V230H105V225Z" fill="#C4C4C4"/>
<path d="M115 225H120V230H115V225Z" fill="#C4C4C4"/>
<path d="M120 230H125V235H120V230Z" fill="#C4C4C4"/>
<path d="M115 235H120V240H115V235Z" fill="#C4C4C4"/>
<path d="M125 235H130V240H125V235Z" fill="#C4C4C4"/>
<path d="M125 225H130V230H125V225Z" fill="#C4C4C4"/>
<path d="M140 230H145V235H140V230Z" fill="#C4C4C4"/>
<path d="M130 230H135V235H130V230Z" fill="#C4C4C4"/>
<path d="M135 235H140V240H135V235Z" fill="#C4C4C4"/>
<path d="M135 225H140V230H135V225Z" fill="#C4C4C4"/>
<path d="M145 225H150V230H145V225Z" fill="#C4C4C4"/>
<path d="M150 230H155V235H150V230Z" fill="#C4C4C4"/>
<path d="M145 235H150V240H145V235Z" fill="#C4C4C4"/>
<path d="M155 235H160V240H155V235Z" fill="#C4C4C4"/>
<path d="M155 225H160V230H155V225Z" fill="#C4C4C4"/>
<path d="M170 230H175V235H170V230Z" fill="#C4C4C4"/>
<path d="M160 230H165V235H160V230Z" fill="#C4C4C4"/>
<path d="M165 235H170V240H165V235Z" fill="#C4C4C4"/>
<path d="M165 225H170V230H165V225Z" fill="#C4C4C4"/>
<path d="M175 225H180V230H175V225Z" fill="#C4C4C4"/>
<path d="M180 230H185V235H180V230Z" fill="#C4C4C4"/>
<path d="M175 235H180V240H175V235Z" fill="#C4C4C4"/>
<path d="M185 235H190V240H185V235Z" fill="#C4C4C4"/>
<path d="M185 225H190V230H185V225Z" fill="#C4C4C4"/>
<path d="M200 230H205V235H200V230Z" fill="#C4C4C4"/>
<path d="M190 230H195V235H190V230Z" fill="#C4C4C4"/>
<path d="M195 235H200V240H195V235Z" fill="#C4C4C4"/>
<path d="M195 225H200V230H195V225Z" fill="#C4C4C4"/>
<path d="M205 225H210V230H205V225Z" fill="#C4C4C4"/>
<path d="M210 230H215V235H210V230Z" fill="#C4C4C4"/>
<path d="M205 235H210V240H205V235Z" fill="#C4C4C4"/>
<path d="M215 235H220V240H215V235Z" fill="#C4C4C4"/>
<path d="M215 225H220V230H215V225Z" fill="#C4C4C4"/>
<path d="M230 230H235V235H230V230Z" fill="#C4C4C4"/>
<path d="M220 230H225V235H220V230Z" fill="#C4C4C4"/>
<path d="M225 235H230V240H225V235Z" fill="#C4C4C4"/>
<path d="M225 225H230V230H225V225Z" fill="#C4C4C4"/>
<path d="M240 230H245V235H240V230Z" fill="#C4C4C4"/>
<path d="M235 235H240V240H235V235Z" fill="#C4C4C4"/>
<path d="M0 240H5V245H0V240Z" fill="#C4C4C4"/>
<path d="M245 245H250V250H245V245Z" fill="#C4C4C4"/>
<path d="M5 245H10V250H5V245Z" fill="#C4C4C4"/>
<path d="M20 240H25V245H20V240Z" fill="#C4C4C4"/>
<path d="M10 240H15V245H10V240Z" fill="#C4C4C4"/>
<path d="M15 245H20V250H15V245Z" fill="#C4C4C4"/>
<path d="M30 240H35V245H30V240Z" fill="#C4C4C4"/>
<path d="M25 245H30V250H25V245Z" fill="#C4C4C4"/>
<path d="M35 245H40V250H35V245Z" fill="#C4C4C4"/>
<path d="M50 240H55V245H50V240Z" fill="#C4C4C4"/>
<path d="M40 240H45V245H40V240Z" fill="#C4C4C4"/>
<path d="M45 245H50V250H45V245Z" fill="#C4C4C4"/>
<path d="M60 240H65V245H60V240Z" fill="#C4C4C4"/>
<path d="M55 245H60V250H55V245Z" fill="#C4C4C4"/>
<path d="M65 245H70V250H65V245Z" fill="#C4C4C4"/>
<path d="M80 240H85V245H80V240Z" fill="#C4C4C4"/>
<path d="M70 240H75V245H70V240Z" fill="#C4C4C4"/>
<path d="M75 245H80V250H75V245Z" fill="#C4C4C4"/>
<path d="M90 240H95V245H90V240Z" fill="#C4C4C4"/>
<path d="M85 245H90V250H85V245Z" fill="#C4C4C4"/>
<path d="M95 245H100V250H95V245Z" fill="#C4C4C4"/>
<path d="M110 240H115V245H110V240Z" fill="#C4C4C4"/>
<path d="M100 240H105V245H100V240Z" fill="#C4C4C4"/>
<path d="M105 245H110V250H105V245Z" fill="#C4C4C4"/>
<path d="M120 240H125V245H120V240Z" fill="#C4C4C4"/>
<path d="M115 245H120V250H115V245Z" fill="#C4C4C4"/>
<path d="M125 245H130V250H125V245Z" fill="#C4C4C4"/>
<path d="M140 240H145V245H140V240Z" fill="#C4C4C4"/>
<path d="M130 240H135V245H130V240Z" fill="#C4C4C4"/>
<path d="M135 245H140V250H135V245Z" fill="#C4C4C4"/>
<path d="M150 240H155V245H150V240Z" fill="#C4C4C4"/>
<path d="M145 245H150V250H145V245Z" fill="#C4C4C4"/>
<path d="M155 245H160V250H155V245Z" fill="#C4C4C4"/>
<path d="M170 240H175V245H170V240Z" fill="#C4C4C4"/>
<path d="M160 240H165V245H160V240Z" fill="#C4C4C4"/>
<path d="M165 245H170V250H165V245Z" fill="#C4C4C4"/>
<path d="M180 240H185V245H180V240Z" fill="#C4C4C4"/>
<path d="M175 245H180V250H175V245Z" fill="#C4C4C4"/>
<path d="M185 245H190V250H185V245Z" fill="#C4C4C4"/>
<path d="M200 240H205V245H200V240Z" fill="#C4C4C4"/>
<path d="M190 240H195V245H190V240Z" fill="#C4C4C4"/>
<path d="M195 245H200V250H195V245Z" fill="#C4C4C4"/>
<path d="M210 240H215V245H210V240Z" fill="#C4C4C4"/>
<path d="M205 245H210V250H205V245Z" fill="#C4C4C4"/>
<path d="M215 245H220V250H215V245Z" fill="#C4C4C4"/>
<path d="M230 240H235V245H230V240Z" fill="#C4C4C4"/>
<path d="M220 240H225V245H220V240Z" fill="#C4C4C4"/>
<path d="M225 245H230V250H225V245Z" fill="#C4C4C4"/>
<path d="M240 240H245V245H240V240Z" fill="#C4C4C4"/>
<path d="M235 245H240V250H235V245Z" fill="#C4C4C4"/>
<path d="M235 225H240V230H235V225Z" fill="#C4C4C4"/>
</svg>
