<?xml version="1.0" encoding="utf-8"?>
<!-- Generator: Adobe Illustrator 24.0.3, SVG Export Plug-In . SVG Version: 6.00 Build 0)  -->
<svg version="1.1" id="Layer_1" xmlns="http://www.w3.org/2000/svg" xmlns:xlink="http://www.w3.org/1999/xlink" x="0px" y="0px"
	 viewBox="0 0 110.3 69.4" style="enable-background:new 0 0 110.3 69.4;" xml:space="preserve">
<style type="text/css">
	.st0{fill:#808080;}
</style>
<g>
	<path class="st0" d="M60.1,19.5c1.3-1,2.1-2.5,2.1-4.2c0-3.1-3-5.6-6.6-5.6c-3.6,0-6.6,2.5-6.6,5.6c0,1.6,0.8,3.1,2.1,4.2
		c1.6,1.3,2.9,3.9,3,6.8c0.1,3.2-0.1,6.8-0.3,8.7c-1.7,0.2-2.9,0.8-2.9,1.5c0,0.9,2.1,1.9,4.7,1.9s4.7-1,4.7-1.9
		c0-0.7-1.2-1.2-2.9-1.5c-0.1-1.9-0.3-5.5-0.3-8.7C57.2,23.4,58.5,20.8,60.1,19.5z"/>
	<g>
		<path class="st0" d="M68.1,37.9c0.2-0.1,0.5-0.2,0.8-0.2c0.3-0.1,0.6-0.1,0.9-0.1c0,0,0-0.1,0-0.3c0-0.1-0.1-0.3-0.1-0.5
			c0-0.1-0.1-0.2-0.1-0.3c0-0.1-0.1-0.2-0.1-0.2c-0.1-0.1-0.1-0.2-0.1-0.2c-0.3-0.1-0.6-0.1-0.9-0.2c-0.3-0.1-0.6-0.2-0.8-0.3
			c-0.5-0.2-0.9-0.4-1.2-0.7c-0.3-0.2-0.3-0.5-0.3-0.7c0-0.1,0.1-0.2,0.2-0.3c0.1-0.1,0.2-0.2,0.3-0.3c0,0-0.1-0.1-0.3-0.2
			c-0.1,0-0.2-0.1-0.3-0.2c-0.1-0.1-0.2-0.1-0.4-0.2c-0.2-0.1-0.5-0.2-0.7-0.3c-0.2-0.1-0.3-0.1-0.3-0.1c-0.2,0-0.5,0-0.7,0.1
			c-0.3,0-0.5,0-0.8,0c-0.5,0-1-0.1-1.5-0.2c-0.2-0.1-0.4-0.1-0.6-0.2c-0.2-0.1-0.3-0.2-0.5-0.2c-0.2-0.2-0.4-0.3-0.4-0.5
			c0,0-0.1,0-0.4-0.1c-0.2,0-0.7-0.1-1-0.1c0,0.1,0,0.1,0,0.2l-0.1,0.4c-0.2,0.7,0.3,1.5,1,1.7c1.8,0.5,3.1,1.4,3.5,2.4
			c0.8,2.1-2.5,4.2-7.5,4.2c-5,0-8.3-2.1-7.5-4.2c0.4-1,1.7-1.8,3.4-2.4c0.8-0.2,1.2-1,1-1.8l-0.1-0.5c-0.2,0-0.4,0.1-0.7,0.1
			c-0.3,0-0.6,0.1-0.8,0.1c-0.2,0-0.4,0.1-0.4,0.1c0,0.2-0.1,0.4-0.3,0.5c-0.1,0.1-0.3,0.2-0.4,0.2c-0.2,0.1-0.4,0.1-0.6,0.2
			c-0.2,0.1-0.5,0.1-0.7,0.2c-0.2,0-0.5,0.1-0.8,0.1c-0.5,0-1.1,0.1-1.5,0c0,0,0,0-0.1,0c-0.1,0-0.1,0.1-0.2,0.1
			c-0.2,0.1-0.4,0.2-0.7,0.3c-0.2,0.1-0.4,0.2-0.6,0.3c-0.1,0-0.2,0.1-0.2,0.1c0,0-0.1,0-0.1,0c0.3,0.2,0.5,0.4,0.6,0.6
			c0.1,0.2,0,0.5-0.2,0.7c-0.1,0.1-0.3,0.3-0.5,0.4c-0.2,0.1-0.4,0.2-0.7,0.4c-0.5,0.2-1.1,0.4-1.8,0.5c0,0-0.1,0.1-0.1,0.2
			c-0.1,0.1-0.1,0.3-0.2,0.5c0,0.2-0.1,0.4-0.1,0.6c0,0.2,0,0.3,0,0.3c0.7,0,1.3,0.1,1.8,0.3c0.5,0.2,0.9,0.4,1.1,0.8
			c0.2,0.3,0.3,0.7,0.1,1.1c-0.1,0.4-0.5,0.9-1,1.3c0,0,0,0,0.1,0.1c0.1,0,0.1,0.1,0.3,0.2c0.2,0.1,0.5,0.4,0.8,0.6
			c0.3,0.2,0.7,0.4,0.9,0.5c0.1,0.1,0.3,0.1,0.3,0.2c0.1,0,0.1,0.1,0.1,0.1c0.8-0.3,1.6-0.5,2.4-0.6c0.4,0,0.8-0.1,1.2,0
			c0.4,0,0.8,0.1,1.2,0.1c0.4,0.1,0.7,0.2,1.1,0.3c0.3,0.1,0.6,0.3,0.9,0.5c0.5,0.4,1,0.9,1.1,1.4c0,0,0.3,0,0.7,0c0.4,0,1,0,1.5,0
			c0.6,0,1.1,0,1.5-0.1c0.4,0,0.7-0.1,0.7-0.1c0.1-0.3,0.2-0.6,0.4-0.8c0.1-0.1,0.2-0.2,0.3-0.3c0.1-0.1,0.2-0.2,0.3-0.3
			c0.2-0.2,0.5-0.4,0.8-0.5c0.3-0.1,0.6-0.3,1-0.4c0.4-0.1,0.7-0.2,1.1-0.2c0.4,0,0.8,0,1.2,0c0.8,0,1.7,0.2,2.5,0.5
			c0,0,0.2-0.1,0.4-0.2c0.2-0.1,0.6-0.3,0.9-0.5c0.3-0.2,0.6-0.4,0.7-0.6c0.2-0.2,0.3-0.3,0.3-0.3c-0.6-0.4-0.9-0.8-1.1-1.2
			c-0.1-0.2-0.1-0.4-0.1-0.6c0-0.2,0-0.4,0.1-0.5C67.3,38.3,67.7,38.1,68.1,37.9"/>
	</g>
	<path class="st0" d="M51.3,27.6c0,0,0.7-2.8-2.5-6.4L48.7,21c-1.4-1.6-2.1-3.6-2.1-5.7c0-4.9,4-8.9,8.9-8.9h0.2
		c4.9,0,8.9,4,8.9,8.9c0,2.1-0.7,4.1-2.1,5.7c0,0-0.1,0.1-0.1,0.1C59.6,24,60,27.6,60,27.6c5.2-1.8,8.7-6.7,8.8-12.2
		c0-6.9-5.5-12.7-12.4-13.1c-0.1,0-0.2,0-0.3,0c-0.1,0-0.5,0-0.5,0c0,0-0.4,0-0.5,0c-0.1,0-0.2,0-0.3,0C48,2.7,42.5,8.5,42.5,15.4
		C42.6,20.9,46.1,25.8,51.3,27.6z"/>
	<g>
		<g>
			<path class="st0" d="M11.9,63.6c-0.8,0.8-1.8,1.1-2.9,1.1c-2.8,0-4-2-4.1-3.9c0-2,1.3-4,4.1-4c1,0,2,0.4,2.8,1.2l-1,0.9
				c-0.5-0.5-1.2-0.7-1.8-0.7c-1.8,0-2.6,1.4-2.6,2.7c0,1.3,0.7,2.6,2.6,2.6c0.7,0,1.4-0.3,1.9-0.8L11.9,63.6z"/>
			<path class="st0" d="M15.1,56.9v6.3h3.9v1.3h-5.4v-7.6H15.1z"/>
			<path class="st0" d="M28.5,60.7c0,2-1.2,4-3.9,4s-3.9-1.9-3.9-3.9c0-2,1.3-4,3.9-4C27.2,56.7,28.5,58.7,28.5,60.7z M22,60.8
				c0,1.3,0.7,2.6,2.5,2.6c1.8,0,2.5-1.4,2.5-2.6c0-1.3-0.7-2.7-2.5-2.7C22.7,58,22,59.5,22,60.8z"/>
			<path class="st0" d="M37.3,56.9v4.4c0,2.3-1.4,3.4-3.3,3.4c-1.8,0-3.4-1.1-3.4-3.4v-4.4H32v4.4c0,1.4,0.8,2.1,2,2.1
				c1.2,0,1.9-0.8,1.9-2.1v-4.4H37.3z"/>
			<path class="st0" d="M46.6,60.6c0,1.9-1.1,3.9-3.8,3.9c-0.9,0-2.1,0-3,0v-7.6c0.9,0,2.1,0,3,0C45.4,56.9,46.5,58.7,46.6,60.6z
				 M41.2,63.1h1.6c1.7,0,2.4-1.3,2.4-2.5c0-1.2-0.7-2.4-2.4-2.4h-1.6V63.1z"/>
		</g>
		<g>
			<g>
				<path class="st0" d="M50.6,60.6H55v0.6h-4.4v3.5h-0.6v-7.7h5.1v0.6h-4.6V60.6z"/>
			</g>
			<g>
				<path class="st0" d="M73.3,56.9v4.7c0,4-5.8,4-5.8,0v-4.7H68v4.7c0,3.3,4.7,3.3,4.7,0v-4.7H73.3z"/>
				<path class="st0" d="M76,56.9l5.1,6.3v-6.3h0.6v7.6h-0.2l-5.1-6.3v6.3h-0.6v-7.6H76z"/>
				<path class="st0" d="M90.6,60.6c0,1.9-1.2,3.9-3.9,3.9c-0.9,0-1.7,0-2.6,0v-7.6c0.9,0,1.7,0,2.6,0
					C89.3,56.9,90.5,58.8,90.6,60.6z M84.7,57.5V64h2c2.3,0,3.3-1.7,3.3-3.3c0-1.6-1.1-3.2-3.3-3.2H84.7z"/>
				<path class="st0" d="M98.8,64.5H98l-2.6-2.9h-2.1v2.9h-0.6v-7.6c1.1,0,2.2,0,3.4,0c1.7,0,2.5,1.2,2.5,2.4c0,1.2-0.8,2.3-2.5,2.3
					L98.8,64.5z M93.3,61.1H96c1.3,0,1.9-0.8,1.9-1.8c0-0.9-0.6-1.8-1.9-1.8h-2.8V61.1z"/>
				<path class="st0" d="M102.9,61.5l-3-4.6v0h0.7l2.6,4l2.6-4h0.7v0l-3,4.6v3.1h-0.6V61.5z"/>
			</g>
			<g>
				<path class="st0" d="M65.1,60.7c0,2-1.3,3.9-3.8,3.9c-2.5,0-3.8-1.9-3.8-3.9c0-2,1.3-3.9,3.8-3.9C63.8,56.8,65.1,58.7,65.1,60.7
					z M58,60.7c0,1.7,1.1,3.4,3.2,3.4c2.2,0,3.3-1.7,3.3-3.4c0-1.8-1.1-3.4-3.3-3.4C59.1,57.3,58,58.9,58,60.7z"/>
			</g>
		</g>
	</g>
</g>
</svg>
