<?xml version="1.0" encoding="utf-8"?>
<!-- Generator: Adobe Illustrator 24.0.3, SVG Export Plug-In . SVG Version: 6.00 Build 0)  -->
<svg version="1.1"
	 id="Ebene_1" xmlns:cc="http://creativecommons.org/ns#" xmlns:dc="http://purl.org/dc/elements/1.1/" xmlns:rdf="http://www.w3.org/1999/02/22-rdf-syntax-ns#" xmlns:svg="http://www.w3.org/2000/svg"
	 xmlns="http://www.w3.org/2000/svg" xmlns:xlink="http://www.w3.org/1999/xlink" x="0px" y="0px" viewBox="0 0 726.4 332.4"
	 style="enable-background:new 0 0 726.4 332.4;" xml:space="preserve">
<style type="text/css">
	.st0{fill:#AAAAAA;}
	.st1{fill:#808080;}
</style>
<polygon id="polygon3" class="st0" points="265.9,322.4 265.9,162.4 265.9,154.8 265.9,10 281.9,32.9 281.9,162.4 358.5,202.8 
	364.1,284.3 "/>
<g id="g5" transform="matrix(2.0000857,0,0,2.0000857,-438.1392,-540.63359)">
	<polygon id="polygon7" class="st0" points="321,298.7 314,286.9 314,355.3 321,353.9 	"/>
	<polygon id="polygon9" class="st0" points="283,309.6 276,298.2 276,362.9 283,361.5 	"/>
	<polygon id="polygon11" class="st0" points="352,347.7 352,275.3 333,286.7 333,351.5 326,352.9 317,354.7 314,355.3 314,286.7 
		295,298.2 295,359.1 287,360.7 278,362.5 276,362.9 276,298.2 257,309.6 257,366.7 231.7,371.7 224.1,412.4 278,420.5 334.9,429 
		352,431.5 352,375.1 352,351.5 	"/>
</g>
<polygon id="polygon13" class="st1" points="151.9,55.7 151.9,177.6 113.9,185.2 113.9,55.7 75.9,78.6 75.9,192.8 25.4,202.8 
	10,284.3 265.9,322.4 265.9,162.4 265.9,154.8 265.9,10 227.9,32.9 227.9,162.4 189.9,170 189.9,32.9 "/>
<g id="flowRoot4528" transform="matrix(1.1567335,0,0,1.1698648,-45.50874,19.7431)">
	<path id="path117" class="st1" d="M427.7,52.1v2.5c0,8.7-2.3,15.5-6.8,20.5c-4.5,5-10.3,7.5-17.4,7.5c-7.1,0-13-2.5-17.5-7.5
		c-4.5-5-6.8-11.8-6.8-20.5v-2.5c0-8.7,2.3-15.5,6.8-20.5c4.5-5,10.3-7.5,17.5-7.5c7.1,0,13,2.5,17.5,7.5
		C425.4,36.6,427.7,43.4,427.7,52.1z M415.8,54.6V52c0-5.9-1.1-10.5-3.2-13.6s-5.2-4.6-9.1-4.6c-4,0-7,1.5-9.1,4.6
		s-3.2,7.6-3.2,13.6v2.6c0,5.9,1.1,10.4,3.2,13.6c2.2,3.1,5.2,4.7,9.2,4.7s7-1.6,9.1-4.7C414.8,65.1,415.8,60.6,415.8,54.6z"/>
	<path id="path119" class="st1" d="M457.2,82.6c-4.2,0-7.7-1.5-10.4-4.5v20h-11.3V39.5H446l0.4,4.1c2.7-3.3,6.2-4.9,10.6-4.9
		c5.4,0,9.5,2,12.3,5.9c2.8,3.9,4.3,9.1,4.3,15.5V61c0,6.1-1.4,11.3-4.3,15.4C466.5,80.5,462.5,82.6,457.2,82.6z M454.1,47.9
		c-3.5,0-6,1.4-7.3,4.1v17.3c1.4,2.8,3.9,4.2,7.4,4.2c2.9,0,5-1.2,6.2-3.7c1.2-2.4,1.8-5.4,1.8-8.8v-0.8c0-3.5-0.6-6.4-1.9-8.8
		C459.1,49.1,457.1,47.9,454.1,47.9z"/>
	<path id="path121" class="st1" d="M516.5,74.9c-1.4,1.9-3.4,3.7-6.2,5.3c-2.8,1.6-6.2,2.4-10.3,2.4c-6.6,0-11.7-2-15.4-6
		c-3.7-4-5.5-8.8-5.5-14.5v-1.5c0-6.4,1.8-11.6,5.3-15.7c3.6-4.1,8.4-6.1,14.4-6.1c6.1,0,10.7,1.9,13.9,5.7
		c3.2,3.8,4.8,8.8,4.8,15.1v4.8h-26.9c0.4,2.7,1.5,4.9,3.2,6.6c1.8,1.7,4.1,2.5,7,2.5c4.3,0,7.7-1.6,10.2-4.7L516.5,74.9z
		 M498.7,47.8c-2.4,0-4.2,0.8-5.5,2.4c-1.3,1.6-2.1,3.7-2.5,6.3h15.7v-0.9c-0.1-2.3-0.7-4.1-1.9-5.6
		C503.2,48.6,501.3,47.8,498.7,47.8z"/>
	<path id="path123" class="st1" d="M542,47.9c-3.2,0-5.6,1.4-7.1,4.1v29.8h-11.3V39.5h10.6l0.4,4.8c3-3.8,7.1-5.6,12.1-5.6
		c4,0,7.2,1.2,9.7,3.6c2.4,2.4,3.7,6.6,3.7,12.5v26.9h-11.3v-27c0-2.7-0.6-4.5-1.8-5.5C545.9,48.4,544.2,47.9,542,47.9z"/>
	<path id="path125" class="st1" d="M423.2,141.5c0,5.5-1.8,9.7-5.4,12.5c-3.5,2.8-8.6,4.2-15.2,4.2h-21.8v-56.9h20
		c6.6,0,11.7,1.3,15.5,3.8s5.6,6.4,5.6,11.8c0,2.6-0.7,4.9-2,7.1c-1.3,2.2-3.4,3.8-6.2,4.9c3.3,0.8,5.7,2.4,7.2,4.8
		S423.2,138.8,423.2,141.5L423.2,141.5z M392.7,110.9v14.3h8.2c6.2,0,9.3-2.3,9.3-7c0-4.8-3.1-7.3-9.3-7.3H392.7z M411.5,141.4
		c0-2.4-0.7-4.4-2-5.8c-1.3-1.4-3.4-2.1-6.4-2.1h-10.5v15.4h10c3,0,5.2-0.7,6.6-2.1S411.5,143.5,411.5,141.4z"/>
	<path id="path127" class="st1" d="M457,158.3l-0.3-4.3c-2.8,3.4-6.6,5.1-11.6,5.1c-4.2,0-7.6-1.2-10.2-3.7c-2.6-2.4-3.9-6.5-3.9-12
		V116h11.3v27.4c0,2.3,0.6,4,1.7,5c1.1,1,2.6,1.4,4.3,1.4c2.1,0,3.7-0.4,5-1.1c1.3-0.7,2.3-1.7,2.9-3V116h11.3v42.3H457z"/>
	<path id="path129" class="st1" d="M476.1,105.1c0-1.7,0.6-3.1,1.7-4.2c1.1-1.1,2.7-1.7,4.6-1.7s3.5,0.6,4.6,1.7
		c1.1,1.1,1.7,2.5,1.7,4.2c0,1.7-0.6,3.1-1.7,4.2c-1.1,1.1-2.7,1.6-4.6,1.6c-1.9,0-3.5-0.5-4.6-1.6
		C476.6,108.1,476.1,106.7,476.1,105.1z M488.1,116v42.3h-11.3V116L488.1,116z"/>
	<path id="path131" class="st1" d="M509.3,98.3v60H498v-60H509.3z"/>
	<path id="path133" class="st1" d="M544.8,158.3l-0.5-4.5c-1.3,1.6-2.9,2.9-4.6,3.9c-1.8,0.9-3.8,1.4-6.2,1.4c-5.2,0-9.3-2-12.2-6.1
		s-4.3-9.2-4.3-15.3v-0.8c0-6.4,1.4-11.6,4.3-15.6c2.9-4,7-6,12.3-6c4.1,0,7.5,1.5,10.2,4.6V98.3H555v60H544.8z M528.2,137.6
		c0,3.4,0.6,6.3,1.8,8.7c1.2,2.4,3.3,3.6,6.2,3.6c3.4,0,5.9-1.5,7.4-4.4v-16.8c-1.4-2.9-3.9-4.4-7.3-4.4c-2.9,0-5,1.2-6.3,3.6
		c-1.2,2.4-1.8,5.3-1.8,8.8V137.6z"/>
	<path id="path135" class="st1" d="M410.5,219.8c0-2-0.7-3.6-2.1-4.9c-1.4-1.3-4.4-2.6-9-4.1c-5.2-1.7-9.6-3.8-13.4-6.5
		c-3.8-2.7-5.6-6.4-5.6-11.4c0-4.8,2-8.6,5.9-11.5c3.9-2.9,9-4.4,15.1-4.4c6.3,0,11.4,1.7,15.2,5c3.8,3.3,5.7,7.5,5.7,12.6h-11.7
		c0-2.4-0.8-4.4-2.3-5.9c-1.5-1.5-3.9-2.3-7-2.3c-3.1,0-5.4,0.7-6.9,2c-1.5,1.3-2.2,2.8-2.2,4.6c0,1.9,1,3.4,2.9,4.7
		c1.9,1.2,4.7,2.4,8.4,3.6c6.2,1.9,10.9,4.3,14.1,7.1c3.2,2.9,4.8,6.6,4.8,11.3c0,5-1.9,8.9-5.6,11.6c-3.8,2.8-8.8,4.1-15,4.1
		c-3.8,0-7.4-0.7-10.9-2c-3.5-1.3-6.4-3.4-8.7-6.1c-2.3-2.8-3.4-6.3-3.4-10.6h11.8c0,3.5,1,5.9,3.1,7.3c2.1,1.4,4.8,2.1,8.2,2.1
		c3,0,5.2-0.6,6.7-1.8C409.7,223.2,410.5,221.6,410.5,219.8L410.5,219.8z"/>
	<path id="path137" class="st1" d="M465.4,227.9c-1.4,1.9-3.4,3.7-6.2,5.3c-2.8,1.6-6.2,2.4-10.3,2.4c-6.6,0-11.7-2-15.4-6
		c-3.7-4-5.5-8.8-5.5-14.5v-1.5c0-6.4,1.8-11.6,5.3-15.7c3.6-4.1,8.4-6.1,14.4-6.1c6.1,0,10.7,1.9,13.9,5.7s4.8,8.8,4.8,15.1v4.8
		h-26.9c0.4,2.7,1.5,4.9,3.2,6.6c1.8,1.7,4.1,2.5,7,2.5c4.3,0,7.7-1.6,10.2-4.7L465.4,227.9z M447.6,200.8c-2.4,0-4.2,0.8-5.5,2.4
		c-1.3,1.6-2.1,3.7-2.5,6.3h15.7v-0.9c-0.1-2.3-0.7-4.1-1.9-5.6C452.1,201.6,450.2,200.8,447.6,200.8z"/>
	<path id="path139" class="st1" d="M492.4,202.7c-4.2,0-7,1.4-8.4,4.3v27.7h-11.3v-42.3h10.7l0.4,5c2.2-3.9,5.4-5.8,9.4-5.8
		c1.4,0,2.6,0.2,3.5,0.5l-0.1,10.8c-0.6-0.1-1.2-0.1-2-0.2C493.7,202.8,493,202.7,492.4,202.7z"/>
	<path id="path141" class="st1" d="M538.5,192.5l-14.3,42.3h-10.7l-14.3-42.3H511l7.9,28.4l7.8-28.4L538.5,192.5z"/>
	<path id="path143" class="st1" d="M543.4,181.5c0-1.7,0.6-3.1,1.7-4.2c1.1-1.1,2.7-1.7,4.6-1.7s3.5,0.6,4.6,1.7
		c1.1,1.1,1.7,2.5,1.7,4.2c0,1.7-0.6,3.1-1.7,4.2c-1.1,1.1-2.7,1.6-4.6,1.6c-1.9,0-3.5-0.5-4.6-1.6
		C544,184.6,543.4,183.2,543.4,181.5L543.4,181.5z M555.4,192.5v42.3h-11.3v-42.3H555.4z"/>
	<path id="path145" class="st1" d="M582.3,226.4c2.1,0,3.8-0.6,5.1-1.7c1.3-1.1,2-2.7,2-4.6H600c-0.1,4.5-1.8,8.2-5.2,11.1
		c-3.4,2.9-7.5,4.3-12.4,4.3c-6.5,0-11.4-2.1-14.7-6.2c-3.2-4.1-4.8-9.2-4.8-15.2v-1.1c0-6,1.6-11,4.8-15.2
		c3.2-4.1,8.1-6.2,14.6-6.2c5.2,0,9.4,1.5,12.6,4.5c3.3,3,4.9,7,5,12.1h-10.6c0-2.1-0.7-3.8-1.9-5.2c-1.2-1.5-3-2.2-5.3-2.2
		c-3.3,0-5.5,1.3-6.5,3.8c-1,2.5-1.5,5.3-1.5,8.5v1.1c0,3.3,0.5,6.1,1.5,8.6C576.8,225.2,579,226.4,582.3,226.4z"/>
	<path id="path147" class="st1" d="M642.4,227.9c-1.4,1.9-3.4,3.7-6.2,5.3c-2.8,1.6-6.2,2.4-10.3,2.4c-6.6,0-11.7-2-15.4-6
		c-3.7-4-5.5-8.8-5.5-14.5v-1.5c0-6.4,1.8-11.6,5.3-15.7c3.6-4.1,8.4-6.1,14.4-6.1c6.1,0,10.7,1.9,13.9,5.7s4.8,8.8,4.8,15.1v4.8
		h-26.9c0.4,2.7,1.5,4.9,3.2,6.6c1.8,1.7,4.1,2.5,7,2.5c4.3,0,7.7-1.6,10.2-4.7L642.4,227.9z M624.6,200.8c-2.4,0-4.2,0.8-5.5,2.4
		c-1.3,1.6-2.1,3.7-2.5,6.3h15.7v-0.9c-0.1-2.3-0.7-4.1-1.9-5.6C629.1,201.6,627.2,200.8,624.6,200.8z"/>
</g>
</svg>
