<?xml version="1.0" encoding="utf-8"?>
<!-- Generator: Adobe Illustrator 24.0.3, SVG Export Plug-In . SVG Version: 6.00 Build 0)  -->
<svg version="1.1"
	 id="svg2" xmlns:cc="http://creativecommons.org/ns#" xmlns:dc="http://purl.org/dc/elements/1.1/" xmlns:inkscape="http://www.inkscape.org/namespaces/inkscape" xmlns:rdf="http://www.w3.org/1999/02/22-rdf-syntax-ns#" xmlns:sodipodi="http://sodipodi.sourceforge.net/DTD/sodipodi-0.dtd" xmlns:svg="http://www.w3.org/2000/svg"
	 xmlns="http://www.w3.org/2000/svg" xmlns:xlink="http://www.w3.org/1999/xlink" x="0px" y="0px" viewBox="0 0 200 125.2"
	 style="enable-background:new 0 0 200 125.2;" xml:space="preserve">
<style type="text/css">
	.st0{fill:#808080;}
</style>
<sodipodi:namedview  bordercolor="#666666" borderopacity="1" gridtolerance="10" guidetolerance="10" id="namedview4" inkscape:current-layer="g10" inkscape:cx="200" inkscape:cy="123.06752" inkscape:pageopacity="0" inkscape:pageshadow="2" inkscape:window-height="480" inkscape:window-maximized="0" inkscape:window-width="707" inkscape:window-x="103" inkscape:window-y="66" inkscape:zoom="0.94257199" objecttolerance="10" pagecolor="#ffffff" showgrid="false">
	</sodipodi:namedview>
<g id="g10" transform="matrix(1.25,0,0,-1.25,0,250.37875)" inkscape:groupmode="layer" inkscape:label="openSUSElogo_rgb green">
	<g>
		<g id="g14">
			<g id="g20" transform="translate(262.6839,162.7228)">
				<path id="path22" inkscape:connector-curvature="0" class="st0" d="M-137.4,15c0.1,2.3,1,4.3,2.7,5.9c1.6,1.5,3.8,2.3,6.1,2.3
					c4.7-0.2,8.3-4.1,8.2-8.7c-0.1-2.3-1-4.3-2.7-5.9c-1.6-1.5-3.8-2.3-6.1-2.3C-133.9,6.4-137.6,10.4-137.4,15z M-114.9,6.7
					c0.4,0.3,0.7,0.5,0.8,0.5l0.1,0.2c-0.3,2-3.4,11.9-5.7,14.3c-0.6,0.6-1.1,1.3-2.2,1.9c-8.3,4.8-28.1,7.8-29,7.9l-0.2,0l-0.1-0.1
					c0,0-0.1-4.1-0.1-4.5c-2,0.7-16.7,5.4-30.4,5.9c-11.7,0.4-28.6,1.9-51.1-11.9l-0.7-0.4c-10.6-6.6-17.9-14.7-21.7-24.2
					c-1.2-3-2.8-9.7-1.2-16c0.7-2.8,2-5.5,3.7-8c3.9-5.6,10.5-9.3,17.5-10c10-0.9,17.5,3.6,20.2,12c1.8,5.8,0,14.3-7.1,18.6
					c-5.8,3.5-11.9,2.7-15.5,0.3c-3.1-2.1-4.9-5.3-4.8-8.8c0.1-6.3,5.5-9.6,9.3-9.6c1.1,0,2.3,0.2,3.5,0.6c0.5,0.1,0.9,0.3,1.3,0.6
					l0.1,0.1l0.1,0.1l0,0c0.9,0.6,1.4,1.6,1.4,2.6c0,0.3,0,0.6-0.1,0.9c-0.5,1.6-2,2.5-3.6,2.2l-0.2-0.1l-0.3-0.1l-0.4-0.1
					c-0.9-0.2-1.6-0.2-1.7-0.2c-0.5,0-2.7,0.7-2.7,3.1v0c0,0.9,0.4,1.5,0.6,1.9c0.7,1.1,2.6,2.2,5.2,1.9c3.4-0.3,5.8-2,7.4-5.3
					c1.5-3,1.1-6.8-1-9.5c-2.1-2.7-5.8-3.9-10.8-3.3c-5,0.6-9.2,3.4-11.6,7.9c-2.3,4.4-2.4,9.6-0.3,13.5c5.1,9.5,14.6,9.5,19.9,8.5
					c7.8-1.3,16.6-8.5,19.7-16.8c0.5-1.3,0.8-2.4,1-3.3l0.3-1.4l8.8-4.3l0.1-0.1l0.2,0l0,0.3c-0.1,0.2-0.2,0.4-0.4,2.8
					c-0.2,2.2-0.5,8.1,2.5,11.1c1.2,1.2,2.9,2.2,4.3,2.5c5.7,1.4,12.5,0.4,18.8-6.9c3.3-3.8,4.9-5.5,5.7-6.3l0.3-0.3l0.3-0.2
					c0.3-0.1,10.9-5.1,10.9-5.1l0.2,0.1l0,0.2c-0.1,0.1-6.8,8.7-5.6,15.9c0.9,5.7,5.5,5.2,11.7,4.5c2-0.2,4.4-0.5,6.8-0.6
					c6.7,0,13.9,1.2,18.4,3.1c2.9,1.3,4.7,2.1,5.9,3.1c0.4,0.3,0.6,0.9,0.9,1.5l0.2,0.4c0.2,0.5,0.5,1.5,0.6,2.1
					c0,0.2,0.1,0.5-0.1,0.6l-0.6-0.1c-2-1.2-6.9-3.4-11.4-3.5c-5.7-0.1-17.1,5.7-18.3,6.3l-0.1,0.1c-0.3,0.7-2,4.7-2.4,5.6
					c8.2-5.4,15.1-8.4,20.3-8.9C-121.3,2.2-116.8,5.3-114.9,6.7L-114.9,6.7L-114.9,6.7z M-127.8,14.2c-1.4,0-2.6,0.8-2.6,1.7
					c0,1,1.2,1.7,2.6,1.7s2.6-0.8,2.6-1.7C-125.2,15-126.4,14.2-127.8,14.2 M-128.8,20.7c-1.6,0.1-3.1-0.5-4.2-1.6
					c-1.1-1.1-1.8-2.5-1.9-4.1c-0.1-3.3,2.4-6,5.7-6.1c1.6,0,3.1,0.5,4.2,1.6c1.1,1.1,1.8,2.5,1.9,4.1
					C-123,17.8-125.5,20.6-128.8,20.7z"/>
			</g>
			<g id="g24" transform="translate(133.9789,60.2888)">
				<path id="path26" inkscape:connector-curvature="0" class="st0" d="M-70.1,68.6c-3.7,0-5.8-3.1-5.8-5.3v-2.8
					c0-3.2,2.6-5.2,5-5.2h8.5c1.1,0,1.3-0.7,1.3-1.3v-1.8c0-0.2,0-1.9-1.3-1.9h-11.6c-1.2,0-2-0.8-2-1.9v-0.5c0-1.1,0.8-1.9,2-1.9
					h12.2c3.2,0,5.3,2.2,5.3,5.7v3c0,3.2-2.3,4.7-4.6,4.7h-8.4c-1.3,0-1.8,0.9-1.8,1.6v1.7c0,1,0.7,1.6,1.9,1.6h9.3
					c1.1,0,2,0.8,2,1.9v0.5c0,1.1-0.9,1.9-2,1.9H-70.1z"/>
			</g>
			<g id="g28" transform="translate(206.8412,60.2888)">
				<path id="path30" inkscape:connector-curvature="0" class="st0" d="M-108.2,68.6c-1.1,0-2-0.9-2-2V52.4c0-1.1-0.9-2.1-2.1-2.1
					h-6.5c-1.1,0-2.1,0.9-2.1,2.1v14.2c0,1.1-0.9,2-2,2h-0.6c-1.1,0-2-0.9-2-2V51.9c0-3.4,2.7-5.9,6.4-5.9h6.9
					c3.7,0,6.4,2.5,6.4,5.9v14.8c0,1.1-0.9,2-2,2H-108.2z"/>
			</g>
			<g id="g32" transform="translate(232.7736,60.2888)">
				<path id="path34" inkscape:connector-curvature="0" class="st0" d="M-121.8,68.6c-3.7,0-5.8-3.1-5.8-5.3v-2.8
					c0-3.2,2.6-5.2,5-5.2h8.5c1.1,0,1.3-0.7,1.3-1.3v-1.8c0-0.2,0-1.9-1.3-1.9h-11.6c-1.1,0-2-0.8-2-1.9v-0.5c0-1.1,0.8-1.9,2-1.9
					h12.2c3.2,0,5.3,2.2,5.3,5.7v3c0,3.2-2.3,4.7-4.6,4.7h-8.4c-1.3,0-1.8,0.9-1.8,1.6v1.7c0,1,0.7,1.6,1.9,1.6h9.3
					c1.1,0,2,0.8,2,1.9v0.5c0,1.1-0.9,1.9-2,1.9H-121.8z"/>
			</g>
			<g id="g36" transform="translate(273.7386,60.2888)">
				<path id="path38" inkscape:connector-curvature="0" class="st0" d="M-143.2,68.6c-1.1,0-1.9-0.8-1.9-1.9V47.9
					c0-1.1,0.8-1.9,1.9-1.9h15c1.2,0,2,0.8,2,1.9v0.5c0,1.1-0.8,1.9-2,1.9h-12.2v4.8h9c1.1,0,2,0.8,2,1.9v0.5c0,1.1-0.8,1.9-2,1.9
					h-9v4.9h11.6c1.1,0,2,0.8,2,1.9v0.5c0,1.1-0.8,1.9-2,1.9L-143.2,68.6L-143.2,68.6z"/>
			</g>
			<g id="g40" transform="translate(5.0529,20.4885)">
				<path id="path42" inkscape:connector-curvature="0" class="st0" d="M-2.6,89.4v6.5c0,0.8,0.6,1.4,1.4,1.4h3.6
					c0.7,0,1.4-0.6,1.4-1.4l0-6.5c0-0.8-0.6-1.4-1.4-1.4h-3.6C-2.1,88-2.6,88.7-2.6,89.4 M-1.7,99.5c-1.9,0-3.4-1.5-3.4-3.3v-7.1
					c0-1.8,1.5-3.3,3.3-3.3h4.6c1.8,0,3.3,1.5,3.3,3.3v7.1c0,1.8-1.5,3.3-3.4,3.3H-1.7C-1.7,99.5-1.7,99.5-1.7,99.5z"/>
			</g>
			<g id="g44" transform="translate(35.5085,20.7779)">
				<path id="path46" inkscape:connector-curvature="0" class="st0" d="M-18.6,89.3v6.2c0,0.9,0.7,1.5,1.5,1.5h3.3
					c0.9,0,1.5-0.7,1.5-1.5v-6.2c0-0.8-0.7-1.5-1.5-1.5h-3.3C-17.9,87.8-18.6,88.4-18.6,89.3z M-14,99.3c-1.3,0-2.3-0.5-3.1-0.9
					c-0.5-0.2-0.9-0.4-1.2-0.4c-0.1,0-0.3,0.1-0.3,0.2l-0.3,0.6c-0.1,0.2-0.4,0.5-0.8,0.5h-0.5c-0.4,0-0.8-0.4-0.8-0.9V80.4
					c0-0.6,0.4-1,1-1h0.4c0.6,0,1,0.4,1,1v6c0,0.2,0.1,0.4,0.2,0.4c0.3,0,0.7-0.2,1.2-0.4c0.8-0.4,1.8-0.8,3.1-0.8h0.4
					c2.3,0,3.8,1.3,3.8,3.5v6.9c0,2.1-1.5,3.5-3.8,3.5L-14,99.3C-14,99.3-14,99.3-14,99.3z"/>
			</g>
			<g id="g48" transform="translate(66.0714,34.088)">
				<path id="path50" inkscape:connector-curvature="0" class="st0" d="M-34.6,82.3c0,0.8,0.6,1.4,1.4,1.4h3.7
					c0.8,0,1.3-0.6,1.3-1.4v-2.2h-6.4C-34.6,80.4-34.6,82.3-34.6,82.3z M-33.6,85.9c-1.9,0-3.4-1.5-3.4-3.3v-7
					c0-1.8,1.5-3.4,3.2-3.4h4.7c0.6,0,1,0.4,1,1v0.3c0,0.6-0.4,0.9-1,0.9h-3.9c-1.1,0-1.7,0.5-1.7,1.6v2.1h7c1.1,0,1.8,0.7,1.8,1.8
					v2.7c0,1.8-1.5,3.3-3.4,3.3L-33.6,85.9C-33.6,85.9-33.6,85.9-33.6,85.9z"/>
			</g>
			<g id="g52" transform="translate(104.8947,41.74)">
				<path id="path54" inkscape:connector-curvature="0" class="st0" d="M-54.9,78.3c-1.3,0-2.3-0.5-3.1-0.9
					c-0.5-0.2-0.9-0.4-1.3-0.4c-0.2,0-0.2,0-0.3,0.2l-0.3,0.5c-0.2,0.3-0.4,0.5-0.8,0.5h-0.4c-0.5,0-0.8-0.4-0.8-0.9V65.6
					c0-0.6,0.4-1,1-1h0.4c0.6,0,1,0.5,1,1v8.9c0,0.8,0.7,1.5,1.5,1.5h3.3c0.8,0,1.5-0.7,1.5-1.5v-8.9c0-0.6,0.4-1,1-1h0.4
					c0.6,0,1,0.5,1,1v9.2c0,2.1-1.5,3.5-3.8,3.5H-54.9z"/>
			</g>
			<g id="g56" transform="translate(315.4154,18.754)">
				<path id="path58" inkscape:connector-curvature="0" class="st0" d="M-165,90.3h0.2c0.3,0,0.5,0.1,0.5,0.4c0,0.2-0.1,0.4-0.5,0.4
					c-0.1,0-0.2,0-0.2,0V90.3z M-165,89.2h-0.3v2.1c0.2,0,0.3,0.1,0.6,0.1c0.3,0,0.5-0.1,0.6-0.2c0.1-0.1,0.2-0.2,0.2-0.4
					c0-0.3-0.2-0.4-0.4-0.5v0c0.2,0,0.3-0.2,0.3-0.5c0.1-0.3,0.1-0.4,0.1-0.5h-0.3c-0.1,0.1-0.1,0.3-0.1,0.5
					c-0.1,0.3-0.2,0.4-0.4,0.4h-0.2L-165,89.2C-165,89.2-165,89.2-165,89.2z M-164.7,91.8c-0.8,0-1.5-0.7-1.5-1.6
					c0-0.9,0.7-1.6,1.5-1.6c0.8,0,1.5,0.7,1.5,1.6C-163.2,91.1-163.8,91.8-164.7,91.8C-164.7,91.8-164.7,91.8-164.7,91.8z
					 M-164.7,92.1c1,0,1.8-0.8,1.8-1.9c0-1.1-0.8-1.9-1.8-1.9c-1,0-1.8,0.8-1.8,1.9C-166.5,91.3-165.7,92.1-164.7,92.1
					C-164.7,92.1-164.7,92.1-164.7,92.1z"/>
			</g>
		</g>
	</g>
</g>
</svg>
