<?xml version="1.0" encoding="UTF-8" standalone="no"?>
<!-- Created with Inkscape (http://www.inkscape.org/) -->

<svg
   xmlns:dc="http://purl.org/dc/elements/1.1/"
   xmlns:cc="http://creativecommons.org/ns#"
   xmlns:rdf="http://www.w3.org/1999/02/22-rdf-syntax-ns#"
   xmlns:svg="http://www.w3.org/2000/svg"
   xmlns="http://www.w3.org/2000/svg"
   xmlns:xlink="http://www.w3.org/1999/xlink"
   xmlns:sodipodi="http://sodipodi.sourceforge.net/DTD/sodipodi-0.dtd"
   xmlns:inkscape="http://www.inkscape.org/namespaces/inkscape"
   width="280"
   height="81"
   id="svg2"
   sodipodi:version="0.32"
   inkscape:version="0.47 r22583"
   version="1.0"
   sodipodi:docname="Spacewalk-logo-source.svg"
   inkscape:output_extension="org.inkscape.output.svg.inkscape"
   inkscape:export-filename="/home/duffy/Desktop/spacewalk_p.png"
   inkscape:export-xdpi="90"
   inkscape:export-ydpi="90">
  <sodipodi:namedview
     id="base"
     pagecolor="#ffffff"
     bordercolor="#666666"
     borderopacity="1.0"
     gridtolerance="10000"
     guidetolerance="10"
     objecttolerance="10"
     inkscape:pageopacity="0.0"
     inkscape:pageshadow="2"
     inkscape:zoom="1"
     inkscape:cx="131.75"
     inkscape:cy="-25.999998"
     inkscape:document-units="px"
     inkscape:current-layer="layer1"
     showgrid="false"
     inkscape:window-width="1392"
     inkscape:window-height="972"
     inkscape:window-x="0"
     inkscape:window-y="25"
     showguides="true"
     inkscape:guide-bbox="true"
     inkscape:window-maximized="0" />
  <defs
     id="defs4">
    <linearGradient
       id="linearGradient4054">
      <stop
         id="stop4056"
         offset="0"
         style="stop-color:#b3b3b3;stop-opacity:1;" />
      <stop
         id="stop4058"
         offset="1"
         style="stop-color:#2e2e2e;stop-opacity:1;" />
    </linearGradient>
    <linearGradient
       id="linearGradient4046"
       inkscape:collect="always">
      <stop
         id="stop4048"
         offset="0"
         style="stop-color:#000000;stop-opacity:1;" />
      <stop
         id="stop4050"
         offset="1"
         style="stop-color:#000000;stop-opacity:0;" />
    </linearGradient>
    <linearGradient
       id="linearGradient4038">
      <stop
         id="stop4040"
         offset="0"
         style="stop-color:#ffeeaa;stop-opacity:1;" />
      <stop
         id="stop4042"
         offset="1"
         style="stop-color:#9c7d00;stop-opacity:1;" />
    </linearGradient>
    <linearGradient
       id="linearGradient4018">
      <stop
         id="stop4020"
         offset="0"
         style="stop-color:#ffffff;stop-opacity:1;" />
      <stop
         id="stop4022"
         offset="1"
         style="stop-color:#888888;stop-opacity:1;" />
    </linearGradient>
    <linearGradient
       id="linearGradient4010"
       inkscape:collect="always">
      <stop
         id="stop4012"
         offset="0"
         style="stop-color:#ffffff;stop-opacity:1;" />
      <stop
         id="stop4014"
         offset="1"
         style="stop-color:#ffffff;stop-opacity:0;" />
    </linearGradient>
    <linearGradient
       id="linearGradient5162">
      <stop
         id="stop5164"
         offset="0"
         style="stop-color:#ffffff;stop-opacity:1;" />
      <stop
         id="stop5166"
         offset="1"
         style="stop-color:#747474;stop-opacity:1;" />
    </linearGradient>
    <linearGradient
       id="linearGradient5154"
       inkscape:collect="always">
      <stop
         id="stop5156"
         offset="0"
         style="stop-color:#c0c0c0;stop-opacity:1;" />
      <stop
         id="stop5158"
         offset="1"
         style="stop-color:#c0c0c0;stop-opacity:0;" />
    </linearGradient>
    <linearGradient
       id="linearGradient5144"
       inkscape:collect="always">
      <stop
         id="stop5146"
         offset="0"
         style="stop-color:#ffffff;stop-opacity:1;" />
      <stop
         id="stop5148"
         offset="1"
         style="stop-color:#ffffff;stop-opacity:0;" />
    </linearGradient>
    <linearGradient
       id="linearGradient5122"
       inkscape:collect="always">
      <stop
         id="stop5124"
         offset="0"
         style="stop-color:#ffffff;stop-opacity:1;" />
      <stop
         id="stop5126"
         offset="1"
         style="stop-color:#ffffff;stop-opacity:0;" />
    </linearGradient>
    <linearGradient
       id="linearGradient4706"
       inkscape:collect="always">
      <stop
         id="stop4708"
         offset="0"
         style="stop-color:#c0c0c0;stop-opacity:1;" />
      <stop
         id="stop4710"
         offset="1"
         style="stop-color:#c0c0c0;stop-opacity:0;" />
    </linearGradient>
    <linearGradient
       id="linearGradient4560"
       inkscape:collect="always">
      <stop
         id="stop4562"
         offset="0"
         style="stop-color:#a9a9a9;stop-opacity:1;" />
      <stop
         id="stop4564"
         offset="1"
         style="stop-color:#a9a9a9;stop-opacity:0;" />
    </linearGradient>
    <linearGradient
       id="linearGradient3928">
      <stop
         id="stop3930"
         offset="0"
         style="stop-color:#797979;stop-opacity:1;" />
      <stop
         id="stop3932"
         offset="1"
         style="stop-color:#f9f9f9;stop-opacity:0;" />
    </linearGradient>
    <linearGradient
       id="linearGradient3419"
       inkscape:collect="always">
      <stop
         id="stop3421"
         offset="0"
         style="stop-color:#dcdcdc;stop-opacity:1;" />
      <stop
         id="stop3423"
         offset="1"
         style="stop-color:#dcdcdc;stop-opacity:0;" />
    </linearGradient>
    <linearGradient
       id="linearGradient3342">
      <stop
         id="stop3344"
         offset="0"
         style="stop-color:#ff0000;stop-opacity:1;" />
      <stop
         id="stop3346"
         offset="1"
         style="stop-color:#ff0000;stop-opacity:0;" />
    </linearGradient>
    <linearGradient
       id="linearGradient4019">
      <stop
         style="stop-color:#aaaaaa;stop-opacity:1;"
         offset="0"
         id="stop4021" />
      <stop
         style="stop-color:#aaaaaa;stop-opacity:0;"
         offset="1"
         id="stop4023" />
    </linearGradient>
    <inkscape:perspective
       id="perspective10"
       inkscape:persp3d-origin="372.04724 : 350.78739 : 1"
       inkscape:vp_z="744.09448 : 526.18109 : 1"
       inkscape:vp_y="0 : 1000 : 0"
       inkscape:vp_x="0 : 526.18109 : 1"
       sodipodi:type="inkscape:persp3d" />
    <linearGradient
       gradientTransform="matrix(0.6308034,0,0,1.5852803,-7.2609471e-5,1.8792397e-5)"
       gradientUnits="userSpaceOnUse"
       y2="-436.48074"
       x2="2653.0842"
       y1="-381.50394"
       x1="2653.0842"
       id="linearGradient3425"
       xlink:href="#linearGradient3419"
       inkscape:collect="always" />
    <linearGradient
       gradientTransform="translate(1.7753158,50.888487)"
       gradientUnits="userSpaceOnUse"
       y2="-1341.8486"
       x2="1149.8895"
       y1="-1336.8425"
       x1="1149.8895"
       id="linearGradient4712"
       xlink:href="#linearGradient4706"
       inkscape:collect="always" />
    <inkscape:perspective
       sodipodi:type="inkscape:persp3d"
       inkscape:vp_x="0 : 526.18109 : 1"
       inkscape:vp_y="0 : 1000 : 0"
       inkscape:vp_z="744.09448 : 526.18109 : 1"
       inkscape:persp3d-origin="372.04724 : 350.78739 : 1"
       id="perspective4782" />
    <linearGradient
       y2="-1341.8486"
       x2="1149.8895"
       y1="-1336.8425"
       x1="1149.8895"
       gradientTransform="translate(1.7753158,50.888485)"
       gradientUnits="userSpaceOnUse"
       id="linearGradient4874"
       xlink:href="#linearGradient4706"
       inkscape:collect="always" />
    <linearGradient
       y2="697.49579"
       x2="1760.8287"
       y1="710.10437"
       x1="1760.8287"
       gradientUnits="userSpaceOnUse"
       id="linearGradient4905"
       xlink:href="#linearGradient4560"
       inkscape:collect="always" />
    <linearGradient
       y2="690.59448"
       x2="1890.5"
       y1="698.59448"
       x1="1890.5"
       gradientTransform="matrix(1.5625,0,0,1.5625,-1189.4063,-381.4594)"
       gradientUnits="userSpaceOnUse"
       id="linearGradient4907"
       xlink:href="#linearGradient4560"
       inkscape:collect="always" />
    <linearGradient
       y2="690.59448"
       x2="1890.5"
       y1="698.59448"
       x1="1890.5"
       gradientTransform="matrix(1.5625,0,0,1.5625,-1189.4063,-381.4594)"
       gradientUnits="userSpaceOnUse"
       id="linearGradient4911"
       xlink:href="#linearGradient4560"
       inkscape:collect="always" />
    <linearGradient
       y2="697.49579"
       x2="1760.8287"
       y1="710.10437"
       x1="1760.8287"
       gradientUnits="userSpaceOnUse"
       id="linearGradient4913"
       xlink:href="#linearGradient4560"
       inkscape:collect="always" />
    <linearGradient
       y2="697.49579"
       x2="1760.8287"
       y1="710.10437"
       x1="1760.8287"
       gradientUnits="userSpaceOnUse"
       id="linearGradient4915"
       xlink:href="#linearGradient4560"
       inkscape:collect="always" />
    <linearGradient
       y2="-1341.8486"
       x2="1149.8895"
       y1="-1336.8425"
       x1="1149.8895"
       gradientTransform="translate(1.7753158,50.888485)"
       gradientUnits="userSpaceOnUse"
       id="linearGradient4917"
       xlink:href="#linearGradient4706"
       inkscape:collect="always" />
    <radialGradient
       r="8.9481392"
       fy="323.5831"
       fx="2218.3242"
       cy="323.5831"
       cx="2218.3242"
       gradientTransform="matrix(2.7070016,-5.1369913e-6,4.1261083e-6,2.1866984,-3786.1077,-385.44376)"
       gradientUnits="userSpaceOnUse"
       id="radialGradient5138"
       xlink:href="#linearGradient5122"
       inkscape:collect="always" />
    <radialGradient
       gradientUnits="userSpaceOnUse"
       gradientTransform="matrix(2.0188261,0.02828854,-0.03921509,2.7985963,-2245.123,-670.74843)"
       r="13.93835"
       fy="337.62668"
       fx="2216.6323"
       cy="337.62668"
       cx="2216.6323"
       id="radialGradient5152"
       xlink:href="#linearGradient5144"
       inkscape:collect="always" />
    <linearGradient
       gradientUnits="userSpaceOnUse"
       y2="455.26434"
       x2="2193.0774"
       y1="452.48694"
       x1="2200.7715"
       id="linearGradient5160"
       xlink:href="#linearGradient5154"
       inkscape:collect="always" />
    <linearGradient
       gradientUnits="userSpaceOnUse"
       y2="335.59448"
       x2="2204.5457"
       y1="348.34448"
       x1="2198"
       id="linearGradient5168"
       xlink:href="#linearGradient5162"
       inkscape:collect="always" />
    <linearGradient
       y2="-1341.8486"
       x2="1149.8895"
       y1="-1336.8425"
       x1="1149.8895"
       gradientTransform="translate(30.020417,120.98914)"
       gradientUnits="userSpaceOnUse"
       id="linearGradient5172"
       xlink:href="#linearGradient4706"
       inkscape:collect="always" />
    <linearGradient
       y2="697.49579"
       x2="1760.8287"
       y1="710.10437"
       x1="1760.8287"
       gradientTransform="matrix(1.1338462,0,0,1.1338462,-32.670034,-8.311573)"
       gradientUnits="userSpaceOnUse"
       id="linearGradient5183"
       xlink:href="#linearGradient4560"
       inkscape:collect="always" />
    <inkscape:perspective
       id="perspective5103"
       inkscape:persp3d-origin="372.04724 : 350.78739 : 1"
       inkscape:vp_z="744.09448 : 526.18109 : 1"
       inkscape:vp_y="0 : 1000 : 0"
       inkscape:vp_x="0 : 526.18109 : 1"
       sodipodi:type="inkscape:persp3d" />
    <clipPath
       clipPathUnits="userSpaceOnUse"
       id="clipPath5013">
      <path
         transform="matrix(0.9226996,0,0,0.9226996,2012.8317,-14.56701)"
         d="m -1597.6935,851.59326 a 116.59921,112.04899 0 1 1 -233.1984,0 116.59921,112.04899 0 1 1 233.1984,0 z"
         sodipodi:ry="112.04899"
         sodipodi:rx="116.59921"
         sodipodi:cy="851.59326"
         sodipodi:cx="-1714.2927"
         id="path5015"
         style="fill:#b3b3b3;fill-opacity:1;fill-rule:nonzero;stroke:#000000;stroke-width:4;stroke-linecap:butt;stroke-linejoin:miter;stroke-miterlimit:4;stroke-opacity:1;stroke-dasharray:none;stroke-dashoffset:0;marker:none;visibility:visible;display:inline;overflow:visible;enable-background:accumulate"
         sodipodi:type="arc" />
    </clipPath>
    <clipPath
       clipPathUnits="userSpaceOnUse"
       id="clipPath5005">
      <path
         transform="matrix(0.9226996,0,0,0.9226996,2040.4089,-20.93097)"
         d="m -1597.6935,851.59326 a 116.59921,112.04899 0 1 1 -233.1984,0 116.59921,112.04899 0 1 1 233.1984,0 z"
         sodipodi:ry="112.04899"
         sodipodi:rx="116.59921"
         sodipodi:cy="851.59326"
         sodipodi:cx="-1714.2927"
         id="path5007"
         style="fill:#b3b3b3;fill-opacity:1;fill-rule:nonzero;stroke:#000000;stroke-width:4;stroke-linecap:butt;stroke-linejoin:miter;stroke-miterlimit:4;stroke-opacity:1;stroke-dasharray:none;stroke-dashoffset:0;marker:none;visibility:visible;display:inline;overflow:visible;enable-background:accumulate"
         sodipodi:type="arc" />
    </clipPath>
    <clipPath
       clipPathUnits="userSpaceOnUse"
       id="clipPath4997">
      <path
         transform="matrix(0.9226996,0,0,0.9226996,2027.681,-269.83256)"
         d="m -1597.6935,851.59326 a 116.59921,112.04899 0 1 1 -233.1984,0 116.59921,112.04899 0 1 1 233.1984,0 z"
         sodipodi:ry="112.04899"
         sodipodi:rx="116.59921"
         sodipodi:cy="851.59326"
         sodipodi:cx="-1714.2927"
         id="path4999"
         style="fill:#b3b3b3;fill-opacity:1;fill-rule:nonzero;stroke:#000000;stroke-width:4;stroke-linecap:butt;stroke-linejoin:miter;stroke-miterlimit:4;stroke-opacity:1;stroke-dasharray:none;stroke-dashoffset:0;marker:none;visibility:visible;display:inline;overflow:visible;enable-background:accumulate"
         sodipodi:type="arc" />
    </clipPath>
    <clipPath
       clipPathUnits="userSpaceOnUse"
       id="clipPath4985">
      <path
         transform="matrix(0.6218193,0,0,0.6218193,1476.0222,137.06939)"
         d="m -1597.6935,851.59326 a 116.59921,112.04899 0 1 1 -233.1984,0 116.59921,112.04899 0 1 1 233.1984,0 z"
         sodipodi:ry="112.04899"
         sodipodi:rx="116.59921"
         sodipodi:cy="851.59326"
         sodipodi:cx="-1714.2927"
         id="path4987"
         style="fill:#b3b3b3;fill-opacity:1;fill-rule:nonzero;stroke:#000000;stroke-width:5.93548393;stroke-linecap:butt;stroke-linejoin:miter;stroke-miterlimit:4;stroke-opacity:1;stroke-dasharray:none;stroke-dashoffset:0;marker:none;visibility:visible;display:inline;overflow:visible;enable-background:accumulate"
         sodipodi:type="arc" />
    </clipPath>
    <inkscape:perspective
       id="perspective2808"
       inkscape:persp3d-origin="372.04724 : 350.78739 : 1"
       inkscape:vp_z="744.09448 : 526.18109 : 1"
       inkscape:vp_y="0 : 1000 : 0"
       inkscape:vp_x="0 : 526.18109 : 1"
       sodipodi:type="inkscape:persp3d" />
    <inkscape:perspective
       sodipodi:type="inkscape:persp3d"
       inkscape:vp_x="0 : 526.18109 : 1"
       inkscape:vp_y="0 : 1000 : 0"
       inkscape:vp_z="744.09448 : 526.18109 : 1"
       inkscape:persp3d-origin="372.04724 : 350.78739 : 1"
       id="perspective4174" />
    <radialGradient
       gradientUnits="userSpaceOnUse"
       gradientTransform="matrix(1,0,0,0.92517,0,45.082747)"
       r="41.80508"
       fy="602.46912"
       fx="-1698.6514"
       cy="602.46912"
       cx="-1698.6514"
       id="radialGradient4026"
       xlink:href="#linearGradient4018"
       inkscape:collect="always" />
    <radialGradient
       gradientUnits="userSpaceOnUse"
       gradientTransform="matrix(1.1976269,0,0,1.1596727,-502.57534,-74.914891)"
       r="15.348238"
       fy="524.12878"
       fx="2533.322"
       cy="524.12878"
       cx="2533.322"
       id="radialGradient4028"
       xlink:href="#linearGradient4010"
       inkscape:collect="always" />
    <radialGradient
       gradientUnits="userSpaceOnUse"
       gradientTransform="matrix(1,0,0,0.7213114,0,130.60615)"
       r="10.783379"
       fy="468.64554"
       fx="408.1774"
       cy="468.64554"
       cx="408.1774"
       id="radialGradient4044"
       xlink:href="#linearGradient4038"
       inkscape:collect="always" />
    <radialGradient
       gradientUnits="userSpaceOnUse"
       gradientTransform="matrix(1.1976269,0,0,1.3887416,-502.57534,-196.567)"
       r="10.628859"
       fy="532.45123"
       fx="2515.2004"
       cy="532.45123"
       cx="2515.2004"
       id="radialGradient4052"
       xlink:href="#linearGradient4046"
       inkscape:collect="always" />
    <radialGradient
       gradientUnits="userSpaceOnUse"
       gradientTransform="matrix(2.3154134,-0.05432156,0.03608328,1.5380206,2322.6437,-588.5165)"
       r="116.59921"
       fy="908.90436"
       fx="-1790.6461"
       cy="908.90436"
       cx="-1790.6461"
       id="radialGradient4060"
       xlink:href="#linearGradient4054"
       inkscape:collect="always" />
    <filter
       height="2.0643139"
       y="-0.53215694"
       width="1.1352493"
       x="-0.067624584"
       id="filter7301"
       inkscape:collect="always"
       color-interpolation-filters="sRGB">
      <feGaussianBlur
         id="feGaussianBlur7303"
         stdDeviation="4.7636529"
         inkscape:collect="always" />
    </filter>
    <filter
       id="filterc"
       height="2"
       width="2"
       x="-0.5"
       y="-0.5"
       color-interpolation-filters="sRGB">
      <feGaussianBlur
         stdDeviation="5.0"
         id="feGaussianBlur17860" />
    </filter>
    <clipPath
       id="clipPathX">
      <path
         style="font-size:69.31380463px;font-style:normal;font-variant:normal;font-weight:bold;font-stretch:normal;text-align:start;line-height:125%;writing-mode:lr-tb;text-anchor:start;fill:#000000;fill-opacity:1;stroke:none;font-family:MgOpen Modata;-inkscape-font-specification:MgOpen Modata Bold"
         d="m -163.90478,339.20854 c -4.70787,5e-5 -8.68274,1.19107 -12.02118,3.6306 -3.72343,2.73919 -5.56683,6.39297 -5.56683,10.97247 -2.5e-4,4.62236 1.88109,8.28107 5.64735,10.8918 1.28392,0.94159 4.72051,2.49666 10.32704,4.67944 3.76654,1.49801 5.64788,3.19967 5.64788,5.08283 0,3.03881 -1.88162,4.51808 -5.64788,4.51808 -2.22545,3e-5 -4.65515,-0.42996 -7.18036,-1.37156 -1.75485,-0.64198 -3.26724,-0.96813 -4.67946,-0.96816 -1.71197,6e-5 -3.13065,0.47277 -4.11457,1.37156 -0.94182,0.85606 -1.37169,1.86256 -1.37169,3.14652 0,1.24116 0.47274,2.47503 1.37169,3.6306 0.89845,1.15562 2.08451,2.02539 3.71102,2.58176 3.72367,1.24115 7.52922,1.85566 11.29523,1.85564 5.17901,-3e-5 9.33819,-1.19595 12.5055,-3.54992 3.63796,-2.7392 5.48627,-6.78995 5.48627,-12.18267 0,-4.79356 -1.92397,-8.59391 -5.64764,-11.37588 -2.05428,-1.49791 -5.56625,-3.09093 -10.48837,-4.76012 -3.72342,-1.24115 -5.56732,-2.39923 -5.56678,-3.46924 -2.9e-4,-2.61075 1.70653,-3.87261 5.0019,-3.87264 2.35404,3e-5 4.77855,0.50577 7.26142,1.53292 0.85562,0.38525 1.65003,0.56479 2.42014,0.56476 1.32705,6e-5 2.37138,-0.51062 3.2272,-1.45224 0.85612,-0.98437 1.29088,-2.09961 1.29088,-3.46923 0,-2.8247 -1.55497,-4.96129 -4.67916,-6.37372 -2.48262,-1.06993 -5.2335,-1.61355 -8.2296,-1.6136 z m 119.80987,0.0807 c -7.06191,3e-5 -12.70563,2.59957 -16.94281,7.90664 -3.80913,4.83638 -5.7284,10.70247 -5.7284,17.50755 0,6.67671 1.80567,12.24471 5.48622,16.78143 4.10864,5.09311 9.75726,7.66462 16.86225,7.6646 3.08132,0 5.60991,-0.25534 7.66448,-0.72612 1.84052,-0.42801 4.27022,-1.222 7.18065,-2.4204 2.01144,-0.85601 2.98527,-2.15574 2.98527,-3.95332 -2.5e-4,-1.41235 -0.61962,-2.71704 -1.7752,-3.87264 -1.15562,-1.19837 -2.41755,-1.85564 -3.87264,-1.85564 -0.38493,3e-5 -0.74408,0.11365 -1.12926,0.24204 -1.88315,0.47079 -3.76449,0.93868 -5.64788,1.45224 -1.41247,0.34242 -2.89647,0.56476 -4.43724,0.56476 -3.68058,-2e-5 -6.61165,-1.56 -8.79427,-4.59876 -1.92598,-2.69638 -2.90446,-5.98609 -2.90446,-9.92363 0,-3.89476 0.94079,-7.22725 2.82394,-9.92364 2.05428,-3.03873 4.8005,-4.6317 8.31016,-4.76012 2.22546,-0.0428 4.14967,0.21256 5.64731,0.72613 3.42419,1.11284 5.15396,1.7322 5.32514,1.77495 0.38497,0.12845 0.82489,0.16139 1.21007,0.16137 1.4125,0 2.6414,-0.50569 3.71131,-1.53292 1.07012,-1.06991 1.61358,-2.30376 1.61358,-3.6306 0,-1.84033 -1.01155,-3.24881 -3.06583,-4.27604 -2.9959,-1.49796 -5.46378,-2.43858 -7.26121,-2.8238 -1.54081,-0.34231 -3.92298,-0.48403 -7.26118,-0.48408 z m 56.39515,1.29088 c -1.45534,3e-5 -2.79758,0.54857 -3.9532,1.53292 -1.11275,0.98445 -1.61358,2.09969 -1.61358,3.46924 0,0.38525 -0.00519,0.82502 0.08056,1.2102 l 9.52048,36.06394 c 0.42806,1.75479 1.2927,3.16815 2.66233,4.19536 1.19816,0.94154 2.61195,1.37156 4.19534,1.37156 1.58363,0 3.07254,-0.43 4.35671,-1.37156 1.32651,-0.98443 2.22446,-2.39778 2.82369,-4.19536 l 7.26142,-22.18699 7.98722,23.23583 c 1.02728,2.996 3.23465,4.4374 6.61573,4.4374 1.62651,2e-5 3.07258,-0.43 4.35675,-1.37156 1.32675,-0.98443 2.19139,-2.35991 2.66253,-4.11468 l 8.71346,-35.98326 c 0.1283,-0.47076 0.24189,-0.90073 0.24189,-1.37156 0,-1.45516 -0.50602,-2.61318 -1.53277,-3.46924 -1.02753,-0.89869 -2.29905,-1.37151 -3.71156,-1.37156 -3.2099,8e-5 -5.19964,1.77749 -5.97004,5.2442 l -5.64784,24.52671 -6.77714,-21.3802 c -1.75457,-5.52109 -4.07092,-8.30998 -6.93823,-8.31003 -2.73951,5e-5 -5.02254,2.5666 -6.7771,7.74527 L 23.59543,370.43171 17.86727,345.905 c -0.81323,-3.50954 -2.65688,-5.32483 -5.56703,-5.32488 z m -151.67833,0.16136 c -0.98441,5e-5 -1.84415,0.4728 -2.74284,1.37156 -0.89924,0.85606 -1.37169,1.79664 -1.37169,2.8238 l 0,37.91958 c 0,1.75479 0.50058,3.13028 1.61358,4.11468 1.11274,0.98434 2.45552,1.45224 3.95345,1.45224 1.45509,0 2.6463,-0.3921 3.63046,-1.29088 1.15562,-1.02716 1.77495,-2.40269 1.77495,-4.11468 l 0,-9.76228 9.92354,0 c 4.15147,6e-5 7.59293,-1.73953 10.24648,-5.16351 2.39691,-3.16718 3.5499,-6.92965 3.5499,-11.2952 0,-4.4083 -1.26687,-8.09996 -3.79208,-11.05315 -2.91015,-3.33834 -6.92323,-5.00211 -12.10175,-5.00216 l -14.684,0 z m 49.13423,0 c -3.50962,5e-5 -6.00543,2.02299 -7.50335,6.13168 l -12.74719,35.8219 c -0.2143,0.55639 -0.3227,1.13788 -0.3227,1.69428 -2.9e-4,1.24115 0.54836,2.29547 1.53277,3.06584 0.98441,0.77042 2.10465,1.12952 3.38857,1.12952 2.43975,-3e-5 4.02755,-1.15805 4.84078,-3.46924 1.15558,-2.82473 1.91643,-4.92835 2.25902,-6.21236 l 17.83015,0 c 1.15562,2.782 2.09641,4.91854 2.82394,6.37372 0.94182,2.09719 2.56265,3.14652 5.00215,3.14652 1.28392,0 2.40907,-0.28335 3.30801,-0.96816 0.8987,-0.72757 1.37144,-1.74395 1.37144,-2.98516 0,-0.64195 -0.14666,-1.37009 -0.40326,-2.09768 l -13.71586,-35.49918 c -1.58339,-4.10869 -4.1551,-6.13163 -7.66447,-6.13168 z m 70.59483,0 c -1.32626,5e-5 -2.48983,0.4728 -3.38828,1.37156 -0.85611,0.85606 -1.21036,1.93836 -1.21036,3.30788 l 0,39.37182 c 0,0.81323 0.39708,1.60719 1.21036,2.4204 0.85558,0.77037 1.64974,1.12952 2.42014,1.12952 l 19.84753,0 c 1.06987,2e-5 1.97763,-0.39212 2.66228,-1.29088 0.68494,-0.94162 0.96818,-2.0667 0.96818,-3.30788 -2.5e-4,-1.41238 -0.43477,-2.52764 -1.29088,-3.46924 -0.94133,-1.11281 -2.20379,-1.69428 -3.87264,-1.69428 l -11.53737,0 0,-8.47139 11.94063,0 c 1.15562,5e-5 2.139,-0.46785 2.82394,-1.45224 0.59898,-0.85596 0.88762,-1.94319 0.88762,-3.2272 0,-1.36957 -0.40199,-2.52271 -1.1298,-3.54992 -0.72777,-1.02718 -1.7011,-1.5329 -2.98502,-1.53292 l -11.53737,0 0,-9.19751 12.50551,0 c 1.28416,5e-5 2.25749,-0.46782 2.98506,-1.45225 0.64206,-0.85595 0.96814,-1.98103 0.96814,-3.30787 0,-1.49794 -0.39708,-2.80261 -1.21007,-3.87264 -0.94182,-1.19835 -2.17076,-1.77491 -3.71127,-1.77496 l -17.34633,0 z m 106.57837,0 c -3.50937,5e-5 -6.00518,2.02299 -7.50335,6.13168 l -12.74719,35.8219 c -0.21405,0.55639 -0.32274,1.13788 -0.32274,1.69428 0,1.24115 0.54836,2.29547 1.53281,3.06584 0.98417,0.77042 2.10466,1.12952 3.38853,1.12952 2.43955,-3e-5 4.02784,-1.15805 4.84083,-3.46924 1.15533,-2.82473 1.91642,-4.92835 2.25902,-6.21236 l 17.74958,0 c 1.15563,2.782 2.17698,4.91854 2.90451,6.37372 0.94157,2.09719 2.56265,3.14652 5.00215,3.14652 1.28416,0 2.40902,-0.28335 3.30801,-0.96816 0.89845,-0.72757 1.37144,-1.74395 1.37144,-2.98516 0,-0.64195 -0.14667,-1.37009 -0.4033,-2.09768 l -13.71583,-35.4992 c -1.58339,-4.10869 -4.15485,-6.13163 -7.66447,-6.13168 z m 31.14246,0 c -1.49793,5e-5 -2.76479,0.4728 -3.79208,1.37156 -1.15562,0.98445 -1.7747,2.28418 -1.7747,3.95332 l 0,38.16162 c -2.5e-4,1.06999 0.46755,2.04847 1.45196,2.90448 1.02757,0.8132 2.15733,1.2102 3.2272,1.2102 l 18.79858,0 c 1.41246,2e-5 2.53736,-0.46787 3.30801,-1.45224 0.77011,-0.9844 1.12926,-2.18032 1.12926,-3.54992 0,-1.4124 -0.39683,-2.64129 -1.21007,-3.71128 -0.77015,-1.07001 -1.85757,-1.61357 -3.2272,-1.6136 l -12.50526,0 0,-32.02994 c 0,-1.62633 -0.50087,-2.93099 -1.61362,-3.87264 -1.0704,-0.94154 -2.33699,-1.37151 -3.79208,-1.37156 z m 30.25513,0 c -1.4125,5e-5 -2.60346,0.4728 -3.63075,1.37156 -1.02675,0.89886 -1.61358,2.16561 -1.61358,3.79196 l 0,37.4355 c 0,1.58357 0.54346,2.81249 1.61358,3.71128 1.06987,0.89876 2.37472,1.29088 3.87264,1.29088 1.4551,2e-5 2.72172,-0.39212 3.79184,-1.29088 1.06987,-0.89882 1.61358,-2.12771 1.61358,-3.71128 l 0,-15.97463 17.83043,18.95979 c 1.24105,1.32674 2.75833,2.017 4.59889,2.017 1.54052,-3e-5 2.91608,-0.51067 4.11454,-1.45224 1.19845,-0.94159 1.77495,-2.09474 1.77495,-3.54992 0,-1.66916 -0.86979,-3.44662 -2.58177,-5.2442 l -15.24838,-15.89395 13.15069,-11.53724 c 1.54081,-1.36954 2.25906,-2.89164 2.25906,-4.51807 2.5e-4,-1.41235 -0.5388,-2.68405 -1.69442,-3.71128 -1.15534,-1.06996 -2.49293,-1.53289 -4.03373,-1.53292 -1.62626,3e-5 -3.07308,0.57171 -4.35696,1.85564 l -16.29709,16.29735 0,-13.15083 c 0,-1.62638 -0.58687,-2.89315 -1.61362,-3.79196 -1.02728,-0.89871 -2.18031,-1.37151 -3.5499,-1.37156 z m -280.84711,9.92363 6.77714,0 c 1.75481,3e-5 3.16806,0.65236 4.19534,1.93632 1.02704,1.24121 1.53282,2.72546 1.53282,4.4374 0,1.66921 -0.51043,3.1205 -1.45201,4.27604 -1.07012,1.28399 -2.47846,1.93635 -4.27615,1.93632 l -6.77714,0 0,-12.58608 z m 42.67987,2.50108 5.6473,15.7326 -11.53708,0 5.88978,-15.7326 z m 177.17316,0 5.72815,15.7326 -11.61792,0 5.88977,-15.7326 z"
         id="path17846" />
    </clipPath>
    <filter
       id="filter"
       height="2"
       width="2"
       x="-0.5"
       y="-0.5"
       color-interpolation-filters="sRGB">
      <feGaussianBlur
         stdDeviation="5.0"
         id="feGaussianBlur17855" />
    </filter>
    <clipPath
       id="clipPath">
      <path
         style="fill:none;stroke:#000000;stroke-width:1px;stroke-linecap:butt;stroke-linejoin:miter;stroke-opacity:1"
         d="m 329,521.36218 c -2,-8 -2,-184 -2,-184 l 349,-18 -8,89 -339,113 z"
         id="path13487" />
    </clipPath>
    <inkscape:perspective
       id="perspective13432"
       inkscape:persp3d-origin="372.04724 : 350.78739 : 1"
       inkscape:vp_z="744.09448 : 526.18109 : 1"
       inkscape:vp_y="0 : 1000 : 0"
       inkscape:vp_x="0 : 526.18109 : 1"
       sodipodi:type="inkscape:persp3d" />
    <radialGradient
       inkscape:collect="always"
       xlink:href="#linearGradient5144"
       id="radialGradient5192"
       gradientUnits="userSpaceOnUse"
       gradientTransform="matrix(2.0188261,0.02828854,-0.03921509,2.7985963,-2245.123,-670.74843)"
       cx="2216.6323"
       cy="337.62668"
       fx="2216.6323"
       fy="337.62668"
       r="13.93835" />
    <linearGradient
       inkscape:collect="always"
       xlink:href="#linearGradient5162"
       id="linearGradient5194"
       gradientUnits="userSpaceOnUse"
       x1="2198"
       y1="348.34448"
       x2="2204.5457"
       y2="335.59448" />
    <linearGradient
       inkscape:collect="always"
       xlink:href="#linearGradient5154"
       id="linearGradient5196"
       gradientUnits="userSpaceOnUse"
       x1="2200.7715"
       y1="452.48694"
       x2="2193.0774"
       y2="455.26434" />
    <radialGradient
       inkscape:collect="always"
       xlink:href="#linearGradient5122"
       id="radialGradient5198"
       gradientUnits="userSpaceOnUse"
       gradientTransform="matrix(2.7070016,-5.1369913e-6,4.1261083e-6,2.1866984,-3786.1077,-385.44376)"
       cx="2218.3242"
       cy="323.5831"
       fx="2218.3242"
       fy="323.5831"
       r="8.9481392" />
    <radialGradient
       inkscape:collect="always"
       xlink:href="#linearGradient5122"
       id="radialGradient5202"
       gradientUnits="userSpaceOnUse"
       gradientTransform="matrix(2.7070016,-5.1369913e-6,4.1261083e-6,2.1866984,-4203.1077,-157.44376)"
       cx="2218.3242"
       cy="323.5831"
       fx="2218.3242"
       fy="323.5831"
       r="8.9481392" />
    <linearGradient
       inkscape:collect="always"
       xlink:href="#linearGradient5154"
       id="linearGradient5217"
       gradientUnits="userSpaceOnUse"
       x1="2200.7715"
       y1="452.48694"
       x2="2193.0774"
       y2="455.26434"
       gradientTransform="translate(-428.51653,205.53973)" />
    <linearGradient
       inkscape:collect="always"
       xlink:href="#linearGradient5162"
       id="linearGradient5224"
       gradientUnits="userSpaceOnUse"
       x1="2198"
       y1="348.34448"
       x2="2204.5457"
       y2="335.59448"
       gradientTransform="translate(-417,228)" />
    <radialGradient
       inkscape:collect="always"
       xlink:href="#linearGradient5144"
       id="radialGradient5229"
       gradientUnits="userSpaceOnUse"
       gradientTransform="matrix(2.0188261,0.02828854,-0.03921509,2.7985963,-4417.123,-733.84291)"
       cx="2216.6323"
       cy="337.62668"
       fx="2216.6323"
       fy="337.62668"
       r="13.93835" />
    <inkscape:perspective
       id="perspective9"
       inkscape:persp3d-origin="372.04724 : 350.78739 : 1"
       inkscape:vp_z="744.09448 : 526.18109 : 1"
       inkscape:vp_y="0 : 1000 : 0"
       inkscape:vp_x="0 : 526.18109 : 1"
       sodipodi:type="inkscape:persp3d" />
    <filter
       inkscape:collect="always"
       id="filter7647"
       x="-0.16874942"
       width="1.3374988"
       y="-0.15149368"
       height="1.3029875"
       color-interpolation-filters="sRGB">
      <feGaussianBlur
         inkscape:collect="always"
         stdDeviation="2.3675541"
         id="feGaussianBlur7649" />
    </filter>
    <filter
       inkscape:collect="always"
       id="filter9117"
       x="-0.35617018"
       width="1.7123404"
       y="-0.36391303"
       height="1.727826"
       color-interpolation-filters="sRGB">
      <feGaussianBlur
         inkscape:collect="always"
         stdDeviation="0.48786883"
         id="feGaussianBlur9119" />
    </filter>
    <filter
       inkscape:collect="always"
       id="filter3771"
       x="-0.25364648"
       width="1.507293"
       y="-0.22774694"
       height="1.4554939">
      <feGaussianBlur
         inkscape:collect="always"
         stdDeviation="3.4273217"
         id="feGaussianBlur3773" />
    </filter>
    <filter
       inkscape:collect="always"
       id="filter3775"
       x="-0.25366709"
       width="1.5073342"
       y="-0.22773033"
       height="1.4554607">
      <feGaussianBlur
         inkscape:collect="always"
         stdDeviation="3.5590034"
         id="feGaussianBlur3777" />
    </filter>
  </defs>
  <metadata
     id="metadata7">
    <rdf:RDF>
      <cc:Work
         rdf:about="">
        <dc:format>image/svg+xml</dc:format>
        <dc:type
           rdf:resource="http://purl.org/dc/dcmitype/StillImage" />
        <dc:title></dc:title>
      </cc:Work>
    </rdf:RDF>
  </metadata>
  <g
     transform="translate(-1755,-524.09448)"
     id="layer1"
     inkscape:groupmode="layer"
     inkscape:label="Layer 1">
    <rect
       inkscape:export-ydpi="161.11111"
       inkscape:export-xdpi="161.11111"
       inkscape:export-filename="/home/duffy/Desktop/spacewalk-black.png"
       y="524.59448"
       x="1755.5"
       height="80"
       width="279"
       id="rect7597"
       style="fill:#000000;fill-opacity:1;stroke:#000000;stroke-width:0.99999994;stroke-linecap:butt;stroke-linejoin:miter;stroke-miterlimit:4;stroke-opacity:1;stroke-dasharray:none;stroke-dashoffset:0" />
    <text
       inkscape:export-ydpi="90"
       inkscape:export-xdpi="90"
       inkscape:export-filename="/home/duffy/Desktop/spacewalk_y.png"
       xml:space="preserve"
       style="font-size:22.15947342px;font-style:normal;font-variant:normal;font-weight:normal;font-stretch:normal;text-align:start;line-height:125%;writing-mode:lr-tb;text-anchor:start;fill:#ffffff;fill-opacity:1;stroke:#ffffff;stroke-width:0.5;stroke-linecap:butt;stroke-linejoin:miter;stroke-miterlimit:4;stroke-opacity:1;stroke-dasharray:none;font-family:MgOpen Modata;-inkscape-font-specification:MgOpen Modata"
       x="1831.5696"
       y="571.26233"
       id="text7599"
       sodipodi:linespacing="125%"><tspan
         sodipodi:role="line"
         id="tspan7601"
         x="1831.5696"
         y="571.26233"
         style="font-size:22.15947342px;font-style:normal;font-variant:normal;font-weight:normal;font-stretch:normal;text-align:start;line-height:125%;letter-spacing:7.29390907;writing-mode:lr-tb;text-anchor:start;fill:#ffffff;stroke:#ffffff;stroke-width:0.5;stroke-miterlimit:4;stroke-opacity:1;stroke-dasharray:none;font-family:MgOpen Modata;-inkscape-font-specification:MgOpen Modata">SPACEWALK</tspan></text>
    <text
       inkscape:export-ydpi="90"
       inkscape:export-xdpi="90"
       inkscape:export-filename="/home/duffy/Desktop/spacewalk_y.png"
       sodipodi:linespacing="125%"
       id="text7603"
       y="571.26233"
       x="1831.5696"
       style="font-size:22.15947342px;font-style:normal;font-variant:normal;font-weight:normal;font-stretch:normal;text-align:start;line-height:125%;writing-mode:lr-tb;text-anchor:start;fill:#ffffff;fill-opacity:1;stroke:#ffffff;stroke-width:4;stroke-linecap:butt;stroke-linejoin:miter;stroke-miterlimit:4;stroke-opacity:1;stroke-dasharray:none;filter:url(#filter7301);font-family:MgOpen Modata;-inkscape-font-specification:MgOpen Modata"
       xml:space="preserve"><tspan
         style="font-size:22.15947342px;font-style:normal;font-variant:normal;font-weight:normal;font-stretch:normal;text-align:start;line-height:125%;letter-spacing:7.29390907;writing-mode:lr-tb;text-anchor:start;fill:#ffffff;stroke:#ffffff;stroke-width:4;stroke-miterlimit:4;stroke-opacity:1;stroke-dasharray:none;font-family:MgOpen Modata;-inkscape-font-specification:MgOpen Modata"
         y="571.26233"
         x="1831.5696"
         id="tspan7605"
         sodipodi:role="line">SPACEWALK</tspan></text>
    <rect
       inkscape:export-ydpi="90"
       inkscape:export-xdpi="90"
       inkscape:export-filename="/home/duffy/Desktop/spacewalk_y.png"
       ry="0"
       rx="0"
       y="534.14252"
       x="1806.0481"
       height="95.903908"
       width="200.9039"
       id="rect7607"
       style="fill:none;stroke:none" />
    <path
       inkscape:export-ydpi="90"
       inkscape:export-xdpi="90"
       inkscape:export-filename="/home/duffy/Desktop/spacewalk_y.png"
       id="path7613"
       d="m 1798.9193,444.0617 c -3.1765,0.15604 -5.2686,2.37138 -6.1043,3.78619 -0.3306,0.55973 -0.767,1.39759 -0.9273,2.54988 -0.01,0.0414 0.01,0.0865 0,0.12878 -0.01,0.002 -0.019,-0.002 -0.026,0 -0.524,1.38345 -0.3682,3.56329 1.9832,6.69666 0.1746,0.0652 0.1751,0.0641 0.2834,0.10303 0.2429,0.34687 0.5071,0.71541 0.7985,1.08177 -0.3216,0.15865 -0.6832,0.29614 -1.0819,0.46361 l -0.051,-0.18029 -1.2879,0.46361 0.1546,0.28332 c -0.8572,0.42236 -1.7175,0.94734 -2.3439,1.75144 -0.2963,-0.0274 -0.5842,0.003 -0.8499,0.12878 -0.3931,-0.098 -1.6379,-0.46855 -1.7257,-0.15454 -0.1001,0.35829 -0.056,0.44604 0.1545,0.56664 0.1049,0.0601 0.4566,0.2224 0.8242,0.33483 -0.5641,0.20922 -1.2621,-0.11164 -1.5195,0.46362 0.017,0.37159 0.3549,0.3635 0.5923,0.4121 0.2908,0.0105 0.4668,0.0705 0.747,0.18029 -0.4929,0.4163 -0.9824,0.92784 -0.85,1.15904 0.2425,0.42359 0.5454,0.181 0.7984,0.10303 0.2967,-0.15654 0.4475,-0.14865 0.7728,-0.20605 -0.2562,0.54058 -0.4849,1.169 -0.2834,1.31357 0.3631,0.26052 0.5146,-0.0446 0.6955,-0.20605 0.3903,-0.47321 0.5119,-0.91684 1.1332,-1.13328 0.1532,0.1644 0.38,0.55199 0.4379,0.64391 0.1473,0.23376 0.8747,0.44656 0.6954,-0.30908 -0.1196,-0.50378 -0.149,-1.09144 -0.1546,-1.44236 0.024,-0.17428 0.031,-0.37065 0,-0.54088 1.1307,-0.97128 2.7056,-1.58281 3.5287,-1.31357 0.1206,0.36038 0.2172,0.69798 0.3091,1.00449 -0.19,0.45464 -0.3217,0.95885 -0.3349,1.49387 0,0.0173 0,0.0341 0,0.0515 0,0.096 -0.01,0.18568 0,0.28332 -0.01,0.12922 -0.032,0.25365 -0.026,0.38634 0.026,0.52576 0.1681,1.01138 0.3606,1.44236 l -0.2319,-0.0773 c -0.8088,-0.36074 -1.4903,-0.75631 -2.5498,-0.46361 -0.683,0.18863 -1.8638,1.70383 -2.7817,2.91047 -0.7979,-1.50707 -2.3804,-2.49184 -4.121,-2.4211 -1.1989,0.0487 -2.295,0.55059 -3.0393,1.4166 -0.7443,0.866 -1.106,2.06545 -1.056,3.29682 0.05,1.21824 0.5268,2.33671 1.2878,3.11652 0.6912,0.70816 1.5388,1.155 2.4984,1.54538 0.9027,0.9786 1.7282,1.77578 3.2453,2.16354 0.1181,0.0302 0.2393,0.0309 0.3606,0.0258 1.979,-0.0804 3.6734,-1.67853 3.6574,-3.76043 0.4947,-2.42695 1.7432,-3.8487 3.0134,-4.4301 l 0.6698,-0.18029 -0.026,-0.0515 c 1.2011,-0.28005 2.3068,0.18888 2.6786,1.26206 -0.3309,0.71988 -0.4877,1.29769 -0.3605,1.95749 l -0.052,0 0.1289,0.79844 0.206,0 c 0.4363,0.85201 1.3394,1.88368 2.9878,3.4256 l -0.077,0 c 0,0 0.024,0.0366 0.1031,0.0773 0.5191,1.0097 -2.2446,1.80455 -2.1378,3.27106 6e-4,0.009 -9e-4,0.0168 0,0.0258 0.021,0.21738 0.1151,0.44607 0.2833,0.69542 0.1193,0.15271 0.4248,0.80951 0.8242,0.90147 0.3995,0.092 0.8898,0.15147 1.3909,0.1803 0.501,0.0288 0.9926,0.0367 1.4165,0 0.4242,-0.0367 1.0421,-0.3075 1.2106,-0.4121 0.618,-0.32876 1.0208,-1.35469 0.9015,-2.06051 -0.042,-0.50305 -0.32,-0.95769 -0.2318,-1.46812 0.087,-0.51489 0.3364,-1.25205 -0.5151,-1.88021 -0.5577,-0.41132 -1.0535,-1.58914 -1.3136,-2.70442 l 0.103,0 -0.077,-0.90148 -0.1803,0 c -0.028,-0.2529 -0.061,-0.49205 -0.051,-0.69542 0.067,-1.37837 0.6779,-1.21575 1.5968,-3.68316 0.1682,-0.57751 0.2128,-1.26329 0.1803,-2.009 l 0.1804,0 -0.2061,-1.98324 -0.2061,0.0258 c -0.2145,-1.14007 -0.554,-2.36812 -0.953,-3.63165 1.3094,0.10488 3.0928,0.5583 5.0483,1.82871 -0.2339,0.42024 -0.6508,1.10506 -1.1075,1.62265 -0.6988,0.79192 0.3178,0.98478 0.6439,0.79845 0.1282,-0.0733 0.664,-0.39012 0.9529,-0.48937 0.6063,0.65699 0.4532,1.26886 0.6182,2.08626 0.1134,0.30926 0.1192,0.80157 0.7211,0.72118 0.3342,-0.0446 0.4505,-0.96475 0.4894,-1.77719 0.3531,0.27679 0.543,0.3694 0.7985,0.74694 0.2533,0.25536 0.4683,0.71375 1.0303,0.36059 0.3066,-0.19276 0.041,-1.11706 -0.2834,-1.93173 0.4061,0.0474 0.6492,0.0842 1.0046,0.25756 0.3157,0.0935 0.7198,0.35743 0.9786,-0.0773 0.06,-0.85487 -0.9771,-0.93357 -1.5196,-1.54538 0.5127,0.1002 1.0207,0.13391 1.1848,0.12878 0.3292,-0.0103 0.4575,-0.0985 0.5667,-0.5924 0.096,-0.43289 -1.6296,-0.76772 -2.1636,-0.90147 -0.3882,-0.52331 -1.0066,-0.86975 -1.6999,-0.90147 -1.1127,-1.44463 -2.3876,-2.28263 -3.5802,-2.78169 l 0.1289,-0.28332 -1.7257,-0.46362 -0.026,0.25757 c -1.0722,-0.20968 -1.9513,-0.18286 -2.4726,-0.12879 1.5476,-1.57095 2.6015,-3.18695 2.6015,-5.76943 0,-3.77366 -3.4535,-7.0981 -7.0058,-7.23754 -0.2215,-0.009 -0.4322,-0.0104 -0.6439,0 z"
       style="fill:#ffffff;fill-opacity:1;fill-rule:evenodd;stroke:none" />
    <path
       style="fill:#ffffff;fill-opacity:1;fill-rule:evenodd;stroke:none;filter:url(#filter7647)"
       d="m 1798.9193,544.0617 c -3.1765,0.15604 -5.2686,2.37138 -6.1043,3.78619 -0.3306,0.55973 -0.767,1.39759 -0.9273,2.54988 -0.01,0.0414 0.01,0.0865 0,0.12878 -0.01,0.002 -0.019,-0.002 -0.026,0 -0.524,1.38345 -0.3682,3.56329 1.9832,6.69666 0.1746,0.0652 0.1751,0.0641 0.2834,0.10303 0.2429,0.34687 0.5071,0.71541 0.7985,1.08177 -0.3216,0.15865 -0.6832,0.29614 -1.0819,0.46361 l -0.051,-0.18029 -1.2879,0.46361 0.1546,0.28332 c -0.8572,0.42236 -1.7175,0.94734 -2.3439,1.75144 -0.2963,-0.0274 -0.5842,0.003 -0.8499,0.12878 -0.3931,-0.098 -1.6379,-0.46855 -1.7257,-0.15454 -0.1001,0.35829 -0.056,0.44604 0.1545,0.56664 0.1049,0.0601 0.4566,0.2224 0.8242,0.33483 -0.5641,0.20922 -1.2621,-0.11164 -1.5195,0.46362 0.017,0.37159 0.3549,0.3635 0.5923,0.4121 0.2908,0.0105 0.4668,0.0705 0.747,0.18029 -0.4929,0.4163 -0.9824,0.92784 -0.85,1.15904 0.2425,0.42359 0.5454,0.181 0.7984,0.10303 0.2967,-0.15654 0.4475,-0.14865 0.7728,-0.20605 -0.2562,0.54058 -0.4849,1.169 -0.2834,1.31357 0.3631,0.26052 0.5146,-0.0446 0.6955,-0.20605 0.3903,-0.47321 0.5119,-0.91684 1.1332,-1.13328 0.1532,0.1644 0.38,0.55199 0.4379,0.64391 0.1473,0.23376 0.8747,0.44656 0.6954,-0.30908 -0.1196,-0.50378 -0.149,-1.09144 -0.1546,-1.44236 0.024,-0.17428 0.031,-0.37065 0,-0.54088 1.1307,-0.97128 2.7056,-1.58281 3.5287,-1.31357 0.1206,0.36038 0.2172,0.69798 0.3091,1.00449 -0.19,0.45464 -0.3217,0.95885 -0.3349,1.49387 0,0.0174 0,0.0341 0,0.0515 0,0.096 -0.01,0.18568 0,0.28332 -0.01,0.12922 -0.032,0.25365 -0.026,0.38634 0.026,0.52576 0.1681,1.01138 0.3606,1.44236 l -0.2319,-0.0773 c -0.8088,-0.36074 -1.4903,-0.75631 -2.5498,-0.46361 -0.683,0.18863 -1.8638,1.70383 -2.7817,2.91047 -0.7979,-1.50707 -2.3804,-2.49184 -4.121,-2.4211 -1.1989,0.0487 -2.295,0.55059 -3.0393,1.4166 -0.7443,0.866 -1.106,2.06545 -1.056,3.29682 0.05,1.21824 0.5268,2.33671 1.2878,3.11652 0.6912,0.70816 1.5388,1.155 2.4984,1.54538 0.9027,0.9786 1.7282,1.77578 3.2453,2.16354 0.1181,0.0302 0.2393,0.0309 0.3606,0.0258 1.979,-0.0804 3.6734,-1.67853 3.6574,-3.76043 0.4947,-2.42695 1.7432,-3.8487 3.0134,-4.4301 l 0.6698,-0.18029 -0.026,-0.0515 c 1.2011,-0.28005 2.3068,0.18888 2.6786,1.26206 -0.3309,0.71988 -0.4877,1.29769 -0.3605,1.95749 l -0.052,0 0.1289,0.79844 0.206,0 c 0.4363,0.85201 1.3394,1.88368 2.9878,3.4256 l -0.077,0 c 0,0 0.024,0.0366 0.1031,0.0773 0.5191,1.0097 -2.2446,1.80455 -2.1378,3.27106 6e-4,0.009 -9e-4,0.0168 0,0.0258 0.021,0.21738 0.1151,0.44607 0.2833,0.69542 0.1193,0.15271 0.4248,0.80951 0.8242,0.90147 0.3995,0.092 0.8898,0.15147 1.3909,0.1803 0.501,0.0288 0.9926,0.0367 1.4165,0 0.4242,-0.0367 1.0421,-0.3075 1.2106,-0.4121 0.618,-0.32876 1.0208,-1.35469 0.9015,-2.06051 -0.042,-0.50305 -0.32,-0.95769 -0.2318,-1.46812 0.087,-0.51489 0.3364,-1.25205 -0.5151,-1.88021 -0.5577,-0.41132 -1.0535,-1.58914 -1.3136,-2.70442 l 0.103,0 -0.077,-0.90148 -0.1803,0 c -0.028,-0.2529 -0.061,-0.49205 -0.051,-0.69542 0.067,-1.37837 0.6779,-1.21575 1.5968,-3.68316 0.1682,-0.57751 0.2128,-1.26329 0.1803,-2.009 l 0.1804,0 -0.2061,-1.98324 -0.2061,0.0257 c -0.2145,-1.14007 -0.554,-2.36812 -0.953,-3.63165 1.3094,0.10488 3.0928,0.5583 5.0483,1.82871 -0.2339,0.42024 -0.6508,1.10506 -1.1075,1.62265 -0.6988,0.79192 0.3178,0.98478 0.6439,0.79845 0.1282,-0.0733 0.664,-0.39012 0.9529,-0.48937 0.6063,0.65699 0.4532,1.26886 0.6182,2.08626 0.1134,0.30926 0.1192,0.80157 0.7211,0.72118 0.3342,-0.0446 0.4505,-0.96475 0.4894,-1.77719 0.3531,0.27679 0.543,0.3694 0.7985,0.74694 0.2533,0.25536 0.4683,0.71375 1.0303,0.36059 0.3066,-0.19276 0.041,-1.11706 -0.2834,-1.93173 0.4061,0.0474 0.6492,0.0842 1.0046,0.25756 0.3157,0.0935 0.7198,0.35743 0.9786,-0.0773 0.06,-0.85487 -0.9771,-0.93357 -1.5196,-1.54538 0.5127,0.1002 1.0207,0.13391 1.1848,0.12878 0.3292,-0.0103 0.4575,-0.0985 0.5667,-0.5924 0.096,-0.43289 -1.6296,-0.76772 -2.1636,-0.90147 -0.3882,-0.52331 -1.0066,-0.86975 -1.6999,-0.90147 -1.1127,-1.44463 -2.3876,-2.28263 -3.5802,-2.78169 l 0.1289,-0.28332 -1.7257,-0.46362 -0.026,0.25757 c -1.0722,-0.20968 -1.9513,-0.18286 -2.4726,-0.12879 1.5476,-1.57095 2.6015,-3.18695 2.6015,-5.76943 0,-3.77366 -3.4535,-7.0981 -7.0058,-7.23754 -0.2215,-0.009 -0.4322,-0.0104 -0.6439,0 z"
       id="path7633"
       inkscape:export-filename="/home/duffy/Desktop/spacewalk_y.png"
       inkscape:export-xdpi="90"
       inkscape:export-ydpi="90" />
    <path
       id="path8953"
       d="m 1798.4287,544.53128 c -3.0591,0.15027 -5.0636,2.28021 -5.8684,3.64273 -0.331,0.56038 -0.7712,1.41966 -0.9084,2.59805 -7e-4,0.006 -0.01,0.0119 -0.01,0.0182 -0.4928,1.33366 -0.3508,3.42519 1.8985,6.42246 0.1701,0.0636 0.177,0.0624 0.2816,0.0999 0.2345,0.33456 0.4909,0.68222 0.7722,1.03559 -0.308,0.15112 -0.6644,0.29443 -1.0447,0.45421 l -0.036,-0.18169 -1.2445,0.44512 0.1362,0.25436 c -0.8227,0.40514 -1.6406,0.92008 -2.2438,1.68964 -0.288,-0.028 -0.5775,0.0231 -0.8357,0.14535 -0.3785,-0.0944 -1.5688,-0.45684 -1.6533,-0.15443 -0.096,0.34504 -0.048,0.43798 0.1544,0.55413 0.101,0.0579 0.4363,0.20966 0.7903,0.31794 -0.5433,0.20148 -1.2236,-0.0998 -1.4716,0.45421 0.017,0.35785 0.3527,0.32564 0.5814,0.37244 0.28,0.0101 0.4569,0.0759 0.7267,0.18169 -0.4746,0.40091 -0.9723,0.89468 -0.8448,1.11734 0.2335,0.40794 0.5285,0.18411 0.7722,0.10901 0.2857,-0.15075 0.4499,-0.14457 0.763,-0.19985 -0.2467,0.52061 -0.4848,1.13254 -0.2907,1.27177 0.3497,0.2509 0.5163,-0.0444 0.6904,-0.19985 0.3759,-0.45572 0.4826,-0.89982 1.081,-1.10826 0.1476,0.15833 0.3804,0.53828 0.4361,0.62681 0.1418,0.22512 0.8358,0.43702 0.6631,-0.2907 -0.1153,-0.48516 -0.1491,-1.061 -0.1544,-1.39895 0.025,-0.18227 0.019,-0.36803 -0.018,-0.54504 1.0886,-0.93322 2.6058,-1.48531 3.3975,-1.22636 0.1129,0.3375 0.2129,0.63821 0.2997,0.92658 -0.1952,0.46134 -0.3043,0.9792 -0.3088,1.52613 -0.024,0.21032 -0.029,0.42371 -0.018,0.64497 0.024,0.50162 0.1447,0.96853 0.327,1.38078 l -0.1816,-0.0545 c -0.7896,-0.34985 -1.458,-0.7572 -2.4891,-0.47237 -0.6339,0.1751 -1.7962,1.65927 -2.6707,2.80698 -0.7684,-1.45136 -2.3025,-2.39365 -3.9788,-2.32553 -1.1546,0.0469 -2.2083,0.52862 -2.9251,1.36262 -0.7168,0.834 -1.0656,1.97541 -1.0174,3.16127 0.048,1.17322 0.5115,2.25585 1.2445,3.00683 0.6657,0.682 1.4831,1.12292 2.4073,1.49888 0.8693,0.94244 1.6547,1.69775 3.1158,2.07117 0.1137,0.029 0.2284,0.0413 0.3452,0.0363 1.9235,-0.0782 3.5897,-1.64696 3.5428,-3.67906 0.4827,-2.30803 1.674,-3.66765 2.8888,-4.22411 l 0.6631,-0.15443 -0.018,-0.0636 c 1.1516,-0.26319 2.214,0.17862 2.5708,1.20818 -0.3184,0.69256 -0.4942,1.26396 -0.3724,1.89858 l -0.027,0 0.1272,0.76306 0.1817,0 c 0.421,0.81728 1.2947,1.81362 2.8706,3.28845 l -0.073,0.009 c 0,0 0.042,0.0396 0.1271,0.0818 0.4905,0.97204 -2.1839,1.74628 -2.0711,3.16126 l -0.018,0 c 0,0 0.016,0.008 0.018,0.009 0.019,0.212 0.099,0.43766 0.2634,0.68131 0.1149,0.14706 0.4057,0.77442 0.7903,0.86299 0.3848,0.0885 0.8619,0.14483 1.3445,0.17259 0.4825,0.0278 0.9724,0.0263 1.3808,-0.009 0.4084,-0.0353 0.9913,-0.29897 1.1536,-0.3997 0.5952,-0.31661 0.987,-1.3006 0.8721,-1.98034 -0.04,-0.48445 -0.312,-0.91647 -0.2271,-1.40803 0.084,-0.49587 0.3114,-1.21187 -0.5087,-1.81682 -0.534,-0.3939 -1.011,-1.52024 -1.2627,-2.58897 l 0.109,0 -0.064,-0.88116 -0.1998,0 c -0.027,-0.24268 -0.046,-0.46789 -0.036,-0.66314 0.064,-1.32743 0.6502,-1.17566 1.5352,-3.55188 0.1634,-0.56113 0.2238,-1.2182 0.1907,-1.944 l 0.1545,0 -0.1908,-1.89857 -0.2089,0.0182 c -0.2068,-1.09403 -0.5258,-2.26754 -0.9084,-3.47921 1.2617,0.10106 2.9754,0.51884 4.8599,1.74415 -0.2252,0.40481 -0.6143,1.06445 -1.0537,1.56247 -0.673,0.76265 0.2946,0.94251 0.6086,0.76306 0.1235,-0.0706 0.6484,-0.37678 0.9266,-0.47237 0.5839,0.63271 0.4224,1.23855 0.5814,2.02575 0.1092,0.29783 0.1106,0.75873 0.6904,0.68131 0.3218,-0.043 0.4349,-0.9254 0.4723,-1.70781 0.34,0.26656 0.5352,0.36314 0.7813,0.72673 0.244,0.24592 0.4581,0.69439 0.9992,0.35428 0.2953,-0.18564 0.022,-1.08676 -0.2907,-1.87133 0.3911,0.0457 0.6389,0.0783 0.9811,0.24527 0.3041,0.0901 0.6865,0.33688 0.9357,-0.0818 0.057,-0.82328 -0.9493,-0.89151 -1.4716,-1.48071 0.4937,0.0965 0.9956,0.13211 1.1536,0.12718 0.317,-0.01 0.4308,-0.0875 0.536,-0.56322 0.092,-0.4169 -1.5661,-0.75235 -2.0803,-0.88116 -0.3823,-0.51531 -0.985,-0.85495 -1.6714,-0.87207 -1.0656,-1.37734 -2.2654,-2.19159 -3.4066,-2.67073 l 0.109,-0.26343 -1.6532,-0.44513 -0.027,0.22711 c -1.0179,-0.20045 -1.8722,-0.16863 -2.38,-0.1181 1.4917,-1.51369 2.5072,-3.05291 2.5072,-5.5413 0,-3.6342 -3.3284,-6.8423 -6.7495,-6.97659 -0.2133,-0.008 -0.4229,-0.01 -0.6268,0 z"
       style="fill:#ffffff;fill-opacity:1;fill-rule:evenodd;stroke:none" />
    <path
       style="fill:#00aad4;fill-opacity:1;stroke:none"
       d="m 1795.0191,550.32348 c -1.1792,0.0115 -2.5555,0.13761 -3.3657,0.4353 -0.5047,1.33232 -0.3741,3.43498 1.8904,6.45255 0.3681,0.1375 0.6092,0.221 0.6092,0.221 0.4606,0.15087 4.833,0.22651 5.7541,-0.15069 0.921,-0.37718 5.1683,-3.35255 0.7486,-6.08756 -0.7448,-0.46088 -3.2995,-0.89345 -5.6366,-0.8706 z"
       id="path9001"
       sodipodi:nodetypes="ccccssc" />
    <path
       sodipodi:type="arc"
       style="opacity:0.8427948;fill:#ffffff;fill-opacity:1;fill-rule:nonzero;stroke:none;stroke-width:4;marker:none;visibility:visible;display:inline;overflow:visible;filter:url(#filter9117);enable-background:accumulate"
       id="path9095"
       sodipodi:cx="42.631695"
       sodipodi:cy="62.602184"
       sodipodi:rx="1.6437159"
       sodipodi:ry="1.6087432"
       d="m 44.275411,62.602184 c 0,0.888485 -0.735917,1.608743 -1.643716,1.608743 -0.907799,0 -1.643716,-0.720258 -1.643716,-1.608743 0,-0.888484 0.735917,-1.608743 1.643716,-1.608743 0.907799,0 1.643716,0.720259 1.643716,1.608743 z"
       transform="translate(1751.8998,490.19469)" />
    <rect
       style="fill:#ffffff;fill-opacity:1;stroke:#000000;stroke-width:0.99999994000000003;stroke-linecap:butt;stroke-linejoin:miter;stroke-miterlimit:4;stroke-opacity:1;stroke-dasharray:none;stroke-dashoffset:0"
       id="rect2941"
       width="279"
       height="80"
       x="1755.5"
       y="644.59448"
       inkscape:export-filename="/home/duffy/Desktop/spacewalk_white.png"
       inkscape:export-xdpi="161.29033"
       inkscape:export-ydpi="161.29033" />
    <text
       sodipodi:linespacing="125%"
       id="text2943"
       y="691.26233"
       x="1831.5696"
       style="font-size:22.15947342000000120px;font-style:normal;font-variant:normal;font-weight:normal;font-stretch:normal;text-align:start;line-height:125%;writing-mode:lr-tb;text-anchor:start;fill:#00aad4;fill-opacity:1;stroke:#00aad4;stroke-width:0.50000000000000000;stroke-linecap:butt;stroke-linejoin:miter;stroke-miterlimit:4;stroke-opacity:1;stroke-dasharray:none;font-family:MgOpen Modata;-inkscape-font-specification:MgOpen Modata"
       xml:space="preserve"
       inkscape:export-filename="/home/duffy/Desktop/spacewalk_y.png"
       inkscape:export-xdpi="90"
       inkscape:export-ydpi="90"><tspan
         style="font-size:22.15947342000000120px;font-style:normal;font-variant:normal;font-weight:normal;font-stretch:normal;text-align:start;line-height:125%;letter-spacing:7.29390906999999888;writing-mode:lr-tb;text-anchor:start;fill:#00aad4;stroke:#00aad4;stroke-width:0.50000000000000000;stroke-miterlimit:4;stroke-opacity:1;stroke-dasharray:none;font-family:MgOpen Modata;-inkscape-font-specification:MgOpen Modata;fill-opacity:1"
         y="691.26233"
         x="1831.5696"
         id="tspan2945"
         sodipodi:role="line">SPACEWALK</tspan></text>
    <text
       xml:space="preserve"
       style="font-size:22.15947342000000120px;font-style:normal;font-variant:normal;font-weight:normal;font-stretch:normal;text-align:start;line-height:125%;writing-mode:lr-tb;text-anchor:start;fill:none;stroke:#00aad4;stroke-width:4;stroke-linecap:butt;stroke-linejoin:miter;stroke-miterlimit:4;stroke-opacity:1;stroke-dasharray:none;filter:url(#filter7301);font-family:MgOpen Modata;-inkscape-font-specification:MgOpen Modata;opacity:0.5"
       x="1831.5696"
       y="691.26233"
       id="text2947"
       sodipodi:linespacing="125%"
       inkscape:export-filename="/home/duffy/Desktop/spacewalk_y.png"
       inkscape:export-xdpi="90"
       inkscape:export-ydpi="90"><tspan
         sodipodi:role="line"
         id="tspan2949"
         x="1831.5696"
         y="691.26233"
         style="font-size:22.15947342000000120px;font-style:normal;font-variant:normal;font-weight:normal;font-stretch:normal;text-align:start;line-height:125%;letter-spacing:7.29390906999999977;writing-mode:lr-tb;text-anchor:start;fill:none;stroke:#00aad4;stroke-width:4;stroke-miterlimit:4;stroke-opacity:1;stroke-dasharray:none;font-family:MgOpen Modata;-inkscape-font-specification:MgOpen Modata">SPACEWALK</tspan></text>
    <rect
       style="fill:none;stroke:none"
       id="rect2951"
       width="200.9039"
       height="95.903908"
       x="1806.0481"
       y="654.14252"
       rx="0"
       ry="0"
       inkscape:export-filename="/home/duffy/Desktop/spacewalk_y.png"
       inkscape:export-xdpi="90"
       inkscape:export-ydpi="90" />
    <path
       inkscape:export-ydpi="90"
       inkscape:export-xdpi="90"
       inkscape:export-filename="/home/duffy/Desktop/spacewalk_y.png"
       id="path2953"
       d="m 1798.9193,664.0617 c -3.1765,0.15604 -5.2686,2.37138 -6.1043,3.78619 -0.3306,0.55973 -0.767,1.39759 -0.9273,2.54988 -0.01,0.0414 0.01,0.0865 0,0.12878 -0.01,0.002 -0.019,-0.002 -0.026,0 -0.524,1.38345 -0.3682,3.56329 1.9832,6.69666 0.1746,0.0652 0.1751,0.0641 0.2834,0.10303 0.2429,0.34687 0.5071,0.71541 0.7985,1.08177 -0.3216,0.15865 -0.6832,0.29614 -1.0819,0.46361 l -0.051,-0.18029 -1.2879,0.46361 0.1546,0.28332 c -0.8572,0.42236 -1.7175,0.94734 -2.3439,1.75144 -0.2963,-0.0274 -0.5842,0.003 -0.8499,0.12878 -0.3931,-0.098 -1.6379,-0.46855 -1.7257,-0.15454 -0.1001,0.35829 -0.056,0.44604 0.1545,0.56664 0.1049,0.0601 0.4566,0.2224 0.8242,0.33483 -0.5641,0.20922 -1.2621,-0.11164 -1.5195,0.46362 0.017,0.37159 0.3549,0.3635 0.5923,0.4121 0.2908,0.0105 0.4668,0.0705 0.747,0.18029 -0.4929,0.4163 -0.9824,0.92784 -0.85,1.15904 0.2425,0.42359 0.5454,0.181 0.7984,0.10303 0.2967,-0.15654 0.4475,-0.14865 0.7728,-0.20605 -0.2562,0.54058 -0.4849,1.169 -0.2834,1.31357 0.3631,0.26052 0.5146,-0.0446 0.6955,-0.20605 0.3903,-0.47321 0.5119,-0.91684 1.1332,-1.13328 0.1532,0.1644 0.38,0.55199 0.4379,0.64391 0.1473,0.23376 0.8747,0.44656 0.6954,-0.30908 -0.1196,-0.50378 -0.149,-1.09144 -0.1546,-1.44236 0.024,-0.17428 0.031,-0.37065 0,-0.54088 1.1307,-0.97128 2.7056,-1.58281 3.5287,-1.31357 0.1206,0.36038 0.2172,0.69798 0.3091,1.00449 -0.19,0.45464 -0.3217,0.95885 -0.3349,1.49387 0,0.0174 0,0.0341 0,0.0515 0,0.096 -0.01,0.18568 0,0.28332 -0.01,0.12922 -0.032,0.25365 -0.026,0.38634 0.026,0.52576 0.1681,1.01138 0.3606,1.44236 l -0.2319,-0.0773 c -0.8088,-0.36074 -1.4903,-0.75631 -2.5498,-0.46361 -0.683,0.18863 -1.8638,1.70383 -2.7817,2.91047 -0.7979,-1.50707 -2.3804,-2.49184 -4.121,-2.4211 -1.1989,0.0487 -2.295,0.55059 -3.0393,1.4166 -0.7443,0.866 -1.106,2.06545 -1.056,3.29682 0.05,1.21824 0.5268,2.33671 1.2878,3.11652 0.6912,0.70816 1.5388,1.155 2.4984,1.54538 0.9027,0.9786 1.7282,1.77578 3.2453,2.16354 0.1181,0.0302 0.2393,0.0309 0.3606,0.0258 1.979,-0.0804 3.6734,-1.67853 3.6574,-3.76043 0.4947,-2.42695 1.7432,-3.8487 3.0134,-4.4301 l 0.6698,-0.18029 -0.026,-0.0515 c 1.2011,-0.28005 2.3068,0.18888 2.6786,1.26206 -0.3309,0.71988 -0.4877,1.29769 -0.3605,1.95749 l -0.052,0 0.1289,0.79844 0.206,0 c 0.4363,0.85201 1.3394,1.88368 2.9878,3.4256 l -0.077,0 c 0,0 0.024,0.0366 0.1031,0.0773 0.5191,1.0097 -2.2446,1.80455 -2.1378,3.27106 6e-4,0.009 -9e-4,0.0168 0,0.0258 0.021,0.21738 0.1151,0.44607 0.2833,0.69542 0.1193,0.15271 0.4248,0.80951 0.8242,0.90147 0.3995,0.092 0.8898,0.15147 1.3909,0.1803 0.501,0.0288 0.9926,0.0367 1.4165,0 0.4242,-0.0367 1.0421,-0.3075 1.2106,-0.4121 0.618,-0.32876 1.0208,-1.35469 0.9015,-2.06051 -0.042,-0.50305 -0.32,-0.95769 -0.2318,-1.46812 0.087,-0.51489 0.3364,-1.25205 -0.5151,-1.88021 -0.5577,-0.41132 -1.0535,-1.58914 -1.3136,-2.70442 l 0.103,0 -0.077,-0.90148 -0.1803,0 c -0.028,-0.2529 -0.061,-0.49205 -0.051,-0.69542 0.067,-1.37837 0.6779,-1.21575 1.5968,-3.68316 0.1682,-0.57751 0.2128,-1.26329 0.1803,-2.009 l 0.1804,0 -0.2061,-1.98324 -0.2061,0.0257 c -0.2145,-1.14007 -0.554,-2.36812 -0.953,-3.63165 1.3094,0.10488 3.0928,0.5583 5.0483,1.82871 -0.2339,0.42024 -0.6508,1.10506 -1.1075,1.62265 -0.6988,0.79192 0.3178,0.98478 0.6439,0.79845 0.1282,-0.0733 0.664,-0.39012 0.9529,-0.48937 0.6063,0.65699 0.4532,1.26886 0.6182,2.08626 0.1134,0.30926 0.1192,0.80157 0.7211,0.72118 0.3342,-0.0446 0.4505,-0.96475 0.4894,-1.77719 0.3531,0.27679 0.543,0.3694 0.7985,0.74694 0.2533,0.25536 0.4683,0.71375 1.0303,0.36059 0.3066,-0.19276 0.041,-1.11706 -0.2834,-1.93173 0.4061,0.0474 0.6492,0.0842 1.0046,0.25756 0.3157,0.0935 0.7198,0.35743 0.9786,-0.0773 0.06,-0.85487 -0.9771,-0.93357 -1.5196,-1.54538 0.5127,0.1002 1.0207,0.13391 1.1848,0.12878 0.3292,-0.0103 0.4575,-0.0985 0.5667,-0.5924 0.096,-0.43289 -1.6296,-0.76772 -2.1636,-0.90147 -0.3882,-0.52331 -1.0066,-0.86975 -1.6999,-0.90147 -1.1127,-1.44463 -2.3876,-2.28263 -3.5802,-2.78169 l 0.1289,-0.28332 -1.7257,-0.46362 -0.026,0.25757 c -1.0722,-0.20968 -1.9513,-0.18286 -2.4726,-0.12879 1.5476,-1.57095 2.6015,-3.18695 2.6015,-5.76943 0,-3.77366 -3.4535,-7.0981 -7.0058,-7.23754 -0.2215,-0.009 -0.4322,-0.0104 -0.6439,0 z"
       style="fill:#00aad4;fill-opacity:1;fill-rule:evenodd;stroke:#00aad4;stroke-opacity:1;filter:url(#filter3775);opacity:0.7" />
    <path
       style="fill:#ffffff;fill-opacity:1;fill-rule:evenodd;stroke:none"
       d="m 1798.4287,664.53128 c -3.0591,0.15027 -5.0636,2.28021 -5.8684,3.64273 -0.331,0.56038 -0.7712,1.41966 -0.9084,2.59805 -7e-4,0.006 -0.01,0.0119 -0.01,0.0182 -0.4928,1.33366 -0.3508,3.42519 1.8985,6.42246 0.1701,0.0636 0.177,0.0624 0.2816,0.0999 0.2345,0.33456 0.4909,0.68222 0.7722,1.03559 -0.308,0.15112 -0.6644,0.29443 -1.0447,0.45421 l -0.036,-0.18169 -1.2445,0.44512 0.1362,0.25436 c -0.8227,0.40514 -1.6406,0.92008 -2.2438,1.68964 -0.288,-0.028 -0.5775,0.0231 -0.8357,0.14535 -0.3785,-0.0944 -1.5688,-0.45684 -1.6533,-0.15443 -0.096,0.34504 -0.048,0.43798 0.1544,0.55413 0.101,0.0579 0.4363,0.20966 0.7903,0.31794 -0.5433,0.20148 -1.2236,-0.0998 -1.4716,0.45421 0.017,0.35785 0.3527,0.32564 0.5814,0.37244 0.28,0.0101 0.4569,0.0759 0.7267,0.18169 -0.4746,0.40091 -0.9723,0.89468 -0.8448,1.11734 0.2335,0.40794 0.5285,0.18411 0.7722,0.10901 0.2857,-0.15075 0.4499,-0.14457 0.763,-0.19985 -0.2467,0.52061 -0.4848,1.13254 -0.2907,1.27177 0.3497,0.2509 0.5163,-0.0444 0.6904,-0.19985 0.3759,-0.45572 0.4826,-0.89982 1.081,-1.10826 0.1476,0.15833 0.3804,0.53828 0.4361,0.62681 0.1418,0.22512 0.8358,0.43702 0.6631,-0.2907 -0.1153,-0.48516 -0.1491,-1.061 -0.1544,-1.39895 0.025,-0.18227 0.019,-0.36803 -0.018,-0.54504 1.0886,-0.93322 2.6058,-1.48531 3.3975,-1.22636 0.1129,0.3375 0.2129,0.63821 0.2997,0.92658 -0.1952,0.46134 -0.3043,0.9792 -0.3088,1.52613 -0.024,0.21032 -0.029,0.42371 -0.018,0.64497 0.024,0.50162 0.1447,0.96853 0.327,1.38078 l -0.1816,-0.0545 c -0.7896,-0.34985 -1.458,-0.7572 -2.4891,-0.47237 -0.6339,0.1751 -1.7962,1.65927 -2.6707,2.80698 -0.7684,-1.45136 -2.3025,-2.39365 -3.9788,-2.32553 -1.1546,0.0469 -2.2083,0.52862 -2.9251,1.36262 -0.7168,0.834 -1.0656,1.97541 -1.0174,3.16127 0.048,1.17322 0.5115,2.25585 1.2445,3.00683 0.6657,0.682 1.4831,1.12292 2.4073,1.49888 0.8693,0.94244 1.6547,1.69775 3.1158,2.07117 0.1137,0.029 0.2284,0.0413 0.3452,0.0363 1.9235,-0.0782 3.5897,-1.64696 3.5428,-3.67906 0.4827,-2.30803 1.674,-3.66765 2.8888,-4.22411 l 0.6631,-0.15443 -0.018,-0.0636 c 1.1516,-0.26319 2.214,0.17862 2.5708,1.20818 -0.3184,0.69256 -0.4942,1.26396 -0.3724,1.89858 l -0.027,0 0.1272,0.76306 0.1817,0 c 0.421,0.81728 1.2947,1.81362 2.8706,3.28845 l -0.073,0.009 c 0,0 0.042,0.0396 0.1271,0.0818 0.4905,0.97204 -2.1839,1.74628 -2.0711,3.16126 l -0.018,0 c 0,0 0.016,0.008 0.018,0.009 0.019,0.212 0.099,0.43766 0.2634,0.68131 0.1149,0.14706 0.4057,0.77442 0.7903,0.86299 0.3848,0.0885 0.8619,0.14483 1.3445,0.17259 0.4825,0.0278 0.9724,0.0263 1.3808,-0.009 0.4084,-0.0353 0.9913,-0.29897 1.1536,-0.3997 0.5952,-0.31661 0.987,-1.3006 0.8721,-1.98034 -0.04,-0.48445 -0.312,-0.91647 -0.2271,-1.40803 0.084,-0.49587 0.3114,-1.21187 -0.5087,-1.81682 -0.534,-0.3939 -1.011,-1.52024 -1.2627,-2.58897 l 0.109,0 -0.064,-0.88116 -0.1998,0 c -0.027,-0.24268 -0.046,-0.46789 -0.036,-0.66314 0.064,-1.32743 0.6502,-1.17566 1.5352,-3.55188 0.1634,-0.56113 0.2238,-1.2182 0.1907,-1.944 l 0.1545,0 -0.1908,-1.89857 -0.2089,0.0182 c -0.2068,-1.09403 -0.5258,-2.26754 -0.9084,-3.47921 1.2617,0.10106 2.9754,0.51884 4.8599,1.74415 -0.2252,0.40481 -0.6143,1.06445 -1.0537,1.56247 -0.673,0.76265 0.2946,0.94251 0.6086,0.76306 0.1235,-0.0706 0.6484,-0.37678 0.9266,-0.47237 0.5839,0.63271 0.4224,1.23855 0.5814,2.02575 0.1092,0.29783 0.1106,0.75873 0.6904,0.68131 0.3218,-0.043 0.4349,-0.9254 0.4723,-1.70781 0.34,0.26656 0.5352,0.36314 0.7813,0.72673 0.244,0.24592 0.4581,0.69439 0.9992,0.35428 0.2953,-0.18564 0.022,-1.08676 -0.2907,-1.87133 0.3911,0.0457 0.6389,0.0783 0.9811,0.24527 0.3041,0.0901 0.6865,0.33688 0.9357,-0.0818 0.057,-0.82328 -0.9493,-0.89151 -1.4716,-1.48071 0.4937,0.0965 0.9956,0.13211 1.1536,0.12718 0.317,-0.01 0.4308,-0.0875 0.536,-0.56322 0.092,-0.4169 -1.5661,-0.75235 -2.0803,-0.88116 -0.3823,-0.51531 -0.985,-0.85495 -1.6714,-0.87207 -1.0656,-1.37734 -2.2654,-2.19159 -3.4066,-2.67073 l 0.109,-0.26343 -1.6532,-0.44513 -0.027,0.22711 c -1.0179,-0.20045 -1.8722,-0.16863 -2.38,-0.1181 1.4917,-1.51369 2.5072,-3.05291 2.5072,-5.5413 0,-3.6342 -3.3284,-6.8423 -6.7495,-6.97659 -0.2133,-0.008 -0.4229,-0.01 -0.6268,0 z"
       id="path2955" />
    <path
       sodipodi:nodetypes="ccccssc"
       id="path2957"
       d="m 1795.0191,670.32348 c -1.1792,0.0115 -2.5555,0.13761 -3.3657,0.4353 -0.5047,1.33232 -0.3741,3.43498 1.8904,6.45255 0.3681,0.1375 0.6092,0.221 0.6092,0.221 0.4606,0.15087 4.833,0.22651 5.7541,-0.15069 0.921,-0.37718 5.1683,-3.35255 0.7486,-6.08756 -0.7448,-0.46088 -3.2995,-0.89345 -5.6366,-0.8706 z"
       style="fill:#00aad4;fill-opacity:1;stroke:none" />
    <path
       transform="translate(1751.8998,610.19469)"
       d="m 44.275411,62.602184 a 1.6437159,1.6087432 0 1 1 -3.287432,0 1.6437159,1.6087432 0 1 1 3.287432,0 z"
       sodipodi:ry="1.6087432"
       sodipodi:rx="1.6437159"
       sodipodi:cy="62.602184"
       sodipodi:cx="42.631695"
       id="path2959"
       style="opacity:0.8427948;fill:#ffffff;fill-opacity:1;fill-rule:nonzero;stroke:none;stroke-width:4;marker:none;visibility:visible;display:inline;overflow:visible;filter:url(#filter9117);enable-background:accumulate"
       sodipodi:type="arc" />
  </g>
  <path
     sodipodi:nodetypes="ccccc"
     id="path10272"
     d="m 2778.6438,420.77596 c 0,0 -1.4452,0.33011 -1.4452,0.33011 0,0 -3.1745,4.54393 -3.1745,4.54393 0,0 2.531,3.40286 2.531,3.40286 0,0 2.0887,-8.2769 2.0887,-8.2769 0,0 0,0 0,0"
     style="fill:none;stroke:#000000;stroke-width:1px;stroke-linecap:butt;stroke-linejoin:miter;stroke-opacity:1" />
</svg>
