<svg id="Layer_1" data-name="Layer 1" xmlns="http://www.w3.org/2000/svg" viewBox="0 0 500 500"><defs><style>.cls-1{fill:#fff}</style></defs><path id="path50" class="cls-1" d="M249.9 476.8l90.7-279.1H159.2l90.7 279.1z"/><path id="path66" class="cls-1" d="M32.1 197.7L4.5 282.5a18.8 18.8 0 0 0 6.8 21l238.5 173.3L32.1 197.7z"/><path id="path74" class="cls-1" d="M32.1 197.7h127.1L104.6 29.6c-2.8-8.6-15-8.6-17.9 0L32.1 197.7z"/><path id="path82" class="cls-1" d="M467.6 197.7l27.6 84.8a18.8 18.8 0 0 1-6.8 21L249.9 476.8l217.7-279.1z"/><path id="path86" class="cls-1" d="M467.6 197.7H340.5l54.6-168.1c2.8-8.6 15-8.6 17.9 0l54.6 168.1z"/></svg>