<svg xmlns="http://www.w3.org/2000/svg" viewBox="0 0 24.001 19.507"><defs><style>.a{fill:#fff;}</style></defs><path class="a" d="M23.954,4.569a10,10,0,0,1-2.825.775,4.958,4.958,0,0,0,2.163-2.723A10.163,10.163,0,0,1,20.165,3.8a4.919,4.919,0,0,0-8.511,3.358,5.035,5.035,0,0,0,.127,1.124A13.935,13.935,0,0,1,1.64,3.161,4.822,4.822,0,0,0,.974,5.636a4.921,4.921,0,0,0,2.188,4.1A4.9,4.9,0,0,1,.934,9.116v.061A4.923,4.923,0,0,0,4.88,14a4.965,4.965,0,0,1-2.212.085,4.937,4.937,0,0,0,4.6,3.417,9.868,9.868,0,0,1-6.1,2.1A10.444,10.444,0,0,1,0,19.544a14,14,0,0,0,7.557,2.209,13.9,13.9,0,0,0,14-13.986c0-.209,0-.42-.015-.63A9.936,9.936,0,0,0,24,4.589l-.047-.02Z" transform="translate(0 -2.246)"/></svg>