<svg id="Layer_1" data-name="Layer 1" xmlns="http://www.w3.org/2000/svg" viewBox="0 0 24 24"><title>background _tasks</title><rect x="2.99" y="3" width="12.01" height="1"/><rect x="2.99" y="5.01" width="12.01" height="1"/><rect x="2.99" y="7" width="1.5" height="1"/><rect x="2.99" y="9" width="1.5" height="1"/><path d="M24,19V10a2,2,0,0,0-2-2H8a2,2,0,0,0-2,2v9a2,2,0,0,0,2,2h5.5v1.5H12V24h6V22.5H16.5V21H22A2,2,0,0,0,24,19Zm-16.5.5V9.5h15v10Z"/><path d="M5,11.5H1.5V1.5h15V7H18V2a2,2,0,0,0-2-2H2A2,2,0,0,0,0,2v9a2,2,0,0,0,2,2H5Z"/></svg>