<svg id="Layer_1" data-name="Layer 1" xmlns="http://www.w3.org/2000/svg" viewBox="0 0 24 24"><title>background _tasks</title><path d="M22,8H8a2,2,0,0,0-2,2v9a2,2,0,0,0,2,2h5.53v1.53H12V24h6V22.52H16.5V21H22a2,2,0,0,0,2-2V10A2,2,0,0,0,22,8Zm.51,11.49h-15V9.5h15Z"/><path d="M5,11.49H1.48v-10h15V7H18V2a2,2,0,0,0-2-2H2A2,2,0,0,0,0,2v9a2,2,0,0,0,2,2H5Z"/><rect x="2.99" y="2.99" width="12.01" height="1"/><rect x="2.99" y="5.01" width="12.01" height="1"/><rect x="2.99" y="7.01" width="1.5" height="1"/><rect x="2.99" y="9" width="1.5" height="1"/></svg>