<svg id="Layer_1" data-name="Layer 1" xmlns="http://www.w3.org/2000/svg" xmlns:xlink="http://www.w3.org/1999/xlink" viewBox="0 0 24 24"><defs><style>.cls-1,.cls-10,.cls-3,.cls-4,.cls-5,.cls-8{fill:none;}.cls-2{clip-path:url(#clip-path);}.cls-3{stroke:#e9d0f7;}.cls-3,.cls-4{stroke-miterlimit:10;}.cls-10,.cls-3,.cls-4,.cls-8{stroke-width:0.02px;}.cls-10,.cls-4,.cls-5,.cls-8{stroke:#000;}.cls-5{stroke-width:0.01px;}.cls-6{opacity:0.52;}.cls-7{clip-path:url(#clip-path-27);}.cls-9{clip-path:url(#clip-path-28);}.cls-10{stroke-linecap:round;stroke-linejoin:round;}.cls-11{clip-path:url(#clip-path-29);}.cls-12{clip-path:url(#clip-path-30);}.cls-13{clip-path:url(#clip-path-31);}.cls-14{opacity:0.39;}.cls-15{clip-path:url(#clip-path-32);}</style><clipPath id="clip-path"><rect class="cls-1" x="-0.01" y="-0.01" width="24.02" height="24.02"/></clipPath><clipPath id="clip-path-27"><rect class="cls-1" x="1.99" y="1.99" width="20.02" height="20.02"/></clipPath><clipPath id="clip-path-28"><rect class="cls-1" x="3.99" y="1.99" width="16.02" height="20.02"/></clipPath><clipPath id="clip-path-29"><rect class="cls-1" x="1.99" y="3.99" width="20.02" height="16.02"/></clipPath><clipPath id="clip-path-30"><rect class="cls-1" x="2.99" y="2.99" width="18.02" height="18.02"/></clipPath><clipPath id="clip-path-31"><rect class="cls-1" x="6.99" y="6.99" width="10.02" height="10.02"/></clipPath><clipPath id="clip-path-32"><rect class="cls-1" x="-0.01" y="-0.01" width="24.01" height="24.01"/></clipPath></defs><title>eos-constraint</title><g id="material-icon-grid-20-24-lines"><g class="cls-2"><g class="cls-2"><g class="cls-2"><rect class="cls-3" width="1" height="1"/></g><rect class="cls-3" x="1" width="1" height="1"/><rect class="cls-3" x="2" width="1" height="1"/><rect class="cls-3" x="3" width="1" height="1"/><rect class="cls-3" x="4" width="1" height="1"/><rect class="cls-3" x="5" width="1" height="1"/><rect class="cls-3" x="6" width="1" height="1"/><rect class="cls-3" x="7" width="1" height="1"/><rect class="cls-3" x="8" width="1" height="1"/><rect class="cls-3" x="9" width="1" height="1"/><rect class="cls-3" x="10" width="1" height="1"/><rect class="cls-3" x="11" width="1" height="1"/><rect class="cls-3" x="12" width="1" height="1"/><rect class="cls-3" x="13" width="1" height="1"/><rect class="cls-3" x="14" width="1" height="1"/><rect class="cls-3" x="15" width="1" height="1"/><rect class="cls-3" x="16" width="1" height="1"/><rect class="cls-3" x="17" width="1" height="1"/><rect class="cls-3" x="18" width="1" height="1"/><rect class="cls-3" x="19" width="1" height="1"/><rect class="cls-3" x="20" width="1" height="1"/><rect class="cls-3" x="21" width="1" height="1"/><rect class="cls-3" x="22" width="1" height="1"/><rect class="cls-3" x="23" width="1" height="1"/><g class="cls-2"><rect class="cls-3" y="1" width="1" height="1"/></g><rect class="cls-3" x="1" y="1" width="1" height="1"/><rect class="cls-3" x="2" y="1" width="1" height="1"/><rect class="cls-3" x="3" y="1" width="1" height="1"/><rect class="cls-3" x="4" y="1" width="1" height="1"/><rect class="cls-3" x="5" y="1" width="1" height="1"/><rect class="cls-3" x="6" y="1" width="1" height="1"/><rect class="cls-3" x="7" y="1" width="1" height="1"/><rect class="cls-3" x="8" y="1" width="1" height="1"/><rect class="cls-3" x="9" y="1" width="1" height="1"/><rect class="cls-3" x="10" y="1" width="1" height="1"/><rect class="cls-3" x="11" y="1" width="1" height="1"/><rect class="cls-3" x="12" y="1" width="1" height="1"/><rect class="cls-3" x="13" y="1" width="1" height="1"/><rect class="cls-3" x="14" y="1" width="1" height="1"/><rect class="cls-3" x="15" y="1" width="1" height="1"/><rect class="cls-3" x="16" y="1" width="1" height="1"/><rect class="cls-3" x="17" y="1" width="1" height="1"/><rect class="cls-3" x="18" y="1" width="1" height="1"/><rect class="cls-3" x="19" y="1" width="1" height="1"/><rect class="cls-3" x="20" y="1" width="1" height="1"/><rect class="cls-3" x="21" y="1" width="1" height="1"/><rect class="cls-3" x="22" y="1" width="1" height="1"/><rect class="cls-3" x="23" y="1" width="1" height="1"/><g class="cls-2"><rect class="cls-3" y="2" width="1" height="1"/></g><rect class="cls-3" x="1" y="2" width="1" height="1"/><rect class="cls-3" x="2" y="2" width="1" height="1"/><rect class="cls-3" x="3" y="2" width="1" height="1"/><rect class="cls-3" x="4" y="2" width="1" height="1"/><rect class="cls-3" x="5" y="2" width="1" height="1"/><rect class="cls-3" x="6" y="2" width="1" height="1"/><rect class="cls-3" x="7" y="2" width="1" height="1"/><rect class="cls-3" x="8" y="2" width="1" height="1"/><rect class="cls-3" x="9" y="2" width="1" height="1"/><rect class="cls-3" x="10" y="2" width="1" height="1"/><rect class="cls-3" x="11" y="2" width="1" height="1"/><rect class="cls-3" x="12" y="2" width="1" height="1"/><rect class="cls-3" x="13" y="2" width="1" height="1"/><rect class="cls-3" x="14" y="2" width="1" height="1"/><rect class="cls-3" x="15" y="2" width="1" height="1"/><rect class="cls-3" x="16" y="2" width="1" height="1"/><rect class="cls-3" x="17" y="2" width="1" height="1"/><rect class="cls-3" x="18" y="2" width="1" height="1"/><rect class="cls-3" x="19" y="2" width="1" height="1"/><rect class="cls-3" x="20" y="2" width="1" height="1"/><rect class="cls-3" x="21" y="2" width="1" height="1"/><rect class="cls-3" x="22" y="2" width="1" height="1"/><rect class="cls-3" x="23" y="2" width="1" height="1"/><g class="cls-2"><rect class="cls-3" y="3" width="1" height="1"/></g><rect class="cls-3" x="1" y="3" width="1" height="1"/><rect class="cls-3" x="2" y="3" width="1" height="1"/><rect class="cls-3" x="3" y="3" width="1" height="1"/><rect class="cls-3" x="4" y="3" width="1" height="1"/><rect class="cls-3" x="5" y="3" width="1" height="1"/><rect class="cls-3" x="6" y="3" width="1" height="1"/><rect class="cls-3" x="7" y="3" width="1" height="1"/><rect class="cls-3" x="8" y="3" width="1" height="1"/><rect class="cls-3" x="9" y="3" width="1" height="1"/><rect class="cls-3" x="10" y="3" width="1" height="1"/><rect class="cls-3" x="11" y="3" width="1" height="1"/><rect class="cls-3" x="12" y="3" width="1" height="1"/><rect class="cls-3" x="13" y="3" width="1" height="1"/><rect class="cls-3" x="14" y="3" width="1" height="1"/><rect class="cls-3" x="15" y="3" width="1" height="1"/><rect class="cls-3" x="16" y="3" width="1" height="1"/><rect class="cls-3" x="17" y="3" width="1" height="1"/><rect class="cls-3" x="18" y="3" width="1" height="1"/><rect class="cls-3" x="19" y="3" width="1" height="1"/><rect class="cls-3" x="20" y="3" width="1" height="1"/><rect class="cls-3" x="21" y="3" width="1" height="1"/><rect class="cls-3" x="22" y="3" width="1" height="1"/><rect class="cls-3" x="23" y="3" width="1" height="1"/><g class="cls-2"><rect class="cls-3" y="4" width="1" height="1"/></g><rect class="cls-3" x="1" y="4" width="1" height="1"/><rect class="cls-3" x="2" y="4" width="1" height="1"/><rect class="cls-3" x="3" y="4" width="1" height="1"/><rect class="cls-3" x="4" y="4" width="1" height="1"/><rect class="cls-3" x="5" y="4" width="1" height="1"/><rect class="cls-3" x="6" y="4" width="1" height="1"/><rect class="cls-3" x="7" y="4" width="1" height="1"/><rect class="cls-3" x="8" y="4" width="1" height="1"/><rect class="cls-3" x="9" y="4" width="1" height="1"/><rect class="cls-3" x="10" y="4" width="1" height="1"/><rect class="cls-3" x="11" y="4" width="1" height="1"/><rect class="cls-3" x="12" y="4" width="1" height="1"/><rect class="cls-3" x="13" y="4" width="1" height="1"/><rect class="cls-3" x="14" y="4" width="1" height="1"/><rect class="cls-3" x="15" y="4" width="1" height="1"/><rect class="cls-3" x="16" y="4" width="1" height="1"/><rect class="cls-3" x="17" y="4" width="1" height="1"/><rect class="cls-3" x="18" y="4" width="1" height="1"/><rect class="cls-3" x="19" y="4" width="1" height="1"/><rect class="cls-3" x="20" y="4" width="1" height="1"/><rect class="cls-3" x="21" y="4" width="1" height="1"/><rect class="cls-3" x="22" y="4" width="1" height="1"/><rect class="cls-3" x="23" y="4" width="1" height="1"/><g class="cls-2"><rect class="cls-3" y="5" width="1" height="1"/></g><rect class="cls-3" x="1" y="5" width="1" height="1"/><rect class="cls-3" x="2" y="5" width="1" height="1"/><rect class="cls-3" x="3" y="5" width="1" height="1"/><rect class="cls-3" x="4" y="5" width="1" height="1"/><rect class="cls-3" x="5" y="5" width="1" height="1"/><rect class="cls-3" x="6" y="5" width="1" height="1"/><rect class="cls-3" x="7" y="5" width="1" height="1"/><rect class="cls-3" x="8" y="5" width="1" height="1"/><rect class="cls-3" x="9" y="5" width="1" height="1"/><rect class="cls-3" x="10" y="5" width="1" height="1"/><rect class="cls-3" x="11" y="5" width="1" height="1"/><rect class="cls-3" x="12" y="5" width="1" height="1"/><rect class="cls-3" x="13" y="5" width="1" height="1"/><rect class="cls-3" x="14" y="5" width="1" height="1"/><rect class="cls-3" x="15" y="5" width="1" height="1"/><rect class="cls-3" x="16" y="5" width="1" height="1"/><rect class="cls-3" x="17" y="5" width="1" height="1"/><rect class="cls-3" x="18" y="5" width="1" height="1"/><rect class="cls-3" x="19" y="5" width="1" height="1"/><rect class="cls-3" x="20" y="5" width="1" height="1"/><rect class="cls-3" x="21" y="5" width="1" height="1"/><rect class="cls-3" x="22" y="5" width="1" height="1"/><rect class="cls-3" x="23" y="5" width="1" height="1"/><g class="cls-2"><rect class="cls-3" y="6" width="1" height="1"/></g><rect class="cls-3" x="1" y="6" width="1" height="1"/><rect class="cls-3" x="2" y="6" width="1" height="1"/><rect class="cls-3" x="3" y="6" width="1" height="1"/><rect class="cls-3" x="4" y="6" width="1" height="1"/><rect class="cls-3" x="5" y="6" width="1" height="1"/><rect class="cls-3" x="6" y="6" width="1" height="1"/><rect class="cls-3" x="7" y="6" width="1" height="1"/><rect class="cls-3" x="8" y="6" width="1" height="1"/><rect class="cls-3" x="9" y="6" width="1" height="1"/><rect class="cls-3" x="10" y="6" width="1" height="1"/><rect class="cls-3" x="11" y="6" width="1" height="1"/><rect class="cls-3" x="12" y="6" width="1" height="1"/><rect class="cls-3" x="13" y="6" width="1" height="1"/><rect class="cls-3" x="14" y="6" width="1" height="1"/><rect class="cls-3" x="15" y="6" width="1" height="1"/><rect class="cls-3" x="16" y="6" width="1" height="1"/><rect class="cls-3" x="17" y="6" width="1" height="1"/><rect class="cls-3" x="18" y="6" width="1" height="1"/><rect class="cls-3" x="19" y="6" width="1" height="1"/><rect class="cls-3" x="20" y="6" width="1" height="1"/><rect class="cls-3" x="21" y="6" width="1" height="1"/><rect class="cls-3" x="22" y="6" width="1" height="1"/><rect class="cls-3" x="23" y="6" width="1" height="1"/><g class="cls-2"><rect class="cls-3" y="7" width="1" height="1"/></g><rect class="cls-3" x="1" y="7" width="1" height="1"/><rect class="cls-3" x="2" y="7" width="1" height="1"/><rect class="cls-3" x="3" y="7" width="1" height="1"/><rect class="cls-3" x="4" y="7" width="1" height="1"/><rect class="cls-3" x="5" y="7" width="1" height="1"/><rect class="cls-3" x="6" y="7" width="1" height="1"/><rect class="cls-3" x="7" y="7" width="1" height="1"/><rect class="cls-3" x="8" y="7" width="1" height="1"/><rect class="cls-3" x="9" y="7" width="1" height="1"/><rect class="cls-3" x="10" y="7" width="1" height="1"/><rect class="cls-3" x="11" y="7" width="1" height="1"/><rect class="cls-3" x="12" y="7" width="1" height="1"/><rect class="cls-3" x="13" y="7" width="1" height="1"/><rect class="cls-3" x="14" y="7" width="1" height="1"/><rect class="cls-3" x="15" y="7" width="1" height="1"/><rect class="cls-3" x="16" y="7" width="1" height="1"/><rect class="cls-3" x="17" y="7" width="1" height="1"/><rect class="cls-3" x="18" y="7" width="1" height="1"/><rect class="cls-3" x="19" y="7" width="1" height="1"/><rect class="cls-3" x="20" y="7" width="1" height="1"/><rect class="cls-3" x="21" y="7" width="1" height="1"/><rect class="cls-3" x="22" y="7" width="1" height="1"/><rect class="cls-3" x="23" y="7" width="1" height="1"/><g class="cls-2"><rect class="cls-3" y="8" width="1" height="1"/></g><rect class="cls-3" x="1" y="8" width="1" height="1"/><rect class="cls-3" x="2" y="8" width="1" height="1"/><rect class="cls-3" x="3" y="8" width="1" height="1"/><rect class="cls-3" x="4" y="8" width="1" height="1"/><rect class="cls-3" x="5" y="8" width="1" height="1"/><rect class="cls-3" x="6" y="8" width="1" height="1"/><rect class="cls-3" x="7" y="8" width="1" height="1"/><rect class="cls-3" x="8" y="8" width="1" height="1"/><rect class="cls-3" x="9" y="8" width="1" height="1"/><rect class="cls-3" x="10" y="8" width="1" height="1"/><rect class="cls-3" x="11" y="8" width="1" height="1"/><rect class="cls-3" x="12" y="8" width="1" height="1"/><rect class="cls-3" x="13" y="8" width="1" height="1"/><rect class="cls-3" x="14" y="8" width="1" height="1"/><rect class="cls-3" x="15" y="8" width="1" height="1"/><rect class="cls-3" x="16" y="8" width="1" height="1"/><rect class="cls-3" x="17" y="8" width="1" height="1"/><rect class="cls-3" x="18" y="8" width="1" height="1"/><rect class="cls-3" x="19" y="8" width="1" height="1"/><rect class="cls-3" x="20" y="8" width="1" height="1"/><rect class="cls-3" x="21" y="8" width="1" height="1"/><rect class="cls-3" x="22" y="8" width="1" height="1"/><rect class="cls-3" x="23" y="8" width="1" height="1"/><g class="cls-2"><rect class="cls-3" y="9" width="1" height="1"/></g><rect class="cls-3" x="1" y="9" width="1" height="1"/><rect class="cls-3" x="2" y="9" width="1" height="1"/><rect class="cls-3" x="3" y="9" width="1" height="1"/><rect class="cls-3" x="4" y="9" width="1" height="1"/><rect class="cls-3" x="5" y="9" width="1" height="1"/><rect class="cls-3" x="6" y="9" width="1" height="1"/><rect class="cls-3" x="7" y="9" width="1" height="1"/><rect class="cls-3" x="8" y="9" width="1" height="1"/><rect class="cls-3" x="9" y="9" width="1" height="1"/><rect class="cls-3" x="10" y="9" width="1" height="1"/><rect class="cls-3" x="11" y="9" width="1" height="1"/><rect class="cls-3" x="12" y="9" width="1" height="1"/><rect class="cls-3" x="13" y="9" width="1" height="1"/><rect class="cls-3" x="14" y="9" width="1" height="1"/><rect class="cls-3" x="15" y="9" width="1" height="1"/><rect class="cls-3" x="16" y="9" width="1" height="1"/><rect class="cls-3" x="17" y="9" width="1" height="1"/><rect class="cls-3" x="18" y="9" width="1" height="1"/><rect class="cls-3" x="19" y="9" width="1" height="1"/><rect class="cls-3" x="20" y="9" width="1" height="1"/><rect class="cls-3" x="21" y="9" width="1" height="1"/><rect class="cls-3" x="22" y="9" width="1" height="1"/><rect class="cls-3" x="23" y="9" width="1" height="1"/><g class="cls-2"><rect class="cls-3" y="10" width="1" height="1"/></g><rect class="cls-3" x="1" y="10" width="1" height="1"/><rect class="cls-3" x="2" y="10" width="1" height="1"/><rect class="cls-3" x="3" y="10" width="1" height="1"/><rect class="cls-3" x="4" y="10" width="1" height="1"/><rect class="cls-3" x="5" y="10" width="1" height="1"/><rect class="cls-3" x="6" y="10" width="1" height="1"/><rect class="cls-3" x="7" y="10" width="1" height="1"/><rect class="cls-3" x="8" y="10" width="1" height="1"/><rect class="cls-3" x="9" y="10" width="1" height="1"/><rect class="cls-3" x="10" y="10" width="1" height="1"/><rect class="cls-3" x="11" y="10" width="1" height="1"/><rect class="cls-3" x="12" y="10" width="1" height="1"/><rect class="cls-3" x="13" y="10" width="1" height="1"/><rect class="cls-3" x="14" y="10" width="1" height="1"/><rect class="cls-3" x="15" y="10" width="1" height="1"/><rect class="cls-3" x="16" y="10" width="1" height="1"/><rect class="cls-3" x="17" y="10" width="1" height="1"/><rect class="cls-3" x="18" y="10" width="1" height="1"/><rect class="cls-3" x="19" y="10" width="1" height="1"/><rect class="cls-3" x="20" y="10" width="1" height="1"/><rect class="cls-3" x="21" y="10" width="1" height="1"/><rect class="cls-3" x="22" y="10" width="1" height="1"/><rect class="cls-3" x="23" y="10" width="1" height="1"/><g class="cls-2"><rect class="cls-3" y="11" width="1" height="1"/></g><rect class="cls-3" x="1" y="11" width="1" height="1"/><rect class="cls-3" x="2" y="11" width="1" height="1"/><rect class="cls-3" x="3" y="11" width="1" height="1"/><rect class="cls-3" x="4" y="11" width="1" height="1"/><rect class="cls-3" x="5" y="11" width="1" height="1"/><rect class="cls-3" x="6" y="11" width="1" height="1"/><rect class="cls-3" x="7" y="11" width="1" height="1"/><rect class="cls-3" x="8" y="11" width="1" height="1"/><rect class="cls-3" x="9" y="11" width="1" height="1"/><rect class="cls-3" x="10" y="11" width="1" height="1"/><rect class="cls-3" x="11" y="11" width="1" height="1"/><rect class="cls-3" x="12" y="11" width="1" height="1"/><rect class="cls-3" x="13" y="11" width="1" height="1"/><rect class="cls-3" x="14" y="11" width="1" height="1"/><rect class="cls-3" x="15" y="11" width="1" height="1"/><rect class="cls-3" x="16" y="11" width="1" height="1"/><rect class="cls-3" x="17" y="11" width="1" height="1"/><rect class="cls-3" x="18" y="11" width="1" height="1"/><rect class="cls-3" x="19" y="11" width="1" height="1"/><rect class="cls-3" x="20" y="11" width="1" height="1"/><rect class="cls-3" x="21" y="11" width="1" height="1"/><rect class="cls-3" x="22" y="11" width="1" height="1"/><rect class="cls-3" x="23" y="11" width="1" height="1"/><g class="cls-2"><rect class="cls-3" y="12" width="1" height="1"/></g><rect class="cls-3" x="1" y="12" width="1" height="1"/><rect class="cls-3" x="2" y="12" width="1" height="1"/><rect class="cls-3" x="3" y="12" width="1" height="1"/><rect class="cls-3" x="4" y="12" width="1" height="1"/><rect class="cls-3" x="5" y="12" width="1" height="1"/><rect class="cls-3" x="6" y="12" width="1" height="1"/><rect class="cls-3" x="7" y="12" width="1" height="1"/><rect class="cls-3" x="8" y="12" width="1" height="1"/><rect class="cls-3" x="9" y="12" width="1" height="1"/><rect class="cls-3" x="10" y="12" width="1" height="1"/><rect class="cls-3" x="11" y="12" width="1" height="1"/><rect class="cls-3" x="12" y="12" width="1" height="1"/><rect class="cls-3" x="13" y="12" width="1" height="1"/><rect class="cls-3" x="14" y="12" width="1" height="1"/><rect class="cls-3" x="15" y="12" width="1" height="1"/><rect class="cls-3" x="16" y="12" width="1" height="1"/><rect class="cls-3" x="17" y="12" width="1" height="1"/><rect class="cls-3" x="18" y="12" width="1" height="1"/><rect class="cls-3" x="19" y="12" width="1" height="1"/><rect class="cls-3" x="20" y="12" width="1" height="1"/><rect class="cls-3" x="21" y="12" width="1" height="1"/><rect class="cls-3" x="22" y="12" width="1" height="1"/><rect class="cls-3" x="23" y="12" width="1" height="1"/><g class="cls-2"><rect class="cls-3" y="13" width="1" height="1"/></g><rect class="cls-3" x="1" y="13" width="1" height="1"/><rect class="cls-3" x="2" y="13" width="1" height="1"/><rect class="cls-3" x="3" y="13" width="1" height="1"/><rect class="cls-3" x="4" y="13" width="1" height="1"/><rect class="cls-3" x="5" y="13" width="1" height="1"/><rect class="cls-3" x="6" y="13" width="1" height="1"/><rect class="cls-3" x="7" y="13" width="1" height="1"/><rect class="cls-3" x="8" y="13" width="1" height="1"/><rect class="cls-3" x="9" y="13" width="1" height="1"/><rect class="cls-3" x="10" y="13" width="1" height="1"/><rect class="cls-3" x="11" y="13" width="1" height="1"/><rect class="cls-3" x="12" y="13" width="1" height="1"/><rect class="cls-3" x="13" y="13" width="1" height="1"/><rect class="cls-3" x="14" y="13" width="1" height="1"/><rect class="cls-3" x="15" y="13" width="1" height="1"/><rect class="cls-3" x="16" y="13" width="1" height="1"/><rect class="cls-3" x="17" y="13" width="1" height="1"/><rect class="cls-3" x="18" y="13" width="1" height="1"/><rect class="cls-3" x="19" y="13" width="1" height="1"/><rect class="cls-3" x="20" y="13" width="1" height="1"/><rect class="cls-3" x="21" y="13" width="1" height="1"/><rect class="cls-3" x="22" y="13" width="1" height="1"/><rect class="cls-3" x="23" y="13" width="1" height="1"/><g class="cls-2"><rect class="cls-3" y="14" width="1" height="1"/></g><rect class="cls-3" x="1" y="14" width="1" height="1"/><rect class="cls-3" x="2" y="14" width="1" height="1"/><rect class="cls-3" x="3" y="14" width="1" height="1"/><rect class="cls-3" x="4" y="14" width="1" height="1"/><rect class="cls-3" x="5" y="14" width="1" height="1"/><rect class="cls-3" x="6" y="14" width="1" height="1"/><rect class="cls-3" x="7" y="14" width="1" height="1"/><rect class="cls-3" x="8" y="14" width="1" height="1"/><rect class="cls-3" x="9" y="14" width="1" height="1"/><rect class="cls-3" x="10" y="14" width="1" height="1"/><rect class="cls-3" x="11" y="14" width="1" height="1"/><rect class="cls-3" x="12" y="14" width="1" height="1"/><rect class="cls-3" x="13" y="14" width="1" height="1"/><rect class="cls-3" x="14" y="14" width="1" height="1"/><rect class="cls-3" x="15" y="14" width="1" height="1"/><rect class="cls-3" x="16" y="14" width="1" height="1"/><rect class="cls-3" x="17" y="14" width="1" height="1"/><rect class="cls-3" x="18" y="14" width="1" height="1"/><rect class="cls-3" x="19" y="14" width="1" height="1"/><rect class="cls-3" x="20" y="14" width="1" height="1"/><rect class="cls-3" x="21" y="14" width="1" height="1"/><rect class="cls-3" x="22" y="14" width="1" height="1"/><rect class="cls-3" x="23" y="14" width="1" height="1"/><g class="cls-2"><rect class="cls-3" y="15" width="1" height="1"/></g><rect class="cls-3" x="1" y="15" width="1" height="1"/><rect class="cls-3" x="2" y="15" width="1" height="1"/><rect class="cls-3" x="3" y="15" width="1" height="1"/><rect class="cls-3" x="4" y="15" width="1" height="1"/><rect class="cls-3" x="5" y="15" width="1" height="1"/><rect class="cls-3" x="6" y="15" width="1" height="1"/><rect class="cls-3" x="7" y="15" width="1" height="1"/><rect class="cls-3" x="8" y="15" width="1" height="1"/><rect class="cls-3" x="9" y="15" width="1" height="1"/><rect class="cls-3" x="10" y="15" width="1" height="1"/><rect class="cls-3" x="11" y="15" width="1" height="1"/><rect class="cls-3" x="12" y="15" width="1" height="1"/><rect class="cls-3" x="13" y="15" width="1" height="1"/><rect class="cls-3" x="14" y="15" width="1" height="1"/><rect class="cls-3" x="15" y="15" width="1" height="1"/><rect class="cls-3" x="16" y="15" width="1" height="1"/><rect class="cls-3" x="17" y="15" width="1" height="1"/><rect class="cls-3" x="18" y="15" width="1" height="1"/><rect class="cls-3" x="19" y="15" width="1" height="1"/><rect class="cls-3" x="20" y="15" width="1" height="1"/><rect class="cls-3" x="21" y="15" width="1" height="1"/><rect class="cls-3" x="22" y="15" width="1" height="1"/><rect class="cls-3" x="23" y="15" width="1" height="1"/><g class="cls-2"><rect class="cls-3" y="16" width="1" height="1"/></g><rect class="cls-3" x="1" y="16" width="1" height="1"/><rect class="cls-3" x="2" y="16" width="1" height="1"/><rect class="cls-3" x="3" y="16" width="1" height="1"/><rect class="cls-3" x="4" y="16" width="1" height="1"/><rect class="cls-3" x="5" y="16" width="1" height="1"/><rect class="cls-3" x="6" y="16" width="1" height="1"/><rect class="cls-3" x="7" y="16" width="1" height="1"/><rect class="cls-3" x="8" y="16" width="1" height="1"/><rect class="cls-3" x="9" y="16" width="1" height="1"/><rect class="cls-3" x="10" y="16" width="1" height="1"/><rect class="cls-3" x="11" y="16" width="1" height="1"/><rect class="cls-3" x="12" y="16" width="1" height="1"/><rect class="cls-3" x="13" y="16" width="1" height="1"/><rect class="cls-3" x="14" y="16" width="1" height="1"/><rect class="cls-3" x="15" y="16" width="1" height="1"/><rect class="cls-3" x="16" y="16" width="1" height="1"/><rect class="cls-3" x="17" y="16" width="1" height="1"/><rect class="cls-3" x="18" y="16" width="1" height="1"/><rect class="cls-3" x="19" y="16" width="1" height="1"/><rect class="cls-3" x="20" y="16" width="1" height="1"/><rect class="cls-3" x="21" y="16" width="1" height="1"/><rect class="cls-3" x="22" y="16" width="1" height="1"/><rect class="cls-3" x="23" y="16" width="1" height="1"/><g class="cls-2"><rect class="cls-3" y="17" width="1" height="1"/></g><rect class="cls-3" x="1" y="17" width="1" height="1"/><rect class="cls-3" x="2" y="17" width="1" height="1"/><rect class="cls-3" x="3" y="17" width="1" height="1"/><rect class="cls-3" x="4" y="17" width="1" height="1"/><rect class="cls-3" x="5" y="17" width="1" height="1"/><rect class="cls-3" x="6" y="17" width="1" height="1"/><rect class="cls-3" x="7" y="17" width="1" height="1"/><rect class="cls-3" x="8" y="17" width="1" height="1"/><rect class="cls-3" x="9" y="17" width="1" height="1"/><rect class="cls-3" x="10" y="17" width="1" height="1"/><rect class="cls-3" x="11" y="17" width="1" height="1"/><rect class="cls-3" x="12" y="17" width="1" height="1"/><rect class="cls-3" x="13" y="17" width="1" height="1"/><rect class="cls-3" x="14" y="17" width="1" height="1"/><rect class="cls-3" x="15" y="17" width="1" height="1"/><rect class="cls-3" x="16" y="17" width="1" height="1"/><rect class="cls-3" x="17" y="17" width="1" height="1"/><rect class="cls-3" x="18" y="17" width="1" height="1"/><rect class="cls-3" x="19" y="17" width="1" height="1"/><rect class="cls-3" x="20" y="17" width="1" height="1"/><rect class="cls-3" x="21" y="17" width="1" height="1"/><rect class="cls-3" x="22" y="17" width="1" height="1"/><rect class="cls-3" x="23" y="17" width="1" height="1"/><g class="cls-2"><rect class="cls-3" y="18" width="1" height="1"/></g><rect class="cls-3" x="1" y="18" width="1" height="1"/><rect class="cls-3" x="2" y="18" width="1" height="1"/><rect class="cls-3" x="3" y="18" width="1" height="1"/><rect class="cls-3" x="4" y="18" width="1" height="1"/><rect class="cls-3" x="5" y="18" width="1" height="1"/><rect class="cls-3" x="6" y="18" width="1" height="1"/><rect class="cls-3" x="7" y="18" width="1" height="1"/><rect class="cls-3" x="8" y="18" width="1" height="1"/><rect class="cls-3" x="9" y="18" width="1" height="1"/><rect class="cls-3" x="10" y="18" width="1" height="1"/><rect class="cls-3" x="11" y="18" width="1" height="1"/><rect class="cls-3" x="12" y="18" width="1" height="1"/><rect class="cls-3" x="13" y="18" width="1" height="1"/><rect class="cls-3" x="14" y="18" width="1" height="1"/><rect class="cls-3" x="15" y="18" width="1" height="1"/><rect class="cls-3" x="16" y="18" width="1" height="1"/><rect class="cls-3" x="17" y="18" width="1" height="1"/><rect class="cls-3" x="18" y="18" width="1" height="1"/><rect class="cls-3" x="19" y="18" width="1" height="1"/><rect class="cls-3" x="20" y="18" width="1" height="1"/><rect class="cls-3" x="21" y="18" width="1" height="1"/><rect class="cls-3" x="22" y="18" width="1" height="1"/><rect class="cls-3" x="23" y="18" width="1" height="1"/><g class="cls-2"><rect class="cls-3" y="19" width="1" height="1"/></g><rect class="cls-3" x="1" y="19" width="1" height="1"/><rect class="cls-3" x="2" y="19" width="1" height="1"/><rect class="cls-3" x="3" y="19" width="1" height="1"/><rect class="cls-3" x="4" y="19" width="1" height="1"/><rect class="cls-3" x="5" y="19" width="1" height="1"/><rect class="cls-3" x="6" y="19" width="1" height="1"/><rect class="cls-3" x="7" y="19" width="1" height="1"/><rect class="cls-3" x="8" y="19" width="1" height="1"/><rect class="cls-3" x="9" y="19" width="1" height="1"/><rect class="cls-3" x="10" y="19" width="1" height="1"/><rect class="cls-3" x="11" y="19" width="1" height="1"/><rect class="cls-3" x="12" y="19" width="1" height="1"/><rect class="cls-3" x="13" y="19" width="1" height="1"/><rect class="cls-3" x="14" y="19" width="1" height="1"/><rect class="cls-3" x="15" y="19" width="1" height="1"/><rect class="cls-3" x="16" y="19" width="1" height="1"/><rect class="cls-3" x="17" y="19" width="1" height="1"/><rect class="cls-3" x="18" y="19" width="1" height="1"/><rect class="cls-3" x="19" y="19" width="1" height="1"/><rect class="cls-3" x="20" y="19" width="1" height="1"/><rect class="cls-3" x="21" y="19" width="1" height="1"/><rect class="cls-3" x="22" y="19" width="1" height="1"/><rect class="cls-3" x="23" y="19" width="1" height="1"/><g class="cls-2"><rect class="cls-3" y="20" width="1" height="1"/></g><rect class="cls-3" x="1" y="20" width="1" height="1"/><rect class="cls-3" x="2" y="20" width="1" height="1"/><rect class="cls-3" x="3" y="20" width="1" height="1"/><rect class="cls-3" x="4" y="20" width="1" height="1"/><rect class="cls-3" x="5" y="20" width="1" height="1"/><rect class="cls-3" x="6" y="20" width="1" height="1"/><rect class="cls-3" x="7" y="20" width="1" height="1"/><rect class="cls-3" x="8" y="20" width="1" height="1"/><rect class="cls-3" x="9" y="20" width="1" height="1"/><rect class="cls-3" x="10" y="20" width="1" height="1"/><rect class="cls-3" x="11" y="20" width="1" height="1"/><rect class="cls-3" x="12" y="20" width="1" height="1"/><rect class="cls-3" x="13" y="20" width="1" height="1"/><rect class="cls-3" x="14" y="20" width="1" height="1"/><rect class="cls-3" x="15" y="20" width="1" height="1"/><rect class="cls-3" x="16" y="20" width="1" height="1"/><rect class="cls-3" x="17" y="20" width="1" height="1"/><rect class="cls-3" x="18" y="20" width="1" height="1"/><rect class="cls-3" x="19" y="20" width="1" height="1"/><rect class="cls-3" x="20" y="20" width="1" height="1"/><rect class="cls-3" x="21" y="20" width="1" height="1"/><rect class="cls-3" x="22" y="20" width="1" height="1"/><rect class="cls-3" x="23" y="20" width="1" height="1"/><g class="cls-2"><rect class="cls-3" y="21" width="1" height="1"/></g><rect class="cls-3" x="1" y="21" width="1" height="1"/><rect class="cls-3" x="2" y="21" width="1" height="1"/><rect class="cls-3" x="3" y="21" width="1" height="1"/><rect class="cls-3" x="4" y="21" width="1" height="1"/><rect class="cls-3" x="5" y="21" width="1" height="1"/><rect class="cls-3" x="6" y="21" width="1" height="1"/><rect class="cls-3" x="7" y="21" width="1" height="1"/><rect class="cls-3" x="8" y="21" width="1" height="1"/><rect class="cls-3" x="9" y="21" width="1" height="1"/><rect class="cls-3" x="10" y="21" width="1" height="1"/><rect class="cls-3" x="11" y="21" width="1" height="1"/><rect class="cls-3" x="12" y="21" width="1" height="1"/><rect class="cls-3" x="13" y="21" width="1" height="1"/><rect class="cls-3" x="14" y="21" width="1" height="1"/><rect class="cls-3" x="15" y="21" width="1" height="1"/><rect class="cls-3" x="16" y="21" width="1" height="1"/><rect class="cls-3" x="17" y="21" width="1" height="1"/><rect class="cls-3" x="18" y="21" width="1" height="1"/><rect class="cls-3" x="19" y="21" width="1" height="1"/><rect class="cls-3" x="20" y="21" width="1" height="1"/><rect class="cls-3" x="21" y="21" width="1" height="1"/><rect class="cls-3" x="22" y="21" width="1" height="1"/><rect class="cls-3" x="23" y="21" width="1" height="1"/><g class="cls-2"><rect class="cls-3" y="22" width="1" height="1"/></g><rect class="cls-3" x="1" y="22" width="1" height="1"/><rect class="cls-3" x="2" y="22" width="1" height="1"/><rect class="cls-3" x="3" y="22" width="1" height="1"/><rect class="cls-3" x="4" y="22" width="1" height="1"/><rect class="cls-3" x="5" y="22" width="1" height="1"/><rect class="cls-3" x="6" y="22" width="1" height="1"/><rect class="cls-3" x="7" y="22" width="1" height="1"/><rect class="cls-3" x="8" y="22" width="1" height="1"/><rect class="cls-3" x="9" y="22" width="1" height="1"/><rect class="cls-3" x="10" y="22" width="1" height="1"/><rect class="cls-3" x="11" y="22" width="1" height="1"/><rect class="cls-3" x="12" y="22" width="1" height="1"/><rect class="cls-3" x="13" y="22" width="1" height="1"/><rect class="cls-3" x="14" y="22" width="1" height="1"/><rect class="cls-3" x="15" y="22" width="1" height="1"/><rect class="cls-3" x="16" y="22" width="1" height="1"/><rect class="cls-3" x="17" y="22" width="1" height="1"/><rect class="cls-3" x="18" y="22" width="1" height="1"/><rect class="cls-3" x="19" y="22" width="1" height="1"/><rect class="cls-3" x="20" y="22" width="1" height="1"/><rect class="cls-3" x="21" y="22" width="1" height="1"/><rect class="cls-3" x="22" y="22" width="1" height="1"/><rect class="cls-3" x="23" y="22" width="1" height="1"/><g class="cls-2"><rect class="cls-3" y="23" width="1" height="1"/><rect class="cls-3" x="1" y="23" width="1" height="1"/><rect class="cls-3" x="2" y="23" width="1" height="1"/><rect class="cls-3" x="3" y="23" width="1" height="1"/><rect class="cls-3" x="4" y="23" width="1" height="1"/><rect class="cls-3" x="5" y="23" width="1" height="1"/><rect class="cls-3" x="6" y="23" width="1" height="1"/><rect class="cls-3" x="7" y="23" width="1" height="1"/><rect class="cls-3" x="8" y="23" width="1" height="1"/><rect class="cls-3" x="9" y="23" width="1" height="1"/><rect class="cls-3" x="10" y="23" width="1" height="1"/><rect class="cls-3" x="11" y="23" width="1" height="1"/><rect class="cls-3" x="12" y="23" width="1" height="1"/><rect class="cls-3" x="13" y="23" width="1" height="1"/><rect class="cls-3" x="14" y="23" width="1" height="1"/><rect class="cls-3" x="15" y="23" width="1" height="1"/><rect class="cls-3" x="16" y="23" width="1" height="1"/><rect class="cls-3" x="17" y="23" width="1" height="1"/><rect class="cls-3" x="18" y="23" width="1" height="1"/><rect class="cls-3" x="19" y="23" width="1" height="1"/><rect class="cls-3" x="20" y="23" width="1" height="1"/><rect class="cls-3" x="21" y="23" width="1" height="1"/><rect class="cls-3" x="22" y="23" width="1" height="1"/><rect class="cls-3" x="23" y="23" width="1" height="1"/><rect class="cls-4" width="24" height="24"/><line class="cls-5" y1="12" x2="24" y2="12"/><line class="cls-5" y1="8" x2="24" y2="8"/><line class="cls-5" y1="16" x2="24" y2="16"/><line class="cls-5" x1="12" x2="12" y2="24"/><line class="cls-5" x1="16" x2="16" y2="24"/><line class="cls-5" x1="8" x2="8" y2="24"/><g class="cls-6"><g class="cls-7"><circle class="cls-8" cx="12" cy="12" r="10"/></g></g><g class="cls-6"><g class="cls-9"><path class="cls-10" d="M6.67,2H17.33A2.59,2.59,0,0,1,20,4.5v15A2.59,2.59,0,0,1,17.33,22H6.67A2.59,2.59,0,0,1,4,19.5V4.5A2.59,2.59,0,0,1,6.67,2Z"/></g></g><g class="cls-6"><g class="cls-11"><path class="cls-10" d="M22,6.67V17.33A2.59,2.59,0,0,1,19.5,20H4.5A2.59,2.59,0,0,1,2,17.33V6.67A2.59,2.59,0,0,1,4.5,4h15A2.59,2.59,0,0,1,22,6.67Z"/></g></g><g class="cls-6"><g class="cls-12"><rect class="cls-10" x="3" y="3" width="18" height="18" rx="2.57" ry="2.57"/></g></g><g class="cls-6"><g class="cls-13"><circle class="cls-10" cx="12" cy="12" r="5"/></g></g><g class="cls-14"><g class="cls-15"><line class="cls-8" x2="24" y2="24"/></g></g><g class="cls-14"><g class="cls-15"><line class="cls-8" x1="24" y2="24"/></g></g></g></g></g></g><polygon points="22.01 4.99 2.02 5.05 2.02 3.05 22.01 2.99 22.01 4.99"/><polygon points="22.01 8.99 2.02 9.05 2.02 7.05 22.01 6.99 22.01 8.99"/><polygon points="13.01 12.99 2.02 13.05 2.02 11.05 13.01 10.99 13.01 12.99"/><polygon points="13.01 16.99 2.02 17.05 2.02 15.05 13.01 14.99 13.01 16.99"/><polygon points="13.01 20.99 2.02 21.05 2.02 19.05 13.01 18.99 13.01 20.99"/><path d="M21,15v-1.5a2.5,2.5,0,0,0-5,0V15a1.08,1.08,0,0,0-1,1v4a1.08,1.08,0,0,0,1,1h5a1.08,1.08,0,0,0,1-1V16A1.08,1.08,0,0,0,21,15Zm-1,0H17v-1.5a1.5,1.5,0,0,1,3,0Z"/></svg>