<svg id="Layer_1" data-name="Layer 1" xmlns="http://www.w3.org/2000/svg" viewBox="0 0 24 24"><title>eos-constraint</title><polygon points="22.01 4.99 2.02 5.05 2.02 3.05 22.01 2.99 22.01 4.99"/><polygon points="22.01 8.99 2.02 9.05 2.02 7.05 22.01 6.99 22.01 8.99"/><polygon points="13.01 12.99 2.02 13.05 2.02 11.05 13.01 10.99 13.01 12.99"/><polygon points="13.01 16.99 2.02 17.05 2.02 15.05 13.01 14.99 13.01 16.99"/><polygon points="13.01 20.99 2.02 21.05 2.02 19.05 13.01 18.99 13.01 20.99"/><path d="M21,15v-1.5a2.5,2.5,0,0,0-5,0V15a1.08,1.08,0,0,0-1,1v4a1.08,1.08,0,0,0,1,1h5a1.08,1.08,0,0,0,1-1V16A1.08,1.08,0,0,0,21,15Zm-1,0H17v-1.5a1.5,1.5,0,0,1,3,0Z"/></svg>