<?xml version="1.0" encoding="utf-8"?>
<!-- Generator: Adobe Illustrator 24.1.2, SVG Export Plug-In . SVG Version: 6.00 Build 0)  -->
<svg version="1.1" id="Layer_1" xmlns="http://www.w3.org/2000/svg" xmlns:xlink="http://www.w3.org/1999/xlink" x="0px" y="0px"
	 viewBox="0 0 42.5 37.3" style="enable-background:new 0 0 42.5 37.3;" xml:space="preserve">
<style type="text/css">
	.st0{fill:#808080;}
</style>
<g id="Layer_1_1_">
	<g>
		<path class="st0" d="M40.8,35.1h-4.5c-0.3,0-0.6-0.3-0.6-0.6v-2.3h4.4c0.4,0,0.7-0.3,0.7-0.7s-0.3-0.7-0.7-0.7h-4.4v-2.2
			c0-0.3,0.3-0.6,0.6-0.6h4.5c0.4,0,0.7-0.3,0.7-0.7c0-0.4-0.3-0.7-0.7-0.7h-4.5c-1.1,0-2.1,0.9-2.1,2.1v5.9c0,1.1,0.9,2.1,2.1,2.1
			h4.5c0.4,0,0.7-0.3,0.7-0.7C41.6,35.4,41.2,35.1,40.8,35.1 M27.6,30.8c-1-0.2-1.6-0.4-2-0.6c-0.4-0.2-0.6-0.6-0.6-1
			c0-0.4,0.2-0.8,0.6-1.1c0.4-0.3,0.9-0.4,1.6-0.4c0.7,0,1.3,0.1,1.7,0.4c0.2,0.1,0.4,0.3,0.6,0.6c0.3,0.4,0.8,0.4,1.1,0.1
			c0.3-0.3,0.3-0.8,0.1-1.1c-0.3-0.4-0.7-0.7-1.2-0.9c-0.6-0.3-1.4-0.5-2.3-0.5c-0.8,0-1.5,0.1-2.1,0.4c-0.6,0.3-1,0.6-1.4,1.1
			c-0.3,0.5-0.5,1-0.5,1.5c0,0.5,0.1,1,0.4,1.4c0.2,0.4,0.6,0.7,1.2,0.9c0.5,0.3,1.3,0.5,2.2,0.6c0.9,0.2,1.6,0.4,1.9,0.6
			c0.4,0.2,0.6,0.5,0.6,0.9c0,0.5-0.2,0.8-0.6,1c-0.4,0.2-1,0.4-1.7,0.4c-0.8,0-1.4-0.1-1.9-0.4c-0.3-0.2-0.5-0.4-0.8-0.6
			c-0.3-0.3-0.8-0.3-1.1,0l0,0c-0.3,0.3-0.3,0.8,0,1.1c0.9,1,2.1,1.4,3.8,1.4c0.8,0,1.5-0.1,2.1-0.4c0.6-0.2,1.1-0.6,1.4-1
			s0.5-1,0.5-1.5c0-0.5-0.1-1-0.4-1.4c-0.2-0.4-0.6-0.7-1.2-0.9C29.2,31.2,28.5,31,27.6,30.8 M5.3,30.8c-1-0.2-1.6-0.4-2-0.6
			s-0.6-0.6-0.6-1c0-0.4,0.2-0.8,0.6-1.1c0.4-0.3,0.9-0.4,1.6-0.4c0.7,0,1.3,0.1,1.7,0.4c0.2,0.1,0.4,0.3,0.6,0.6
			c0.3,0.4,0.8,0.4,1.1,0.1c0.3-0.3,0.3-0.8,0.1-1.1c-0.3-0.4-0.7-0.7-1.2-0.9c-0.6-0.3-1.4-0.5-2.3-0.5c-0.8,0-1.5,0.1-2.1,0.4
			c-0.6,0.3-1,0.6-1.4,1.1c-0.3,0.5-0.5,1-0.5,1.5c0,0.5,0.1,1,0.4,1.4c0.2,0.4,0.6,0.7,1.2,0.9c0.5,0.3,1.3,0.5,2.2,0.6
			c0.9,0.2,1.6,0.4,1.9,0.6c0.4,0.2,0.6,0.5,0.6,0.9c0,0.5-0.2,0.8-0.6,1c-0.4,0.2-1,0.4-1.7,0.4c-0.8,0-1.4-0.1-1.9-0.4
			c-0.3-0.2-0.6-0.4-0.8-0.6c-0.3-0.3-0.8-0.3-1.1,0l0,0c-0.3,0.3-0.3,0.8,0,1.1c0.9,1,2.1,1.4,3.9,1.4c0.8,0,1.5-0.1,2.1-0.4
			c0.6-0.2,1.1-0.6,1.4-1c0.3-0.4,0.5-1,0.5-1.5c0-0.5-0.1-1-0.4-1.4c-0.2-0.4-0.6-0.7-1.2-0.9C6.9,31.2,6.2,31,5.3,30.8 M20.1,27.2
			v5.5c0,1.3-0.3,2.3-1,3c-0.7,0.7-1.7,1-3,1c-1.3,0-2.3-0.3-3-1c-0.7-0.7-1-1.7-1-3v-5.5c0-0.5,0.4-0.8,0.8-0.8
			c0.4,0,0.8,0.4,0.8,0.8v5.3c0,0.9,0.2,1.6,0.6,2.1c0.4,0.4,1,0.7,1.8,0.7c0.8,0,1.5-0.2,1.8-0.7c0.4-0.4,0.6-1.1,0.6-2.1v-5.3
			c0-0.5,0.4-0.8,0.8-0.8C19.8,26.4,20.1,26.7,20.1,27.2"/>
		<path class="st0" d="M38.7,8.9c-0.2,0.2-0.6,0.2-0.8,0c-0.4-0.3-0.4-0.8-0.1-1.1c0.3-0.3,0.8-0.3,1,0C39.1,8,39.1,8.6,38.7,8.9
			 M39.8,7.3c0.4,1.9-1.2,3.6-3.1,3.1c-1-0.2-1.7-1-1.9-1.9c-0.4-1.9,1.2-3.6,3.1-3.1C38.8,5.5,39.6,6.3,39.8,7.3 M40.2,11.9
			c-0.7-0.1-0.7-0.9,0.2-0.8c0.3,0,1.1,0.1,1.3-0.2c0.1-0.1,0.1-0.4,0.1-0.4c-0.1-2.2-0.3-5.1-3-6.4c-2-0.9-5.1-2.4-6.4-3
			c-0.3-0.1-0.6,0.1-0.6,0.4c0,0.8,0,1.7,0,2.8c0,0.2,0,0.6,0,0.7c-0.1,0-0.2-0.3-0.5-0.5c-0.5-0.4-1.2-0.7-1.9-1.1
			c-0.9-0.4-1.8-0.8-2.8-1.1c-1.9-0.6-3.9-1-5.9-1.2C18.5,1,16.2,1.1,14,1.5C10.3,2.3,6.7,4,4,6.6c-1.7,1.6-3,3.8-3.1,6.1
			c-0.1,3.2,0.8,4.9,2.4,6.7c2.6,2.8,8.3,3.2,10.6-0.1c1-1.5,1.3-3.6,0.5-5.2c-0.8-1.7-2.5-2.9-4.3-2.9c-1.4,0-2.9,0.7-3.5,2
			c-0.4,1-0.2,2.2,0.6,3c0.3,0.3,0.7,0.6,1.1,0.5c0.3-0.1,0.5-0.2,0.5-0.5c0.1-0.4-0.3-0.6-0.5-0.9c-0.4-0.5-0.3-1.3,0.2-1.8
			c0.4-0.4,1-0.5,1.5-0.5c0.5,0,1,0.1,1.5,0.4c0.6,0.4,1,1,1.2,1.7c0.4,2.1-1.3,3.8-3.6,4c-1.2,0.1-2.4-0.2-3.3-1
			c-2.4-1.9-2.9-5.8-0.2-7.8c2.6-2,5.8-1.5,7.7-0.4c1.5,0.8,2.7,2.1,3.5,3.6c0.4,0.7,0.8,1.5,1.1,2.3c0.3,0.8,0.6,1.5,1.3,2.1
			c0.4,0.4,1,0.4,1.5,0.4H24c0.4,0,0.3-0.3,0.1-0.5c-0.4-0.4-1-0.5-1.6-0.7c-1.3-0.4-1.2-2.1-0.8-2.1c1.2,0,1.2,0,2.2,0
			c1.5,0,1.9-0.1,3.1,0.3c0.6,0.2,1.2,0.8,1.6,1.4c0.2,0.3,0.4,0.6,0.5,0.9c0.1,0.2,0.2,0.5,0.3,0.6c0,0,0,0,0,0
			c0.4,0.1,1.3,0.1,1.3,0.1h1.7c0.1,0,1.4,0,1.4-0.1c-0.2-0.7-1-0.8-1.6-1.2c-0.6-0.3-1.1-0.7-1.3-1.4c-0.1-0.3-0.1-1.1,0.2-1.4
			c0.2-0.2,0.4-0.3,0.6-0.4c0.3-0.1,0.6,0,0.8,0c0.3,0,0.7,0.1,1,0.1c0.7,0.1,1.3,0.1,2,0.1c1.1,0,2.2-0.2,3.2-0.6
			c0.7-0.2,0.8-0.3,1.4-0.6C41.4,12.1,40.6,11.9,40.2,11.9"/>
	</g>
</g>
</svg>
