<?xml version="1.0" encoding="utf-8"?>
<!-- Generator: Adobe Illustrator 24.0.3, SVG Export Plug-In . SVG Version: 6.00 Build 0)  -->
<svg version="1.1" id="Layer_1" xmlns="http://www.w3.org/2000/svg" xmlns:xlink="http://www.w3.org/1999/xlink" x="0px" y="0px"
	 viewBox="0 0 89 43" style="enable-background:new 0 0 89 43;" xml:space="preserve">
<style type="text/css">
	.st0{fill:#808080;}
</style>
<g>
	<g>
		<g>
			<path class="st0" d="M67.23,36.4c0,2.71-2.21,5.15-5.42,5.15c-0.1,0-10.1,0-10.1,0v-3.78h10.12c0.62,0,1.37-0.49,1.37-1.37
				c0-0.87-0.54-1.4-1.62-1.57c-0.06-0.01-6.19-0.9-6.24-0.91c-3.26-0.5-4.69-2.96-4.69-5.34c0-2.71,2.21-5.15,5.42-5.15
				c0.1,0,10.1,0,10.1,0v3.78H56.05c-0.62,0-1.37,0.49-1.37,1.37c0,0.87,0.55,1.4,1.62,1.57c0.06,0.01,6.19,0.9,6.24,0.91
				C65.8,31.57,67.23,34.03,67.23,36.4z M45.58,23.43V34.2c0,2.25-1.83,4.08-4.07,4.08c-2.25,0-4.08-1.82-4.08-4.08V23.43h-3.93
				v10.55c0,4.42,3.58,8,8,8c4.42,0,8-3.58,8-8V23.43H45.58z M88.02,40.31c0-0.67-0.55-1.23-1.25-1.23c-0.7,0-1.26,0.56-1.26,1.24
				c0,0.68,0.55,1.23,1.25,1.23C87.47,41.55,88.02,40.99,88.02,40.31z M87.76,40.31c0,0.54-0.43,0.99-1,0.99
				c-0.57,0-0.99-0.44-0.99-0.98c0-0.55,0.43-0.99,1-0.99C87.34,39.33,87.76,39.77,87.76,40.31z M87.31,40.08
				c0-0.24-0.18-0.39-0.47-0.39h-0.53v1.18h0.26v-0.38h0.21l0.25,0.38h0.31l-0.29-0.42C87.2,40.4,87.31,40.28,87.31,40.08z
				 M87.04,40.1c0,0.1-0.07,0.17-0.2,0.17h-0.27v-0.35h0.26C86.96,39.93,87.04,39.98,87.04,40.1z M81.55,27.22
				c1.5-0.04,3.08-1.2,3.08-3.45c0-0.1,0-0.21,0-0.33H73.68c-3.21,0-5.42,2.44-5.42,5.15l0,0c0,0,0,7.78,0,7.82
				c0,2.71,2.21,5.15,5.42,5.15c0.1,0,10.95,0,10.95,0c0-0.12,0-0.24,0-0.33c0-2.25-1.58-3.4-3.08-3.44v0h-7.9
				c-0.62,0-1.37-0.49-1.37-1.37c0-0.87,0.57-1.57,1.62-1.57c1.05,0,3.36,0,3.42,0c3.01-0.02,4.75-1.86,5.29-3.97h-8.23
				c-1.48,0-2.1,1.17-2.1,1.17v-3.45c0-0.88,0.75-1.37,1.37-1.37H81.55z M27.83,31.06c-0.06-0.01-6.18-0.9-6.24-0.91
				c-1.08-0.17-1.62-0.7-1.62-1.57c0-0.88,0.75-1.37,1.37-1.37h10.12v-3.78c0,0-10,0-10.1,0c-3.21,0-5.42,2.44-5.42,5.15
				c0,2.37,1.43,4.83,4.69,5.34c0.06,0.01,6.19,0.9,6.24,0.91c1.08,0.17,1.62,0.7,1.62,1.57c0,0.87-0.75,1.37-1.38,1.37h-7.4v0
				c-1.5,0.05-3.08,1.19-3.08,3.44c0,0.1,0,0.21,0,0.33c0,0,10.42,0,10.45,0c3.2,0,5.42-2.44,5.42-5.15
				C32.52,34.03,31.1,31.57,27.83,31.06z"/>
		</g>
	</g>
	<g>
		<path class="st0" d="M38,2.1c0,0-0.03,1.44-0.03,1.6c-0.71-0.24-5.85-1.9-10.68-2.07C23.2,1.49,17.62,1.29,9.72,6.15L9.49,6.29
			c-3.71,2.32-6.28,5.17-7.62,8.49c-0.42,1.04-0.99,3.4-0.43,5.62c0.24,0.97,0.69,1.94,1.3,2.82c1.37,1.97,3.67,3.28,6.15,3.5
			c3.5,0.31,6.15-1.26,7.09-4.2c0.65-2.03,0-5.01-2.48-6.53c-2.02-1.24-4.19-0.96-5.45-0.12c-1.09,0.73-1.71,1.85-1.7,3.09
			c0.03,2.19,1.92,3.36,3.27,3.36c0.4,0,0.79-0.07,1.24-0.21c0.16-0.05,0.31-0.11,0.47-0.21l0.05-0.03l0.03-0.02l-0.01,0.01
			c0.31-0.21,0.5-0.55,0.5-0.92c0-0.1-0.02-0.2-0.04-0.31c-0.16-0.55-0.71-0.89-1.28-0.79l-0.08,0.01l-0.1,0.03l-0.15,0.05
			c-0.31,0.08-0.55,0.08-0.6,0.09c-0.16-0.01-0.94-0.24-0.94-1.1V18.9c0-0.32,0.13-0.53,0.2-0.66c0.24-0.38,0.91-0.76,1.81-0.68
			c1.18,0.1,2.03,0.71,2.6,1.85c0.53,1.06,0.39,2.37-0.35,3.33c-0.74,0.95-2.04,1.35-3.78,1.16c-1.75-0.19-3.24-1.2-4.07-2.77
			C4.3,19.6,4.26,17.78,5,16.38c1.78-3.35,5.13-3.32,6.97-3c2.61,0.45,6.57,2.79,8.06,8.22h3.62c-0.45-1.38-0.71-5.39,3.37-5.39
			c4.46,0,5.03,3.14,6.29,5.39h3.83c-1.01-1.44-1.72-3.05-1.49-4.4c0.33-1.99,1.92-1.81,4.11-1.56c0.72,0.08,1.53,0.18,2.38,0.19
			c2.35,0.01,4.49-0.42,6.06-1.1c1.01-0.44,1.66-0.73,2.06-1.1c0.15-0.12,0.22-0.32,0.3-0.53l0.05-0.14
			c0.07-0.17,0.15-0.53,0.2-0.73c0.1-0.4-0.25-0.19-0.25-0.19c-0.69,0.41-2.4,1.2-4.01,1.23c-1.99,0.04-6.01-2-6.43-2.22l-0.04-0.05
			c-0.1-0.24-0.7-1.67-0.83-1.97c2.89,1.9,5.29,2.96,7.12,3.12c2.04,0.18,3.64-0.93,4.32-1.41c0.07-0.05,0.34-0.23,0.28-0.45
			c-0.27-0.93-1.18-4.04-1.95-4.82c-0.22-0.23-0.4-0.45-0.76-0.66c-2.92-1.7-9.85-2.73-10.18-2.78C38.08,2.04,38,2.02,38,2.1z
			 M42.76,7.83c0.03-0.79,0.36-1.53,0.94-2.06c0.58-0.54,1.33-0.82,2.12-0.8c1.64,0.06,2.92,1.44,2.86,3.07
			c-0.03,0.79-0.36,1.52-0.94,2.06c-0.58,0.54-1.33,0.82-2.13,0.79C43.99,10.84,42.71,9.47,42.76,7.83z"/>
		<path class="st0" d="M45.8,5.85c-0.55-0.02-1.08,0.18-1.48,0.55s-0.64,0.89-0.66,1.44c-0.04,1.14,0.86,2.1,2,2.14
			c0.55,0.02,1.08-0.18,1.48-0.55c0.4-0.38,0.64-0.89,0.65-1.44C47.84,6.84,46.94,5.89,45.8,5.85z M46.14,8.11
			c-0.51,0-0.92-0.27-0.92-0.61c0-0.34,0.41-0.61,0.92-0.61c0.51,0,0.92,0.27,0.92,0.61C47.06,7.83,46.65,8.11,46.14,8.11z"/>
	</g>
</g>
</svg>
