<?xml version="1.0" encoding="utf-8"?>
<!-- Generator: Adobe Illustrator 24.1.2, SVG Export Plug-In . SVG Version: 6.00 Build 0)  -->
<svg version="1.1" id="Layer_1" xmlns="http://www.w3.org/2000/svg" xmlns:xlink="http://www.w3.org/1999/xlink" x="0px" y="0px"
	 viewBox="0 0 129.3 77.6" style="enable-background:new 0 0 129.3 77.6;" xml:space="preserve">
<style type="text/css">
	.st0{fill:#808080;}
</style>
<g transform="translate(-6.39 -32.061)">
	<path class="st0" d="M9.4,94.6v12h9v-12h3v15h-15v-15H9.4z"/>
	<path class="st0" d="M42.5,109.7v-6l-6-9h3.8l3.8,5.3l3.8-5.3h3.7l-6,9v6L42.5,109.7z"/>
	<path class="st0" d="M69.5,94.6v12h9v-12h3v15h-15v-15H69.5z"/>
	<path class="st0" d="M96.6,109.7v-15h3l9,10.7V94.6h3v15h-3l-9-10.3v10.3H96.6z"/>
	<path class="st0" d="M135.7,94.6v15h-3v-15H135.7z"/>
	<path class="st0" d="M79.3,39.6v-7.5H63.1v13.6L79.3,39.6z"/>
	<path class="st0" d="M63.1,32.1h-3L49.3,50.9l13.9-5.3V32.1z"/>
	<path class="st0" d="M63.1,59.6L63.1,59.6z"/>
	<path class="st0" d="M85,37.4l-3.1-5.3h-2.7v7.5L85,37.4z"/>
	<path class="st0" d="M63.1,45.7l-13.9,5.3l13.9,8.7V45.7z"/>
	<path class="st0" d="M63.1,59.6h16.1V39.6l-16.2,6.1L63.1,59.6z"/>
	<path class="st0" d="M85,37.4l-5.7,2.2v20.1h8.5l5-8.7L85,37.4z"/>
	<path class="st0" d="M79.3,69.8h2.7l5.9-10.2h-8.5V69.8z"/>
	<path class="st0" d="M63.1,59.6l16.1,10.2V59.6H63.1z"/>
	<path class="st0" d="M63.1,59.6v10.2h16.1L63.1,59.6L63.1,59.6z"/>
	<path class="st0" d="M63.1,59.6l-13.9-8.7l10.9,18.9h3V59.6L63.1,59.6z"/>
</g>
</svg>
