<svg xmlns="http://www.w3.org/2000/svg" width="25.435" height="20.666" viewBox="0 0 25.435 20.666">
  <g id="_006-twitter-1" data-name="006-twitter-1" transform="translate(0 -48)">
    <g id="Group_532" data-name="Group 532" transform="translate(0 48)">
      <path id="Path_759" data-name="Path 759" d="M25.435,50.447a10.872,10.872,0,0,1-3,.823,5.185,5.185,0,0,0,2.294-2.882,10.421,10.421,0,0,1-3.307,1.262,5.214,5.214,0,0,0-9.02,3.566,5.369,5.369,0,0,0,.121,1.189A14.76,14.76,0,0,1,1.771,48.951a5.216,5.216,0,0,0,1.6,6.969,5.15,5.15,0,0,1-2.356-.642v.057A5.238,5.238,0,0,0,5.2,60.459a5.2,5.2,0,0,1-1.367.172,4.61,4.61,0,0,1-.987-.089,5.264,5.264,0,0,0,4.872,3.632A10.478,10.478,0,0,1,1.248,66.4,9.767,9.767,0,0,1,0,66.326a14.68,14.68,0,0,0,8,2.34A14.739,14.739,0,0,0,22.841,53.828c0-.231-.008-.453-.019-.674A10.4,10.4,0,0,0,25.435,50.447Z" transform="translate(0 -48)" fill="#fff"/>
    </g>
  </g>
</svg>
