<svg xmlns="http://www.w3.org/2000/svg" viewBox="0 0 129.31 77.61"><defs><style>.cls-1{fill:gray;}</style></defs><g id="Layer_2" data-name="Layer 2"><g id="Layer_1-2" data-name="Layer 1"><path class="cls-1" d="M75.55,0H53.76L42.87,18.87,53.76,37.74H75.55L86.44,18.87ZM60.65,28.12H71.42V34.9Zm8.28,7.6H58.16V28.94ZM58.16,26.1V14.59l13.26-5V26.1Zm-2-.81-9.85-6.2,9.85-3.73Zm2-12.86V2H71.42V7.4ZM73.44,8.8l4-1.51,6.69,11.58L79.93,26.1H73.44Zm3-3.29-3,1.13V2h.94ZM54.93,2h1.21V13.2l-9.82,3.72ZM47,21.89l9.19,5.78v8H54.93ZM74.38,35.72h-.94v-7.6h5.32Z"/><path class="cls-1" d="M3,62.57v12h9v-12h3v15H0v-15Z"/><path class="cls-1" d="M36.09,77.61v-6l-6-9h3.76l3.76,5.27,3.8-5.27h3.72l-6,9v6Z"/><path class="cls-1" d="M63.15,62.57v12h9v-12h3v15h-15v-15Z"/><path class="cls-1" d="M90.21,77.61v-15h3l9,10.67V62.57h3v15h-3l-9-10.34V77.61Z"/><path class="cls-1" d="M129.31,62.57v15h-3v-15Z"/></g></g></svg>