<svg id="_002-dribbble-1" data-name="002-dribbble-1" xmlns="http://www.w3.org/2000/svg" width="13" height="13" viewBox="0 0 13 13">
  <path id="Path_753" data-name="Path 753" d="M171.738,2.92a2.768,2.768,0,0,0,.711-1.384,6.373,6.373,0,0,0-6.46-1.1,16.6,16.6,0,0,1,3,4.176A6.8,6.8,0,0,0,171.738,2.92Zm0,0" transform="translate(-161.774)" fill="#fff"/>
  <path id="Path_754" data-name="Path 754" d="M300.431,85.852a7.468,7.468,0,0,1-2.978,1.872c.154.338.3.683.429,1.033a9.375,9.375,0,0,1,1.971-.215,9.262,9.262,0,0,1,3.04.511c0-.044.007-.086.007-.13a6.442,6.442,0,0,0-1.7-4.353A3.776,3.776,0,0,1,300.431,85.852Zm0,0" transform="translate(-289.901 -82.423)" fill="#fff"/>
  <path id="Path_755" data-name="Path 755" d="M5.848,34.663a15.085,15.085,0,0,0,2.568.226,13.837,13.837,0,0,0,3.762-.515A15.762,15.762,0,0,0,9.168,30.3,6.611,6.611,0,0,0,5.848,34.663Zm0,0" transform="translate(-5.699 -29.531)" fill="#fff"/>
  <path id="Path_756" data-name="Path 756" d="M329.135,271.533a8.462,8.462,0,0,0-2.975-.533,8.663,8.663,0,0,0-1.715.173,18.836,18.836,0,0,1,.945,5.369A6.524,6.524,0,0,0,329.135,271.533Zm0,0" transform="translate(-316.207 -264.119)" fill="#fff"/>
  <path id="Path_757" data-name="Path 757" d="M0,219.174a6.561,6.561,0,0,0,2.4,5.01,5.506,5.506,0,0,1,1.349-2.836A7.652,7.652,0,0,1,7.241,219.2c-.129-.333-.27-.659-.419-.981a14.52,14.52,0,0,1-4.106.579,15.855,15.855,0,0,1-2.686-.235c-.019.2-.031.408-.031.616Zm0,0" transform="translate(0 -212.674)" fill="#fff"/>
  <path id="Path_758" data-name="Path 758" d="M123.66,287.017a4.6,4.6,0,0,0-1.207,2.834,6.433,6.433,0,0,0,5.312.7,18.087,18.087,0,0,0-.926-5.477A6.892,6.892,0,0,0,123.66,287.017Zm0,0" transform="translate(-119.344 -277.836)" fill="#fff"/>
</svg>
