<svg xmlns="http://www.w3.org/2000/svg" width="19.754" height="21.549" viewBox="0 0 19.754 21.549">
  <g id="_008-git-1" data-name="008-git-1" transform="translate(-1)">
    <path id="Path_760" data-name="Path 760" d="M9.741,5.823a7.012,7.012,0,0,1-2.588.567A3.935,3.935,0,0,0,1.132,9.72h0a3.668,3.668,0,0,0,1.97,3.3v.048a1.992,1.992,0,0,0,.048,3.165v.048A2.73,2.73,0,0,0,1,18.979c0,2.477,2.317,3.165,4.345,3.165,2.47,0,4.307-.9,4.307-3.656,0-3.391-4.8-2.141-4.8-3.983,0-.649.342-.9.935-1.024A3.837,3.837,0,0,0,9,9.526a2.913,2.913,0,0,0-.19-1.01,8.864,8.864,0,0,0,.935-.265ZM5.3,17.6h0c.807,0,1.956.145,1.956,1.2s-.926,1.265-1.79,1.265c-.822,0-2.056-.13-2.056-1.212S4.456,17.6,5.3,17.6Zm-.152-6.229h0c-1.044,0-1.486-.625-1.486-1.625,0-2.371,2.9-2.347,2.9-.023,0,.976-.381,1.649-1.411,1.649Z" transform="translate(0 -0.594)" fill="#fff"/>
    <path id="Path_761" data-name="Path 761" d="M22.3,15.9V13.54a2.562,2.562,0,0,1-1.391.4c-.878,0-1.035-.866-1.035-1.578V7.979c1.506,0,2.423.048,2.423.048V5.742H19.878a13.825,13.825,0,0,1,.071-1.982H17.256a11.788,11.788,0,0,1,.071,1.982H16.188V8.027a3.762,3.762,0,0,1,1.139-.048v.048H17.3v4.218c0,2.092.3,4.122,2.839,4.122A4.581,4.581,0,0,0,22.3,15.9Z" transform="translate(-1.551 -0.384)" fill="#fff"/>
    <path id="Path_762" data-name="Path 762" d="M13.306,0a1.7,1.7,0,0,0-1.638,1.765,1.7,1.7,0,0,0,1.638,1.742,1.7,1.7,0,0,0,1.6-1.742A1.7,1.7,0,0,0,13.306,0Z" transform="translate(-1.089)" fill="#fff"/>
    <path id="Path_763" data-name="Path 763" d="M12.016,5.957c.085.711.076,9.607,0,10.477h2.636c-.076-.865-.085-9.774,0-10.477Z" transform="translate(-1.125 -0.608)" fill="#fff"/>
  </g>
</svg>
