<svg xmlns="http://www.w3.org/2000/svg" width="20.666" height="20.666" viewBox="0 0 20.666 20.666">
  <path id="_004-linkedin-1" data-name="004-linkedin-1" d="M10.333,0A10.333,10.333,0,1,0,20.666,10.333,10.334,10.334,0,0,0,10.333,0Zm-3,15.621H4.814V8.05H7.33ZM6.072,7.016H6.056A1.312,1.312,0,1,1,6.089,4.4a1.312,1.312,0,1,1-.017,2.616ZM16.4,15.621H13.888V11.57c0-1.018-.364-1.712-1.275-1.712a1.378,1.378,0,0,0-1.291.92,1.723,1.723,0,0,0-.083.614v4.228H8.723s.033-6.861,0-7.571H11.24V9.122a2.5,2.5,0,0,1,2.268-1.25c1.656,0,2.9,1.082,2.9,3.408Zm0,0" fill="#fff"/>
</svg>
